<svg width="52" height="13" viewBox="0 0 52 13" fill="none" xmlns="http://www.w3.org/2000/svg">
<path d="M5.23697 3.45L1.86197 11.55C1.80197 11.71 1.71197 11.835 1.59197 11.925C1.47197 12.015 1.33697 12.06 1.18697 12.06C0.966973 12.06 0.801973 12 0.691973 11.88C0.581973 11.75 0.521973 11.59 0.511973 11.4C0.511973 11.33 0.526973 11.25 0.556973 11.16L4.36697 1.95C4.43697 1.78 4.53697 1.65 4.66697 1.56C4.80697 1.47 4.95697 1.43 5.11697 1.44C5.26697 1.44 5.40697 1.485 5.53697 1.575C5.66697 1.665 5.76197 1.79 5.82197 1.95L9.58697 11.025C9.62697 11.125 9.64697 11.225 9.64697 11.325C9.64697 11.545 9.57197 11.725 9.42197 11.865C9.28197 11.995 9.12197 12.06 8.94197 12.06C8.79197 12.06 8.65197 12.015 8.52197 11.925C8.40197 11.825 8.31197 11.7 8.25197 11.55L4.84697 3.495L5.23697 3.45ZM2.46197 9.42L3.13697 7.98H7.38197L7.63697 9.42H2.46197ZM10.7678 4.2H14.2928C14.4928 4.2 14.6578 4.27 14.7878 4.41C14.9278 4.54 14.9978 4.705 14.9978 4.905C14.9978 5.095 14.9278 5.255 14.7878 5.385C14.6578 5.515 14.4928 5.58 14.2928 5.58H10.7678C10.5678 5.58 10.3978 5.515 10.2578 5.385C10.1278 5.245 10.0628 5.08 10.0628 4.89C10.0628 4.69 10.1278 4.525 10.2578 4.395C10.3978 4.265 10.5678 4.2 10.7678 4.2ZM12.3428 2.25C12.5628 2.25 12.7428 2.325 12.8828 2.475C13.0228 2.615 13.0928 2.795 13.0928 3.015V9.975C13.0928 10.155 13.1228 10.3 13.1828 10.41C13.2428 10.52 13.3228 10.595 13.4228 10.635C13.5328 10.675 13.6428 10.695 13.7528 10.695C13.8628 10.695 13.9578 10.675 14.0378 10.635C14.1278 10.595 14.2328 10.575 14.3528 10.575C14.4728 10.575 14.5828 10.63 14.6828 10.74C14.7828 10.85 14.8328 11 14.8328 11.19C14.8328 11.43 14.7028 11.625 14.4428 11.775C14.1828 11.925 13.9028 12 13.6028 12C13.4328 12 13.2328 11.985 13.0028 11.955C12.7728 11.925 12.5478 11.85 12.3278 11.73C12.1178 11.61 11.9428 11.42 11.8028 11.16C11.6628 10.89 11.5928 10.515 11.5928 10.035V3.015C11.5928 2.795 11.6628 2.615 11.8028 2.475C11.9528 2.325 12.1328 2.25 12.3428 2.25ZM18.2789 11.235C18.2789 11.455 18.2039 11.64 18.0539 11.79C17.9139 11.93 17.7389 12 17.5289 12C17.3189 12 17.1389 11.93 16.9889 11.79C16.8489 11.64 16.7789 11.455 16.7789 11.235V1.665C16.7789 1.445 16.8539 1.265 17.0039 1.125C17.1539 0.975 17.3339 0.9 17.5439 0.9C17.7639 0.9 17.9389 0.975 18.0689 1.125C18.2089 1.265 18.2789 1.445 18.2789 1.665V11.235ZM26.9764 3.99C27.1964 3.99 27.3764 4.065 27.5164 4.215C27.6564 4.355 27.7264 4.535 27.7264 4.755V11.235C27.7264 11.455 27.6564 11.64 27.5164 11.79C27.3764 11.93 27.1964 12 26.9764 12C26.7664 12 26.5864 11.93 26.4364 11.79C26.2964 11.64 26.2264 11.455 26.2264 11.235V10.155L26.5414 10.2C26.5414 10.38 26.4664 10.58 26.3164 10.8C26.1764 11.02 25.9814 11.235 25.7314 11.445C25.4814 11.645 25.1864 11.815 24.8464 11.955C24.5064 12.085 24.1414 12.15 23.7514 12.15C23.0614 12.15 22.4414 11.975 21.8914 11.625C21.3414 11.265 20.9064 10.775 20.5864 10.155C20.2664 9.535 20.1064 8.83 20.1064 8.04C20.1064 7.23 20.2664 6.52 20.5864 5.91C20.9064 5.29 21.3364 4.805 21.8764 4.455C22.4264 4.105 23.0364 3.93 23.7064 3.93C24.1364 3.93 24.5314 4 24.8914 4.14C25.2614 4.28 25.5814 4.46 25.8514 4.68C26.1214 4.9 26.3264 5.135 26.4664 5.385C26.6164 5.625 26.6914 5.855 26.6914 6.075L26.2264 6.12V4.755C26.2264 4.545 26.2964 4.365 26.4364 4.215C26.5864 4.065 26.7664 3.99 26.9764 3.99ZM23.9164 10.77C24.3864 10.77 24.8014 10.65 25.1614 10.41C25.5214 10.17 25.8014 9.845 26.0014 9.435C26.2014 9.015 26.3014 8.55 26.3014 8.04C26.3014 7.52 26.2014 7.055 26.0014 6.645C25.8014 6.235 25.5214 5.91 25.1614 5.67C24.8014 5.43 24.3864 5.31 23.9164 5.31C23.4564 5.31 23.0464 5.43 22.6864 5.67C22.3364 5.91 22.0564 6.235 21.8464 6.645C21.6464 7.055 21.5464 7.52 21.5464 8.04C21.5464 8.55 21.6464 9.015 21.8464 9.435C22.0564 9.845 22.3364 10.17 22.6864 10.41C23.0464 10.65 23.4564 10.77 23.9164 10.77ZM33.8928 3.93C34.6028 3.93 35.1528 4.08 35.5428 4.38C35.9328 4.67 36.2028 5.065 36.3528 5.565C36.5128 6.055 36.5928 6.605 36.5928 7.215V11.235C36.5928 11.455 36.5178 11.64 36.3678 11.79C36.2278 11.93 36.0528 12 35.8428 12C35.6228 12 35.4428 11.93 35.3028 11.79C35.1628 11.64 35.0928 11.455 35.0928 11.235V7.23C35.0928 6.87 35.0428 6.55 34.9428 6.27C34.8428 5.98 34.6678 5.75 34.4178 5.58C34.1778 5.4 33.8378 5.31 33.3978 5.31C32.9878 5.31 32.6278 5.4 32.3178 5.58C32.0078 5.75 31.7628 5.98 31.5828 6.27C31.4128 6.55 31.3278 6.87 31.3278 7.23V11.235C31.3278 11.455 31.2528 11.64 31.1028 11.79C30.9628 11.93 30.7878 12 30.5778 12C30.3578 12 30.1778 11.93 30.0378 11.79C29.8978 11.64 29.8278 11.455 29.8278 11.235V4.875C29.8278 4.655 29.8978 4.475 30.0378 4.335C30.1778 4.185 30.3578 4.11 30.5778 4.11C30.7878 4.11 30.9628 4.185 31.1028 4.335C31.2528 4.475 31.3278 4.655 31.3278 4.875V5.715L31.0578 5.865C31.1278 5.645 31.2478 5.425 31.4178 5.205C31.5978 4.975 31.8128 4.765 32.0628 4.575C32.3128 4.375 32.5928 4.22 32.9028 4.11C33.2128 3.99 33.5428 3.93 33.8928 3.93ZM38.5705 4.2H42.0955C42.2955 4.2 42.4605 4.27 42.5905 4.41C42.7305 4.54 42.8005 4.705 42.8005 4.905C42.8005 5.095 42.7305 5.255 42.5905 5.385C42.4605 5.515 42.2955 5.58 42.0955 5.58H38.5705C38.3705 5.58 38.2005 5.515 38.0605 5.385C37.9305 5.245 37.8655 5.08 37.8655 4.89C37.8655 4.69 37.9305 4.525 38.0605 4.395C38.2005 4.265 38.3705 4.2 38.5705 4.2ZM40.1455 2.25C40.3655 2.25 40.5455 2.325 40.6855 2.475C40.8255 2.615 40.8955 2.795 40.8955 3.015V9.975C40.8955 10.155 40.9255 10.3 40.9855 10.41C41.0455 10.52 41.1255 10.595 41.2255 10.635C41.3355 10.675 41.4455 10.695 41.5555 10.695C41.6655 10.695 41.7605 10.675 41.8405 10.635C41.9305 10.595 42.0355 10.575 42.1555 10.575C42.2755 10.575 42.3855 10.63 42.4855 10.74C42.5855 10.85 42.6355 11 42.6355 11.19C42.6355 11.43 42.5055 11.625 42.2455 11.775C41.9855 11.925 41.7055 12 41.4055 12C41.2355 12 41.0355 11.985 40.8055 11.955C40.5755 11.925 40.3505 11.85 40.1305 11.73C39.9205 11.61 39.7455 11.42 39.6055 11.16C39.4655 10.89 39.3955 10.515 39.3955 10.035V3.015C39.3955 2.795 39.4655 2.615 39.6055 2.475C39.7555 2.325 39.9355 2.25 40.1455 2.25ZM50.9266 3.99C51.1466 3.99 51.3266 4.065 51.4666 4.215C51.6066 4.355 51.6766 4.535 51.6766 4.755V11.235C51.6766 11.455 51.6066 11.64 51.4666 11.79C51.3266 11.93 51.1466 12 50.9266 12C50.7166 12 50.5366 11.93 50.3866 11.79C50.2466 11.64 50.1766 11.455 50.1766 11.235V10.155L50.4916 10.2C50.4916 10.38 50.4166 10.58 50.2666 10.8C50.1266 11.02 49.9316 11.235 49.6816 11.445C49.4316 11.645 49.1366 11.815 48.7966 11.955C48.4566 12.085 48.0916 12.15 47.7016 12.15C47.0116 12.15 46.3916 11.975 45.8416 11.625C45.2916 11.265 44.8566 10.775 44.5366 10.155C44.2166 9.535 44.0566 8.83 44.0566 8.04C44.0566 7.23 44.2166 6.52 44.5366 5.91C44.8566 5.29 45.2866 4.805 45.8266 4.455C46.3766 4.105 46.9866 3.93 47.6566 3.93C48.0866 3.93 48.4816 4 48.8416 4.14C49.2116 4.28 49.5316 4.46 49.8016 4.68C50.0716 4.9 50.2766 5.135 50.4166 5.385C50.5666 5.625 50.6416 5.855 50.6416 6.075L50.1766 6.12V4.755C50.1766 4.545 50.2466 4.365 50.3866 4.215C50.5366 4.065 50.7166 3.99 50.9266 3.99ZM47.8666 10.77C48.3366 10.77 48.7516 10.65 49.1116 10.41C49.4716 10.17 49.7516 9.845 49.9516 9.435C50.1516 9.015 50.2516 8.55 50.2516 8.04C50.2516 7.52 50.1516 7.055 49.9516 6.645C49.7516 6.235 49.4716 5.91 49.1116 5.67C48.7516 5.43 48.3366 5.31 47.8666 5.31C47.4066 5.31 46.9966 5.43 46.6366 5.67C46.2866 5.91 46.0066 6.235 45.7966 6.645C45.5966 7.055 45.4966 7.52 45.4966 8.04C45.4966 8.55 45.5966 9.015 45.7966 9.435C46.0066 9.845 46.2866 10.17 46.6366 10.41C46.9966 10.65 47.4066 10.77 47.8666 10.77Z" fill="#002A56"/>
</svg>
