<svg width="49" height="12" viewBox="0 0 49 12" fill="none" xmlns="http://www.w3.org/2000/svg">
<path d="M5.30047 0.499999C6.22047 0.499999 6.91547 0.724999 7.38547 1.175C7.86547 1.625 8.10547 2.28 8.10547 3.14C8.10547 3.59 7.99547 4 7.77547 4.37C7.56547 4.73 7.25047 5.015 6.83047 5.225C6.42047 5.435 5.90547 5.545 5.28547 5.555L5.31547 5C5.64547 5 6.00047 5.045 6.38047 5.135C6.77047 5.225 7.13547 5.38 7.47547 5.6C7.81547 5.82 8.09547 6.12 8.31547 6.5C8.53547 6.87 8.64547 7.335 8.64547 7.895C8.64547 8.505 8.54547 9.015 8.34547 9.425C8.14547 9.825 7.88047 10.14 7.55047 10.37C7.22047 10.6 6.85547 10.765 6.45547 10.865C6.06547 10.955 5.68047 11 5.30047 11H1.46047C1.25047 11 1.07047 10.93 0.920469 10.79C0.770469 10.64 0.695469 10.455 0.695469 10.235V1.265C0.695469 1.045 0.770469 0.865 0.920469 0.724999C1.07047 0.574999 1.25047 0.499999 1.46047 0.499999H5.30047ZM5.09047 1.97H2.13547L2.31547 1.73V4.955L2.15047 4.79H5.12047C5.48047 4.78 5.79547 4.66 6.06547 4.43C6.34547 4.19 6.48547 3.84 6.48547 3.38C6.48547 2.91 6.36047 2.56 6.11047 2.33C5.86047 2.09 5.52047 1.97 5.09047 1.97ZM5.19547 6.26H2.21047L2.31547 6.155V9.695L2.19547 9.56H5.28547C5.80547 9.56 6.22547 9.425 6.54547 9.155C6.86547 8.875 7.02547 8.455 7.02547 7.895C7.02547 7.425 6.93047 7.075 6.74047 6.845C6.55047 6.615 6.31547 6.46 6.03547 6.38C5.75547 6.3 5.47547 6.26 5.19547 6.26ZM17.8903 7.055C17.8903 7.855 17.7153 8.565 17.3653 9.185C17.0153 9.795 16.5403 10.275 15.9403 10.625C15.3403 10.975 14.6653 11.15 13.9153 11.15C13.1653 11.15 12.4903 10.975 11.8903 10.625C11.2903 10.275 10.8103 9.795 10.4503 9.185C10.1003 8.565 9.92527 7.855 9.92527 7.055C9.92527 6.245 10.1003 5.535 10.4503 4.925C10.8103 4.305 11.2903 3.82 11.8903 3.47C12.4903 3.11 13.1653 2.93 13.9153 2.93C14.6653 2.93 15.3403 3.11 15.9403 3.47C16.5403 3.82 17.0153 4.305 17.3653 4.925C17.7153 5.535 17.8903 6.245 17.8903 7.055ZM16.3903 7.055C16.3903 6.505 16.2803 6.03 16.0603 5.63C15.8403 5.22 15.5403 4.9 15.1603 4.67C14.7903 4.43 14.3753 4.31 13.9153 4.31C13.4553 4.31 13.0353 4.43 12.6553 4.67C12.2753 4.9 11.9753 5.22 11.7553 5.63C11.5353 6.03 11.4253 6.505 11.4253 7.055C11.4253 7.585 11.5353 8.055 11.7553 8.465C11.9753 8.875 12.2753 9.195 12.6553 9.425C13.0353 9.655 13.4553 9.77 13.9153 9.77C14.3753 9.77 14.7903 9.655 15.1603 9.425C15.5403 9.195 15.8403 8.875 16.0603 8.465C16.2803 8.055 16.3903 7.585 16.3903 7.055ZM19.1231 9.77C19.0331 9.63 18.9931 9.47 19.0031 9.29C19.0131 9.1 19.1181 8.94 19.3181 8.81C19.4581 8.72 19.6031 8.685 19.7531 8.705C19.9131 8.715 20.0631 8.79 20.2031 8.93C20.4831 9.24 20.7931 9.485 21.1331 9.665C21.4831 9.845 21.9031 9.935 22.3931 9.935C22.5931 9.925 22.7981 9.895 23.0081 9.845C23.2181 9.785 23.3981 9.685 23.5481 9.545C23.6981 9.395 23.7731 9.18 23.7731 8.9C23.7731 8.65 23.6931 8.45 23.5331 8.3C23.3731 8.15 23.1631 8.03 22.9031 7.94C22.6431 7.84 22.3631 7.75 22.0631 7.67C21.7431 7.58 21.4181 7.48 21.0881 7.37C20.7681 7.26 20.4781 7.12 20.2181 6.95C19.9581 6.77 19.7431 6.54 19.5731 6.26C19.4131 5.98 19.3331 5.635 19.3331 5.225C19.3331 4.755 19.4631 4.35 19.7231 4.01C19.9931 3.67 20.3381 3.405 20.7581 3.215C21.1881 3.025 21.6531 2.93 22.1531 2.93C22.4431 2.93 22.7481 2.97 23.0681 3.05C23.3881 3.12 23.6981 3.235 23.9981 3.395C24.2981 3.555 24.5581 3.765 24.7781 4.025C24.8781 4.155 24.9331 4.31 24.9431 4.49C24.9631 4.67 24.8831 4.83 24.7031 4.97C24.5831 5.07 24.4381 5.115 24.2681 5.105C24.0981 5.095 23.9581 5.04 23.8481 4.94C23.6581 4.7 23.4131 4.515 23.1131 4.385C22.8131 4.245 22.4731 4.175 22.0931 4.175C21.9031 4.175 21.7031 4.205 21.4931 4.265C21.2931 4.315 21.1231 4.41 20.9831 4.55C20.8431 4.69 20.7731 4.895 20.7731 5.165C20.7731 5.415 20.8531 5.615 21.0131 5.765C21.1831 5.915 21.4031 6.04 21.6731 6.14C21.9431 6.24 22.2381 6.33 22.5581 6.41C22.8681 6.49 23.1731 6.585 23.4731 6.695C23.7831 6.805 24.0581 6.95 24.2981 7.13C24.5481 7.3 24.7481 7.525 24.8981 7.805C25.0581 8.075 25.1381 8.42 25.1381 8.84C25.1381 9.33 24.9931 9.75 24.7031 10.1C24.4231 10.44 24.0631 10.7 23.6231 10.88C23.1931 11.06 22.7381 11.15 22.2581 11.15C21.6881 11.15 21.1181 11.05 20.5481 10.85C19.9881 10.64 19.5131 10.28 19.1231 9.77ZM26.6462 3.2H30.1712C30.3712 3.2 30.5362 3.27 30.6662 3.41C30.8062 3.54 30.8762 3.705 30.8762 3.905C30.8762 4.095 30.8062 4.255 30.6662 4.385C30.5362 4.515 30.3712 4.58 30.1712 4.58H26.6462C26.4462 4.58 26.2762 4.515 26.1362 4.385C26.0062 4.245 25.9412 4.08 25.9412 3.89C25.9412 3.69 26.0062 3.525 26.1362 3.395C26.2762 3.265 26.4462 3.2 26.6462 3.2ZM28.2212 1.25C28.4412 1.25 28.6212 1.325 28.7612 1.475C28.9012 1.615 28.9712 1.795 28.9712 2.015V8.975C28.9712 9.155 29.0012 9.3 29.0612 9.41C29.1212 9.52 29.2012 9.595 29.3012 9.635C29.4112 9.675 29.5212 9.695 29.6312 9.695C29.7412 9.695 29.8362 9.675 29.9162 9.635C30.0062 9.595 30.1112 9.575 30.2312 9.575C30.3512 9.575 30.4612 9.63 30.5612 9.74C30.6612 9.85 30.7112 10 30.7112 10.19C30.7112 10.43 30.5812 10.625 30.3212 10.775C30.0612 10.925 29.7812 11 29.4812 11C29.3112 11 29.1112 10.985 28.8812 10.955C28.6512 10.925 28.4262 10.85 28.2062 10.73C27.9962 10.61 27.8212 10.42 27.6812 10.16C27.5412 9.89 27.4712 9.515 27.4712 9.035V2.015C27.4712 1.795 27.5412 1.615 27.6812 1.475C27.8312 1.325 28.0112 1.25 28.2212 1.25ZM40.0241 7.055C40.0241 7.855 39.8491 8.565 39.4991 9.185C39.1491 9.795 38.6741 10.275 38.0741 10.625C37.4741 10.975 36.7991 11.15 36.0491 11.15C35.2991 11.15 34.6241 10.975 34.0241 10.625C33.4241 10.275 32.9441 9.795 32.5841 9.185C32.2341 8.565 32.0591 7.855 32.0591 7.055C32.0591 6.245 32.2341 5.535 32.5841 4.925C32.9441 4.305 33.4241 3.82 34.0241 3.47C34.6241 3.11 35.2991 2.93 36.0491 2.93C36.7991 2.93 37.4741 3.11 38.0741 3.47C38.6741 3.82 39.1491 4.305 39.4991 4.925C39.8491 5.535 40.0241 6.245 40.0241 7.055ZM38.5241 7.055C38.5241 6.505 38.4141 6.03 38.1941 5.63C37.9741 5.22 37.6741 4.9 37.2941 4.67C36.9241 4.43 36.5091 4.31 36.0491 4.31C35.5891 4.31 35.1691 4.43 34.7891 4.67C34.4091 4.9 34.1091 5.22 33.8891 5.63C33.6691 6.03 33.5591 6.505 33.5591 7.055C33.5591 7.585 33.6691 8.055 33.8891 8.465C34.1091 8.875 34.4091 9.195 34.7891 9.425C35.1691 9.655 35.5891 9.77 36.0491 9.77C36.5091 9.77 36.9241 9.655 37.2941 9.425C37.6741 9.195 37.9741 8.875 38.1941 8.465C38.4141 8.055 38.5241 7.585 38.5241 7.055ZM45.7869 2.93C46.4969 2.93 47.0469 3.08 47.4369 3.38C47.8269 3.67 48.0969 4.065 48.2469 4.565C48.4069 5.055 48.4869 5.605 48.4869 6.215V10.235C48.4869 10.455 48.4119 10.64 48.2619 10.79C48.1219 10.93 47.9469 11 47.7369 11C47.5169 11 47.3369 10.93 47.1969 10.79C47.0569 10.64 46.9869 10.455 46.9869 10.235V6.23C46.9869 5.87 46.9369 5.55 46.8369 5.27C46.7369 4.98 46.5619 4.75 46.3119 4.58C46.0719 4.4 45.7319 4.31 45.2919 4.31C44.8819 4.31 44.5219 4.4 44.2119 4.58C43.9019 4.75 43.6569 4.98 43.4769 5.27C43.3069 5.55 43.2219 5.87 43.2219 6.23V10.235C43.2219 10.455 43.1469 10.64 42.9969 10.79C42.8569 10.93 42.6819 11 42.4719 11C42.2519 11 42.0719 10.93 41.9319 10.79C41.7919 10.64 41.7219 10.455 41.7219 10.235V3.875C41.7219 3.655 41.7919 3.475 41.9319 3.335C42.0719 3.185 42.2519 3.11 42.4719 3.11C42.6819 3.11 42.8569 3.185 42.9969 3.335C43.1469 3.475 43.2219 3.655 43.2219 3.875V4.715L42.9519 4.865C43.0219 4.645 43.1419 4.425 43.3119 4.205C43.4919 3.975 43.7069 3.765 43.9569 3.575C44.2069 3.375 44.4869 3.22 44.7969 3.11C45.1069 2.99 45.4369 2.93 45.7869 2.93Z" fill="#002A56"/>
</svg>
