<svg width="55" height="15" viewBox="0 0 55 15" fill="none" xmlns="http://www.w3.org/2000/svg">
<path d="M8.03035 2.1C8.25035 2.21 8.37535 2.38 8.40535 2.61C8.44535 2.84 8.39035 3.05 8.24035 3.24C8.13035 3.39 7.98535 3.475 7.80535 3.495C7.63535 3.515 7.46535 3.48 7.29535 3.39C7.00535 3.24 6.70035 3.12 6.38035 3.03C6.06035 2.94 5.72035 2.895 5.36035 2.895C4.79035 2.895 4.27535 2.99 3.81535 3.18C3.36535 3.36 2.97535 3.625 2.64535 3.975C2.31535 4.315 2.06035 4.72 1.88035 5.19C1.71035 5.66 1.62535 6.18 1.62535 6.75C1.62535 7.38 1.72035 7.94 1.91035 8.43C2.10035 8.91 2.36035 9.32 2.69035 9.66C3.03035 9.99 3.42535 10.24 3.87535 10.41C4.33535 10.57 4.83035 10.65 5.36035 10.65C5.70035 10.65 6.03035 10.61 6.35035 10.53C6.68035 10.45 6.99035 10.33 7.28035 10.17C7.46035 10.08 7.63535 10.05 7.80535 10.08C7.98535 10.1 8.13035 10.185 8.24035 10.335C8.41035 10.545 8.47035 10.76 8.42035 10.98C8.38035 11.19 8.25535 11.35 8.04535 11.46C7.79535 11.6 7.52035 11.72 7.22035 11.82C6.92035 11.92 6.61535 12 6.30535 12.06C5.99535 12.12 5.68035 12.15 5.36035 12.15C4.64035 12.15 3.96035 12.03 3.32035 11.79C2.68035 11.55 2.11035 11.2 1.61035 10.74C1.11035 10.28 0.715352 9.715 0.425352 9.045C0.145352 8.375 0.00535158 7.61 0.00535158 6.75C0.00535158 5.98 0.135352 5.27 0.395352 4.62C0.665352 3.96 1.04035 3.395 1.52035 2.925C2.01035 2.445 2.58035 2.075 3.23035 1.815C3.88035 1.545 4.59035 1.41 5.36035 1.41C5.84035 1.41 6.30535 1.47 6.75535 1.59C7.21535 1.71 7.64035 1.88 8.03035 2.1ZM16.4115 3.99C16.6315 3.99 16.8115 4.065 16.9515 4.215C17.0915 4.355 17.1615 4.535 17.1615 4.755V11.235C17.1615 11.455 17.0915 11.64 16.9515 11.79C16.8115 11.93 16.6315 12 16.4115 12C16.2015 12 16.0215 11.93 15.8715 11.79C15.7315 11.64 15.6615 11.455 15.6615 11.235V10.155L15.9765 10.2C15.9765 10.38 15.9015 10.58 15.7515 10.8C15.6115 11.02 15.4165 11.235 15.1665 11.445C14.9165 11.645 14.6215 11.815 14.2815 11.955C13.9415 12.085 13.5765 12.15 13.1865 12.15C12.4965 12.15 11.8765 11.975 11.3265 11.625C10.7765 11.265 10.3415 10.775 10.0215 10.155C9.70148 9.535 9.54148 8.83 9.54148 8.04C9.54148 7.23 9.70148 6.52 10.0215 5.91C10.3415 5.29 10.7715 4.805 11.3115 4.455C11.8615 4.105 12.4715 3.93 13.1415 3.93C13.5715 3.93 13.9665 4 14.3265 4.14C14.6965 4.28 15.0165 4.46 15.2865 4.68C15.5565 4.9 15.7615 5.135 15.9015 5.385C16.0515 5.625 16.1265 5.855 16.1265 6.075L15.6615 6.12V4.755C15.6615 4.545 15.7315 4.365 15.8715 4.215C16.0215 4.065 16.2015 3.99 16.4115 3.99ZM13.3515 10.77C13.8215 10.77 14.2365 10.65 14.5965 10.41C14.9565 10.17 15.2365 9.845 15.4365 9.435C15.6365 9.015 15.7365 8.55 15.7365 8.04C15.7365 7.52 15.6365 7.055 15.4365 6.645C15.2365 6.235 14.9565 5.91 14.5965 5.67C14.2365 5.43 13.8215 5.31 13.3515 5.31C12.8915 5.31 12.4815 5.43 12.1215 5.67C11.7715 5.91 11.4915 6.235 11.2815 6.645C11.0815 7.055 10.9815 7.52 10.9815 8.04C10.9815 8.55 11.0815 9.015 11.2815 9.435C11.4915 9.845 11.7715 10.17 12.1215 10.41C12.4815 10.65 12.8915 10.77 13.3515 10.77ZM20.8829 11.235C20.8829 11.455 20.8079 11.64 20.6579 11.79C20.5179 11.93 20.3429 12 20.1329 12C19.9229 12 19.7429 11.93 19.5929 11.79C19.4529 11.64 19.3829 11.455 19.3829 11.235V1.665C19.3829 1.445 19.4579 1.265 19.6079 1.125C19.7579 0.975 19.9379 0.9 20.1479 0.9C20.3679 0.9 20.5429 0.975 20.6729 1.125C20.8129 1.265 20.8829 1.445 20.8829 1.665V11.235ZM26.2539 3.93C26.6839 3.93 27.0789 4 27.4389 4.14C27.7989 4.28 28.1089 4.46 28.3689 4.68C28.6389 4.89 28.8489 5.11 28.9989 5.34C29.1489 5.57 29.2239 5.77 29.2239 5.94L28.8789 5.955V4.755C28.8789 4.545 28.9489 4.365 29.0889 4.215C29.2289 4.065 29.4089 3.99 29.6289 3.99C29.8489 3.99 30.0289 4.065 30.1689 4.215C30.3089 4.355 30.3789 4.535 30.3789 4.755V11.37C30.3789 12.22 30.1989 12.91 29.8389 13.44C29.4789 13.98 28.9989 14.375 28.3989 14.625C27.8089 14.875 27.1589 15 26.4489 15C26.1989 15 25.9039 14.965 25.5639 14.895C25.2239 14.835 24.9089 14.76 24.6189 14.67C24.3389 14.58 24.1439 14.49 24.0339 14.4C23.8039 14.28 23.6489 14.14 23.5689 13.98C23.4989 13.82 23.4989 13.66 23.5689 13.5C23.6689 13.28 23.8039 13.145 23.9739 13.095C24.1439 13.045 24.3389 13.06 24.5589 13.14C24.6589 13.17 24.8139 13.225 25.0239 13.305C25.2339 13.385 25.4689 13.455 25.7289 13.515C25.9889 13.585 26.2339 13.62 26.4639 13.62C27.2639 13.62 27.8639 13.435 28.2639 13.065C28.6739 12.695 28.8789 12.19 28.8789 11.55V10.2L29.0439 10.305C29.0139 10.515 28.9189 10.73 28.7589 10.95C28.6089 11.16 28.4089 11.355 28.1589 11.535C27.9089 11.715 27.6189 11.865 27.2889 11.985C26.9689 12.095 26.6389 12.15 26.2989 12.15C25.5889 12.15 24.9539 11.975 24.3939 11.625C23.8339 11.265 23.3889 10.78 23.0589 10.17C22.7289 9.55 22.5639 8.84 22.5639 8.04C22.5639 7.24 22.7289 6.535 23.0589 5.925C23.3889 5.305 23.8289 4.82 24.3789 4.47C24.9389 4.11 25.5639 3.93 26.2539 3.93ZM26.4789 5.31C25.9889 5.31 25.5589 5.43 25.1889 5.67C24.8189 5.91 24.5289 6.235 24.3189 6.645C24.1089 7.055 24.0039 7.52 24.0039 8.04C24.0039 8.56 24.1089 9.025 24.3189 9.435C24.5289 9.845 24.8189 10.17 25.1889 10.41C25.5589 10.65 25.9889 10.77 26.4789 10.77C26.9689 10.77 27.3989 10.655 27.7689 10.425C28.1389 10.185 28.4289 9.86 28.6389 9.45C28.8489 9.03 28.9539 8.56 28.9539 8.04C28.9539 7.52 28.8489 7.055 28.6389 6.645C28.4289 6.225 28.1389 5.9 27.7689 5.67C27.3989 5.43 26.9689 5.31 26.4789 5.31ZM38.8529 3.99C39.0729 3.99 39.2529 4.065 39.3929 4.215C39.5329 4.355 39.6029 4.535 39.6029 4.755V11.235C39.6029 11.455 39.5329 11.64 39.3929 11.79C39.2529 11.93 39.0729 12 38.8529 12C38.6429 12 38.4629 11.93 38.3129 11.79C38.1729 11.64 38.1029 11.455 38.1029 11.235V10.155L38.4179 10.2C38.4179 10.38 38.3429 10.58 38.1929 10.8C38.0529 11.02 37.8579 11.235 37.6079 11.445C37.3579 11.645 37.0629 11.815 36.7229 11.955C36.3829 12.085 36.0179 12.15 35.6279 12.15C34.9379 12.15 34.3179 11.975 33.7679 11.625C33.2179 11.265 32.7829 10.775 32.4629 10.155C32.1429 9.535 31.9829 8.83 31.9829 8.04C31.9829 7.23 32.1429 6.52 32.4629 5.91C32.7829 5.29 33.2129 4.805 33.7529 4.455C34.3029 4.105 34.9129 3.93 35.5829 3.93C36.0129 3.93 36.4079 4 36.7679 4.14C37.1379 4.28 37.4579 4.46 37.7279 4.68C37.9979 4.9 38.2029 5.135 38.3429 5.385C38.4929 5.625 38.5679 5.855 38.5679 6.075L38.1029 6.12V4.755C38.1029 4.545 38.1729 4.365 38.3129 4.215C38.4629 4.065 38.6429 3.99 38.8529 3.99ZM35.7929 10.77C36.2629 10.77 36.6779 10.65 37.0379 10.41C37.3979 10.17 37.6779 9.845 37.8779 9.435C38.0779 9.015 38.1779 8.55 38.1779 8.04C38.1779 7.52 38.0779 7.055 37.8779 6.645C37.6779 6.235 37.3979 5.91 37.0379 5.67C36.6779 5.43 36.2629 5.31 35.7929 5.31C35.3329 5.31 34.9229 5.43 34.5629 5.67C34.2129 5.91 33.9329 6.235 33.7229 6.645C33.5229 7.055 33.4229 7.52 33.4229 8.04C33.4229 8.55 33.5229 9.015 33.7229 9.435C33.9329 9.845 34.2129 10.17 34.5629 10.41C34.9229 10.65 35.3329 10.77 35.7929 10.77ZM42.4543 12C42.2343 12 42.0543 11.93 41.9143 11.79C41.7743 11.64 41.7043 11.455 41.7043 11.235V4.875C41.7043 4.655 41.7743 4.475 41.9143 4.335C42.0543 4.185 42.2343 4.11 42.4543 4.11C42.6643 4.11 42.8393 4.185 42.9793 4.335C43.1293 4.475 43.2043 4.655 43.2043 4.875V6.555L43.0543 5.91C43.1343 5.63 43.2543 5.37 43.4143 5.13C43.5843 4.89 43.7843 4.68 44.0143 4.5C44.2443 4.32 44.4993 4.18 44.7793 4.08C45.0693 3.98 45.3693 3.93 45.6793 3.93C45.9393 3.93 46.1643 4 46.3543 4.14C46.5443 4.28 46.6393 4.455 46.6393 4.665C46.6393 4.935 46.5693 5.135 46.4293 5.265C46.2893 5.385 46.1343 5.445 45.9643 5.445C45.8143 5.445 45.6693 5.415 45.5293 5.355C45.3893 5.285 45.2243 5.25 45.0343 5.25C44.8243 5.25 44.6093 5.305 44.3893 5.415C44.1693 5.525 43.9693 5.69 43.7893 5.91C43.6093 6.12 43.4643 6.37 43.3543 6.66C43.2543 6.95 43.2043 7.275 43.2043 7.635V11.235C43.2043 11.455 43.1293 11.64 42.9793 11.79C42.8393 11.93 42.6643 12 42.4543 12ZM53.8388 4.05C54.0588 4.05 54.2388 4.125 54.3788 4.275C54.5188 4.415 54.5888 4.595 54.5888 4.815V11.265C54.5888 12.145 54.4188 12.86 54.0788 13.41C53.7488 13.96 53.2988 14.36 52.7288 14.61C52.1688 14.87 51.5338 15 50.8238 15C50.4638 15 50.1038 14.965 49.7438 14.895C49.3838 14.835 49.0888 14.745 48.8588 14.625C48.6188 14.515 48.4488 14.38 48.3488 14.22C48.2488 14.06 48.2338 13.885 48.3038 13.695C48.3738 13.455 48.4938 13.29 48.6638 13.2C48.8338 13.12 49.0088 13.115 49.1888 13.185C49.3588 13.255 49.5838 13.345 49.8638 13.455C50.1438 13.565 50.4638 13.62 50.8238 13.62C51.3138 13.62 51.7288 13.54 52.0688 13.38C52.4088 13.22 52.6638 12.97 52.8338 12.63C53.0138 12.29 53.1038 11.85 53.1038 11.31V10.275L53.3438 10.635C53.1838 10.965 52.9738 11.24 52.7138 11.46C52.4538 11.68 52.1438 11.85 51.7838 11.97C51.4338 12.09 51.0438 12.15 50.6138 12.15C50.0638 12.15 49.5888 12.03 49.1888 11.79C48.7988 11.54 48.4988 11.2 48.2888 10.77C48.0788 10.33 47.9738 9.83 47.9738 9.27V4.815C47.9738 4.595 48.0438 4.415 48.1838 4.275C48.3238 4.125 48.5038 4.05 48.7238 4.05C48.9338 4.05 49.1088 4.125 49.2488 4.275C49.3988 4.415 49.4738 4.595 49.4738 4.815V8.865C49.4738 9.525 49.6188 10.01 49.9088 10.32C50.1988 10.62 50.6288 10.77 51.1988 10.77C51.5788 10.77 51.9088 10.69 52.1888 10.53C52.4688 10.37 52.6888 10.15 52.8488 9.87C53.0088 9.58 53.0888 9.245 53.0888 8.865V4.815C53.0888 4.595 53.1588 4.415 53.2988 4.275C53.4488 4.125 53.6288 4.05 53.8388 4.05Z" fill="#002A56"/>
</svg>
