<svg width="76" height="13" viewBox="0 0 76 13" fill="none" xmlns="http://www.w3.org/2000/svg">
<path d="M8.04939 2.1C8.26939 2.21 8.39439 2.38 8.4244 2.61C8.4644 2.84 8.4094 3.05 8.25939 3.24C8.14939 3.39 8.00439 3.475 7.82439 3.495C7.65439 3.515 7.48439 3.48 7.3144 3.39C7.02439 3.24 6.71939 3.12 6.39939 3.03C6.07939 2.94 5.73939 2.895 5.37939 2.895C4.80939 2.895 4.29439 2.99 3.83439 3.18C3.38439 3.36 2.99439 3.625 2.66439 3.975C2.33439 4.315 2.07939 4.72 1.89939 5.19C1.72939 5.66 1.64439 6.18 1.64439 6.75C1.64439 7.38 1.73939 7.94 1.92939 8.43C2.11939 8.91 2.37939 9.32 2.70939 9.66C3.04939 9.99 3.44439 10.24 3.89439 10.41C4.35439 10.57 4.84939 10.65 5.37939 10.65C5.71939 10.65 6.04939 10.61 6.36939 10.53C6.69939 10.45 7.00939 10.33 7.29939 10.17C7.47939 10.08 7.65439 10.05 7.82439 10.08C8.00439 10.1 8.14939 10.185 8.25939 10.335C8.42939 10.545 8.48939 10.76 8.4394 10.98C8.39939 11.19 8.2744 11.35 8.0644 11.46C7.8144 11.6 7.53939 11.72 7.2394 11.82C6.93939 11.92 6.63439 12 6.32439 12.06C6.01439 12.12 5.69939 12.15 5.37939 12.15C4.65939 12.15 3.97939 12.03 3.33939 11.79C2.69939 11.55 2.12939 11.2 1.62939 10.74C1.12939 10.28 0.734395 9.715 0.444395 9.045C0.164395 8.375 0.0243946 7.61 0.0243946 6.75C0.0243946 5.98 0.154395 5.27 0.414395 4.62C0.684395 3.96 1.05939 3.395 1.53939 2.925C2.02939 2.445 2.59939 2.075 3.24939 1.815C3.89939 1.545 4.60939 1.41 5.37939 1.41C5.85939 1.41 6.32439 1.47 6.77439 1.59C7.2344 1.71 7.65939 1.88 8.04939 2.1ZM13.9405 3.975C14.6305 3.975 15.1655 4.125 15.5455 4.425C15.9255 4.715 16.1905 5.11 16.3405 5.61C16.5005 6.11 16.5805 6.66 16.5805 7.26V11.235C16.5805 11.455 16.5055 11.64 16.3555 11.79C16.2155 11.93 16.0405 12 15.8305 12C15.6105 12 15.4305 11.93 15.2905 11.79C15.1505 11.64 15.0805 11.455 15.0805 11.235V7.26C15.0805 6.91 15.0305 6.59 14.9305 6.3C14.8405 6.01 14.6755 5.78 14.4355 5.61C14.2055 5.44 13.8805 5.355 13.4605 5.355C13.0705 5.355 12.7205 5.44 12.4105 5.61C12.1105 5.78 11.8755 6.01 11.7055 6.3C11.5455 6.59 11.4655 6.91 11.4655 7.26V11.235C11.4655 11.455 11.3905 11.64 11.2405 11.79C11.1005 11.93 10.9255 12 10.7155 12C10.4955 12 10.3155 11.93 10.1755 11.79C10.0355 11.64 9.96553 11.455 9.96553 11.235V1.665C9.96553 1.445 10.0355 1.265 10.1755 1.125C10.3155 0.975 10.4955 0.9 10.7155 0.9C10.9255 0.9 11.1005 0.975 11.2405 1.125C11.3905 1.265 11.4655 1.445 11.4655 1.665V5.76L11.1955 5.91C11.2655 5.69 11.3805 5.465 11.5405 5.235C11.7105 5.005 11.9155 4.795 12.1555 4.605C12.4055 4.415 12.6805 4.265 12.9805 4.155C13.2805 4.035 13.6005 3.975 13.9405 3.975ZM25.1317 3.99C25.3517 3.99 25.5317 4.065 25.6717 4.215C25.8117 4.355 25.8817 4.535 25.8817 4.755V11.235C25.8817 11.455 25.8117 11.64 25.6717 11.79C25.5317 11.93 25.3517 12 25.1317 12C24.9217 12 24.7417 11.93 24.5917 11.79C24.4517 11.64 24.3817 11.455 24.3817 11.235V10.155L24.6967 10.2C24.6967 10.38 24.6217 10.58 24.4717 10.8C24.3317 11.02 24.1367 11.235 23.8867 11.445C23.6367 11.645 23.3417 11.815 23.0017 11.955C22.6617 12.085 22.2967 12.15 21.9067 12.15C21.2167 12.15 20.5967 11.975 20.0467 11.625C19.4967 11.265 19.0617 10.775 18.7417 10.155C18.4217 9.535 18.2617 8.83 18.2617 8.04C18.2617 7.23 18.4217 6.52 18.7417 5.91C19.0617 5.29 19.4917 4.805 20.0317 4.455C20.5817 4.105 21.1917 3.93 21.8617 3.93C22.2917 3.93 22.6867 4 23.0467 4.14C23.4167 4.28 23.7367 4.46 24.0067 4.68C24.2767 4.9 24.4817 5.135 24.6217 5.385C24.7717 5.625 24.8467 5.855 24.8467 6.075L24.3817 6.12V4.755C24.3817 4.545 24.4517 4.365 24.5917 4.215C24.7417 4.065 24.9217 3.99 25.1317 3.99ZM22.0717 10.77C22.5417 10.77 22.9567 10.65 23.3167 10.41C23.6767 10.17 23.9567 9.845 24.1567 9.435C24.3567 9.015 24.4567 8.55 24.4567 8.04C24.4567 7.52 24.3567 7.055 24.1567 6.645C23.9567 6.235 23.6767 5.91 23.3167 5.67C22.9567 5.43 22.5417 5.31 22.0717 5.31C21.6117 5.31 21.2017 5.43 20.8417 5.67C20.4917 5.91 20.2117 6.235 20.0017 6.645C19.8017 7.055 19.7017 7.52 19.7017 8.04C19.7017 8.55 19.8017 9.015 20.0017 9.435C20.2117 9.845 20.4917 10.17 20.8417 10.41C21.2017 10.65 21.6117 10.77 22.0717 10.77ZM28.7331 12C28.5131 12 28.3331 11.93 28.1931 11.79C28.0531 11.64 27.9831 11.455 27.9831 11.235V4.875C27.9831 4.655 28.0531 4.475 28.1931 4.335C28.3331 4.185 28.5131 4.11 28.7331 4.11C28.9431 4.11 29.1181 4.185 29.2581 4.335C29.4081 4.475 29.4831 4.655 29.4831 4.875V6.555L29.3331 5.91C29.4131 5.63 29.5331 5.37 29.6931 5.13C29.8631 4.89 30.0631 4.68 30.2931 4.5C30.5231 4.32 30.7781 4.18 31.0581 4.08C31.3481 3.98 31.6481 3.93 31.9581 3.93C32.2181 3.93 32.4431 4 32.6331 4.14C32.8231 4.28 32.9181 4.455 32.9181 4.665C32.9181 4.935 32.8481 5.135 32.7081 5.265C32.5681 5.385 32.4131 5.445 32.2431 5.445C32.0931 5.445 31.9481 5.415 31.8081 5.355C31.6681 5.285 31.5031 5.25 31.3131 5.25C31.1031 5.25 30.8881 5.305 30.6681 5.415C30.4481 5.525 30.2481 5.69 30.0681 5.91C29.8881 6.12 29.7431 6.37 29.6331 6.66C29.5331 6.95 29.4831 7.275 29.4831 7.635V11.235C29.4831 11.455 29.4081 11.64 29.2581 11.79C29.1181 11.93 28.9431 12 28.7331 12ZM35.8726 11.235C35.8726 11.455 35.7976 11.64 35.6476 11.79C35.5076 11.93 35.3326 12 35.1226 12C34.9126 12 34.7326 11.93 34.5826 11.79C34.4426 11.64 34.3726 11.455 34.3726 11.235V1.665C34.3726 1.445 34.4476 1.265 34.5976 1.125C34.7476 0.975 34.9276 0.9 35.1376 0.9C35.3576 0.9 35.5326 0.975 35.6626 1.125C35.8026 1.265 35.8726 1.445 35.8726 1.665V11.235ZM41.6337 12.15C40.8037 12.15 40.0837 11.98 39.4737 11.64C38.8637 11.29 38.3887 10.815 38.0487 10.215C37.7187 9.605 37.5537 8.91 37.5537 8.13C37.5537 7.25 37.7287 6.5 38.0787 5.88C38.4387 5.25 38.9037 4.77 39.4737 4.44C40.0437 4.1 40.6487 3.93 41.2887 3.93C41.7787 3.93 42.2437 4.03 42.6837 4.23C43.1237 4.42 43.5137 4.69 43.8537 5.04C44.2037 5.38 44.4787 5.785 44.6787 6.255C44.8787 6.715 44.9837 7.22 44.9937 7.77C44.9837 7.97 44.9037 8.135 44.7537 8.265C44.6037 8.395 44.4287 8.46 44.2287 8.46H38.3937L38.0337 7.185H43.6737L43.3887 7.455V7.08C43.3687 6.73 43.2537 6.425 43.0437 6.165C42.8337 5.895 42.5737 5.69 42.2637 5.55C41.9537 5.4 41.6287 5.325 41.2887 5.325C40.9887 5.325 40.6987 5.375 40.4187 5.475C40.1487 5.565 39.9037 5.715 39.6837 5.925C39.4737 6.135 39.3037 6.415 39.1737 6.765C39.0537 7.105 38.9937 7.53 38.9937 8.04C38.9937 8.59 39.1087 9.07 39.3387 9.48C39.5687 9.89 39.8787 10.21 40.2687 10.44C40.6587 10.66 41.0887 10.77 41.5587 10.77C41.9287 10.77 42.2337 10.735 42.4737 10.665C42.7137 10.585 42.9137 10.49 43.0737 10.38C43.2337 10.27 43.3737 10.165 43.4937 10.065C43.6437 9.975 43.7937 9.93 43.9437 9.93C44.1237 9.93 44.2737 9.995 44.3937 10.125C44.5137 10.245 44.5737 10.39 44.5737 10.56C44.5737 10.78 44.4637 10.98 44.2437 11.16C43.9737 11.42 43.5987 11.65 43.1187 11.85C42.6487 12.05 42.1537 12.15 41.6337 12.15ZM46.2242 10.77C46.1342 10.63 46.0942 10.47 46.1042 10.29C46.1142 10.1 46.2192 9.94 46.4192 9.81C46.5592 9.72 46.7042 9.685 46.8542 9.705C47.0142 9.715 47.1642 9.79 47.3042 9.93C47.5842 10.24 47.8942 10.485 48.2342 10.665C48.5842 10.845 49.0042 10.935 49.4942 10.935C49.6942 10.925 49.8992 10.895 50.1092 10.845C50.3192 10.785 50.4992 10.685 50.6492 10.545C50.7992 10.395 50.8742 10.18 50.8742 9.9C50.8742 9.65 50.7942 9.45 50.6342 9.3C50.4742 9.15 50.2642 9.03 50.0042 8.94C49.7442 8.84 49.4642 8.75 49.1642 8.67C48.8442 8.58 48.5192 8.48 48.1892 8.37C47.8692 8.26 47.5792 8.12 47.3192 7.95C47.0592 7.77 46.8442 7.54 46.6742 7.26C46.5142 6.98 46.4342 6.635 46.4342 6.225C46.4342 5.755 46.5642 5.35 46.8242 5.01C47.0942 4.67 47.4392 4.405 47.8592 4.215C48.2892 4.025 48.7542 3.93 49.2542 3.93C49.5442 3.93 49.8492 3.97 50.1692 4.05C50.4892 4.12 50.7992 4.235 51.0992 4.395C51.3992 4.555 51.6592 4.765 51.8792 5.025C51.9792 5.155 52.0342 5.31 52.0442 5.49C52.0642 5.67 51.9842 5.83 51.8042 5.97C51.6842 6.07 51.5392 6.115 51.3692 6.105C51.1992 6.095 51.0592 6.04 50.9492 5.94C50.7592 5.7 50.5142 5.515 50.2142 5.385C49.9142 5.245 49.5742 5.175 49.1942 5.175C49.0042 5.175 48.8042 5.205 48.5942 5.265C48.3942 5.315 48.2242 5.41 48.0842 5.55C47.9442 5.69 47.8742 5.895 47.8742 6.165C47.8742 6.415 47.9542 6.615 48.1142 6.765C48.2842 6.915 48.5042 7.04 48.7742 7.14C49.0442 7.24 49.3392 7.33 49.6592 7.41C49.9692 7.49 50.2742 7.585 50.5742 7.695C50.8842 7.805 51.1592 7.95 51.3992 8.13C51.6492 8.3 51.8492 8.525 51.9992 8.805C52.1592 9.075 52.2392 9.42 52.2392 9.84C52.2392 10.33 52.0942 10.75 51.8042 11.1C51.5242 11.44 51.1642 11.7 50.7242 11.88C50.2942 12.06 49.8392 12.15 49.3592 12.15C48.7892 12.15 48.2192 12.05 47.6492 11.85C47.0892 11.64 46.6142 11.28 46.2242 10.77ZM53.7472 4.2H57.2722C57.4722 4.2 57.6372 4.27 57.7672 4.41C57.9072 4.54 57.9772 4.705 57.9772 4.905C57.9772 5.095 57.9072 5.255 57.7672 5.385C57.6372 5.515 57.4722 5.58 57.2722 5.58H53.7472C53.5472 5.58 53.3772 5.515 53.2372 5.385C53.1072 5.245 53.0422 5.08 53.0422 4.89C53.0422 4.69 53.1072 4.525 53.2372 4.395C53.3772 4.265 53.5472 4.2 53.7472 4.2ZM55.3222 2.25C55.5422 2.25 55.7222 2.325 55.8622 2.475C56.0022 2.615 56.0722 2.795 56.0722 3.015V9.975C56.0722 10.155 56.1022 10.3 56.1622 10.41C56.2222 10.52 56.3022 10.595 56.4022 10.635C56.5122 10.675 56.6222 10.695 56.7322 10.695C56.8422 10.695 56.9372 10.675 57.0172 10.635C57.1072 10.595 57.2122 10.575 57.3322 10.575C57.4522 10.575 57.5622 10.63 57.6622 10.74C57.7622 10.85 57.8122 11 57.8122 11.19C57.8122 11.43 57.6822 11.625 57.4222 11.775C57.1622 11.925 56.8822 12 56.5822 12C56.4122 12 56.2122 11.985 55.9822 11.955C55.7522 11.925 55.5272 11.85 55.3072 11.73C55.0972 11.61 54.9222 11.42 54.7822 11.16C54.6422 10.89 54.5722 10.515 54.5722 10.035V3.015C54.5722 2.795 54.6422 2.615 54.7822 2.475C54.9322 2.325 55.1122 2.25 55.3222 2.25ZM67.1251 8.055C67.1251 8.855 66.9501 9.565 66.6001 10.185C66.2501 10.795 65.7751 11.275 65.1751 11.625C64.5751 11.975 63.9001 12.15 63.1501 12.15C62.4001 12.15 61.7251 11.975 61.1251 11.625C60.5251 11.275 60.0451 10.795 59.6851 10.185C59.3351 9.565 59.1601 8.855 59.1601 8.055C59.1601 7.245 59.3351 6.535 59.6851 5.925C60.0451 5.305 60.5251 4.82 61.1251 4.47C61.7251 4.11 62.4001 3.93 63.1501 3.93C63.9001 3.93 64.5751 4.11 65.1751 4.47C65.7751 4.82 66.2501 5.305 66.6001 5.925C66.9501 6.535 67.1251 7.245 67.1251 8.055ZM65.6251 8.055C65.6251 7.505 65.5151 7.03 65.2951 6.63C65.0751 6.22 64.7751 5.9 64.3951 5.67C64.0251 5.43 63.6101 5.31 63.1501 5.31C62.6901 5.31 62.2701 5.43 61.8901 5.67C61.5101 5.9 61.2101 6.22 60.9901 6.63C60.7701 7.03 60.6601 7.505 60.6601 8.055C60.6601 8.585 60.7701 9.055 60.9901 9.465C61.2101 9.875 61.5101 10.195 61.8901 10.425C62.2701 10.655 62.6901 10.77 63.1501 10.77C63.6101 10.77 64.0251 10.655 64.3951 10.425C64.7751 10.195 65.0751 9.875 65.2951 9.465C65.5151 9.055 65.6251 8.585 65.6251 8.055ZM72.8879 3.93C73.5979 3.93 74.1479 4.08 74.5379 4.38C74.9279 4.67 75.1979 5.065 75.3479 5.565C75.5079 6.055 75.5879 6.605 75.5879 7.215V11.235C75.5879 11.455 75.5129 11.64 75.3629 11.79C75.2229 11.93 75.0479 12 74.8379 12C74.6179 12 74.4379 11.93 74.2979 11.79C74.1579 11.64 74.0879 11.455 74.0879 11.235V7.23C74.0879 6.87 74.0379 6.55 73.9379 6.27C73.8379 5.98 73.6629 5.75 73.4129 5.58C73.1729 5.4 72.8329 5.31 72.3929 5.31C71.9829 5.31 71.6229 5.4 71.3129 5.58C71.0029 5.75 70.7579 5.98 70.5779 6.27C70.4079 6.55 70.3229 6.87 70.3229 7.23V11.235C70.3229 11.455 70.2479 11.64 70.0979 11.79C69.9579 11.93 69.7829 12 69.5729 12C69.3529 12 69.1729 11.93 69.0329 11.79C68.8929 11.64 68.8229 11.455 68.8229 11.235V4.875C68.8229 4.655 68.8929 4.475 69.0329 4.335C69.1729 4.185 69.3529 4.11 69.5729 4.11C69.7829 4.11 69.9579 4.185 70.0979 4.335C70.2479 4.475 70.3229 4.655 70.3229 4.875V5.715L70.0529 5.865C70.1229 5.645 70.2429 5.425 70.4129 5.205C70.5929 4.975 70.8079 4.765 71.0579 4.575C71.3079 4.375 71.5879 4.22 71.8979 4.11C72.2079 3.99 72.5379 3.93 72.8879 3.93Z" fill="#002A56"/>
</svg>
