<svg width="56" height="15" viewBox="0 0 56 15" fill="none" xmlns="http://www.w3.org/2000/svg">
<path d="M8.0616 2.1C8.2816 2.21 8.4066 2.38 8.4366 2.61C8.4766 2.84 8.4216 3.05 8.2716 3.24C8.1616 3.39 8.0166 3.475 7.8366 3.495C7.6666 3.515 7.4966 3.48 7.3266 3.39C7.0366 3.24 6.7316 3.12 6.4116 3.03C6.0916 2.94 5.7516 2.895 5.3916 2.895C4.8216 2.895 4.3066 2.99 3.8466 3.18C3.3966 3.36 3.0066 3.625 2.6766 3.975C2.3466 4.315 2.0916 4.72 1.9116 5.19C1.7416 5.66 1.6566 6.18 1.6566 6.75C1.6566 7.38 1.7516 7.94 1.9416 8.43C2.1316 8.91 2.3916 9.32 2.7216 9.66C3.0616 9.99 3.4566 10.24 3.9066 10.41C4.3666 10.57 4.8616 10.65 5.3916 10.65C5.7316 10.65 6.0616 10.61 6.3816 10.53C6.7116 10.45 7.0216 10.33 7.3116 10.17C7.4916 10.08 7.6666 10.05 7.8366 10.08C8.0166 10.1 8.1616 10.185 8.2716 10.335C8.4416 10.545 8.5016 10.76 8.4516 10.98C8.4116 11.19 8.2866 11.35 8.0766 11.46C7.8266 11.6 7.5516 11.72 7.2516 11.82C6.9516 11.92 6.6466 12 6.3366 12.06C6.0266 12.12 5.7116 12.15 5.3916 12.15C4.6716 12.15 3.9916 12.03 3.3516 11.79C2.7116 11.55 2.1416 11.2 1.6416 10.74C1.1416 10.28 0.746602 9.715 0.456602 9.045C0.176602 8.375 0.0366016 7.61 0.0366016 6.75C0.0366016 5.98 0.166602 5.27 0.426602 4.62C0.696602 3.96 1.0716 3.395 1.5516 2.925C2.0416 2.445 2.6116 2.075 3.2616 1.815C3.9116 1.545 4.6216 1.41 5.3916 1.41C5.8716 1.41 6.3366 1.47 6.7866 1.59C7.2466 1.71 7.6716 1.88 8.0616 2.1ZM13.9527 3.975C14.6427 3.975 15.1777 4.125 15.5577 4.425C15.9377 4.715 16.2027 5.11 16.3527 5.61C16.5127 6.11 16.5927 6.66 16.5927 7.26V11.235C16.5927 11.455 16.5177 11.64 16.3677 11.79C16.2277 11.93 16.0527 12 15.8427 12C15.6227 12 15.4427 11.93 15.3027 11.79C15.1627 11.64 15.0927 11.455 15.0927 11.235V7.26C15.0927 6.91 15.0427 6.59 14.9427 6.3C14.8527 6.01 14.6877 5.78 14.4477 5.61C14.2177 5.44 13.8927 5.355 13.4727 5.355C13.0827 5.355 12.7327 5.44 12.4227 5.61C12.1227 5.78 11.8877 6.01 11.7177 6.3C11.5577 6.59 11.4777 6.91 11.4777 7.26V11.235C11.4777 11.455 11.4027 11.64 11.2527 11.79C11.1127 11.93 10.9377 12 10.7277 12C10.5077 12 10.3277 11.93 10.1877 11.79C10.0477 11.64 9.97773 11.455 9.97773 11.235V1.665C9.97773 1.445 10.0477 1.265 10.1877 1.125C10.3277 0.975 10.5077 0.9 10.7277 0.9C10.9377 0.9 11.1127 0.975 11.2527 1.125C11.4027 1.265 11.4777 1.445 11.4777 1.665V5.76L11.2077 5.91C11.2777 5.69 11.3927 5.465 11.5527 5.235C11.7227 5.005 11.9277 4.795 12.1677 4.605C12.4177 4.415 12.6927 4.265 12.9927 4.155C13.2927 4.035 13.6127 3.975 13.9527 3.975ZM20.0889 11.235C20.0889 11.455 20.0189 11.64 19.8789 11.79C19.7389 11.93 19.5589 12 19.3389 12C19.1289 12 18.9489 11.93 18.7989 11.79C18.6589 11.64 18.5889 11.455 18.5889 11.235V4.815C18.5889 4.595 18.6589 4.415 18.7989 4.275C18.9489 4.125 19.1289 4.05 19.3389 4.05C19.5589 4.05 19.7389 4.125 19.8789 4.275C20.0189 4.415 20.0889 4.595 20.0889 4.815V11.235ZM19.3239 3.06C19.0339 3.06 18.8239 3.01 18.6939 2.91C18.5639 2.8 18.4989 2.62 18.4989 2.37V2.13C18.4989 1.88 18.5689 1.705 18.7089 1.605C18.8489 1.505 19.0589 1.455 19.3389 1.455C19.6389 1.455 19.8539 1.51 19.9839 1.62C20.1139 1.72 20.1789 1.89 20.1789 2.13V2.37C20.1789 2.63 20.1089 2.81 19.9689 2.91C19.8389 3.01 19.6239 3.06 19.3239 3.06ZM25.6016 3.93C26.1416 3.93 26.6216 3.99 27.0416 4.11C27.4616 4.22 27.7866 4.38 28.0166 4.59C28.2566 4.79 28.3766 5.025 28.3766 5.295C28.3766 5.465 28.3266 5.625 28.2266 5.775C28.1266 5.915 27.9766 5.985 27.7766 5.985C27.6366 5.985 27.5166 5.96 27.4166 5.91C27.3266 5.86 27.2416 5.8 27.1616 5.73C27.0816 5.66 26.9816 5.59 26.8616 5.52C26.7516 5.46 26.5866 5.41 26.3666 5.37C26.1566 5.33 25.9666 5.31 25.7966 5.31C25.2666 5.31 24.8066 5.43 24.4166 5.67C24.0366 5.91 23.7366 6.235 23.5166 6.645C23.3066 7.055 23.2016 7.52 23.2016 8.04C23.2016 8.56 23.3066 9.025 23.5166 9.435C23.7366 9.845 24.0316 10.17 24.4016 10.41C24.7816 10.65 25.2216 10.77 25.7216 10.77C26.0216 10.77 26.2666 10.75 26.4566 10.71C26.6466 10.66 26.8116 10.6 26.9516 10.53C27.1016 10.44 27.2266 10.35 27.3266 10.26C27.4366 10.16 27.5866 10.11 27.7766 10.11C27.9966 10.11 28.1616 10.18 28.2716 10.32C28.3916 10.45 28.4516 10.615 28.4516 10.815C28.4516 11.035 28.3166 11.25 28.0466 11.46C27.7866 11.66 27.4366 11.825 26.9966 11.955C26.5566 12.085 26.0716 12.15 25.5416 12.15C24.7616 12.15 24.0816 11.97 23.5016 11.61C22.9316 11.25 22.4866 10.76 22.1666 10.14C21.8566 9.52 21.7016 8.82 21.7016 8.04C21.7016 7.25 21.8666 6.55 22.1966 5.94C22.5266 5.32 22.9866 4.83 23.5766 4.47C24.1666 4.11 24.8416 3.93 25.6016 3.93ZM36.35 3.99C36.57 3.99 36.75 4.065 36.89 4.215C37.03 4.355 37.1 4.535 37.1 4.755V11.235C37.1 11.455 37.03 11.64 36.89 11.79C36.75 11.93 36.57 12 36.35 12C36.14 12 35.96 11.93 35.81 11.79C35.67 11.64 35.6 11.455 35.6 11.235V10.155L35.915 10.2C35.915 10.38 35.84 10.58 35.69 10.8C35.55 11.02 35.355 11.235 35.105 11.445C34.855 11.645 34.56 11.815 34.22 11.955C33.88 12.085 33.515 12.15 33.125 12.15C32.435 12.15 31.815 11.975 31.265 11.625C30.715 11.265 30.28 10.775 29.96 10.155C29.64 9.535 29.48 8.83 29.48 8.04C29.48 7.23 29.64 6.52 29.96 5.91C30.28 5.29 30.71 4.805 31.25 4.455C31.8 4.105 32.41 3.93 33.08 3.93C33.51 3.93 33.905 4 34.265 4.14C34.635 4.28 34.955 4.46 35.225 4.68C35.495 4.9 35.7 5.135 35.84 5.385C35.99 5.625 36.065 5.855 36.065 6.075L35.6 6.12V4.755C35.6 4.545 35.67 4.365 35.81 4.215C35.96 4.065 36.14 3.99 36.35 3.99ZM33.29 10.77C33.76 10.77 34.175 10.65 34.535 10.41C34.895 10.17 35.175 9.845 35.375 9.435C35.575 9.015 35.675 8.55 35.675 8.04C35.675 7.52 35.575 7.055 35.375 6.645C35.175 6.235 34.895 5.91 34.535 5.67C34.175 5.43 33.76 5.31 33.29 5.31C32.83 5.31 32.42 5.43 32.06 5.67C31.71 5.91 31.43 6.235 31.22 6.645C31.02 7.055 30.92 7.52 30.92 8.04C30.92 8.55 31.02 9.015 31.22 9.435C31.43 9.845 31.71 10.17 32.06 10.41C32.42 10.65 32.83 10.77 33.29 10.77ZM42.4864 3.93C42.9164 3.93 43.3114 4 43.6714 4.14C44.0314 4.28 44.3414 4.46 44.6014 4.68C44.8714 4.89 45.0814 5.11 45.2314 5.34C45.3814 5.57 45.4564 5.77 45.4564 5.94L45.1114 5.955V4.755C45.1114 4.545 45.1814 4.365 45.3214 4.215C45.4614 4.065 45.6414 3.99 45.8614 3.99C46.0814 3.99 46.2614 4.065 46.4014 4.215C46.5414 4.355 46.6114 4.535 46.6114 4.755V11.37C46.6114 12.22 46.4314 12.91 46.0714 13.44C45.7114 13.98 45.2314 14.375 44.6314 14.625C44.0414 14.875 43.3914 15 42.6814 15C42.4314 15 42.1364 14.965 41.7964 14.895C41.4564 14.835 41.1414 14.76 40.8514 14.67C40.5714 14.58 40.3764 14.49 40.2664 14.4C40.0364 14.28 39.8814 14.14 39.8014 13.98C39.7314 13.82 39.7314 13.66 39.8014 13.5C39.9014 13.28 40.0364 13.145 40.2064 13.095C40.3764 13.045 40.5714 13.06 40.7914 13.14C40.8914 13.17 41.0464 13.225 41.2564 13.305C41.4664 13.385 41.7014 13.455 41.9614 13.515C42.2214 13.585 42.4664 13.62 42.6964 13.62C43.4964 13.62 44.0964 13.435 44.4964 13.065C44.9064 12.695 45.1114 12.19 45.1114 11.55V10.2L45.2764 10.305C45.2464 10.515 45.1514 10.73 44.9914 10.95C44.8414 11.16 44.6414 11.355 44.3914 11.535C44.1414 11.715 43.8514 11.865 43.5214 11.985C43.2014 12.095 42.8714 12.15 42.5314 12.15C41.8214 12.15 41.1864 11.975 40.6264 11.625C40.0664 11.265 39.6214 10.78 39.2914 10.17C38.9614 9.55 38.7964 8.84 38.7964 8.04C38.7964 7.24 38.9614 6.535 39.2914 5.925C39.6214 5.305 40.0614 4.82 40.6114 4.47C41.1714 4.11 41.7964 3.93 42.4864 3.93ZM42.7114 5.31C42.2214 5.31 41.7914 5.43 41.4214 5.67C41.0514 5.91 40.7614 6.235 40.5514 6.645C40.3414 7.055 40.2364 7.52 40.2364 8.04C40.2364 8.56 40.3414 9.025 40.5514 9.435C40.7614 9.845 41.0514 10.17 41.4214 10.41C41.7914 10.65 42.2214 10.77 42.7114 10.77C43.2014 10.77 43.6314 10.655 44.0014 10.425C44.3714 10.185 44.6614 9.86 44.8714 9.45C45.0814 9.03 45.1864 8.56 45.1864 8.04C45.1864 7.52 45.0814 7.055 44.8714 6.645C44.6614 6.225 44.3714 5.9 44.0014 5.67C43.6314 5.43 43.2014 5.31 42.7114 5.31ZM55.9606 8.055C55.9606 8.855 55.7856 9.565 55.4356 10.185C55.0856 10.795 54.6106 11.275 54.0106 11.625C53.4106 11.975 52.7356 12.15 51.9856 12.15C51.2356 12.15 50.5606 11.975 49.9606 11.625C49.3606 11.275 48.8806 10.795 48.5206 10.185C48.1706 9.565 47.9956 8.855 47.9956 8.055C47.9956 7.245 48.1706 6.535 48.5206 5.925C48.8806 5.305 49.3606 4.82 49.9606 4.47C50.5606 4.11 51.2356 3.93 51.9856 3.93C52.7356 3.93 53.4106 4.11 54.0106 4.47C54.6106 4.82 55.0856 5.305 55.4356 5.925C55.7856 6.535 55.9606 7.245 55.9606 8.055ZM54.4606 8.055C54.4606 7.505 54.3506 7.03 54.1306 6.63C53.9106 6.22 53.6106 5.9 53.2306 5.67C52.8606 5.43 52.4456 5.31 51.9856 5.31C51.5256 5.31 51.1056 5.43 50.7256 5.67C50.3456 5.9 50.0456 6.22 49.8256 6.63C49.6056 7.03 49.4956 7.505 49.4956 8.055C49.4956 8.585 49.6056 9.055 49.8256 9.465C50.0456 9.875 50.3456 10.195 50.7256 10.425C51.1056 10.655 51.5256 10.77 51.9856 10.77C52.4456 10.77 52.8606 10.655 53.2306 10.425C53.6106 10.195 53.9106 9.875 54.1306 9.465C54.3506 9.055 54.4606 8.585 54.4606 8.055Z" fill="#002A56"/>
</svg>
