<svg width="44" height="13" viewBox="0 0 44 13" fill="none" xmlns="http://www.w3.org/2000/svg">
<path d="M5.02086 1.5C5.75086 1.5 6.39586 1.64 6.95586 1.92C7.51586 2.19 7.98086 2.57 8.35086 3.06C8.73086 3.54 9.01586 4.1 9.20586 4.74C9.39586 5.37 9.49086 6.04 9.49086 6.75C9.49086 7.72 9.32086 8.605 8.98086 9.405C8.64086 10.195 8.14086 10.825 7.48086 11.295C6.82086 11.765 6.00086 12 5.02086 12H1.36086C1.15086 12 0.970859 11.93 0.820859 11.79C0.670859 11.64 0.595859 11.455 0.595859 11.235V2.265C0.595859 2.045 0.670859 1.865 0.820859 1.725C0.970859 1.575 1.15086 1.5 1.36086 1.5H5.02086ZM4.87086 10.56C5.58086 10.56 6.15586 10.385 6.59586 10.035C7.03586 9.685 7.35586 9.225 7.55586 8.655C7.76586 8.075 7.87086 7.44 7.87086 6.75C7.87086 6.24 7.81086 5.76 7.69086 5.31C7.58086 4.85 7.40086 4.445 7.15086 4.095C6.91086 3.735 6.60086 3.455 6.22086 3.255C5.85086 3.045 5.40086 2.94 4.87086 2.94H2.03586L2.17086 2.805V10.71L2.08086 10.56H4.87086ZM17.6332 3.99C17.8532 3.99 18.0332 4.065 18.1732 4.215C18.3132 4.355 18.3832 4.535 18.3832 4.755V11.235C18.3832 11.455 18.3132 11.64 18.1732 11.79C18.0332 11.93 17.8532 12 17.6332 12C17.4232 12 17.2432 11.93 17.0932 11.79C16.9532 11.64 16.8832 11.455 16.8832 11.235V10.155L17.1982 10.2C17.1982 10.38 17.1232 10.58 16.9732 10.8C16.8332 11.02 16.6382 11.235 16.3882 11.445C16.1382 11.645 15.8432 11.815 15.5032 11.955C15.1632 12.085 14.7982 12.15 14.4082 12.15C13.7182 12.15 13.0982 11.975 12.5482 11.625C11.9982 11.265 11.5632 10.775 11.2432 10.155C10.9232 9.535 10.7632 8.83 10.7632 8.04C10.7632 7.23 10.9232 6.52 11.2432 5.91C11.5632 5.29 11.9932 4.805 12.5332 4.455C13.0832 4.105 13.6932 3.93 14.3632 3.93C14.7932 3.93 15.1882 4 15.5482 4.14C15.9182 4.28 16.2382 4.46 16.5082 4.68C16.7782 4.9 16.9832 5.135 17.1232 5.385C17.2732 5.625 17.3482 5.855 17.3482 6.075L16.8832 6.12V4.755C16.8832 4.545 16.9532 4.365 17.0932 4.215C17.2432 4.065 17.4232 3.99 17.6332 3.99ZM14.5732 10.77C15.0432 10.77 15.4582 10.65 15.8182 10.41C16.1782 10.17 16.4582 9.845 16.6582 9.435C16.8582 9.015 16.9582 8.55 16.9582 8.04C16.9582 7.52 16.8582 7.055 16.6582 6.645C16.4582 6.235 16.1782 5.91 15.8182 5.67C15.4582 5.43 15.0432 5.31 14.5732 5.31C14.1132 5.31 13.7032 5.43 13.3432 5.67C12.9932 5.91 12.7132 6.235 12.5032 6.645C12.3032 7.055 12.2032 7.52 12.2032 8.04C12.2032 8.55 12.3032 9.015 12.5032 9.435C12.7132 9.845 12.9932 10.17 13.3432 10.41C13.7032 10.65 14.1132 10.77 14.5732 10.77ZM22.1046 11.235C22.1046 11.455 22.0296 11.64 21.8796 11.79C21.7396 11.93 21.5646 12 21.3546 12C21.1446 12 20.9646 11.93 20.8146 11.79C20.6746 11.64 20.6046 11.455 20.6046 11.235V1.665C20.6046 1.445 20.6796 1.265 20.8296 1.125C20.9796 0.975 21.1596 0.9 21.3696 0.9C21.5896 0.9 21.7646 0.975 21.8946 1.125C22.0346 1.265 22.1046 1.445 22.1046 1.665V11.235ZM25.9571 11.235C25.9571 11.455 25.8821 11.64 25.7321 11.79C25.5921 11.93 25.4171 12 25.2071 12C24.9971 12 24.8171 11.93 24.6671 11.79C24.5271 11.64 24.4571 11.455 24.4571 11.235V1.665C24.4571 1.445 24.5321 1.265 24.6821 1.125C24.8321 0.975 25.0121 0.9 25.2221 0.9C25.4421 0.9 25.6171 0.975 25.7471 1.125C25.8871 1.265 25.9571 1.445 25.9571 1.665V11.235ZM34.6546 3.99C34.8746 3.99 35.0546 4.065 35.1946 4.215C35.3346 4.355 35.4046 4.535 35.4046 4.755V11.235C35.4046 11.455 35.3346 11.64 35.1946 11.79C35.0546 11.93 34.8746 12 34.6546 12C34.4446 12 34.2646 11.93 34.1146 11.79C33.9746 11.64 33.9046 11.455 33.9046 11.235V10.155L34.2196 10.2C34.2196 10.38 34.1446 10.58 33.9946 10.8C33.8546 11.02 33.6596 11.235 33.4096 11.445C33.1596 11.645 32.8646 11.815 32.5246 11.955C32.1846 12.085 31.8196 12.15 31.4296 12.15C30.7396 12.15 30.1196 11.975 29.5696 11.625C29.0196 11.265 28.5846 10.775 28.2646 10.155C27.9446 9.535 27.7846 8.83 27.7846 8.04C27.7846 7.23 27.9446 6.52 28.2646 5.91C28.5846 5.29 29.0146 4.805 29.5546 4.455C30.1046 4.105 30.7146 3.93 31.3846 3.93C31.8146 3.93 32.2096 4 32.5696 4.14C32.9396 4.28 33.2596 4.46 33.5296 4.68C33.7996 4.9 34.0046 5.135 34.1446 5.385C34.2946 5.625 34.3696 5.855 34.3696 6.075L33.9046 6.12V4.755C33.9046 4.545 33.9746 4.365 34.1146 4.215C34.2646 4.065 34.4446 3.99 34.6546 3.99ZM31.5946 10.77C32.0646 10.77 32.4796 10.65 32.8396 10.41C33.1996 10.17 33.4796 9.845 33.6796 9.435C33.8796 9.015 33.9796 8.55 33.9796 8.04C33.9796 7.52 33.8796 7.055 33.6796 6.645C33.4796 6.235 33.1996 5.91 32.8396 5.67C32.4796 5.43 32.0646 5.31 31.5946 5.31C31.1346 5.31 30.7246 5.43 30.3646 5.67C30.0146 5.91 29.7346 6.235 29.5246 6.645C29.3246 7.055 29.2246 7.52 29.2246 8.04C29.2246 8.55 29.3246 9.015 29.5246 9.435C29.7346 9.845 30.0146 10.17 30.3646 10.41C30.7246 10.65 31.1346 10.77 31.5946 10.77ZM37.0411 10.77C36.9511 10.63 36.9111 10.47 36.9211 10.29C36.9311 10.1 37.0361 9.94 37.2361 9.81C37.3761 9.72 37.5211 9.685 37.6711 9.705C37.8311 9.715 37.9811 9.79 38.1211 9.93C38.4011 10.24 38.7111 10.485 39.0511 10.665C39.4011 10.845 39.8211 10.935 40.3111 10.935C40.5111 10.925 40.7161 10.895 40.9261 10.845C41.1361 10.785 41.3161 10.685 41.4661 10.545C41.6161 10.395 41.6911 10.18 41.6911 9.9C41.6911 9.65 41.6111 9.45 41.4511 9.3C41.2911 9.15 41.0811 9.03 40.8211 8.94C40.5611 8.84 40.2811 8.75 39.9811 8.67C39.6611 8.58 39.3361 8.48 39.0061 8.37C38.6861 8.26 38.3961 8.12 38.1361 7.95C37.8761 7.77 37.6611 7.54 37.4911 7.26C37.3311 6.98 37.2511 6.635 37.2511 6.225C37.2511 5.755 37.3811 5.35 37.6411 5.01C37.9111 4.67 38.2561 4.405 38.6761 4.215C39.1061 4.025 39.5711 3.93 40.0711 3.93C40.3611 3.93 40.6661 3.97 40.9861 4.05C41.3061 4.12 41.6161 4.235 41.9161 4.395C42.2161 4.555 42.4761 4.765 42.6961 5.025C42.7961 5.155 42.8511 5.31 42.8611 5.49C42.8811 5.67 42.8011 5.83 42.6211 5.97C42.5011 6.07 42.3561 6.115 42.1861 6.105C42.0161 6.095 41.8761 6.04 41.7661 5.94C41.5761 5.7 41.3311 5.515 41.0311 5.385C40.7311 5.245 40.3911 5.175 40.0111 5.175C39.8211 5.175 39.6211 5.205 39.4111 5.265C39.2111 5.315 39.0411 5.41 38.9011 5.55C38.7611 5.69 38.6911 5.895 38.6911 6.165C38.6911 6.415 38.7711 6.615 38.9311 6.765C39.1011 6.915 39.3211 7.04 39.5911 7.14C39.8611 7.24 40.1561 7.33 40.4761 7.41C40.7861 7.49 41.0911 7.585 41.3911 7.695C41.7011 7.805 41.9761 7.95 42.2161 8.13C42.4661 8.3 42.6661 8.525 42.8161 8.805C42.9761 9.075 43.0561 9.42 43.0561 9.84C43.0561 10.33 42.9111 10.75 42.6211 11.1C42.3411 11.44 41.9811 11.7 41.5411 11.88C41.1111 12.06 40.6561 12.15 40.1761 12.15C39.6061 12.15 39.0361 12.05 38.4661 11.85C37.9061 11.64 37.4311 11.28 37.0411 10.77Z" fill="#002A56"/>
</svg>
