<svg width="51" height="12" viewBox="0 0 51 12" fill="none" xmlns="http://www.w3.org/2000/svg">
<path d="M4.86607 0.499999C5.59607 0.499999 6.24107 0.639999 6.80107 0.919999C7.36107 1.19 7.82607 1.57 8.19607 2.06C8.57607 2.54 8.86107 3.1 9.05107 3.74C9.24107 4.37 9.33607 5.04 9.33607 5.75C9.33607 6.72 9.16607 7.605 8.82607 8.405C8.48607 9.195 7.98607 9.825 7.32607 10.295C6.66607 10.765 5.84607 11 4.86607 11H1.20607C0.996074 11 0.816074 10.93 0.666074 10.79C0.516074 10.64 0.441074 10.455 0.441074 10.235V1.265C0.441074 1.045 0.516074 0.865 0.666074 0.724999C0.816074 0.574999 0.996074 0.499999 1.20607 0.499999H4.86607ZM4.71607 9.56C5.42607 9.56 6.00107 9.385 6.44107 9.035C6.88107 8.685 7.20107 8.225 7.40107 7.655C7.61107 7.075 7.71607 6.44 7.71607 5.75C7.71607 5.24 7.65607 4.76 7.53607 4.31C7.42607 3.85 7.24607 3.445 6.99607 3.095C6.75607 2.735 6.44607 2.455 6.06607 2.255C5.69607 2.045 5.24607 1.94 4.71607 1.94H1.88107L2.01607 1.805V9.71L1.92607 9.56H4.71607ZM14.8056 11.15C13.9756 11.15 13.2556 10.98 12.6456 10.64C12.0356 10.29 11.5606 9.815 11.2206 9.215C10.8906 8.605 10.7256 7.91 10.7256 7.13C10.7256 6.25 10.9006 5.5 11.2506 4.88C11.6106 4.25 12.0756 3.77 12.6456 3.44C13.2156 3.1 13.8206 2.93 14.4606 2.93C14.9506 2.93 15.4156 3.03 15.8556 3.23C16.2956 3.42 16.6856 3.69 17.0256 4.04C17.3756 4.38 17.6506 4.785 17.8506 5.255C18.0506 5.715 18.1556 6.22 18.1656 6.77C18.1556 6.97 18.0756 7.135 17.9256 7.265C17.7756 7.395 17.6006 7.46 17.4006 7.46H11.5656L11.2056 6.185H16.8456L16.5606 6.455V6.08C16.5406 5.73 16.4256 5.425 16.2156 5.165C16.0056 4.895 15.7456 4.69 15.4356 4.55C15.1256 4.4 14.8006 4.325 14.4606 4.325C14.1606 4.325 13.8706 4.375 13.5906 4.475C13.3206 4.565 13.0756 4.715 12.8556 4.925C12.6456 5.135 12.4756 5.415 12.3456 5.765C12.2256 6.105 12.1656 6.53 12.1656 7.04C12.1656 7.59 12.2806 8.07 12.5106 8.48C12.7406 8.89 13.0506 9.21 13.4406 9.44C13.8306 9.66 14.2606 9.77 14.7306 9.77C15.1006 9.77 15.4056 9.735 15.6456 9.665C15.8856 9.585 16.0856 9.49 16.2456 9.38C16.4056 9.27 16.5456 9.165 16.6656 9.065C16.8156 8.975 16.9656 8.93 17.1156 8.93C17.2956 8.93 17.4456 8.995 17.5656 9.125C17.6856 9.245 17.7456 9.39 17.7456 9.56C17.7456 9.78 17.6356 9.98 17.4156 10.16C17.1456 10.42 16.7706 10.65 16.2906 10.85C15.8206 11.05 15.3256 11.15 14.8056 11.15ZM23.926 2.93C24.636 2.93 25.186 3.08 25.576 3.38C25.966 3.67 26.236 4.065 26.386 4.565C26.546 5.055 26.626 5.605 26.626 6.215V10.235C26.626 10.455 26.551 10.64 26.401 10.79C26.261 10.93 26.086 11 25.876 11C25.656 11 25.476 10.93 25.336 10.79C25.196 10.64 25.126 10.455 25.126 10.235V6.23C25.126 5.87 25.076 5.55 24.976 5.27C24.876 4.98 24.701 4.75 24.451 4.58C24.211 4.4 23.871 4.31 23.431 4.31C23.021 4.31 22.661 4.4 22.351 4.58C22.041 4.75 21.796 4.98 21.616 5.27C21.446 5.55 21.361 5.87 21.361 6.23V10.235C21.361 10.455 21.286 10.64 21.136 10.79C20.996 10.93 20.821 11 20.611 11C20.391 11 20.211 10.93 20.071 10.79C19.931 10.64 19.861 10.455 19.861 10.235V3.875C19.861 3.655 19.931 3.475 20.071 3.335C20.211 3.185 20.391 3.11 20.611 3.11C20.821 3.11 20.996 3.185 21.136 3.335C21.286 3.475 21.361 3.655 21.361 3.875V4.715L21.091 4.865C21.161 4.645 21.281 4.425 21.451 4.205C21.631 3.975 21.846 3.765 22.096 3.575C22.346 3.375 22.626 3.22 22.936 3.11C23.246 2.99 23.576 2.93 23.926 2.93ZM28.8154 3.035C28.9654 3.035 29.1054 3.075 29.2354 3.155C29.3754 3.235 29.4754 3.355 29.5354 3.515L31.8904 8.96L31.6054 9.095L33.9904 3.53C34.1304 3.2 34.3554 3.04 34.6654 3.05C34.8654 3.05 35.0304 3.115 35.1604 3.245C35.3004 3.365 35.3705 3.525 35.3705 3.725C35.3705 3.785 35.3604 3.85 35.3404 3.92C35.3204 3.98 35.2954 4.04 35.2654 4.1L32.4154 10.52C32.2854 10.82 32.0704 10.98 31.7704 11C31.6204 11.02 31.4704 10.99 31.3204 10.91C31.1804 10.82 31.0704 10.69 30.9904 10.52L28.1554 4.1C28.1354 4.06 28.1154 4.01 28.0954 3.95C28.0754 3.88 28.0654 3.8 28.0654 3.71C28.0654 3.56 28.1304 3.41 28.2604 3.26C28.4004 3.11 28.5854 3.035 28.8154 3.035ZM40.4989 11.15C39.6689 11.15 38.9489 10.98 38.3389 10.64C37.7289 10.29 37.2539 9.815 36.9139 9.215C36.5839 8.605 36.4189 7.91 36.4189 7.13C36.4189 6.25 36.5939 5.5 36.9439 4.88C37.3039 4.25 37.7689 3.77 38.3389 3.44C38.9089 3.1 39.5139 2.93 40.1539 2.93C40.6439 2.93 41.1089 3.03 41.5489 3.23C41.9889 3.42 42.3789 3.69 42.7189 4.04C43.0689 4.38 43.3439 4.785 43.5439 5.255C43.7439 5.715 43.8489 6.22 43.8589 6.77C43.8489 6.97 43.7689 7.135 43.6189 7.265C43.4689 7.395 43.2939 7.46 43.0939 7.46H37.2589L36.8989 6.185H42.5389L42.2539 6.455V6.08C42.2339 5.73 42.1189 5.425 41.9089 5.165C41.6989 4.895 41.4389 4.69 41.1289 4.55C40.8189 4.4 40.4939 4.325 40.1539 4.325C39.8539 4.325 39.5639 4.375 39.2839 4.475C39.0139 4.565 38.7689 4.715 38.5489 4.925C38.3389 5.135 38.1689 5.415 38.0389 5.765C37.9189 6.105 37.8589 6.53 37.8589 7.04C37.8589 7.59 37.9739 8.07 38.2039 8.48C38.4339 8.89 38.7439 9.21 39.1339 9.44C39.5239 9.66 39.9539 9.77 40.4239 9.77C40.7939 9.77 41.0989 9.735 41.3389 9.665C41.5789 9.585 41.7789 9.49 41.9389 9.38C42.0989 9.27 42.2389 9.165 42.3589 9.065C42.5089 8.975 42.6589 8.93 42.8089 8.93C42.9889 8.93 43.1389 8.995 43.2589 9.125C43.3789 9.245 43.4389 9.39 43.4389 9.56C43.4389 9.78 43.3289 9.98 43.1089 10.16C42.8389 10.42 42.4639 10.65 41.9839 10.85C41.5139 11.05 41.0189 11.15 40.4989 11.15ZM46.3044 11C46.0844 11 45.9044 10.93 45.7644 10.79C45.6244 10.64 45.5544 10.455 45.5544 10.235V3.875C45.5544 3.655 45.6244 3.475 45.7644 3.335C45.9044 3.185 46.0844 3.11 46.3044 3.11C46.5144 3.11 46.6894 3.185 46.8294 3.335C46.9794 3.475 47.0544 3.655 47.0544 3.875V5.555L46.9044 4.91C46.9844 4.63 47.1044 4.37 47.2644 4.13C47.4344 3.89 47.6344 3.68 47.8644 3.5C48.0944 3.32 48.3494 3.18 48.6294 3.08C48.9194 2.98 49.2194 2.93 49.5294 2.93C49.7894 2.93 50.0144 3 50.2044 3.14C50.3944 3.28 50.4894 3.455 50.4894 3.665C50.4894 3.935 50.4194 4.135 50.2794 4.265C50.1394 4.385 49.9844 4.445 49.8144 4.445C49.6644 4.445 49.5194 4.415 49.3794 4.355C49.2394 4.285 49.0744 4.25 48.8844 4.25C48.6744 4.25 48.4594 4.305 48.2394 4.415C48.0194 4.525 47.8194 4.69 47.6394 4.91C47.4594 5.12 47.3144 5.37 47.2044 5.66C47.1044 5.95 47.0544 6.275 47.0544 6.635V10.235C47.0544 10.455 46.9794 10.64 46.8294 10.79C46.6894 10.93 46.5144 11 46.3044 11Z" fill="#002A56"/>
</svg>
