<svg width="45" height="13" viewBox="0 0 45 13" fill="none" xmlns="http://www.w3.org/2000/svg">
<path d="M4.92223 1.5C5.65223 1.5 6.29723 1.64 6.85723 1.92C7.41723 2.19 7.88223 2.57 8.25223 3.06C8.63223 3.54 8.91723 4.1 9.10723 4.74C9.29723 5.37 9.39223 6.04 9.39223 6.75C9.39223 7.72 9.22223 8.605 8.88223 9.405C8.54223 10.195 8.04223 10.825 7.38223 11.295C6.72223 11.765 5.90223 12 4.92223 12H1.26223C1.05223 12 0.872227 11.93 0.722227 11.79C0.572227 11.64 0.497227 11.455 0.497227 11.235V2.265C0.497227 2.045 0.572227 1.865 0.722227 1.725C0.872227 1.575 1.05223 1.5 1.26223 1.5H4.92223ZM4.77223 10.56C5.48223 10.56 6.05723 10.385 6.49723 10.035C6.93723 9.685 7.25723 9.225 7.45723 8.655C7.66723 8.075 7.77223 7.44 7.77223 6.75C7.77223 6.24 7.71223 5.76 7.59223 5.31C7.48223 4.85 7.30223 4.445 7.05223 4.095C6.81223 3.735 6.50223 3.455 6.12223 3.255C5.75223 3.045 5.30223 2.94 4.77223 2.94H1.93723L2.07223 2.805V10.71L1.98223 10.56H4.77223ZM16.9495 4.11C17.1595 4.11 17.3345 4.185 17.4745 4.335C17.6245 4.475 17.6995 4.655 17.6995 4.875V8.82C17.6995 9.86 17.4095 10.675 16.8295 11.265C16.2495 11.845 15.4295 12.135 14.3695 12.135C13.3195 12.135 12.5045 11.845 11.9245 11.265C11.3545 10.675 11.0695 9.86 11.0695 8.82V4.875C11.0695 4.655 11.1395 4.475 11.2795 4.335C11.4195 4.185 11.5995 4.11 11.8195 4.11C12.0295 4.11 12.2045 4.185 12.3445 4.335C12.4945 4.475 12.5695 4.655 12.5695 4.875V8.82C12.5695 9.47 12.7195 9.955 13.0195 10.275C13.3295 10.595 13.7795 10.755 14.3695 10.755C14.9695 10.755 15.4245 10.595 15.7345 10.275C16.0445 9.955 16.1995 9.47 16.1995 8.82V4.875C16.1995 4.655 16.2695 4.475 16.4095 4.335C16.5495 4.185 16.7295 4.11 16.9495 4.11ZM21.4054 11.235C21.4054 11.455 21.3304 11.64 21.1804 11.79C21.0404 11.93 20.8654 12 20.6554 12C20.4454 12 20.2654 11.93 20.1154 11.79C19.9754 11.64 19.9054 11.455 19.9054 11.235V1.665C19.9054 1.445 19.9804 1.265 20.1304 1.125C20.2804 0.975 20.4604 0.9 20.6704 0.9C20.8904 0.9 21.0654 0.975 21.1954 1.125C21.3354 1.265 21.4054 1.445 21.4054 1.665V11.235ZM29.4446 4.11C29.6546 4.11 29.8296 4.185 29.9696 4.335C30.1196 4.475 30.1946 4.655 30.1946 4.875V8.82C30.1946 9.86 29.9046 10.675 29.3246 11.265C28.7446 11.845 27.9246 12.135 26.8646 12.135C25.8146 12.135 24.9996 11.845 24.4196 11.265C23.8496 10.675 23.5646 9.86 23.5646 8.82V4.875C23.5646 4.655 23.6346 4.475 23.7746 4.335C23.9146 4.185 24.0946 4.11 24.3146 4.11C24.5246 4.11 24.6996 4.185 24.8396 4.335C24.9896 4.475 25.0646 4.655 25.0646 4.875V8.82C25.0646 9.47 25.2146 9.955 25.5146 10.275C25.8246 10.595 26.2746 10.755 26.8646 10.755C27.4646 10.755 27.9196 10.595 28.2296 10.275C28.5396 9.955 28.6946 9.47 28.6946 8.82V4.875C28.6946 4.655 28.7646 4.475 28.9046 4.335C29.0446 4.185 29.2246 4.11 29.4446 4.11ZM32.1755 4.2H35.7005C35.9005 4.2 36.0655 4.27 36.1955 4.41C36.3355 4.54 36.4055 4.705 36.4055 4.905C36.4055 5.095 36.3355 5.255 36.1955 5.385C36.0655 5.515 35.9005 5.58 35.7005 5.58H32.1755C31.9755 5.58 31.8055 5.515 31.6655 5.385C31.5355 5.245 31.4705 5.08 31.4705 4.89C31.4705 4.69 31.5355 4.525 31.6655 4.395C31.8055 4.265 31.9755 4.2 32.1755 4.2ZM33.7505 2.25C33.9705 2.25 34.1505 2.325 34.2905 2.475C34.4305 2.615 34.5005 2.795 34.5005 3.015V9.975C34.5005 10.155 34.5305 10.3 34.5905 10.41C34.6505 10.52 34.7305 10.595 34.8305 10.635C34.9405 10.675 35.0505 10.695 35.1605 10.695C35.2705 10.695 35.3655 10.675 35.4455 10.635C35.5355 10.595 35.6405 10.575 35.7605 10.575C35.8805 10.575 35.9905 10.63 36.0905 10.74C36.1905 10.85 36.2405 11 36.2405 11.19C36.2405 11.43 36.1105 11.625 35.8505 11.775C35.5905 11.925 35.3105 12 35.0105 12C34.8405 12 34.6405 11.985 34.4105 11.955C34.1805 11.925 33.9555 11.85 33.7355 11.73C33.5255 11.61 33.3505 11.42 33.2105 11.16C33.0705 10.89 33.0005 10.515 33.0005 10.035V3.015C33.0005 2.795 33.0705 2.615 33.2105 2.475C33.3605 2.325 33.5405 2.25 33.7505 2.25ZM42.0416 3.975C42.7316 3.975 43.2666 4.125 43.6466 4.425C44.0266 4.715 44.2916 5.11 44.4416 5.61C44.6016 6.11 44.6816 6.66 44.6816 7.26V11.235C44.6816 11.455 44.6066 11.64 44.4566 11.79C44.3166 11.93 44.1416 12 43.9316 12C43.7116 12 43.5316 11.93 43.3916 11.79C43.2516 11.64 43.1816 11.455 43.1816 11.235V7.26C43.1816 6.91 43.1316 6.59 43.0316 6.3C42.9416 6.01 42.7766 5.78 42.5366 5.61C42.3066 5.44 41.9816 5.355 41.5616 5.355C41.1716 5.355 40.8216 5.44 40.5116 5.61C40.2116 5.78 39.9766 6.01 39.8066 6.3C39.6466 6.59 39.5666 6.91 39.5666 7.26V11.235C39.5666 11.455 39.4916 11.64 39.3416 11.79C39.2016 11.93 39.0266 12 38.8166 12C38.5966 12 38.4166 11.93 38.2766 11.79C38.1366 11.64 38.0666 11.455 38.0666 11.235V1.665C38.0666 1.445 38.1366 1.265 38.2766 1.125C38.4166 0.975 38.5966 0.9 38.8166 0.9C39.0266 0.9 39.2016 0.975 39.3416 1.125C39.4916 1.265 39.5666 1.445 39.5666 1.665V5.76L39.2966 5.91C39.3666 5.69 39.4816 5.465 39.6416 5.235C39.8116 5.005 40.0166 4.795 40.2566 4.605C40.5066 4.415 40.7816 4.265 41.0816 4.155C41.3816 4.035 41.7016 3.975 42.0416 3.975Z" fill="#002A56"/>
</svg>
