<svg width="50" height="13" viewBox="0 0 50 13" fill="none" xmlns="http://www.w3.org/2000/svg">
<path d="M1.34523 1.5H6.53523C6.74523 1.5 6.92023 1.57 7.06023 1.71C7.21023 1.85 7.28523 2.025 7.28523 2.235C7.28523 2.445 7.21023 2.615 7.06023 2.745C6.92023 2.875 6.74523 2.94 6.53523 2.94H2.00523L2.15523 2.685V6.045L2.02023 5.895H5.86023C6.07023 5.895 6.24523 5.965 6.38523 6.105C6.53523 6.245 6.61023 6.425 6.61023 6.645C6.61023 6.855 6.53523 7.025 6.38523 7.155C6.24523 7.285 6.07023 7.35 5.86023 7.35H2.05023L2.15523 7.215V10.68L2.05023 10.56H6.53523C6.74523 10.56 6.92023 10.635 7.06023 10.785C7.21023 10.925 7.28523 11.09 7.28523 11.28C7.28523 11.49 7.21023 11.665 7.06023 11.805C6.92023 11.935 6.74523 12 6.53523 12H1.34523C1.13523 12 0.955234 11.93 0.805234 11.79C0.655234 11.64 0.580234 11.455 0.580234 11.235V2.265C0.580234 2.045 0.655234 1.865 0.805234 1.725C0.955234 1.575 1.13523 1.5 1.34523 1.5ZM10.6046 11.235C10.6046 11.455 10.5296 11.64 10.3796 11.79C10.2396 11.93 10.0646 12 9.85457 12C9.64457 12 9.46457 11.93 9.31457 11.79C9.17457 11.64 9.10457 11.455 9.10457 11.235V1.665C9.10457 1.445 9.17957 1.265 9.32957 1.125C9.47957 0.975 9.65957 0.9 9.86957 0.9C10.0896 0.9 10.2646 0.975 10.3946 1.125C10.5346 1.265 10.6046 1.445 10.6046 1.665V11.235ZM21.4069 1.5C21.9369 1.5 22.4269 1.645 22.8769 1.935C23.3269 2.215 23.6869 2.6 23.9569 3.09C24.2269 3.58 24.3619 4.13 24.3619 4.74C24.3619 5.35 24.2269 5.905 23.9569 6.405C23.6869 6.895 23.3269 7.29 22.8769 7.59C22.4269 7.88 21.9369 8.025 21.4069 8.025H18.5119L18.6319 7.785V11.235C18.6319 11.455 18.5619 11.64 18.4219 11.79C18.2919 11.93 18.1169 12 17.8969 12C17.6869 12 17.5119 11.93 17.3719 11.79C17.2419 11.64 17.1769 11.455 17.1769 11.235V2.265C17.1769 2.045 17.2519 1.865 17.4019 1.725C17.5519 1.575 17.7319 1.5 17.9419 1.5H21.4069ZM21.4069 6.585C21.6669 6.585 21.9019 6.5 22.1119 6.33C22.3319 6.16 22.5069 5.935 22.6369 5.655C22.7769 5.375 22.8469 5.07 22.8469 4.74C22.8469 4.41 22.7769 4.11 22.6369 3.84C22.5069 3.57 22.3319 3.355 22.1119 3.195C21.9019 3.025 21.6669 2.94 21.4069 2.94H18.4819L18.6319 2.715V6.78L18.4969 6.585H21.4069ZM32.4125 3.99C32.6325 3.99 32.8125 4.065 32.9525 4.215C33.0925 4.355 33.1625 4.535 33.1625 4.755V11.235C33.1625 11.455 33.0925 11.64 32.9525 11.79C32.8125 11.93 32.6325 12 32.4125 12C32.2025 12 32.0225 11.93 31.8725 11.79C31.7325 11.64 31.6625 11.455 31.6625 11.235V10.155L31.9775 10.2C31.9775 10.38 31.9025 10.58 31.7525 10.8C31.6125 11.02 31.4175 11.235 31.1675 11.445C30.9175 11.645 30.6225 11.815 30.2825 11.955C29.9425 12.085 29.5775 12.15 29.1875 12.15C28.4975 12.15 27.8775 11.975 27.3275 11.625C26.7775 11.265 26.3425 10.775 26.0225 10.155C25.7025 9.535 25.5425 8.83 25.5425 8.04C25.5425 7.23 25.7025 6.52 26.0225 5.91C26.3425 5.29 26.7725 4.805 27.3125 4.455C27.8625 4.105 28.4725 3.93 29.1425 3.93C29.5725 3.93 29.9675 4 30.3275 4.14C30.6975 4.28 31.0175 4.46 31.2875 4.68C31.5575 4.9 31.7625 5.135 31.9025 5.385C32.0525 5.625 32.1275 5.855 32.1275 6.075L31.6625 6.12V4.755C31.6625 4.545 31.7325 4.365 31.8725 4.215C32.0225 4.065 32.2025 3.99 32.4125 3.99ZM29.3525 10.77C29.8225 10.77 30.2375 10.65 30.5975 10.41C30.9575 10.17 31.2375 9.845 31.4375 9.435C31.6375 9.015 31.7375 8.55 31.7375 8.04C31.7375 7.52 31.6375 7.055 31.4375 6.645C31.2375 6.235 30.9575 5.91 30.5975 5.67C30.2375 5.43 29.8225 5.31 29.3525 5.31C28.8925 5.31 28.4825 5.43 28.1225 5.67C27.7725 5.91 27.4925 6.235 27.2825 6.645C27.0825 7.055 26.9825 7.52 26.9825 8.04C26.9825 8.55 27.0825 9.015 27.2825 9.435C27.4925 9.845 27.7725 10.17 28.1225 10.41C28.4825 10.65 28.8925 10.77 29.3525 10.77ZM34.7989 10.77C34.7089 10.63 34.6689 10.47 34.6789 10.29C34.6889 10.1 34.7939 9.94 34.9939 9.81C35.1339 9.72 35.2789 9.685 35.4289 9.705C35.5889 9.715 35.7389 9.79 35.8789 9.93C36.1589 10.24 36.4689 10.485 36.8089 10.665C37.1589 10.845 37.5789 10.935 38.0689 10.935C38.2689 10.925 38.4739 10.895 38.6839 10.845C38.8939 10.785 39.0739 10.685 39.2239 10.545C39.3739 10.395 39.4489 10.18 39.4489 9.9C39.4489 9.65 39.3689 9.45 39.2089 9.3C39.0489 9.15 38.8389 9.03 38.5789 8.94C38.3189 8.84 38.0389 8.75 37.7389 8.67C37.4189 8.58 37.0939 8.48 36.7639 8.37C36.4439 8.26 36.1539 8.12 35.8939 7.95C35.6339 7.77 35.4189 7.54 35.2489 7.26C35.0889 6.98 35.0089 6.635 35.0089 6.225C35.0089 5.755 35.1389 5.35 35.3989 5.01C35.6689 4.67 36.0139 4.405 36.4339 4.215C36.8639 4.025 37.3289 3.93 37.8289 3.93C38.1189 3.93 38.4239 3.97 38.7439 4.05C39.0639 4.12 39.3739 4.235 39.6739 4.395C39.9739 4.555 40.2339 4.765 40.4539 5.025C40.5539 5.155 40.6089 5.31 40.6189 5.49C40.6389 5.67 40.5589 5.83 40.3789 5.97C40.2589 6.07 40.1139 6.115 39.9439 6.105C39.7739 6.095 39.6339 6.04 39.5239 5.94C39.3339 5.7 39.0889 5.515 38.7889 5.385C38.4889 5.245 38.1489 5.175 37.7689 5.175C37.5789 5.175 37.3789 5.205 37.1689 5.265C36.9689 5.315 36.7989 5.41 36.6589 5.55C36.5189 5.69 36.4489 5.895 36.4489 6.165C36.4489 6.415 36.5289 6.615 36.6889 6.765C36.8589 6.915 37.0789 7.04 37.3489 7.14C37.6189 7.24 37.9139 7.33 38.2339 7.41C38.5439 7.49 38.8489 7.585 39.1489 7.695C39.4589 7.805 39.7339 7.95 39.9739 8.13C40.2239 8.3 40.4239 8.525 40.5739 8.805C40.7339 9.075 40.8139 9.42 40.8139 9.84C40.8139 10.33 40.6689 10.75 40.3789 11.1C40.0989 11.44 39.7389 11.7 39.2989 11.88C38.8689 12.06 38.4139 12.15 37.9339 12.15C37.3639 12.15 36.7939 12.05 36.2239 11.85C35.6639 11.64 35.1889 11.28 34.7989 10.77ZM49.987 8.055C49.987 8.855 49.812 9.565 49.462 10.185C49.112 10.795 48.637 11.275 48.037 11.625C47.437 11.975 46.762 12.15 46.012 12.15C45.262 12.15 44.587 11.975 43.987 11.625C43.387 11.275 42.907 10.795 42.547 10.185C42.197 9.565 42.022 8.855 42.022 8.055C42.022 7.245 42.197 6.535 42.547 5.925C42.907 5.305 43.387 4.82 43.987 4.47C44.587 4.11 45.262 3.93 46.012 3.93C46.762 3.93 47.437 4.11 48.037 4.47C48.637 4.82 49.112 5.305 49.462 5.925C49.812 6.535 49.987 7.245 49.987 8.055ZM48.487 8.055C48.487 7.505 48.377 7.03 48.157 6.63C47.937 6.22 47.637 5.9 47.257 5.67C46.887 5.43 46.472 5.31 46.012 5.31C45.552 5.31 45.132 5.43 44.752 5.67C44.372 5.9 44.072 6.22 43.852 6.63C43.632 7.03 43.522 7.505 43.522 8.055C43.522 8.585 43.632 9.055 43.852 9.465C44.072 9.875 44.372 10.195 44.752 10.425C45.132 10.655 45.552 10.77 46.012 10.77C46.472 10.77 46.887 10.655 47.257 10.425C47.637 10.195 47.937 9.875 48.157 9.465C48.377 9.055 48.487 8.585 48.487 8.055Z" fill="#002A56"/>
</svg>
