<svg width="48" height="13" viewBox="0 0 48 13" fill="none" xmlns="http://www.w3.org/2000/svg">
<path d="M0.968848 1.5C1.16885 1.5 1.34385 1.575 1.49385 1.725C1.65385 1.865 1.73385 2.045 1.73385 2.265V11.235C1.72385 11.455 1.63885 11.64 1.47885 11.79C1.32885 11.93 1.14885 12 0.938848 12C0.708848 12 0.518848 11.93 0.368848 11.79C0.228848 11.64 0.158848 11.455 0.158848 11.235V2.265C0.158848 2.045 0.233848 1.865 0.383848 1.725C0.533848 1.575 0.728848 1.5 0.968848 1.5ZM7.73385 1.5C7.97385 1.5 8.16385 1.575 8.30385 1.725C8.44385 1.865 8.51385 2.045 8.51385 2.265V11.235C8.51385 11.455 8.43885 11.64 8.28885 11.79C8.14885 11.93 7.95885 12 7.71885 12C7.50885 12 7.32885 11.93 7.17885 11.79C7.02885 11.64 6.95385 11.455 6.95385 11.235V2.265C6.95385 2.045 7.02885 1.865 7.17885 1.725C7.33885 1.575 7.52385 1.5 7.73385 1.5ZM0.908848 5.97H7.74885L7.73385 7.41H0.893848L0.908848 5.97ZM14.4501 12.15C13.6201 12.15 12.9001 11.98 12.2901 11.64C11.6801 11.29 11.2051 10.815 10.8651 10.215C10.5351 9.605 10.3701 8.91 10.3701 8.13C10.3701 7.25 10.5451 6.5 10.8951 5.88C11.2551 5.25 11.7201 4.77 12.2901 4.44C12.8601 4.1 13.4651 3.93 14.1051 3.93C14.5951 3.93 15.0601 4.03 15.5001 4.23C15.9401 4.42 16.3301 4.69 16.6701 5.04C17.0201 5.38 17.2951 5.785 17.4951 6.255C17.6951 6.715 17.8001 7.22 17.8101 7.77C17.8001 7.97 17.7201 8.135 17.5701 8.265C17.4201 8.395 17.2451 8.46 17.0451 8.46H11.2101L10.8501 7.185H16.4901L16.2051 7.455V7.08C16.1851 6.73 16.0701 6.425 15.8601 6.165C15.6501 5.895 15.3901 5.69 15.0801 5.55C14.7701 5.4 14.4451 5.325 14.1051 5.325C13.8051 5.325 13.5151 5.375 13.2351 5.475C12.9651 5.565 12.7201 5.715 12.5001 5.925C12.2901 6.135 12.1201 6.415 11.9901 6.765C11.8701 7.105 11.8101 7.53 11.8101 8.04C11.8101 8.59 11.9251 9.07 12.1551 9.48C12.3851 9.89 12.6951 10.21 13.0851 10.44C13.4751 10.66 13.9051 10.77 14.3751 10.77C14.7451 10.77 15.0501 10.735 15.2901 10.665C15.5301 10.585 15.7301 10.49 15.8901 10.38C16.0501 10.27 16.1901 10.165 16.3101 10.065C16.4601 9.975 16.6101 9.93 16.7601 9.93C16.9401 9.93 17.0901 9.995 17.2101 10.125C17.3301 10.245 17.3901 10.39 17.3901 10.56C17.3901 10.78 17.2801 10.98 17.0601 11.16C16.7901 11.42 16.4151 11.65 15.9351 11.85C15.4651 12.05 14.9701 12.15 14.4501 12.15ZM21.1256 11.235C21.1256 11.455 21.0506 11.64 20.9006 11.79C20.7606 11.93 20.5856 12 20.3756 12C20.1656 12 19.9856 11.93 19.8356 11.79C19.6956 11.64 19.6256 11.455 19.6256 11.235V1.665C19.6256 1.445 19.7006 1.265 19.8506 1.125C20.0006 0.975 20.1806 0.9 20.3906 0.9C20.6106 0.9 20.7856 0.975 20.9156 1.125C21.0556 1.265 21.1256 1.445 21.1256 1.665V11.235ZM26.8866 12.15C26.0566 12.15 25.3366 11.98 24.7266 11.64C24.1166 11.29 23.6416 10.815 23.3016 10.215C22.9716 9.605 22.8066 8.91 22.8066 8.13C22.8066 7.25 22.9816 6.5 23.3316 5.88C23.6916 5.25 24.1566 4.77 24.7266 4.44C25.2966 4.1 25.9016 3.93 26.5416 3.93C27.0316 3.93 27.4966 4.03 27.9366 4.23C28.3766 4.42 28.7666 4.69 29.1066 5.04C29.4566 5.38 29.7316 5.785 29.9316 6.255C30.1316 6.715 30.2366 7.22 30.2466 7.77C30.2366 7.97 30.1566 8.135 30.0066 8.265C29.8566 8.395 29.6816 8.46 29.4816 8.46H23.6466L23.2866 7.185H28.9266L28.6416 7.455V7.08C28.6216 6.73 28.5066 6.425 28.2966 6.165C28.0866 5.895 27.8266 5.69 27.5166 5.55C27.2066 5.4 26.8816 5.325 26.5416 5.325C26.2416 5.325 25.9516 5.375 25.6716 5.475C25.4016 5.565 25.1566 5.715 24.9366 5.925C24.7266 6.135 24.5566 6.415 24.4266 6.765C24.3066 7.105 24.2466 7.53 24.2466 8.04C24.2466 8.59 24.3616 9.07 24.5916 9.48C24.8216 9.89 25.1316 10.21 25.5216 10.44C25.9116 10.66 26.3416 10.77 26.8116 10.77C27.1816 10.77 27.4866 10.735 27.7266 10.665C27.9666 10.585 28.1666 10.49 28.3266 10.38C28.4866 10.27 28.6266 10.165 28.7466 10.065C28.8966 9.975 29.0466 9.93 29.1966 9.93C29.3766 9.93 29.5266 9.995 29.6466 10.125C29.7666 10.245 29.8266 10.39 29.8266 10.56C29.8266 10.78 29.7166 10.98 29.4966 11.16C29.2266 11.42 28.8516 11.65 28.3716 11.85C27.9016 12.05 27.4066 12.15 26.8866 12.15ZM36.0071 3.93C36.7171 3.93 37.2671 4.08 37.6571 4.38C38.0471 4.67 38.3171 5.065 38.4671 5.565C38.6271 6.055 38.7071 6.605 38.7071 7.215V11.235C38.7071 11.455 38.6321 11.64 38.4821 11.79C38.3421 11.93 38.1671 12 37.9571 12C37.7371 12 37.5571 11.93 37.4171 11.79C37.2771 11.64 37.2071 11.455 37.2071 11.235V7.23C37.2071 6.87 37.1571 6.55 37.0571 6.27C36.9571 5.98 36.7821 5.75 36.5321 5.58C36.2921 5.4 35.9521 5.31 35.5121 5.31C35.1021 5.31 34.7421 5.4 34.4321 5.58C34.1221 5.75 33.8771 5.98 33.6971 6.27C33.5271 6.55 33.4421 6.87 33.4421 7.23V11.235C33.4421 11.455 33.3671 11.64 33.2171 11.79C33.0771 11.93 32.9021 12 32.6921 12C32.4721 12 32.2921 11.93 32.1521 11.79C32.0121 11.64 31.9421 11.455 31.9421 11.235V4.875C31.9421 4.655 32.0121 4.475 32.1521 4.335C32.2921 4.185 32.4721 4.11 32.6921 4.11C32.9021 4.11 33.0771 4.185 33.2171 4.335C33.3671 4.475 33.4421 4.655 33.4421 4.875V5.715L33.1721 5.865C33.2421 5.645 33.3621 5.425 33.5321 5.205C33.7121 4.975 33.9271 4.765 34.1771 4.575C34.4271 4.375 34.7071 4.22 35.0171 4.11C35.3271 3.99 35.6571 3.93 36.0071 3.93ZM47.2547 3.99C47.4747 3.99 47.6547 4.065 47.7947 4.215C47.9347 4.355 48.0047 4.535 48.0047 4.755V11.235C48.0047 11.455 47.9347 11.64 47.7947 11.79C47.6547 11.93 47.4747 12 47.2547 12C47.0447 12 46.8647 11.93 46.7147 11.79C46.5747 11.64 46.5047 11.455 46.5047 11.235V10.155L46.8197 10.2C46.8197 10.38 46.7447 10.58 46.5947 10.8C46.4547 11.02 46.2597 11.235 46.0097 11.445C45.7597 11.645 45.4647 11.815 45.1247 11.955C44.7847 12.085 44.4197 12.15 44.0297 12.15C43.3397 12.15 42.7197 11.975 42.1697 11.625C41.6197 11.265 41.1847 10.775 40.8647 10.155C40.5447 9.535 40.3847 8.83 40.3847 8.04C40.3847 7.23 40.5447 6.52 40.8647 5.91C41.1847 5.29 41.6147 4.805 42.1547 4.455C42.7047 4.105 43.3147 3.93 43.9847 3.93C44.4147 3.93 44.8097 4 45.1697 4.14C45.5397 4.28 45.8597 4.46 46.1297 4.68C46.3997 4.9 46.6047 5.135 46.7447 5.385C46.8947 5.625 46.9697 5.855 46.9697 6.075L46.5047 6.12V4.755C46.5047 4.545 46.5747 4.365 46.7147 4.215C46.8647 4.065 47.0447 3.99 47.2547 3.99ZM44.1947 10.77C44.6647 10.77 45.0797 10.65 45.4397 10.41C45.7997 10.17 46.0797 9.845 46.2797 9.435C46.4797 9.015 46.5797 8.55 46.5797 8.04C46.5797 7.52 46.4797 7.055 46.2797 6.645C46.0797 6.235 45.7997 5.91 45.4397 5.67C45.0797 5.43 44.6647 5.31 44.1947 5.31C43.7347 5.31 43.3247 5.43 42.9647 5.67C42.6147 5.91 42.3347 6.235 42.1247 6.645C41.9247 7.055 41.8247 7.52 41.8247 8.04C41.8247 8.55 41.9247 9.015 42.1247 9.435C42.3347 9.845 42.6147 10.17 42.9647 10.41C43.3247 10.65 43.7347 10.77 44.1947 10.77Z" fill="#002A56"/>
</svg>
