<svg width="58" height="12" viewBox="0 0 58 12" fill="none" xmlns="http://www.w3.org/2000/svg">
<path d="M1.15684 0.499999C1.35684 0.499999 1.53184 0.574999 1.68184 0.724999C1.84184 0.865 1.92184 1.045 1.92184 1.265V10.235C1.91184 10.455 1.82684 10.64 1.66684 10.79C1.51684 10.93 1.33684 11 1.12684 11C0.896836 11 0.706836 10.93 0.556836 10.79C0.416836 10.64 0.346836 10.455 0.346836 10.235V1.265C0.346836 1.045 0.421836 0.865 0.571836 0.724999C0.721836 0.574999 0.916836 0.499999 1.15684 0.499999ZM7.92184 0.499999C8.16184 0.499999 8.35184 0.574999 8.49184 0.724999C8.63184 0.865 8.70184 1.045 8.70184 1.265V10.235C8.70184 10.455 8.62684 10.64 8.47684 10.79C8.33684 10.93 8.14684 11 7.90684 11C7.69684 11 7.51684 10.93 7.36684 10.79C7.21684 10.64 7.14184 10.455 7.14184 10.235V1.265C7.14184 1.045 7.21684 0.865 7.36684 0.724999C7.52684 0.574999 7.71184 0.499999 7.92184 0.499999ZM1.09684 4.97H7.93684L7.92184 6.41H1.08184L1.09684 4.97ZM18.5231 7.055C18.5231 7.855 18.3481 8.565 17.9981 9.185C17.6481 9.795 17.1731 10.275 16.5731 10.625C15.9731 10.975 15.2981 11.15 14.5481 11.15C13.7981 11.15 13.1231 10.975 12.5231 10.625C11.9231 10.275 11.4431 9.795 11.0831 9.185C10.7331 8.565 10.5581 7.855 10.5581 7.055C10.5581 6.245 10.7331 5.535 11.0831 4.925C11.4431 4.305 11.9231 3.82 12.5231 3.47C13.1231 3.11 13.7981 2.93 14.5481 2.93C15.2981 2.93 15.9731 3.11 16.5731 3.47C17.1731 3.82 17.6481 4.305 17.9981 4.925C18.3481 5.535 18.5231 6.245 18.5231 7.055ZM17.0231 7.055C17.0231 6.505 16.9131 6.03 16.6931 5.63C16.4731 5.22 16.1731 4.9 15.7931 4.67C15.4231 4.43 15.0081 4.31 14.5481 4.31C14.0881 4.31 13.6681 4.43 13.2881 4.67C12.9081 4.9 12.6081 5.22 12.3881 5.63C12.1681 6.03 12.0581 6.505 12.0581 7.055C12.0581 7.585 12.1681 8.055 12.3881 8.465C12.6081 8.875 12.9081 9.195 13.2881 9.425C13.6681 9.655 14.0881 9.77 14.5481 9.77C15.0081 9.77 15.4231 9.655 15.7931 9.425C16.1731 9.195 16.4731 8.875 16.6931 8.465C16.9131 8.055 17.0231 7.585 17.0231 7.055ZM26.1009 3.11C26.3109 3.11 26.4859 3.185 26.6259 3.335C26.7759 3.475 26.8509 3.655 26.8509 3.875V7.82C26.8509 8.86 26.5609 9.675 25.9809 10.265C25.4009 10.845 24.5809 11.135 23.5209 11.135C22.4709 11.135 21.6559 10.845 21.0759 10.265C20.5059 9.675 20.2209 8.86 20.2209 7.82V3.875C20.2209 3.655 20.2909 3.475 20.4309 3.335C20.5709 3.185 20.7509 3.11 20.9709 3.11C21.1809 3.11 21.3559 3.185 21.4959 3.335C21.6459 3.475 21.7209 3.655 21.7209 3.875V7.82C21.7209 8.47 21.8709 8.955 22.1709 9.275C22.4809 9.595 22.9309 9.755 23.5209 9.755C24.1209 9.755 24.5759 9.595 24.8859 9.275C25.1959 8.955 25.3509 8.47 25.3509 7.82V3.875C25.3509 3.655 25.4209 3.475 25.5609 3.335C25.7009 3.185 25.8809 3.11 26.1009 3.11ZM28.4717 9.77C28.3817 9.63 28.3417 9.47 28.3517 9.29C28.3617 9.1 28.4667 8.94 28.6667 8.81C28.8067 8.72 28.9517 8.685 29.1017 8.705C29.2617 8.715 29.4117 8.79 29.5517 8.93C29.8317 9.24 30.1417 9.485 30.4817 9.665C30.8317 9.845 31.2517 9.935 31.7417 9.935C31.9417 9.925 32.1467 9.895 32.3567 9.845C32.5667 9.785 32.7467 9.685 32.8967 9.545C33.0467 9.395 33.1217 9.18 33.1217 8.9C33.1217 8.65 33.0417 8.45 32.8817 8.3C32.7217 8.15 32.5117 8.03 32.2517 7.94C31.9917 7.84 31.7117 7.75 31.4117 7.67C31.0917 7.58 30.7667 7.48 30.4367 7.37C30.1167 7.26 29.8267 7.12 29.5667 6.95C29.3067 6.77 29.0917 6.54 28.9217 6.26C28.7617 5.98 28.6817 5.635 28.6817 5.225C28.6817 4.755 28.8117 4.35 29.0717 4.01C29.3417 3.67 29.6867 3.405 30.1067 3.215C30.5367 3.025 31.0017 2.93 31.5017 2.93C31.7917 2.93 32.0967 2.97 32.4167 3.05C32.7367 3.12 33.0467 3.235 33.3467 3.395C33.6467 3.555 33.9067 3.765 34.1267 4.025C34.2267 4.155 34.2817 4.31 34.2917 4.49C34.3117 4.67 34.2317 4.83 34.0517 4.97C33.9317 5.07 33.7867 5.115 33.6167 5.105C33.4467 5.095 33.3067 5.04 33.1967 4.94C33.0067 4.7 32.7617 4.515 32.4617 4.385C32.1617 4.245 31.8217 4.175 31.4417 4.175C31.2517 4.175 31.0517 4.205 30.8417 4.265C30.6417 4.315 30.4717 4.41 30.3317 4.55C30.1917 4.69 30.1217 4.895 30.1217 5.165C30.1217 5.415 30.2017 5.615 30.3617 5.765C30.5317 5.915 30.7517 6.04 31.0217 6.14C31.2917 6.24 31.5867 6.33 31.9067 6.41C32.2167 6.49 32.5217 6.585 32.8217 6.695C33.1317 6.805 33.4067 6.95 33.6467 7.13C33.8967 7.3 34.0967 7.525 34.2467 7.805C34.4067 8.075 34.4867 8.42 34.4867 8.84C34.4867 9.33 34.3417 9.75 34.0517 10.1C33.7717 10.44 33.4117 10.7 32.9717 10.88C32.5417 11.06 32.0867 11.15 31.6067 11.15C31.0367 11.15 30.4667 11.05 29.8967 10.85C29.3367 10.64 28.8617 10.28 28.4717 9.77ZM35.9948 3.2H39.5198C39.7198 3.2 39.8848 3.27 40.0148 3.41C40.1548 3.54 40.2248 3.705 40.2248 3.905C40.2248 4.095 40.1548 4.255 40.0148 4.385C39.8848 4.515 39.7198 4.58 39.5198 4.58H35.9948C35.7948 4.58 35.6248 4.515 35.4848 4.385C35.3548 4.245 35.2898 4.08 35.2898 3.89C35.2898 3.69 35.3548 3.525 35.4848 3.395C35.6248 3.265 35.7948 3.2 35.9948 3.2ZM37.5698 1.25C37.7898 1.25 37.9698 1.325 38.1098 1.475C38.2498 1.615 38.3198 1.795 38.3198 2.015V8.975C38.3198 9.155 38.3498 9.3 38.4098 9.41C38.4698 9.52 38.5498 9.595 38.6498 9.635C38.7598 9.675 38.8698 9.695 38.9798 9.695C39.0898 9.695 39.1848 9.675 39.2648 9.635C39.3548 9.595 39.4598 9.575 39.5798 9.575C39.6998 9.575 39.8098 9.63 39.9098 9.74C40.0098 9.85 40.0598 10 40.0598 10.19C40.0598 10.43 39.9298 10.625 39.6698 10.775C39.4098 10.925 39.1298 11 38.8298 11C38.6598 11 38.4598 10.985 38.2298 10.955C37.9998 10.925 37.7748 10.85 37.5548 10.73C37.3448 10.61 37.1698 10.42 37.0298 10.16C36.8898 9.89 36.8198 9.515 36.8198 9.035V2.015C36.8198 1.795 36.8898 1.615 37.0298 1.475C37.1798 1.325 37.3598 1.25 37.5698 1.25ZM49.3727 7.055C49.3727 7.855 49.1977 8.565 48.8477 9.185C48.4977 9.795 48.0227 10.275 47.4227 10.625C46.8227 10.975 46.1477 11.15 45.3977 11.15C44.6477 11.15 43.9727 10.975 43.3727 10.625C42.7727 10.275 42.2927 9.795 41.9327 9.185C41.5827 8.565 41.4077 7.855 41.4077 7.055C41.4077 6.245 41.5827 5.535 41.9327 4.925C42.2927 4.305 42.7727 3.82 43.3727 3.47C43.9727 3.11 44.6477 2.93 45.3977 2.93C46.1477 2.93 46.8227 3.11 47.4227 3.47C48.0227 3.82 48.4977 4.305 48.8477 4.925C49.1977 5.535 49.3727 6.245 49.3727 7.055ZM47.8727 7.055C47.8727 6.505 47.7627 6.03 47.5427 5.63C47.3227 5.22 47.0227 4.9 46.6427 4.67C46.2727 4.43 45.8577 4.31 45.3977 4.31C44.9377 4.31 44.5177 4.43 44.1377 4.67C43.7577 4.9 43.4577 5.22 43.2377 5.63C43.0177 6.03 42.9077 6.505 42.9077 7.055C42.9077 7.585 43.0177 8.055 43.2377 8.465C43.4577 8.875 43.7577 9.195 44.1377 9.425C44.5177 9.655 44.9377 9.77 45.3977 9.77C45.8577 9.77 46.2727 9.655 46.6427 9.425C47.0227 9.195 47.3227 8.875 47.5427 8.465C47.7627 8.055 47.8727 7.585 47.8727 7.055ZM55.1355 2.93C55.8455 2.93 56.3955 3.08 56.7855 3.38C57.1755 3.67 57.4455 4.065 57.5955 4.565C57.7555 5.055 57.8355 5.605 57.8355 6.215V10.235C57.8355 10.455 57.7605 10.64 57.6105 10.79C57.4705 10.93 57.2955 11 57.0855 11C56.8655 11 56.6855 10.93 56.5455 10.79C56.4055 10.64 56.3355 10.455 56.3355 10.235V6.23C56.3355 5.87 56.2855 5.55 56.1855 5.27C56.0855 4.98 55.9105 4.75 55.6605 4.58C55.4205 4.4 55.0805 4.31 54.6405 4.31C54.2305 4.31 53.8705 4.4 53.5605 4.58C53.2505 4.75 53.0055 4.98 52.8255 5.27C52.6555 5.55 52.5705 5.87 52.5705 6.23V10.235C52.5705 10.455 52.4955 10.64 52.3455 10.79C52.2055 10.93 52.0305 11 51.8205 11C51.6005 11 51.4205 10.93 51.2805 10.79C51.1405 10.64 51.0705 10.455 51.0705 10.235V3.875C51.0705 3.655 51.1405 3.475 51.2805 3.335C51.4205 3.185 51.6005 3.11 51.8205 3.11C52.0305 3.11 52.2055 3.185 52.3455 3.335C52.4955 3.475 52.5705 3.655 52.5705 3.875V4.715L52.3005 4.865C52.3705 4.645 52.4905 4.425 52.6605 4.205C52.8405 3.975 53.0555 3.765 53.3055 3.575C53.5555 3.375 53.8355 3.22 54.1455 3.11C54.4555 2.99 54.7855 2.93 55.1355 2.93Z" fill="#002A56"/>
</svg>
