<svg width="51" height="33" viewBox="0 0 51 33" fill="none" xmlns="http://www.w3.org/2000/svg">
<path d="M8.10727 11.015C7.87727 11.015 7.69227 10.92 7.55227 10.73L3.81727 5.915L4.97227 4.745L8.78227 9.71C8.90227 9.87 8.96227 10.045 8.96227 10.235C8.96227 10.475 8.87227 10.665 8.69227 10.805C8.51227 10.945 8.31727 11.015 8.10727 11.015ZM8.18227 0.455C8.38227 0.455 8.54727 0.535 8.67727 0.694999C8.80727 0.855 8.87227 1.02 8.87227 1.19C8.87227 1.37 8.79727 1.535 8.64727 1.685L2.18227 7.82L2.09227 6.05L7.58227 0.74C7.76227 0.55 7.96227 0.455 8.18227 0.455ZM1.56727 11C1.33727 11 1.14727 10.93 0.997266 10.79C0.857266 10.64 0.787266 10.455 0.787266 10.235V1.265C0.787266 1.045 0.862266 0.865 1.01227 0.724999C1.16227 0.574999 1.35727 0.499999 1.59727 0.499999C1.82727 0.499999 2.01227 0.574999 2.15227 0.724999C2.29227 0.865 2.36227 1.045 2.36227 1.265V10.235C2.35227 10.455 2.27727 10.64 2.13727 10.79C1.99727 10.93 1.80727 11 1.56727 11ZM17.0189 2.99C17.2389 2.99 17.4189 3.065 17.5589 3.215C17.6989 3.355 17.7689 3.535 17.7689 3.755V10.235C17.7689 10.455 17.6989 10.64 17.5589 10.79C17.4189 10.93 17.2389 11 17.0189 11C16.8089 11 16.6289 10.93 16.4789 10.79C16.3389 10.64 16.2689 10.455 16.2689 10.235V9.155L16.5839 9.2C16.5839 9.38 16.5089 9.58 16.3589 9.8C16.2189 10.02 16.0239 10.235 15.7739 10.445C15.5239 10.645 15.2289 10.815 14.8889 10.955C14.5489 11.085 14.1839 11.15 13.7939 11.15C13.1039 11.15 12.4839 10.975 11.9339 10.625C11.3839 10.265 10.9489 9.775 10.6289 9.155C10.3089 8.535 10.1489 7.83 10.1489 7.04C10.1489 6.23 10.3089 5.52 10.6289 4.91C10.9489 4.29 11.3789 3.805 11.9189 3.455C12.4689 3.105 13.0789 2.93 13.7489 2.93C14.1789 2.93 14.5739 3 14.9339 3.14C15.3039 3.28 15.6239 3.46 15.8939 3.68C16.1639 3.9 16.3689 4.135 16.5089 4.385C16.6589 4.625 16.7339 4.855 16.7339 5.075L16.2689 5.12V3.755C16.2689 3.545 16.3389 3.365 16.4789 3.215C16.6289 3.065 16.8089 2.99 17.0189 2.99ZM13.9589 9.77C14.4289 9.77 14.8439 9.65 15.2039 9.41C15.5639 9.17 15.8439 8.845 16.0439 8.435C16.2439 8.015 16.3439 7.55 16.3439 7.04C16.3439 6.52 16.2439 6.055 16.0439 5.645C15.8439 5.235 15.5639 4.91 15.2039 4.67C14.8439 4.43 14.4289 4.31 13.9589 4.31C13.4989 4.31 13.0889 4.43 12.7289 4.67C12.3789 4.91 12.0989 5.235 11.8889 5.645C11.6889 6.055 11.5889 6.52 11.5889 7.04C11.5889 7.55 11.6889 8.015 11.8889 8.435C12.0989 8.845 12.3789 9.17 12.7289 9.41C13.0889 9.65 13.4989 9.77 13.9589 9.77ZM23.9353 2.93C24.6453 2.93 25.1953 3.08 25.5853 3.38C25.9753 3.67 26.2453 4.065 26.3953 4.565C26.5553 5.055 26.6353 5.605 26.6353 6.215V10.235C26.6353 10.455 26.5603 10.64 26.4103 10.79C26.2703 10.93 26.0953 11 25.8853 11C25.6653 11 25.4853 10.93 25.3453 10.79C25.2053 10.64 25.1353 10.455 25.1353 10.235V6.23C25.1353 5.87 25.0853 5.55 24.9853 5.27C24.8853 4.98 24.7103 4.75 24.4603 4.58C24.2203 4.4 23.8803 4.31 23.4403 4.31C23.0303 4.31 22.6703 4.4 22.3603 4.58C22.0503 4.75 21.8053 4.98 21.6253 5.27C21.4553 5.55 21.3703 5.87 21.3703 6.23V10.235C21.3703 10.455 21.2953 10.64 21.1453 10.79C21.0053 10.93 20.8303 11 20.6203 11C20.4003 11 20.2203 10.93 20.0803 10.79C19.9403 10.64 19.8703 10.455 19.8703 10.235V3.875C19.8703 3.655 19.9403 3.475 20.0803 3.335C20.2203 3.185 20.4003 3.11 20.6203 3.11C20.8303 3.11 21.0053 3.185 21.1453 3.335C21.2953 3.475 21.3703 3.655 21.3703 3.875V4.715L21.1003 4.865C21.1703 4.645 21.2903 4.425 21.4603 4.205C21.6403 3.975 21.8553 3.765 22.1053 3.575C22.3553 3.375 22.6353 3.22 22.9453 3.11C23.2553 2.99 23.5853 2.93 23.9353 2.93ZM28.253 9.77C28.163 9.63 28.123 9.47 28.133 9.29C28.143 9.1 28.248 8.94 28.448 8.81C28.588 8.72 28.733 8.685 28.883 8.705C29.043 8.715 29.193 8.79 29.333 8.93C29.613 9.24 29.923 9.485 30.263 9.665C30.613 9.845 31.033 9.935 31.523 9.935C31.723 9.925 31.928 9.895 32.138 9.845C32.348 9.785 32.528 9.685 32.678 9.545C32.828 9.395 32.903 9.18 32.903 8.9C32.903 8.65 32.823 8.45 32.663 8.3C32.503 8.15 32.293 8.03 32.033 7.94C31.773 7.84 31.493 7.75 31.193 7.67C30.873 7.58 30.548 7.48 30.218 7.37C29.898 7.26 29.608 7.12 29.348 6.95C29.088 6.77 28.873 6.54 28.703 6.26C28.543 5.98 28.463 5.635 28.463 5.225C28.463 4.755 28.593 4.35 28.853 4.01C29.123 3.67 29.468 3.405 29.888 3.215C30.318 3.025 30.783 2.93 31.283 2.93C31.573 2.93 31.878 2.97 32.198 3.05C32.518 3.12 32.828 3.235 33.128 3.395C33.428 3.555 33.688 3.765 33.908 4.025C34.008 4.155 34.063 4.31 34.073 4.49C34.093 4.67 34.013 4.83 33.833 4.97C33.713 5.07 33.568 5.115 33.398 5.105C33.228 5.095 33.088 5.04 32.978 4.94C32.788 4.7 32.543 4.515 32.243 4.385C31.943 4.245 31.603 4.175 31.223 4.175C31.033 4.175 30.833 4.205 30.623 4.265C30.423 4.315 30.253 4.41 30.113 4.55C29.973 4.69 29.903 4.895 29.903 5.165C29.903 5.415 29.983 5.615 30.143 5.765C30.313 5.915 30.533 6.04 30.803 6.14C31.073 6.24 31.368 6.33 31.688 6.41C31.998 6.49 32.303 6.585 32.603 6.695C32.913 6.805 33.188 6.95 33.428 7.13C33.678 7.3 33.878 7.525 34.028 7.805C34.188 8.075 34.268 8.42 34.268 8.84C34.268 9.33 34.123 9.75 33.833 10.1C33.553 10.44 33.193 10.7 32.753 10.88C32.323 11.06 31.868 11.15 31.388 11.15C30.818 11.15 30.248 11.05 29.678 10.85C29.118 10.64 28.643 10.28 28.253 9.77ZM42.4632 2.99C42.6832 2.99 42.8632 3.065 43.0032 3.215C43.1432 3.355 43.2132 3.535 43.2132 3.755V10.235C43.2132 10.455 43.1432 10.64 43.0032 10.79C42.8632 10.93 42.6832 11 42.4632 11C42.2532 11 42.0732 10.93 41.9232 10.79C41.7832 10.64 41.7132 10.455 41.7132 10.235V9.155L42.0282 9.2C42.0282 9.38 41.9532 9.58 41.8032 9.8C41.6632 10.02 41.4682 10.235 41.2182 10.445C40.9682 10.645 40.6732 10.815 40.3332 10.955C39.9932 11.085 39.6282 11.15 39.2382 11.15C38.5482 11.15 37.9282 10.975 37.3782 10.625C36.8282 10.265 36.3932 9.775 36.0732 9.155C35.7532 8.535 35.5932 7.83 35.5932 7.04C35.5932 6.23 35.7532 5.52 36.0732 4.91C36.3932 4.29 36.8232 3.805 37.3632 3.455C37.9132 3.105 38.5232 2.93 39.1932 2.93C39.6232 2.93 40.0182 3 40.3782 3.14C40.7482 3.28 41.0682 3.46 41.3382 3.68C41.6082 3.9 41.8132 4.135 41.9532 4.385C42.1032 4.625 42.1782 4.855 42.1782 5.075L41.7132 5.12V3.755C41.7132 3.545 41.7832 3.365 41.9232 3.215C42.0732 3.065 42.2532 2.99 42.4632 2.99ZM39.4032 9.77C39.8732 9.77 40.2882 9.65 40.6482 9.41C41.0082 9.17 41.2882 8.845 41.4882 8.435C41.6882 8.015 41.7882 7.55 41.7882 7.04C41.7882 6.52 41.6882 6.055 41.4882 5.645C41.2882 5.235 41.0082 4.91 40.6482 4.67C40.2882 4.43 39.8732 4.31 39.4032 4.31C38.9432 4.31 38.5332 4.43 38.1732 4.67C37.8232 4.91 37.5432 5.235 37.3332 5.645C37.1332 6.055 37.0332 6.52 37.0332 7.04C37.0332 7.55 37.1332 8.015 37.3332 8.435C37.5432 8.845 37.8232 9.17 38.1732 9.41C38.5332 9.65 38.9432 9.77 39.4032 9.77ZM44.8496 9.77C44.7596 9.63 44.7196 9.47 44.7296 9.29C44.7396 9.1 44.8446 8.94 45.0446 8.81C45.1846 8.72 45.3296 8.685 45.4796 8.705C45.6396 8.715 45.7896 8.79 45.9296 8.93C46.2096 9.24 46.5196 9.485 46.8596 9.665C47.2096 9.845 47.6296 9.935 48.1196 9.935C48.3196 9.925 48.5246 9.895 48.7346 9.845C48.9446 9.785 49.1246 9.685 49.2746 9.545C49.4246 9.395 49.4996 9.18 49.4996 8.9C49.4996 8.65 49.4196 8.45 49.2596 8.3C49.0996 8.15 48.8896 8.03 48.6296 7.94C48.3696 7.84 48.0896 7.75 47.7896 7.67C47.4696 7.58 47.1446 7.48 46.8146 7.37C46.4946 7.26 46.2046 7.12 45.9446 6.95C45.6846 6.77 45.4696 6.54 45.2996 6.26C45.1396 5.98 45.0596 5.635 45.0596 5.225C45.0596 4.755 45.1896 4.35 45.4496 4.01C45.7196 3.67 46.0646 3.405 46.4846 3.215C46.9146 3.025 47.3796 2.93 47.8796 2.93C48.1696 2.93 48.4746 2.97 48.7946 3.05C49.1146 3.12 49.4246 3.235 49.7246 3.395C50.0246 3.555 50.2846 3.765 50.5046 4.025C50.6046 4.155 50.6596 4.31 50.6696 4.49C50.6896 4.67 50.6096 4.83 50.4296 4.97C50.3096 5.07 50.1646 5.115 49.9946 5.105C49.8246 5.095 49.6846 5.04 49.5746 4.94C49.3846 4.7 49.1396 4.515 48.8396 4.385C48.5396 4.245 48.1996 4.175 47.8196 4.175C47.6296 4.175 47.4296 4.205 47.2196 4.265C47.0196 4.315 46.8496 4.41 46.7096 4.55C46.5696 4.69 46.4996 4.895 46.4996 5.165C46.4996 5.415 46.5796 5.615 46.7396 5.765C46.9096 5.915 47.1296 6.04 47.3996 6.14C47.6696 6.24 47.9646 6.33 48.2846 6.41C48.5946 6.49 48.8996 6.585 49.1996 6.695C49.5096 6.805 49.7846 6.95 50.0246 7.13C50.2746 7.3 50.4746 7.525 50.6246 7.805C50.7846 8.075 50.8646 8.42 50.8646 8.84C50.8646 9.33 50.7196 9.75 50.4296 10.1C50.1496 10.44 49.7896 10.7 49.3496 10.88C48.9196 11.06 48.4646 11.15 47.9846 11.15C47.4146 11.15 46.8446 11.05 46.2746 10.85C45.7146 10.64 45.2396 10.28 44.8496 9.77ZM20.4371 20.1C20.6571 20.21 20.7821 20.38 20.8121 20.61C20.8521 20.84 20.7971 21.05 20.6471 21.24C20.5371 21.39 20.3921 21.475 20.2121 21.495C20.0421 21.515 19.8721 21.48 19.7021 21.39C19.4121 21.24 19.1071 21.12 18.7871 21.03C18.4671 20.94 18.1271 20.895 17.7671 20.895C17.1971 20.895 16.6821 20.99 16.2221 21.18C15.7721 21.36 15.3821 21.625 15.0521 21.975C14.7221 22.315 14.4671 22.72 14.2871 23.19C14.1171 23.66 14.0321 24.18 14.0321 24.75C14.0321 25.38 14.1271 25.94 14.3171 26.43C14.5071 26.91 14.7671 27.32 15.0971 27.66C15.4371 27.99 15.8321 28.24 16.2821 28.41C16.7421 28.57 17.2371 28.65 17.7671 28.65C18.1071 28.65 18.4371 28.61 18.7571 28.53C19.0871 28.45 19.3971 28.33 19.6871 28.17C19.8671 28.08 20.0421 28.05 20.2121 28.08C20.3921 28.1 20.5371 28.185 20.6471 28.335C20.8171 28.545 20.8771 28.76 20.8271 28.98C20.7871 29.19 20.6621 29.35 20.4521 29.46C20.2021 29.6 19.9271 29.72 19.6271 29.82C19.3271 29.92 19.0221 30 18.7121 30.06C18.4021 30.12 18.0871 30.15 17.7671 30.15C17.0471 30.15 16.3671 30.03 15.7271 29.79C15.0871 29.55 14.5171 29.2 14.0171 28.74C13.5171 28.28 13.1221 27.715 12.8321 27.045C12.5521 26.375 12.4121 25.61 12.4121 24.75C12.4121 23.98 12.5421 23.27 12.8021 22.62C13.0721 21.96 13.4471 21.395 13.9271 20.925C14.4171 20.445 14.9871 20.075 15.6371 19.815C16.2871 19.545 16.9971 19.41 17.7671 19.41C18.2471 19.41 18.7121 19.47 19.1621 19.59C19.6221 19.71 20.0471 19.88 20.4371 20.1ZM23.7632 29.235C23.7632 29.455 23.6932 29.64 23.5532 29.79C23.4132 29.93 23.2332 30 23.0132 30C22.8032 30 22.6232 29.93 22.4732 29.79C22.3332 29.64 22.2632 29.455 22.2632 29.235V22.815C22.2632 22.595 22.3332 22.415 22.4732 22.275C22.6232 22.125 22.8032 22.05 23.0132 22.05C23.2332 22.05 23.4132 22.125 23.5532 22.275C23.6932 22.415 23.7632 22.595 23.7632 22.815V29.235ZM22.9982 21.06C22.7082 21.06 22.4982 21.01 22.3682 20.91C22.2382 20.8 22.1732 20.62 22.1732 20.37V20.13C22.1732 19.88 22.2432 19.705 22.3832 19.605C22.5232 19.505 22.7332 19.455 23.0132 19.455C23.3132 19.455 23.5282 19.51 23.6582 19.62C23.7882 19.72 23.8532 19.89 23.8532 20.13V20.37C23.8532 20.63 23.7832 20.81 23.6432 20.91C23.5132 21.01 23.2982 21.06 22.9982 21.06ZM25.676 22.2H29.201C29.401 22.2 29.566 22.27 29.696 22.41C29.836 22.54 29.906 22.705 29.906 22.905C29.906 23.095 29.836 23.255 29.696 23.385C29.566 23.515 29.401 23.58 29.201 23.58H25.676C25.476 23.58 25.306 23.515 25.166 23.385C25.036 23.245 24.971 23.08 24.971 22.89C24.971 22.69 25.036 22.525 25.166 22.395C25.306 22.265 25.476 22.2 25.676 22.2ZM27.251 20.25C27.471 20.25 27.651 20.325 27.791 20.475C27.931 20.615 28.001 20.795 28.001 21.015V27.975C28.001 28.155 28.031 28.3 28.091 28.41C28.151 28.52 28.231 28.595 28.331 28.635C28.441 28.675 28.551 28.695 28.661 28.695C28.771 28.695 28.866 28.675 28.946 28.635C29.036 28.595 29.141 28.575 29.261 28.575C29.381 28.575 29.491 28.63 29.591 28.74C29.691 28.85 29.741 29 29.741 29.19C29.741 29.43 29.611 29.625 29.351 29.775C29.091 29.925 28.811 30 28.511 30C28.341 30 28.141 29.985 27.911 29.955C27.681 29.925 27.456 29.85 27.236 29.73C27.026 29.61 26.851 29.42 26.711 29.16C26.571 28.89 26.501 28.515 26.501 28.035V21.015C26.501 20.795 26.571 20.615 26.711 20.475C26.861 20.325 27.041 20.25 27.251 20.25ZM37.4321 22.05C37.6521 22.05 37.8321 22.125 37.9721 22.275C38.1121 22.415 38.1821 22.595 38.1821 22.815V29.265C38.1821 30.145 38.0121 30.86 37.6721 31.41C37.3421 31.96 36.8921 32.36 36.3221 32.61C35.7621 32.87 35.1271 33 34.4171 33C34.0571 33 33.6971 32.965 33.3371 32.895C32.9771 32.835 32.6821 32.745 32.4521 32.625C32.2121 32.515 32.0421 32.38 31.9421 32.22C31.8421 32.06 31.8271 31.885 31.8971 31.695C31.9671 31.455 32.0871 31.29 32.2571 31.2C32.4271 31.12 32.6021 31.115 32.7821 31.185C32.9521 31.255 33.1771 31.345 33.4571 31.455C33.7371 31.565 34.0571 31.62 34.4171 31.62C34.9071 31.62 35.3221 31.54 35.6621 31.38C36.0021 31.22 36.2571 30.97 36.4271 30.63C36.6071 30.29 36.6971 29.85 36.6971 29.31V28.275L36.9371 28.635C36.7771 28.965 36.5671 29.24 36.3071 29.46C36.0471 29.68 35.7371 29.85 35.3771 29.97C35.0271 30.09 34.6371 30.15 34.2071 30.15C33.6571 30.15 33.1821 30.03 32.7821 29.79C32.3921 29.54 32.0921 29.2 31.8821 28.77C31.6721 28.33 31.5671 27.83 31.5671 27.27V22.815C31.5671 22.595 31.6371 22.415 31.7771 22.275C31.9171 22.125 32.0971 22.05 32.3171 22.05C32.5271 22.05 32.7021 22.125 32.8421 22.275C32.9921 22.415 33.0671 22.595 33.0671 22.815V26.865C33.0671 27.525 33.2121 28.01 33.5021 28.32C33.7921 28.62 34.2221 28.77 34.7921 28.77C35.1721 28.77 35.5021 28.69 35.7821 28.53C36.0621 28.37 36.2821 28.15 36.4421 27.87C36.6021 27.58 36.6821 27.245 36.6821 26.865V22.815C36.6821 22.595 36.7521 22.415 36.8921 22.275C37.0421 22.125 37.2221 22.05 37.4321 22.05Z" fill="#002A56"/>
</svg>
