<svg width="72" height="14" viewBox="0 0 72 14" fill="none" xmlns="http://www.w3.org/2000/svg">
<path d="M5.89891 9.53C6.10891 9.53 6.28391 9.6 6.42391 9.74C6.57391 9.88 6.64891 10.055 6.64891 10.265C6.64891 10.475 6.57391 10.65 6.42391 10.79C6.28391 10.93 6.10891 11 5.89891 11H0.858906C0.638906 11 0.453906 10.93 0.303906 10.79C0.163906 10.64 0.0939063 10.455 0.0939063 10.235V1.265C0.0939063 1.045 0.168906 0.865 0.318906 0.724999C0.468906 0.574999 0.663906 0.499999 0.903906 0.499999C1.10391 0.499999 1.27891 0.574999 1.42891 0.724999C1.58891 0.865 1.66891 1.045 1.66891 1.265V9.785L1.35391 9.53H5.89891ZM14.6703 2.99C14.8903 2.99 15.0703 3.065 15.2103 3.215C15.3503 3.355 15.4203 3.535 15.4203 3.755V10.235C15.4203 10.455 15.3503 10.64 15.2103 10.79C15.0703 10.93 14.8903 11 14.6703 11C14.4603 11 14.2803 10.93 14.1303 10.79C13.9903 10.64 13.9203 10.455 13.9203 10.235V9.155L14.2353 9.2C14.2353 9.38 14.1603 9.58 14.0103 9.8C13.8703 10.02 13.6753 10.235 13.4253 10.445C13.1753 10.645 12.8803 10.815 12.5403 10.955C12.2003 11.085 11.8353 11.15 11.4453 11.15C10.7553 11.15 10.1353 10.975 9.58527 10.625C9.03527 10.265 8.60027 9.775 8.28027 9.155C7.96027 8.535 7.80027 7.83 7.80027 7.04C7.80027 6.23 7.96027 5.52 8.28027 4.91C8.60027 4.29 9.03027 3.805 9.57027 3.455C10.1203 3.105 10.7303 2.93 11.4003 2.93C11.8303 2.93 12.2253 3 12.5853 3.14C12.9553 3.28 13.2753 3.46 13.5453 3.68C13.8153 3.9 14.0203 4.135 14.1603 4.385C14.3103 4.625 14.3853 4.855 14.3853 5.075L13.9203 5.12V3.755C13.9203 3.545 13.9903 3.365 14.1303 3.215C14.2803 3.065 14.4603 2.99 14.6703 2.99ZM11.6103 9.77C12.0803 9.77 12.4953 9.65 12.8553 9.41C13.2153 9.17 13.4953 8.845 13.6953 8.435C13.8953 8.015 13.9953 7.55 13.9953 7.04C13.9953 6.52 13.8953 6.055 13.6953 5.645C13.4953 5.235 13.2153 4.91 12.8553 4.67C12.4953 4.43 12.0803 4.31 11.6103 4.31C11.1503 4.31 10.7403 4.43 10.3803 4.67C10.0303 4.91 9.75027 5.235 9.54027 5.645C9.34027 6.055 9.24027 6.52 9.24027 7.04C9.24027 7.55 9.34027 8.015 9.54027 8.435C9.75027 8.845 10.0303 9.17 10.3803 9.41C10.7403 9.65 11.1503 9.77 11.6103 9.77ZM17.0567 9.77C16.9667 9.63 16.9267 9.47 16.9367 9.29C16.9467 9.1 17.0517 8.94 17.2517 8.81C17.3917 8.72 17.5367 8.685 17.6867 8.705C17.8467 8.715 17.9967 8.79 18.1367 8.93C18.4167 9.24 18.7267 9.485 19.0667 9.665C19.4167 9.845 19.8367 9.935 20.3267 9.935C20.5267 9.925 20.7317 9.895 20.9417 9.845C21.1517 9.785 21.3317 9.685 21.4817 9.545C21.6317 9.395 21.7067 9.18 21.7067 8.9C21.7067 8.65 21.6267 8.45 21.4667 8.3C21.3067 8.15 21.0967 8.03 20.8367 7.94C20.5767 7.84 20.2967 7.75 19.9967 7.67C19.6767 7.58 19.3517 7.48 19.0217 7.37C18.7017 7.26 18.4117 7.12 18.1517 6.95C17.8917 6.77 17.6767 6.54 17.5067 6.26C17.3467 5.98 17.2667 5.635 17.2667 5.225C17.2667 4.755 17.3967 4.35 17.6567 4.01C17.9267 3.67 18.2717 3.405 18.6917 3.215C19.1217 3.025 19.5867 2.93 20.0867 2.93C20.3767 2.93 20.6817 2.97 21.0017 3.05C21.3217 3.12 21.6317 3.235 21.9317 3.395C22.2317 3.555 22.4917 3.765 22.7117 4.025C22.8117 4.155 22.8667 4.31 22.8767 4.49C22.8967 4.67 22.8167 4.83 22.6367 4.97C22.5167 5.07 22.3717 5.115 22.2017 5.105C22.0317 5.095 21.8917 5.04 21.7817 4.94C21.5917 4.7 21.3467 4.515 21.0467 4.385C20.7467 4.245 20.4067 4.175 20.0267 4.175C19.8367 4.175 19.6367 4.205 19.4267 4.265C19.2267 4.315 19.0567 4.41 18.9167 4.55C18.7767 4.69 18.7067 4.895 18.7067 5.165C18.7067 5.415 18.7867 5.615 18.9467 5.765C19.1167 5.915 19.3367 6.04 19.6067 6.14C19.8767 6.24 20.1717 6.33 20.4917 6.41C20.8017 6.49 21.1067 6.585 21.4067 6.695C21.7167 6.805 21.9917 6.95 22.2317 7.13C22.4817 7.3 22.6817 7.525 22.8317 7.805C22.9917 8.075 23.0717 8.42 23.0717 8.84C23.0717 9.33 22.9267 9.75 22.6367 10.1C22.3567 10.44 21.9967 10.7 21.5567 10.88C21.1267 11.06 20.6717 11.15 20.1917 11.15C19.6217 11.15 19.0517 11.05 18.4817 10.85C17.9217 10.64 17.4467 10.28 17.0567 9.77ZM36.6746 0.47C36.8846 0.47 37.0646 0.54 37.2146 0.68C37.3646 0.82 37.4396 0.99 37.4396 1.19C37.4396 1.3 37.4146 1.415 37.3646 1.535L33.5696 10.505C33.4896 10.675 33.3796 10.8 33.2396 10.88C33.1096 10.96 32.9746 11 32.8346 11C32.6946 10.99 32.5596 10.945 32.4296 10.865C32.3096 10.785 32.2146 10.67 32.1446 10.52L28.3496 1.535C28.3296 1.485 28.3146 1.435 28.3046 1.385C28.2946 1.325 28.2896 1.265 28.2896 1.205C28.2896 0.974999 28.3746 0.794999 28.5446 0.665C28.7146 0.535 28.8796 0.47 29.0396 0.47C29.3596 0.47 29.5946 0.635 29.7446 0.965L33.1796 9.11H32.7446L35.9846 0.95C36.1246 0.63 36.3546 0.47 36.6746 0.47ZM42.2904 11.15C41.4604 11.15 40.7404 10.98 40.1304 10.64C39.5204 10.29 39.0454 9.815 38.7054 9.215C38.3754 8.605 38.2104 7.91 38.2104 7.13C38.2104 6.25 38.3854 5.5 38.7354 4.88C39.0954 4.25 39.5604 3.77 40.1304 3.44C40.7004 3.1 41.3054 2.93 41.9454 2.93C42.4354 2.93 42.9004 3.03 43.3404 3.23C43.7804 3.42 44.1704 3.69 44.5104 4.04C44.8604 4.38 45.1354 4.785 45.3354 5.255C45.5354 5.715 45.6404 6.22 45.6504 6.77C45.6404 6.97 45.5604 7.135 45.4104 7.265C45.2604 7.395 45.0854 7.46 44.8854 7.46H39.0504L38.6904 6.185H44.3304L44.0454 6.455V6.08C44.0254 5.73 43.9104 5.425 43.7004 5.165C43.4904 4.895 43.2304 4.69 42.9204 4.55C42.6104 4.4 42.2854 4.325 41.9454 4.325C41.6454 4.325 41.3554 4.375 41.0754 4.475C40.8054 4.565 40.5604 4.715 40.3404 4.925C40.1304 5.135 39.9604 5.415 39.8304 5.765C39.7104 6.105 39.6504 6.53 39.6504 7.04C39.6504 7.59 39.7654 8.07 39.9954 8.48C40.2254 8.89 40.5354 9.21 40.9254 9.44C41.3154 9.66 41.7454 9.77 42.2154 9.77C42.5854 9.77 42.8904 9.735 43.1304 9.665C43.3704 9.585 43.5704 9.49 43.7304 9.38C43.8904 9.27 44.0304 9.165 44.1504 9.065C44.3004 8.975 44.4504 8.93 44.6004 8.93C44.7804 8.93 44.9304 8.995 45.0504 9.125C45.1704 9.245 45.2304 9.39 45.2304 9.56C45.2304 9.78 45.1204 9.98 44.9004 10.16C44.6304 10.42 44.2554 10.65 43.7754 10.85C43.3054 11.05 42.8104 11.15 42.2904 11.15ZM50.5577 2.93C50.9877 2.93 51.3827 3 51.7427 3.14C52.1027 3.28 52.4127 3.46 52.6727 3.68C52.9427 3.89 53.1527 4.11 53.3027 4.34C53.4527 4.57 53.5277 4.77 53.5277 4.94L53.1827 4.955V3.755C53.1827 3.545 53.2527 3.365 53.3927 3.215C53.5327 3.065 53.7127 2.99 53.9327 2.99C54.1527 2.99 54.3327 3.065 54.4727 3.215C54.6127 3.355 54.6827 3.535 54.6827 3.755V10.37C54.6827 11.22 54.5027 11.91 54.1427 12.44C53.7827 12.98 53.3027 13.375 52.7027 13.625C52.1127 13.875 51.4627 14 50.7527 14C50.5027 14 50.2077 13.965 49.8677 13.895C49.5277 13.835 49.2127 13.76 48.9227 13.67C48.6427 13.58 48.4477 13.49 48.3377 13.4C48.1077 13.28 47.9527 13.14 47.8727 12.98C47.8027 12.82 47.8027 12.66 47.8727 12.5C47.9727 12.28 48.1077 12.145 48.2777 12.095C48.4477 12.045 48.6427 12.06 48.8627 12.14C48.9627 12.17 49.1177 12.225 49.3277 12.305C49.5377 12.385 49.7727 12.455 50.0327 12.515C50.2927 12.585 50.5377 12.62 50.7677 12.62C51.5677 12.62 52.1677 12.435 52.5677 12.065C52.9777 11.695 53.1827 11.19 53.1827 10.55V9.2L53.3477 9.305C53.3177 9.515 53.2227 9.73 53.0627 9.95C52.9127 10.16 52.7127 10.355 52.4627 10.535C52.2127 10.715 51.9227 10.865 51.5927 10.985C51.2727 11.095 50.9427 11.15 50.6027 11.15C49.8927 11.15 49.2577 10.975 48.6977 10.625C48.1377 10.265 47.6927 9.78 47.3627 9.17C47.0327 8.55 46.8677 7.84 46.8677 7.04C46.8677 6.24 47.0327 5.535 47.3627 4.925C47.6927 4.305 48.1327 3.82 48.6827 3.47C49.2427 3.11 49.8677 2.93 50.5577 2.93ZM50.7827 4.31C50.2927 4.31 49.8627 4.43 49.4927 4.67C49.1227 4.91 48.8327 5.235 48.6227 5.645C48.4127 6.055 48.3077 6.52 48.3077 7.04C48.3077 7.56 48.4127 8.025 48.6227 8.435C48.8327 8.845 49.1227 9.17 49.4927 9.41C49.8627 9.65 50.2927 9.77 50.7827 9.77C51.2727 9.77 51.7027 9.655 52.0727 9.425C52.4427 9.185 52.7327 8.86 52.9427 8.45C53.1527 8.03 53.2577 7.56 53.2577 7.04C53.2577 6.52 53.1527 6.055 52.9427 5.645C52.7327 5.225 52.4427 4.9 52.0727 4.67C51.7027 4.43 51.2727 4.31 50.7827 4.31ZM63.1566 2.99C63.3766 2.99 63.5566 3.065 63.6966 3.215C63.8366 3.355 63.9066 3.535 63.9066 3.755V10.235C63.9066 10.455 63.8366 10.64 63.6966 10.79C63.5566 10.93 63.3766 11 63.1566 11C62.9466 11 62.7666 10.93 62.6166 10.79C62.4766 10.64 62.4066 10.455 62.4066 10.235V9.155L62.7216 9.2C62.7216 9.38 62.6466 9.58 62.4966 9.8C62.3566 10.02 62.1616 10.235 61.9116 10.445C61.6616 10.645 61.3666 10.815 61.0266 10.955C60.6866 11.085 60.3216 11.15 59.9316 11.15C59.2416 11.15 58.6216 10.975 58.0716 10.625C57.5216 10.265 57.0866 9.775 56.7666 9.155C56.4466 8.535 56.2866 7.83 56.2866 7.04C56.2866 6.23 56.4466 5.52 56.7666 4.91C57.0866 4.29 57.5166 3.805 58.0566 3.455C58.6066 3.105 59.2166 2.93 59.8866 2.93C60.3166 2.93 60.7116 3 61.0716 3.14C61.4416 3.28 61.7616 3.46 62.0316 3.68C62.3016 3.9 62.5066 4.135 62.6466 4.385C62.7966 4.625 62.8716 4.855 62.8716 5.075L62.4066 5.12V3.755C62.4066 3.545 62.4766 3.365 62.6166 3.215C62.7666 3.065 62.9466 2.99 63.1566 2.99ZM60.0966 9.77C60.5666 9.77 60.9816 9.65 61.3416 9.41C61.7016 9.17 61.9816 8.845 62.1816 8.435C62.3816 8.015 62.4816 7.55 62.4816 7.04C62.4816 6.52 62.3816 6.055 62.1816 5.645C61.9816 5.235 61.7016 4.91 61.3416 4.67C60.9816 4.43 60.5666 4.31 60.0966 4.31C59.6366 4.31 59.2266 4.43 58.8666 4.67C58.5166 4.91 58.2366 5.235 58.0266 5.645C57.8266 6.055 57.7266 6.52 57.7266 7.04C57.7266 7.55 57.8266 8.015 58.0266 8.435C58.2366 8.845 58.5166 9.17 58.8666 9.41C59.2266 9.65 59.6366 9.77 60.0966 9.77ZM65.543 9.77C65.453 9.63 65.413 9.47 65.423 9.29C65.433 9.1 65.538 8.94 65.738 8.81C65.878 8.72 66.023 8.685 66.173 8.705C66.333 8.715 66.483 8.79 66.623 8.93C66.903 9.24 67.213 9.485 67.553 9.665C67.903 9.845 68.323 9.935 68.813 9.935C69.013 9.925 69.218 9.895 69.428 9.845C69.638 9.785 69.818 9.685 69.968 9.545C70.118 9.395 70.193 9.18 70.193 8.9C70.193 8.65 70.113 8.45 69.953 8.3C69.793 8.15 69.583 8.03 69.323 7.94C69.063 7.84 68.783 7.75 68.483 7.67C68.163 7.58 67.838 7.48 67.508 7.37C67.188 7.26 66.898 7.12 66.638 6.95C66.378 6.77 66.163 6.54 65.993 6.26C65.833 5.98 65.753 5.635 65.753 5.225C65.753 4.755 65.883 4.35 66.143 4.01C66.413 3.67 66.758 3.405 67.178 3.215C67.608 3.025 68.073 2.93 68.573 2.93C68.863 2.93 69.168 2.97 69.488 3.05C69.808 3.12 70.118 3.235 70.418 3.395C70.718 3.555 70.978 3.765 71.198 4.025C71.298 4.155 71.353 4.31 71.363 4.49C71.383 4.67 71.303 4.83 71.123 4.97C71.003 5.07 70.858 5.115 70.688 5.105C70.518 5.095 70.378 5.04 70.268 4.94C70.078 4.7 69.833 4.515 69.533 4.385C69.233 4.245 68.893 4.175 68.513 4.175C68.323 4.175 68.123 4.205 67.913 4.265C67.713 4.315 67.543 4.41 67.403 4.55C67.263 4.69 67.193 4.895 67.193 5.165C67.193 5.415 67.273 5.615 67.433 5.765C67.603 5.915 67.823 6.04 68.093 6.14C68.363 6.24 68.658 6.33 68.978 6.41C69.288 6.49 69.593 6.585 69.893 6.695C70.203 6.805 70.478 6.95 70.718 7.13C70.968 7.3 71.168 7.525 71.318 7.805C71.478 8.075 71.558 8.42 71.558 8.84C71.558 9.33 71.413 9.75 71.123 10.1C70.843 10.44 70.483 10.7 70.043 10.88C69.613 11.06 69.158 11.15 68.678 11.15C68.108 11.15 67.538 11.05 66.968 10.85C66.408 10.64 65.933 10.28 65.543 9.77Z" fill="#002A56"/>
</svg>
