<svg width="75" height="13" viewBox="0 0 75 13" fill="none" xmlns="http://www.w3.org/2000/svg">
<path d="M6.3076 10.53C6.5176 10.53 6.6926 10.6 6.8326 10.74C6.9826 10.88 7.0576 11.055 7.0576 11.265C7.0576 11.475 6.9826 11.65 6.8326 11.79C6.6926 11.93 6.5176 12 6.3076 12H1.2676C1.0476 12 0.862598 11.93 0.712598 11.79C0.572598 11.64 0.502598 11.455 0.502598 11.235V2.265C0.502598 2.045 0.577598 1.865 0.727598 1.725C0.877598 1.575 1.0726 1.5 1.3126 1.5C1.5126 1.5 1.6876 1.575 1.8376 1.725C1.9976 1.865 2.0776 2.045 2.0776 2.265V10.785L1.7626 10.53H6.3076ZM10.024 11.235C10.024 11.455 9.95396 11.64 9.81396 11.79C9.67396 11.93 9.49396 12 9.27396 12C9.06396 12 8.88396 11.93 8.73396 11.79C8.59396 11.64 8.52396 11.455 8.52396 11.235V4.815C8.52396 4.595 8.59396 4.415 8.73396 4.275C8.88396 4.125 9.06396 4.05 9.27396 4.05C9.49396 4.05 9.67396 4.125 9.81396 4.275C9.95396 4.415 10.024 4.595 10.024 4.815V11.235ZM9.25896 3.06C8.96896 3.06 8.75896 3.01 8.62896 2.91C8.49896 2.8 8.43396 2.62 8.43396 2.37V2.13C8.43396 1.88 8.50396 1.705 8.64396 1.605C8.78396 1.505 8.99396 1.455 9.27396 1.455C9.57396 1.455 9.78896 1.51 9.91896 1.62C10.049 1.72 10.114 1.89 10.114 2.13V2.37C10.114 2.63 10.044 2.81 9.90396 2.91C9.77396 3.01 9.55896 3.06 9.25896 3.06ZM11.9367 4.2H15.4617C15.6617 4.2 15.8267 4.27 15.9567 4.41C16.0967 4.54 16.1667 4.705 16.1667 4.905C16.1667 5.095 16.0967 5.255 15.9567 5.385C15.8267 5.515 15.6617 5.58 15.4617 5.58H11.9367C11.7367 5.58 11.5667 5.515 11.4267 5.385C11.2967 5.245 11.2317 5.08 11.2317 4.89C11.2317 4.69 11.2967 4.525 11.4267 4.395C11.5667 4.265 11.7367 4.2 11.9367 4.2ZM13.5117 2.25C13.7317 2.25 13.9117 2.325 14.0517 2.475C14.1917 2.615 14.2617 2.795 14.2617 3.015V9.975C14.2617 10.155 14.2917 10.3 14.3517 10.41C14.4117 10.52 14.4917 10.595 14.5917 10.635C14.7017 10.675 14.8117 10.695 14.9217 10.695C15.0317 10.695 15.1267 10.675 15.2067 10.635C15.2967 10.595 15.4017 10.575 15.5217 10.575C15.6417 10.575 15.7517 10.63 15.8517 10.74C15.9517 10.85 16.0017 11 16.0017 11.19C16.0017 11.43 15.8717 11.625 15.6117 11.775C15.3517 11.925 15.0717 12 14.7717 12C14.6017 12 14.4017 11.985 14.1717 11.955C13.9417 11.925 13.7167 11.85 13.4967 11.73C13.2867 11.61 13.1117 11.42 12.9717 11.16C12.8317 10.89 12.7617 10.515 12.7617 10.035V3.015C12.7617 2.795 12.8317 2.615 12.9717 2.475C13.1217 2.325 13.3017 2.25 13.5117 2.25ZM17.7228 4.2H21.2478C21.4478 4.2 21.6128 4.27 21.7428 4.41C21.8828 4.54 21.9528 4.705 21.9528 4.905C21.9528 5.095 21.8828 5.255 21.7428 5.385C21.6128 5.515 21.4478 5.58 21.2478 5.58H17.7228C17.5228 5.58 17.3528 5.515 17.2128 5.385C17.0828 5.245 17.0178 5.08 17.0178 4.89C17.0178 4.69 17.0828 4.525 17.2128 4.395C17.3528 4.265 17.5228 4.2 17.7228 4.2ZM19.2978 2.25C19.5178 2.25 19.6978 2.325 19.8378 2.475C19.9778 2.615 20.0478 2.795 20.0478 3.015V9.975C20.0478 10.155 20.0778 10.3 20.1378 10.41C20.1978 10.52 20.2778 10.595 20.3778 10.635C20.4878 10.675 20.5978 10.695 20.7078 10.695C20.8178 10.695 20.9128 10.675 20.9928 10.635C21.0828 10.595 21.1878 10.575 21.3078 10.575C21.4278 10.575 21.5378 10.63 21.6378 10.74C21.7378 10.85 21.7878 11 21.7878 11.19C21.7878 11.43 21.6578 11.625 21.3978 11.775C21.1378 11.925 20.8578 12 20.5578 12C20.3878 12 20.1878 11.985 19.9578 11.955C19.7278 11.925 19.5028 11.85 19.2828 11.73C19.0728 11.61 18.8978 11.42 18.7578 11.16C18.6178 10.89 18.5478 10.515 18.5478 10.035V3.015C18.5478 2.795 18.6178 2.615 18.7578 2.475C18.9078 2.325 19.0878 2.25 19.2978 2.25ZM25.234 11.235C25.234 11.455 25.159 11.64 25.009 11.79C24.869 11.93 24.694 12 24.484 12C24.274 12 24.094 11.93 23.944 11.79C23.804 11.64 23.734 11.455 23.734 11.235V1.665C23.734 1.445 23.809 1.265 23.959 1.125C24.109 0.975 24.289 0.9 24.499 0.9C24.719 0.9 24.894 0.975 25.024 1.125C25.164 1.265 25.234 1.445 25.234 1.665V11.235ZM30.995 12.15C30.165 12.15 29.445 11.98 28.835 11.64C28.225 11.29 27.75 10.815 27.41 10.215C27.08 9.605 26.915 8.91 26.915 8.13C26.915 7.25 27.09 6.5 27.44 5.88C27.8 5.25 28.265 4.77 28.835 4.44C29.405 4.1 30.01 3.93 30.65 3.93C31.14 3.93 31.605 4.03 32.045 4.23C32.485 4.42 32.875 4.69 33.215 5.04C33.565 5.38 33.84 5.785 34.04 6.255C34.24 6.715 34.345 7.22 34.355 7.77C34.345 7.97 34.265 8.135 34.115 8.265C33.965 8.395 33.79 8.46 33.59 8.46H27.755L27.395 7.185H33.035L32.75 7.455V7.08C32.73 6.73 32.615 6.425 32.405 6.165C32.195 5.895 31.935 5.69 31.625 5.55C31.315 5.4 30.99 5.325 30.65 5.325C30.35 5.325 30.06 5.375 29.78 5.475C29.51 5.565 29.265 5.715 29.045 5.925C28.835 6.135 28.665 6.415 28.535 6.765C28.415 7.105 28.355 7.53 28.355 8.04C28.355 8.59 28.47 9.07 28.7 9.48C28.93 9.89 29.24 10.21 29.63 10.44C30.02 10.66 30.45 10.77 30.92 10.77C31.29 10.77 31.595 10.735 31.835 10.665C32.075 10.585 32.275 10.49 32.435 10.38C32.595 10.27 32.735 10.165 32.855 10.065C33.005 9.975 33.155 9.93 33.305 9.93C33.485 9.93 33.635 9.995 33.755 10.125C33.875 10.245 33.935 10.39 33.935 10.56C33.935 10.78 33.825 10.98 33.605 11.16C33.335 11.42 32.96 11.65 32.48 11.85C32.01 12.05 31.515 12.15 30.995 12.15ZM41.2903 12C41.0503 12 40.8403 11.93 40.6603 11.79C40.4803 11.64 40.3903 11.455 40.3903 11.235V2.265C40.3903 2.045 40.4653 1.865 40.6153 1.725C40.7653 1.575 40.9453 1.5 41.1553 1.5H45.3853C45.9253 1.5 46.4203 1.635 46.8703 1.905C47.3203 2.165 47.6803 2.53 47.9503 3C48.2303 3.46 48.3703 3.99 48.3703 4.59C48.3703 4.99 48.2903 5.375 48.1303 5.745C47.9703 6.105 47.7553 6.425 47.4853 6.705C47.2153 6.985 46.9103 7.195 46.5703 7.335L46.4053 7.05C46.7153 7.16 46.9853 7.32 47.2153 7.53C47.4453 7.73 47.6253 7.97 47.7553 8.25C47.8953 8.52 47.9703 8.83 47.9803 9.18C48.0103 9.49 48.0353 9.75 48.0553 9.96C48.0853 10.16 48.1253 10.325 48.1753 10.455C48.2253 10.585 48.3153 10.685 48.4453 10.755C48.6253 10.855 48.7353 11.005 48.7753 11.205C48.8253 11.405 48.7853 11.585 48.6553 11.745C48.5653 11.865 48.4503 11.945 48.3103 11.985C48.1803 12.015 48.0453 12.02 47.9053 12C47.7653 11.97 47.6453 11.93 47.5453 11.88C47.3853 11.78 47.2203 11.64 47.0503 11.46C46.8903 11.27 46.7603 11.01 46.6603 10.68C46.5603 10.35 46.5103 9.915 46.5103 9.375C46.5103 9.125 46.4703 8.91 46.3903 8.73C46.3103 8.55 46.2003 8.405 46.0603 8.295C45.9203 8.175 45.7553 8.09 45.5653 8.04C45.3753 7.98 45.1653 7.95 44.9353 7.95H41.7553L41.9653 7.65V11.235C41.9653 11.455 41.9053 11.64 41.7853 11.79C41.6653 11.93 41.5003 12 41.2903 12ZM41.7703 6.645H45.3553C45.5853 6.635 45.8053 6.545 46.0153 6.375C46.2353 6.195 46.4103 5.955 46.5403 5.655C46.6803 5.355 46.7503 5.015 46.7503 4.635C46.7503 4.155 46.6053 3.755 46.3153 3.435C46.0353 3.105 45.7003 2.94 45.3103 2.94H41.8003L41.9653 2.55V6.96L41.7703 6.645ZM57.922 8.055C57.922 8.855 57.747 9.565 57.397 10.185C57.047 10.795 56.572 11.275 55.972 11.625C55.372 11.975 54.697 12.15 53.947 12.15C53.197 12.15 52.522 11.975 51.922 11.625C51.322 11.275 50.842 10.795 50.482 10.185C50.132 9.565 49.957 8.855 49.957 8.055C49.957 7.245 50.132 6.535 50.482 5.925C50.842 5.305 51.322 4.82 51.922 4.47C52.522 4.11 53.197 3.93 53.947 3.93C54.697 3.93 55.372 4.11 55.972 4.47C56.572 4.82 57.047 5.305 57.397 5.925C57.747 6.535 57.922 7.245 57.922 8.055ZM56.422 8.055C56.422 7.505 56.312 7.03 56.092 6.63C55.872 6.22 55.572 5.9 55.192 5.67C54.822 5.43 54.407 5.31 53.947 5.31C53.487 5.31 53.067 5.43 52.687 5.67C52.307 5.9 52.007 6.22 51.787 6.63C51.567 7.03 51.457 7.505 51.457 8.055C51.457 8.585 51.567 9.055 51.787 9.465C52.007 9.875 52.307 10.195 52.687 10.425C53.067 10.655 53.487 10.77 53.947 10.77C54.407 10.77 54.822 10.655 55.192 10.425C55.572 10.195 55.872 9.875 56.092 9.465C56.312 9.055 56.422 8.585 56.422 8.055ZM63.1148 3.93C63.6548 3.93 64.1348 3.99 64.5548 4.11C64.9748 4.22 65.2998 4.38 65.5298 4.59C65.7698 4.79 65.8898 5.025 65.8898 5.295C65.8898 5.465 65.8398 5.625 65.7398 5.775C65.6398 5.915 65.4898 5.985 65.2898 5.985C65.1498 5.985 65.0298 5.96 64.9298 5.91C64.8398 5.86 64.7548 5.8 64.6748 5.73C64.5948 5.66 64.4948 5.59 64.3748 5.52C64.2648 5.46 64.0998 5.41 63.8798 5.37C63.6698 5.33 63.4798 5.31 63.3098 5.31C62.7798 5.31 62.3198 5.43 61.9298 5.67C61.5498 5.91 61.2498 6.235 61.0298 6.645C60.8198 7.055 60.7148 7.52 60.7148 8.04C60.7148 8.56 60.8198 9.025 61.0298 9.435C61.2498 9.845 61.5448 10.17 61.9148 10.41C62.2948 10.65 62.7348 10.77 63.2348 10.77C63.5348 10.77 63.7798 10.75 63.9698 10.71C64.1598 10.66 64.3248 10.6 64.4648 10.53C64.6148 10.44 64.7398 10.35 64.8398 10.26C64.9498 10.16 65.0998 10.11 65.2898 10.11C65.5098 10.11 65.6748 10.18 65.7848 10.32C65.9048 10.45 65.9648 10.615 65.9648 10.815C65.9648 11.035 65.8298 11.25 65.5598 11.46C65.2998 11.66 64.9498 11.825 64.5098 11.955C64.0698 12.085 63.5848 12.15 63.0548 12.15C62.2748 12.15 61.5948 11.97 61.0148 11.61C60.4448 11.25 59.9998 10.76 59.6798 10.14C59.3698 9.52 59.2148 8.82 59.2148 8.04C59.2148 7.25 59.3798 6.55 59.7098 5.94C60.0398 5.32 60.4998 4.83 61.0898 4.47C61.6798 4.11 62.3548 3.93 63.1148 3.93ZM68.2681 12C68.0581 12 67.8781 11.93 67.7281 11.79C67.5881 11.64 67.5181 11.455 67.5181 11.235V1.665C67.5181 1.445 67.5881 1.265 67.7281 1.125C67.8781 0.975 68.0581 0.9 68.2681 0.9C68.4881 0.9 68.6681 0.975 68.8081 1.125C68.9481 1.265 69.0181 1.445 69.0181 1.665V11.235C69.0181 11.455 68.9481 11.64 68.8081 11.79C68.6681 11.93 68.4881 12 68.2681 12ZM73.1581 4.08C73.3481 4.08 73.5131 4.16 73.6531 4.32C73.7931 4.48 73.8631 4.64 73.8631 4.8C73.8631 5 73.7681 5.185 73.5781 5.355L68.8831 9.555L68.8231 7.83L72.6031 4.32C72.7631 4.16 72.9481 4.08 73.1581 4.08ZM73.3381 11.985C73.1281 11.985 72.9481 11.9 72.7981 11.73L69.7981 8.565L70.9381 7.515L73.8631 10.68C74.0231 10.85 74.1031 11.04 74.1031 11.25C74.1031 11.47 74.0131 11.65 73.8331 11.79C73.6631 11.92 73.4981 11.985 73.3381 11.985Z" fill="#002A56"/>
</svg>
