<svg width="84" height="15" viewBox="0 0 84 15" fill="none" xmlns="http://www.w3.org/2000/svg">
<path d="M6.08348 10.53C6.29348 10.53 6.46848 10.6 6.60848 10.74C6.75848 10.88 6.83348 11.055 6.83348 11.265C6.83348 11.475 6.75848 11.65 6.60848 11.79C6.46848 11.93 6.29348 12 6.08348 12H1.04348C0.823477 12 0.638477 11.93 0.488477 11.79C0.348477 11.64 0.278477 11.455 0.278477 11.235V2.265C0.278477 2.045 0.353477 1.865 0.503477 1.725C0.653477 1.575 0.848477 1.5 1.08848 1.5C1.28848 1.5 1.46348 1.575 1.61348 1.725C1.77348 1.865 1.85348 2.045 1.85348 2.265V10.785L1.53848 10.53H6.08348ZM15.9498 8.055C15.9498 8.855 15.7748 9.565 15.4248 10.185C15.0748 10.795 14.5998 11.275 13.9998 11.625C13.3998 11.975 12.7248 12.15 11.9748 12.15C11.2248 12.15 10.5498 11.975 9.94984 11.625C9.34984 11.275 8.86984 10.795 8.50984 10.185C8.15984 9.565 7.98484 8.855 7.98484 8.055C7.98484 7.245 8.15984 6.535 8.50984 5.925C8.86984 5.305 9.34984 4.82 9.94984 4.47C10.5498 4.11 11.2248 3.93 11.9748 3.93C12.7248 3.93 13.3998 4.11 13.9998 4.47C14.5998 4.82 15.0748 5.305 15.4248 5.925C15.7748 6.535 15.9498 7.245 15.9498 8.055ZM14.4498 8.055C14.4498 7.505 14.3398 7.03 14.1198 6.63C13.8998 6.22 13.5998 5.9 13.2198 5.67C12.8498 5.43 12.4348 5.31 11.9748 5.31C11.5148 5.31 11.0948 5.43 10.7148 5.67C10.3348 5.9 10.0348 6.22 9.81484 6.63C9.59484 7.03 9.48484 7.505 9.48484 8.055C9.48484 8.585 9.59484 9.055 9.81484 9.465C10.0348 9.875 10.3348 10.195 10.7148 10.425C11.0948 10.655 11.5148 10.77 11.9748 10.77C12.4348 10.77 12.8498 10.655 13.2198 10.425C13.5998 10.195 13.8998 9.875 14.1198 9.465C14.3398 9.055 14.4498 8.585 14.4498 8.055ZM17.1827 10.77C17.0927 10.63 17.0527 10.47 17.0627 10.29C17.0727 10.1 17.1777 9.94 17.3777 9.81C17.5177 9.72 17.6627 9.685 17.8127 9.705C17.9727 9.715 18.1227 9.79 18.2627 9.93C18.5427 10.24 18.8527 10.485 19.1927 10.665C19.5427 10.845 19.9627 10.935 20.4527 10.935C20.6527 10.925 20.8577 10.895 21.0677 10.845C21.2777 10.785 21.4577 10.685 21.6077 10.545C21.7577 10.395 21.8327 10.18 21.8327 9.9C21.8327 9.65 21.7527 9.45 21.5927 9.3C21.4327 9.15 21.2227 9.03 20.9627 8.94C20.7027 8.84 20.4227 8.75 20.1227 8.67C19.8027 8.58 19.4777 8.48 19.1477 8.37C18.8277 8.26 18.5377 8.12 18.2777 7.95C18.0177 7.77 17.8027 7.54 17.6327 7.26C17.4727 6.98 17.3927 6.635 17.3927 6.225C17.3927 5.755 17.5227 5.35 17.7827 5.01C18.0527 4.67 18.3977 4.405 18.8177 4.215C19.2477 4.025 19.7127 3.93 20.2127 3.93C20.5027 3.93 20.8077 3.97 21.1277 4.05C21.4477 4.12 21.7577 4.235 22.0577 4.395C22.3577 4.555 22.6177 4.765 22.8377 5.025C22.9377 5.155 22.9927 5.31 23.0027 5.49C23.0227 5.67 22.9427 5.83 22.7627 5.97C22.6427 6.07 22.4977 6.115 22.3277 6.105C22.1577 6.095 22.0177 6.04 21.9077 5.94C21.7177 5.7 21.4727 5.515 21.1727 5.385C20.8727 5.245 20.5327 5.175 20.1527 5.175C19.9627 5.175 19.7627 5.205 19.5527 5.265C19.3527 5.315 19.1827 5.41 19.0427 5.55C18.9027 5.69 18.8327 5.895 18.8327 6.165C18.8327 6.415 18.9127 6.615 19.0727 6.765C19.2427 6.915 19.4627 7.04 19.7327 7.14C20.0027 7.24 20.2977 7.33 20.6177 7.41C20.9277 7.49 21.2327 7.585 21.5327 7.695C21.8427 7.805 22.1177 7.95 22.3577 8.13C22.6077 8.3 22.8077 8.525 22.9577 8.805C23.1177 9.075 23.1977 9.42 23.1977 9.84C23.1977 10.33 23.0527 10.75 22.7627 11.1C22.4827 11.44 22.1227 11.7 21.6827 11.88C21.2527 12.06 20.7977 12.15 20.3177 12.15C19.7477 12.15 19.1777 12.05 18.6077 11.85C18.0477 11.64 17.5727 11.28 17.1827 10.77ZM32.9005 3.45L29.5255 11.55C29.4655 11.71 29.3755 11.835 29.2555 11.925C29.1355 12.015 29.0005 12.06 28.8505 12.06C28.6305 12.06 28.4655 12 28.3555 11.88C28.2455 11.75 28.1855 11.59 28.1755 11.4C28.1755 11.33 28.1905 11.25 28.2205 11.16L32.0305 1.95C32.1005 1.78 32.2005 1.65 32.3305 1.56C32.4705 1.47 32.6205 1.43 32.7805 1.44C32.9305 1.44 33.0705 1.485 33.2005 1.575C33.3305 1.665 33.4255 1.79 33.4855 1.95L37.2505 11.025C37.2905 11.125 37.3105 11.225 37.3105 11.325C37.3105 11.545 37.2355 11.725 37.0855 11.865C36.9455 11.995 36.7855 12.06 36.6055 12.06C36.4555 12.06 36.3155 12.015 36.1855 11.925C36.0655 11.825 35.9755 11.7 35.9155 11.55L32.5105 3.495L32.9005 3.45ZM30.1255 9.42L30.8005 7.98H35.0455L35.3005 9.42H30.1255ZM42.6746 3.93C43.3846 3.93 43.9346 4.08 44.3246 4.38C44.7146 4.67 44.9846 5.065 45.1346 5.565C45.2946 6.055 45.3746 6.605 45.3746 7.215V11.235C45.3746 11.455 45.2996 11.64 45.1496 11.79C45.0096 11.93 44.8346 12 44.6246 12C44.4046 12 44.2246 11.93 44.0846 11.79C43.9446 11.64 43.8746 11.455 43.8746 11.235V7.23C43.8746 6.87 43.8246 6.55 43.7246 6.27C43.6246 5.98 43.4496 5.75 43.1996 5.58C42.9596 5.4 42.6196 5.31 42.1796 5.31C41.7696 5.31 41.4096 5.4 41.0996 5.58C40.7896 5.75 40.5446 5.98 40.3646 6.27C40.1946 6.55 40.1096 6.87 40.1096 7.23V11.235C40.1096 11.455 40.0346 11.64 39.8846 11.79C39.7446 11.93 39.5696 12 39.3596 12C39.1396 12 38.9596 11.93 38.8196 11.79C38.6796 11.64 38.6096 11.455 38.6096 11.235V4.875C38.6096 4.655 38.6796 4.475 38.8196 4.335C38.9596 4.185 39.1396 4.11 39.3596 4.11C39.5696 4.11 39.7446 4.185 39.8846 4.335C40.0346 4.475 40.1096 4.655 40.1096 4.875V5.715L39.8396 5.865C39.9096 5.645 40.0296 5.425 40.1996 5.205C40.3796 4.975 40.5946 4.765 40.8446 4.575C41.0946 4.375 41.3746 4.22 41.6846 4.11C41.9946 3.99 42.3246 3.93 42.6746 3.93ZM50.7422 3.93C51.1722 3.93 51.5672 4 51.9272 4.14C52.2872 4.28 52.5972 4.46 52.8572 4.68C53.1272 4.89 53.3372 5.11 53.4872 5.34C53.6372 5.57 53.7122 5.77 53.7122 5.94L53.3672 5.955V4.755C53.3672 4.545 53.4372 4.365 53.5772 4.215C53.7172 4.065 53.8972 3.99 54.1172 3.99C54.3372 3.99 54.5172 4.065 54.6572 4.215C54.7972 4.355 54.8672 4.535 54.8672 4.755V11.37C54.8672 12.22 54.6872 12.91 54.3272 13.44C53.9672 13.98 53.4872 14.375 52.8872 14.625C52.2972 14.875 51.6472 15 50.9372 15C50.6872 15 50.3922 14.965 50.0522 14.895C49.7122 14.835 49.3972 14.76 49.1072 14.67C48.8272 14.58 48.6322 14.49 48.5222 14.4C48.2922 14.28 48.1372 14.14 48.0572 13.98C47.9872 13.82 47.9872 13.66 48.0572 13.5C48.1572 13.28 48.2922 13.145 48.4622 13.095C48.6322 13.045 48.8272 13.06 49.0472 13.14C49.1472 13.17 49.3022 13.225 49.5122 13.305C49.7222 13.385 49.9572 13.455 50.2172 13.515C50.4772 13.585 50.7222 13.62 50.9522 13.62C51.7522 13.62 52.3522 13.435 52.7522 13.065C53.1622 12.695 53.3672 12.19 53.3672 11.55V10.2L53.5322 10.305C53.5022 10.515 53.4072 10.73 53.2472 10.95C53.0972 11.16 52.8972 11.355 52.6472 11.535C52.3972 11.715 52.1072 11.865 51.7772 11.985C51.4572 12.095 51.1272 12.15 50.7872 12.15C50.0772 12.15 49.4422 11.975 48.8822 11.625C48.3222 11.265 47.8772 10.78 47.5472 10.17C47.2172 9.55 47.0522 8.84 47.0522 8.04C47.0522 7.24 47.2172 6.535 47.5472 5.925C47.8772 5.305 48.3172 4.82 48.8672 4.47C49.4272 4.11 50.0522 3.93 50.7422 3.93ZM50.9672 5.31C50.4772 5.31 50.0472 5.43 49.6772 5.67C49.3072 5.91 49.0172 6.235 48.8072 6.645C48.5972 7.055 48.4922 7.52 48.4922 8.04C48.4922 8.56 48.5972 9.025 48.8072 9.435C49.0172 9.845 49.3072 10.17 49.6772 10.41C50.0472 10.65 50.4772 10.77 50.9672 10.77C51.4572 10.77 51.8872 10.655 52.2572 10.425C52.6272 10.185 52.9172 9.86 53.1272 9.45C53.3372 9.03 53.4422 8.56 53.4422 8.04C53.4422 7.52 53.3372 7.055 53.1272 6.645C52.9172 6.225 52.6272 5.9 52.2572 5.67C51.8872 5.43 51.4572 5.31 50.9672 5.31ZM60.3314 12.15C59.5014 12.15 58.7814 11.98 58.1714 11.64C57.5614 11.29 57.0864 10.815 56.7464 10.215C56.4164 9.605 56.2514 8.91 56.2514 8.13C56.2514 7.25 56.4264 6.5 56.7764 5.88C57.1364 5.25 57.6014 4.77 58.1714 4.44C58.7414 4.1 59.3464 3.93 59.9864 3.93C60.4764 3.93 60.9414 4.03 61.3814 4.23C61.8214 4.42 62.2114 4.69 62.5514 5.04C62.9014 5.38 63.1764 5.785 63.3764 6.255C63.5764 6.715 63.6814 7.22 63.6914 7.77C63.6814 7.97 63.6014 8.135 63.4514 8.265C63.3014 8.395 63.1264 8.46 62.9264 8.46H57.0914L56.7314 7.185H62.3714L62.0864 7.455V7.08C62.0664 6.73 61.9514 6.425 61.7414 6.165C61.5314 5.895 61.2714 5.69 60.9614 5.55C60.6514 5.4 60.3264 5.325 59.9864 5.325C59.6864 5.325 59.3964 5.375 59.1164 5.475C58.8464 5.565 58.6014 5.715 58.3814 5.925C58.1714 6.135 58.0014 6.415 57.8714 6.765C57.7514 7.105 57.6914 7.53 57.6914 8.04C57.6914 8.59 57.8064 9.07 58.0364 9.48C58.2664 9.89 58.5764 10.21 58.9664 10.44C59.3564 10.66 59.7864 10.77 60.2564 10.77C60.6264 10.77 60.9314 10.735 61.1714 10.665C61.4114 10.585 61.6114 10.49 61.7714 10.38C61.9314 10.27 62.0714 10.165 62.1914 10.065C62.3414 9.975 62.4914 9.93 62.6414 9.93C62.8214 9.93 62.9714 9.995 63.0914 10.125C63.2114 10.245 63.2714 10.39 63.2714 10.56C63.2714 10.78 63.1614 10.98 62.9414 11.16C62.6714 11.42 62.2964 11.65 61.8164 11.85C61.3464 12.05 60.8514 12.15 60.3314 12.15ZM67.0069 11.235C67.0069 11.455 66.9319 11.64 66.7819 11.79C66.6419 11.93 66.4669 12 66.2569 12C66.0469 12 65.8669 11.93 65.7169 11.79C65.5769 11.64 65.5069 11.455 65.5069 11.235V1.665C65.5069 1.445 65.5819 1.265 65.7319 1.125C65.8819 0.975 66.0619 0.9 66.2719 0.9C66.4919 0.9 66.6669 0.975 66.7969 1.125C66.9369 1.265 67.0069 1.445 67.0069 1.665V11.235ZM72.768 12.15C71.938 12.15 71.218 11.98 70.608 11.64C69.998 11.29 69.523 10.815 69.183 10.215C68.853 9.605 68.688 8.91 68.688 8.13C68.688 7.25 68.863 6.5 69.213 5.88C69.573 5.25 70.038 4.77 70.608 4.44C71.178 4.1 71.783 3.93 72.423 3.93C72.913 3.93 73.378 4.03 73.818 4.23C74.258 4.42 74.648 4.69 74.988 5.04C75.338 5.38 75.613 5.785 75.813 6.255C76.013 6.715 76.118 7.22 76.128 7.77C76.118 7.97 76.038 8.135 75.888 8.265C75.738 8.395 75.563 8.46 75.363 8.46H69.528L69.168 7.185H74.808L74.523 7.455V7.08C74.503 6.73 74.388 6.425 74.178 6.165C73.968 5.895 73.708 5.69 73.398 5.55C73.088 5.4 72.763 5.325 72.423 5.325C72.123 5.325 71.833 5.375 71.553 5.475C71.283 5.565 71.038 5.715 70.818 5.925C70.608 6.135 70.438 6.415 70.308 6.765C70.188 7.105 70.128 7.53 70.128 8.04C70.128 8.59 70.243 9.07 70.473 9.48C70.703 9.89 71.013 10.21 71.403 10.44C71.793 10.66 72.223 10.77 72.693 10.77C73.063 10.77 73.368 10.735 73.608 10.665C73.848 10.585 74.048 10.49 74.208 10.38C74.368 10.27 74.508 10.165 74.628 10.065C74.778 9.975 74.928 9.93 75.078 9.93C75.258 9.93 75.408 9.995 75.528 10.125C75.648 10.245 75.708 10.39 75.708 10.56C75.708 10.78 75.598 10.98 75.378 11.16C75.108 11.42 74.733 11.65 74.253 11.85C73.783 12.05 73.288 12.15 72.768 12.15ZM77.3584 10.77C77.2684 10.63 77.2284 10.47 77.2384 10.29C77.2484 10.1 77.3534 9.94 77.5534 9.81C77.6934 9.72 77.8384 9.685 77.9884 9.705C78.1484 9.715 78.2984 9.79 78.4384 9.93C78.7184 10.24 79.0284 10.485 79.3684 10.665C79.7184 10.845 80.1384 10.935 80.6284 10.935C80.8284 10.925 81.0334 10.895 81.2434 10.845C81.4534 10.785 81.6334 10.685 81.7834 10.545C81.9334 10.395 82.0084 10.18 82.0084 9.9C82.0084 9.65 81.9284 9.45 81.7684 9.3C81.6084 9.15 81.3984 9.03 81.1384 8.94C80.8784 8.84 80.5984 8.75 80.2984 8.67C79.9784 8.58 79.6534 8.48 79.3234 8.37C79.0034 8.26 78.7134 8.12 78.4534 7.95C78.1934 7.77 77.9784 7.54 77.8084 7.26C77.6484 6.98 77.5684 6.635 77.5684 6.225C77.5684 5.755 77.6984 5.35 77.9584 5.01C78.2284 4.67 78.5734 4.405 78.9934 4.215C79.4234 4.025 79.8884 3.93 80.3884 3.93C80.6784 3.93 80.9834 3.97 81.3034 4.05C81.6234 4.12 81.9334 4.235 82.2334 4.395C82.5334 4.555 82.7934 4.765 83.0134 5.025C83.1134 5.155 83.1684 5.31 83.1784 5.49C83.1984 5.67 83.1184 5.83 82.9384 5.97C82.8184 6.07 82.6734 6.115 82.5034 6.105C82.3334 6.095 82.1934 6.04 82.0834 5.94C81.8934 5.7 81.6484 5.515 81.3484 5.385C81.0484 5.245 80.7084 5.175 80.3284 5.175C80.1384 5.175 79.9384 5.205 79.7284 5.265C79.5284 5.315 79.3584 5.41 79.2184 5.55C79.0784 5.69 79.0084 5.895 79.0084 6.165C79.0084 6.415 79.0884 6.615 79.2484 6.765C79.4184 6.915 79.6384 7.04 79.9084 7.14C80.1784 7.24 80.4734 7.33 80.7934 7.41C81.1034 7.49 81.4084 7.585 81.7084 7.695C82.0184 7.805 82.2934 7.95 82.5334 8.13C82.7834 8.3 82.9834 8.525 83.1334 8.805C83.2934 9.075 83.3734 9.42 83.3734 9.84C83.3734 10.33 83.2284 10.75 82.9384 11.1C82.6584 11.44 82.2984 11.7 81.8584 11.88C81.4284 12.06 80.9734 12.15 80.4934 12.15C79.9234 12.15 79.3534 12.05 78.7834 11.85C78.2234 11.64 77.7484 11.28 77.3584 10.77Z" fill="#002A56"/>
</svg>
