<svg width="41" height="12" viewBox="0 0 41 12" fill="none" xmlns="http://www.w3.org/2000/svg">
<path d="M1.34998 0.484999C1.46998 0.484999 1.59498 0.514999 1.72498 0.574999C1.85498 0.635 1.95498 0.72 2.02498 0.83L5.83498 6.635L5.18998 6.605L9.07498 0.83C9.23498 0.599999 9.43998 0.484999 9.68998 0.484999C9.88998 0.484999 10.065 0.559999 10.215 0.709999C10.375 0.849999 10.455 1.03 10.455 1.25V10.235C10.455 10.455 10.385 10.64 10.245 10.79C10.105 10.93 9.91998 11 9.68998 11C9.44998 11 9.25498 10.93 9.10498 10.79C8.96498 10.64 8.89498 10.455 8.89498 10.235V2.63L9.37498 2.735L6.07498 7.76C6.00498 7.85 5.91498 7.93 5.80498 8C5.69498 8.06 5.57998 8.085 5.45998 8.075C5.34998 8.085 5.23498 8.06 5.11498 8C5.00498 7.93 4.91498 7.85 4.84498 7.76L1.66498 2.81L2.02498 2.21V10.235C2.02498 10.455 1.95498 10.64 1.81498 10.79C1.68498 10.93 1.50998 11 1.28998 11C1.07998 11 0.904981 10.93 0.764981 10.79C0.63498 10.64 0.56998 10.455 0.56998 10.235V1.25C0.56998 1.04 0.64498 0.86 0.79498 0.709999C0.954981 0.559999 1.13998 0.484999 1.34998 0.484999ZM14.149 10.235C14.149 10.455 14.079 10.64 13.939 10.79C13.799 10.93 13.619 11 13.399 11C13.189 11 13.009 10.93 12.859 10.79C12.719 10.64 12.649 10.455 12.649 10.235V3.815C12.649 3.595 12.719 3.415 12.859 3.275C13.009 3.125 13.189 3.05 13.399 3.05C13.619 3.05 13.799 3.125 13.939 3.275C14.079 3.415 14.149 3.595 14.149 3.815V10.235ZM13.384 2.06C13.094 2.06 12.884 2.01 12.754 1.91C12.624 1.8 12.559 1.62 12.559 1.37V1.13C12.559 0.879999 12.629 0.705 12.769 0.605C12.909 0.505 13.119 0.455 13.399 0.455C13.699 0.455 13.914 0.51 14.044 0.62C14.174 0.719999 14.239 0.889999 14.239 1.13V1.37C14.239 1.63 14.169 1.81 14.029 1.91C13.899 2.01 13.684 2.06 13.384 2.06ZM22.6317 2.99C22.8517 2.99 23.0317 3.065 23.1717 3.215C23.3117 3.355 23.3817 3.535 23.3817 3.755V10.235C23.3817 10.455 23.3117 10.64 23.1717 10.79C23.0317 10.93 22.8517 11 22.6317 11C22.4217 11 22.2417 10.93 22.0917 10.79C21.9517 10.64 21.8817 10.455 21.8817 10.235V9.155L22.1967 9.2C22.1967 9.38 22.1217 9.58 21.9717 9.8C21.8317 10.02 21.6367 10.235 21.3867 10.445C21.1367 10.645 20.8417 10.815 20.5017 10.955C20.1617 11.085 19.7967 11.15 19.4067 11.15C18.7167 11.15 18.0967 10.975 17.5467 10.625C16.9967 10.265 16.5617 9.775 16.2417 9.155C15.9217 8.535 15.7617 7.83 15.7617 7.04C15.7617 6.23 15.9217 5.52 16.2417 4.91C16.5617 4.29 16.9917 3.805 17.5317 3.455C18.0817 3.105 18.6917 2.93 19.3617 2.93C19.7917 2.93 20.1867 3 20.5467 3.14C20.9167 3.28 21.2367 3.46 21.5067 3.68C21.7767 3.9 21.9817 4.135 22.1217 4.385C22.2717 4.625 22.3467 4.855 22.3467 5.075L21.8817 5.12V3.755C21.8817 3.545 21.9517 3.365 22.0917 3.215C22.2417 3.065 22.4217 2.99 22.6317 2.99ZM19.5717 9.77C20.0417 9.77 20.4567 9.65 20.8167 9.41C21.1767 9.17 21.4567 8.845 21.6567 8.435C21.8567 8.015 21.9567 7.55 21.9567 7.04C21.9567 6.52 21.8567 6.055 21.6567 5.645C21.4567 5.235 21.1767 4.91 20.8167 4.67C20.4567 4.43 20.0417 4.31 19.5717 4.31C19.1117 4.31 18.7017 4.43 18.3417 4.67C17.9917 4.91 17.7117 5.235 17.5017 5.645C17.3017 6.055 17.2017 6.52 17.2017 7.04C17.2017 7.55 17.3017 8.015 17.5017 8.435C17.7117 8.845 17.9917 9.17 18.3417 9.41C18.7017 9.65 19.1117 9.77 19.5717 9.77ZM29.4431 2.975C30.1831 2.975 30.7531 3.16 31.1531 3.53C31.5531 3.89 31.8181 4.38 31.9481 5L31.7081 4.925L31.8131 4.685C31.9431 4.425 32.1381 4.165 32.3981 3.905C32.6681 3.635 32.9881 3.415 33.3581 3.245C33.7281 3.065 34.1231 2.975 34.5431 2.975C35.2331 2.975 35.7681 3.125 36.1481 3.425C36.5281 3.715 36.7931 4.11 36.9431 4.61C37.0931 5.1 37.1681 5.65 37.1681 6.26V10.235C37.1681 10.455 37.0981 10.64 36.9581 10.79C36.8181 10.93 36.6381 11 36.4181 11C36.2081 11 36.0281 10.93 35.8781 10.79C35.7381 10.64 35.6681 10.455 35.6681 10.235V6.275C35.6681 5.925 35.6181 5.605 35.5181 5.315C35.4281 5.025 35.2631 4.795 35.0231 4.625C34.7931 4.445 34.4731 4.355 34.0631 4.355C33.6731 4.355 33.3231 4.445 33.0131 4.625C32.7131 4.795 32.4781 5.025 32.3081 5.315C32.1381 5.605 32.0531 5.925 32.0531 6.275V10.235C32.0531 10.455 31.9831 10.64 31.8431 10.79C31.7031 10.93 31.5231 11 31.3031 11C31.0831 11 30.9031 10.93 30.7631 10.79C30.6231 10.64 30.5531 10.455 30.5531 10.235V6.26C30.5531 5.91 30.5031 5.59 30.4031 5.3C30.3131 5.01 30.1531 4.78 29.9231 4.61C29.6931 4.44 29.3731 4.355 28.9631 4.355C28.5731 4.355 28.2281 4.44 27.9281 4.61C27.6281 4.78 27.3931 5.01 27.2231 5.3C27.0631 5.59 26.9831 5.91 26.9831 6.26V10.235C26.9831 10.455 26.9081 10.64 26.7581 10.79C26.6181 10.93 26.4431 11 26.2331 11C26.0131 11 25.8331 10.93 25.6931 10.79C25.5531 10.64 25.4831 10.455 25.4831 10.235V3.875C25.4831 3.655 25.5531 3.475 25.6931 3.335C25.8331 3.185 26.0131 3.11 26.2331 3.11C26.4431 3.11 26.6181 3.185 26.7581 3.335C26.9081 3.475 26.9831 3.655 26.9831 3.875V4.76L26.6981 4.925C26.7681 4.705 26.8831 4.48 27.0431 4.25C27.2031 4.02 27.4031 3.81 27.6431 3.62C27.8931 3.43 28.1681 3.275 28.4681 3.155C28.7681 3.035 29.0931 2.975 29.4431 2.975ZM40.6773 10.235C40.6773 10.455 40.6073 10.64 40.4673 10.79C40.3273 10.93 40.1473 11 39.9273 11C39.7173 11 39.5373 10.93 39.3873 10.79C39.2473 10.64 39.1773 10.455 39.1773 10.235V3.815C39.1773 3.595 39.2473 3.415 39.3873 3.275C39.5373 3.125 39.7173 3.05 39.9273 3.05C40.1473 3.05 40.3273 3.125 40.4673 3.275C40.6073 3.415 40.6773 3.595 40.6773 3.815V10.235ZM39.9123 2.06C39.6223 2.06 39.4123 2.01 39.2823 1.91C39.1523 1.8 39.0873 1.62 39.0873 1.37V1.13C39.0873 0.879999 39.1573 0.705 39.2973 0.605C39.4373 0.505 39.6473 0.455 39.9273 0.455C40.2273 0.455 40.4423 0.51 40.5723 0.62C40.7023 0.719999 40.7673 0.889999 40.7673 1.13V1.37C40.7673 1.63 40.6973 1.81 40.5573 1.91C40.4273 2.01 40.2123 2.06 39.9123 2.06Z" fill="#002A56"/>
</svg>
