<svg width="63" height="13" viewBox="0 0 63 13" fill="none" xmlns="http://www.w3.org/2000/svg">
<path d="M1.43689 1.485C1.55689 1.485 1.68189 1.515 1.81189 1.575C1.94189 1.635 2.04189 1.72 2.11189 1.83L5.92189 7.635L5.27689 7.605L9.16189 1.83C9.32189 1.6 9.52689 1.485 9.77689 1.485C9.9769 1.485 10.1519 1.56 10.3019 1.71C10.4619 1.85 10.5419 2.03 10.5419 2.25V11.235C10.5419 11.455 10.4719 11.64 10.3319 11.79C10.1919 11.93 10.0069 12 9.77689 12C9.53689 12 9.34189 11.93 9.1919 11.79C9.0519 11.64 8.9819 11.455 8.9819 11.235V3.63L9.4619 3.735L6.16189 8.76C6.09189 8.85 6.00189 8.93 5.89189 9C5.78189 9.06 5.66689 9.085 5.54689 9.075C5.43689 9.085 5.32189 9.06 5.20189 9C5.09189 8.93 5.00189 8.85 4.93189 8.76L1.75189 3.81L2.11189 3.21V11.235C2.11189 11.455 2.04189 11.64 1.90189 11.79C1.77189 11.93 1.59689 12 1.37689 12C1.16689 12 0.991895 11.93 0.851895 11.79C0.721895 11.64 0.656895 11.455 0.656895 11.235V2.25C0.656895 2.04 0.731895 1.86 0.881895 1.71C1.04189 1.56 1.22689 1.485 1.43689 1.485ZM20.3859 8.055C20.3859 8.855 20.2109 9.565 19.8609 10.185C19.5109 10.795 19.0359 11.275 18.4359 11.625C17.8359 11.975 17.1609 12.15 16.4109 12.15C15.6609 12.15 14.9859 11.975 14.3859 11.625C13.7859 11.275 13.3059 10.795 12.9459 10.185C12.5959 9.565 12.4209 8.855 12.4209 8.055C12.4209 7.245 12.5959 6.535 12.9459 5.925C13.3059 5.305 13.7859 4.82 14.3859 4.47C14.9859 4.11 15.6609 3.93 16.4109 3.93C17.1609 3.93 17.8359 4.11 18.4359 4.47C19.0359 4.82 19.5109 5.305 19.8609 5.925C20.2109 6.535 20.3859 7.245 20.3859 8.055ZM18.8859 8.055C18.8859 7.505 18.7759 7.03 18.5559 6.63C18.3359 6.22 18.0359 5.9 17.6559 5.67C17.2859 5.43 16.8709 5.31 16.4109 5.31C15.9509 5.31 15.5309 5.43 15.1509 5.67C14.7709 5.9 14.4709 6.22 14.2509 6.63C14.0309 7.03 13.9209 7.505 13.9209 8.055C13.9209 8.585 14.0309 9.055 14.2509 9.465C14.4709 9.875 14.7709 10.195 15.1509 10.425C15.5309 10.655 15.9509 10.77 16.4109 10.77C16.8709 10.77 17.2859 10.655 17.6559 10.425C18.0359 10.195 18.3359 9.875 18.5559 9.465C18.7759 9.055 18.8859 8.585 18.8859 8.055ZM26.1487 3.93C26.8587 3.93 27.4087 4.08 27.7987 4.38C28.1887 4.67 28.4587 5.065 28.6087 5.565C28.7687 6.055 28.8487 6.605 28.8487 7.215V11.235C28.8487 11.455 28.7737 11.64 28.6237 11.79C28.4837 11.93 28.3087 12 28.0987 12C27.8787 12 27.6987 11.93 27.5587 11.79C27.4187 11.64 27.3487 11.455 27.3487 11.235V7.23C27.3487 6.87 27.2987 6.55 27.1987 6.27C27.0987 5.98 26.9237 5.75 26.6737 5.58C26.4337 5.4 26.0937 5.31 25.6537 5.31C25.2437 5.31 24.8837 5.4 24.5737 5.58C24.2637 5.75 24.0187 5.98 23.8387 6.27C23.6687 6.55 23.5837 6.87 23.5837 7.23V11.235C23.5837 11.455 23.5087 11.64 23.3587 11.79C23.2187 11.93 23.0437 12 22.8337 12C22.6137 12 22.4337 11.93 22.2937 11.79C22.1537 11.64 22.0837 11.455 22.0837 11.235V4.875C22.0837 4.655 22.1537 4.475 22.2937 4.335C22.4337 4.185 22.6137 4.11 22.8337 4.11C23.0437 4.11 23.2187 4.185 23.3587 4.335C23.5087 4.475 23.5837 4.655 23.5837 4.875V5.715L23.3137 5.865C23.3837 5.645 23.5037 5.425 23.6737 5.205C23.8537 4.975 24.0687 4.765 24.3187 4.575C24.5687 4.375 24.8487 4.22 25.1587 4.11C25.4687 3.99 25.7987 3.93 26.1487 3.93ZM30.8263 4.2H34.3513C34.5513 4.2 34.7163 4.27 34.8463 4.41C34.9863 4.54 35.0563 4.705 35.0563 4.905C35.0563 5.095 34.9863 5.255 34.8463 5.385C34.7163 5.515 34.5513 5.58 34.3513 5.58H30.8263C30.6263 5.58 30.4563 5.515 30.3163 5.385C30.1863 5.245 30.1213 5.08 30.1213 4.89C30.1213 4.69 30.1863 4.525 30.3163 4.395C30.4563 4.265 30.6263 4.2 30.8263 4.2ZM32.4013 2.25C32.6213 2.25 32.8013 2.325 32.9413 2.475C33.0813 2.615 33.1513 2.795 33.1513 3.015V9.975C33.1513 10.155 33.1813 10.3 33.2413 10.41C33.3013 10.52 33.3813 10.595 33.4813 10.635C33.5913 10.675 33.7013 10.695 33.8113 10.695C33.9213 10.695 34.0163 10.675 34.0963 10.635C34.1863 10.595 34.2913 10.575 34.4113 10.575C34.5313 10.575 34.6413 10.63 34.7413 10.74C34.8413 10.85 34.8913 11 34.8913 11.19C34.8913 11.43 34.7613 11.625 34.5013 11.775C34.2413 11.925 33.9613 12 33.6613 12C33.4913 12 33.2913 11.985 33.0613 11.955C32.8313 11.925 32.6063 11.85 32.3863 11.73C32.1763 11.61 32.0013 11.42 31.8613 11.16C31.7213 10.89 31.6513 10.515 31.6513 10.035V3.015C31.6513 2.795 31.7213 2.615 31.8613 2.475C32.0113 2.325 32.1913 2.25 32.4013 2.25ZM37.4675 12C37.2475 12 37.0675 11.93 36.9275 11.79C36.7875 11.64 36.7175 11.455 36.7175 11.235V4.875C36.7175 4.655 36.7875 4.475 36.9275 4.335C37.0675 4.185 37.2475 4.11 37.4675 4.11C37.6775 4.11 37.8525 4.185 37.9925 4.335C38.1425 4.475 38.2175 4.655 38.2175 4.875V6.555L38.0675 5.91C38.1475 5.63 38.2675 5.37 38.4275 5.13C38.5975 4.89 38.7975 4.68 39.0275 4.5C39.2575 4.32 39.5125 4.18 39.7925 4.08C40.0825 3.98 40.3825 3.93 40.6925 3.93C40.9525 3.93 41.1775 4 41.3675 4.14C41.5575 4.28 41.6525 4.455 41.6525 4.665C41.6525 4.935 41.5825 5.135 41.4425 5.265C41.3025 5.385 41.1475 5.445 40.9775 5.445C40.8275 5.445 40.6825 5.415 40.5425 5.355C40.4025 5.285 40.2375 5.25 40.0475 5.25C39.8375 5.25 39.6225 5.305 39.4025 5.415C39.1825 5.525 38.9825 5.69 38.8025 5.91C38.6225 6.12 38.4775 6.37 38.3675 6.66C38.2675 6.95 38.2175 7.275 38.2175 7.635V11.235C38.2175 11.455 38.1425 11.64 37.9925 11.79C37.8525 11.93 37.6775 12 37.4675 12ZM46.3251 12.15C45.4951 12.15 44.7751 11.98 44.1651 11.64C43.5551 11.29 43.0801 10.815 42.7401 10.215C42.4101 9.605 42.2451 8.91 42.2451 8.13C42.2451 7.25 42.4201 6.5 42.7701 5.88C43.1301 5.25 43.5951 4.77 44.1651 4.44C44.7351 4.1 45.3401 3.93 45.9801 3.93C46.4701 3.93 46.9351 4.03 47.3751 4.23C47.8151 4.42 48.2051 4.69 48.5451 5.04C48.8951 5.38 49.1701 5.785 49.3701 6.255C49.5701 6.715 49.6751 7.22 49.6851 7.77C49.6751 7.97 49.5951 8.135 49.4451 8.265C49.2951 8.395 49.1201 8.46 48.9201 8.46H43.0851L42.7251 7.185H48.3651L48.0801 7.455V7.08C48.0601 6.73 47.9451 6.425 47.7351 6.165C47.5251 5.895 47.2651 5.69 46.9551 5.55C46.6451 5.4 46.3201 5.325 45.9801 5.325C45.6801 5.325 45.3901 5.375 45.1101 5.475C44.8401 5.565 44.5951 5.715 44.3751 5.925C44.1651 6.135 43.9951 6.415 43.8651 6.765C43.7451 7.105 43.6851 7.53 43.6851 8.04C43.6851 8.59 43.8001 9.07 44.0301 9.48C44.2601 9.89 44.5701 10.21 44.9601 10.44C45.3501 10.66 45.7801 10.77 46.2501 10.77C46.6201 10.77 46.9251 10.735 47.1651 10.665C47.4051 10.585 47.6051 10.49 47.7651 10.38C47.9251 10.27 48.0651 10.165 48.1851 10.065C48.3351 9.975 48.4851 9.93 48.6351 9.93C48.8151 9.93 48.9651 9.995 49.0851 10.125C49.2051 10.245 49.2651 10.39 49.2651 10.56C49.2651 10.78 49.1551 10.98 48.9351 11.16C48.6651 11.42 48.2901 11.65 47.8101 11.85C47.3401 12.05 46.8451 12.15 46.3251 12.15ZM57.9042 3.99C58.1242 3.99 58.3042 4.065 58.4442 4.215C58.5842 4.355 58.6542 4.535 58.6542 4.755V11.235C58.6542 11.455 58.5842 11.64 58.4442 11.79C58.3042 11.93 58.1242 12 57.9042 12C57.6942 12 57.5142 11.93 57.3642 11.79C57.2242 11.64 57.1542 11.455 57.1542 11.235V10.155L57.4692 10.2C57.4692 10.38 57.3942 10.58 57.2442 10.8C57.1042 11.02 56.9092 11.235 56.6592 11.445C56.4092 11.645 56.1142 11.815 55.7742 11.955C55.4342 12.085 55.0692 12.15 54.6792 12.15C53.9892 12.15 53.3692 11.975 52.8192 11.625C52.2692 11.265 51.8342 10.775 51.5142 10.155C51.1942 9.535 51.0342 8.83 51.0342 8.04C51.0342 7.23 51.1942 6.52 51.5142 5.91C51.8342 5.29 52.2642 4.805 52.8042 4.455C53.3542 4.105 53.9642 3.93 54.6342 3.93C55.0642 3.93 55.4592 4 55.8192 4.14C56.1892 4.28 56.5092 4.46 56.7792 4.68C57.0492 4.9 57.2542 5.135 57.3942 5.385C57.5442 5.625 57.6192 5.855 57.6192 6.075L57.1542 6.12V4.755C57.1542 4.545 57.2242 4.365 57.3642 4.215C57.5142 4.065 57.6942 3.99 57.9042 3.99ZM54.8442 10.77C55.3142 10.77 55.7292 10.65 56.0892 10.41C56.4492 10.17 56.7292 9.845 56.9292 9.435C57.1292 9.015 57.2292 8.55 57.2292 8.04C57.2292 7.52 57.1292 7.055 56.9292 6.645C56.7292 6.235 56.4492 5.91 56.0892 5.67C55.7292 5.43 55.3142 5.31 54.8442 5.31C54.3842 5.31 53.9742 5.43 53.6142 5.67C53.2642 5.91 52.9842 6.235 52.7742 6.645C52.5742 7.055 52.4742 7.52 52.4742 8.04C52.4742 8.55 52.5742 9.015 52.7742 9.435C52.9842 9.845 53.2642 10.17 53.6142 10.41C53.9742 10.65 54.3842 10.77 54.8442 10.77ZM62.3756 11.235C62.3756 11.455 62.3006 11.64 62.1506 11.79C62.0106 11.93 61.8356 12 61.6256 12C61.4156 12 61.2356 11.93 61.0856 11.79C60.9456 11.64 60.8756 11.455 60.8756 11.235V1.665C60.8756 1.445 60.9506 1.265 61.1006 1.125C61.2506 0.975 61.4306 0.9 61.6406 0.9C61.8606 0.9 62.0356 0.975 62.1656 1.125C62.3056 1.265 62.3756 1.445 62.3756 1.665V11.235Z" fill="#002A56"/>
</svg>
