<svg width="63" height="13" viewBox="0 0 63 13" fill="none" xmlns="http://www.w3.org/2000/svg">
<path d="M8.54654 1.5C8.74654 1.5 8.90654 1.57 9.02654 1.71C9.15654 1.84 9.22154 2.005 9.22154 2.205V11.235C9.22154 11.455 9.14654 11.64 8.99654 11.79C8.85654 11.93 8.67654 12 8.45654 12C8.35654 12 8.24654 11.98 8.12654 11.94C8.01654 11.9 7.93154 11.845 7.87154 11.775L1.70654 3.78L2.05154 3.585V11.31C2.05154 11.5 1.98654 11.665 1.85654 11.805C1.72654 11.935 1.56154 12 1.36154 12C1.15154 12 0.981543 11.935 0.851543 11.805C0.731543 11.665 0.671543 11.5 0.671543 11.31V2.265C0.671543 2.035 0.746543 1.85 0.896543 1.71C1.04654 1.57 1.22654 1.5 1.43654 1.5C1.54654 1.5 1.66154 1.525 1.78154 1.575C1.91154 1.615 2.00654 1.68 2.06654 1.77L8.08154 9.6L7.85654 9.81V2.205C7.85654 2.005 7.92154 1.84 8.05154 1.71C8.18154 1.57 8.34654 1.5 8.54654 1.5ZM17.9725 3.99C18.1925 3.99 18.3725 4.065 18.5125 4.215C18.6525 4.355 18.7225 4.535 18.7225 4.755V11.235C18.7225 11.455 18.6525 11.64 18.5125 11.79C18.3725 11.93 18.1925 12 17.9725 12C17.7625 12 17.5825 11.93 17.4325 11.79C17.2925 11.64 17.2225 11.455 17.2225 11.235V10.155L17.5375 10.2C17.5375 10.38 17.4625 10.58 17.3125 10.8C17.1725 11.02 16.9775 11.235 16.7275 11.445C16.4775 11.645 16.1825 11.815 15.8425 11.955C15.5025 12.085 15.1375 12.15 14.7475 12.15C14.0575 12.15 13.4375 11.975 12.8875 11.625C12.3375 11.265 11.9025 10.775 11.5825 10.155C11.2625 9.535 11.1025 8.83 11.1025 8.04C11.1025 7.23 11.2625 6.52 11.5825 5.91C11.9025 5.29 12.3325 4.805 12.8725 4.455C13.4225 4.105 14.0325 3.93 14.7025 3.93C15.1325 3.93 15.5275 4 15.8875 4.14C16.2575 4.28 16.5775 4.46 16.8475 4.68C17.1175 4.9 17.3225 5.135 17.4625 5.385C17.6125 5.625 17.6875 5.855 17.6875 6.075L17.2225 6.12V4.755C17.2225 4.545 17.2925 4.365 17.4325 4.215C17.5825 4.065 17.7625 3.99 17.9725 3.99ZM14.9125 10.77C15.3825 10.77 15.7975 10.65 16.1575 10.41C16.5175 10.17 16.7975 9.845 16.9975 9.435C17.1975 9.015 17.2975 8.55 17.2975 8.04C17.2975 7.52 17.1975 7.055 16.9975 6.645C16.7975 6.235 16.5175 5.91 16.1575 5.67C15.7975 5.43 15.3825 5.31 14.9125 5.31C14.4525 5.31 14.0425 5.43 13.6825 5.67C13.3325 5.91 13.0525 6.235 12.8425 6.645C12.6425 7.055 12.5425 7.52 12.5425 8.04C12.5425 8.55 12.6425 9.015 12.8425 9.435C13.0525 9.845 13.3325 10.17 13.6825 10.41C14.0425 10.65 14.4525 10.77 14.9125 10.77ZM20.3589 10.77C20.2689 10.63 20.2289 10.47 20.2389 10.29C20.2489 10.1 20.3539 9.94 20.5539 9.81C20.6939 9.72 20.8389 9.685 20.9889 9.705C21.1489 9.715 21.2989 9.79 21.4389 9.93C21.7189 10.24 22.0289 10.485 22.3689 10.665C22.7189 10.845 23.1389 10.935 23.6289 10.935C23.8289 10.925 24.0339 10.895 24.2439 10.845C24.4539 10.785 24.6339 10.685 24.7839 10.545C24.9339 10.395 25.0089 10.18 25.0089 9.9C25.0089 9.65 24.9289 9.45 24.7689 9.3C24.6089 9.15 24.3989 9.03 24.1389 8.94C23.8789 8.84 23.5989 8.75 23.2989 8.67C22.9789 8.58 22.6539 8.48 22.3239 8.37C22.0039 8.26 21.7139 8.12 21.4539 7.95C21.1939 7.77 20.9789 7.54 20.8089 7.26C20.6489 6.98 20.5689 6.635 20.5689 6.225C20.5689 5.755 20.6989 5.35 20.9589 5.01C21.2289 4.67 21.5739 4.405 21.9939 4.215C22.4239 4.025 22.8889 3.93 23.3889 3.93C23.6789 3.93 23.9839 3.97 24.3039 4.05C24.6239 4.12 24.9339 4.235 25.2339 4.395C25.5339 4.555 25.7939 4.765 26.0139 5.025C26.1139 5.155 26.1689 5.31 26.1789 5.49C26.1989 5.67 26.1189 5.83 25.9389 5.97C25.8189 6.07 25.6739 6.115 25.5039 6.105C25.3339 6.095 25.1939 6.04 25.0839 5.94C24.8939 5.7 24.6489 5.515 24.3489 5.385C24.0489 5.245 23.7089 5.175 23.3289 5.175C23.1389 5.175 22.9389 5.205 22.7289 5.265C22.5289 5.315 22.3589 5.41 22.2189 5.55C22.0789 5.69 22.0089 5.895 22.0089 6.165C22.0089 6.415 22.0889 6.615 22.2489 6.765C22.4189 6.915 22.6389 7.04 22.9089 7.14C23.1789 7.24 23.4739 7.33 23.7939 7.41C24.1039 7.49 24.4089 7.585 24.7089 7.695C25.0189 7.805 25.2939 7.95 25.5339 8.13C25.7839 8.3 25.9839 8.525 26.1339 8.805C26.2939 9.075 26.3739 9.42 26.3739 9.84C26.3739 10.33 26.2289 10.75 25.9389 11.1C25.6589 11.44 25.2989 11.7 24.8589 11.88C24.4289 12.06 23.9739 12.15 23.4939 12.15C22.9239 12.15 22.3539 12.05 21.7839 11.85C21.2239 11.64 20.7489 11.28 20.3589 10.77ZM31.962 3.975C32.652 3.975 33.187 4.125 33.567 4.425C33.947 4.715 34.212 5.11 34.362 5.61C34.522 6.11 34.602 6.66 34.602 7.26V11.235C34.602 11.455 34.527 11.64 34.377 11.79C34.237 11.93 34.062 12 33.852 12C33.632 12 33.452 11.93 33.312 11.79C33.172 11.64 33.102 11.455 33.102 11.235V7.26C33.102 6.91 33.052 6.59 32.952 6.3C32.862 6.01 32.697 5.78 32.457 5.61C32.227 5.44 31.902 5.355 31.482 5.355C31.092 5.355 30.742 5.44 30.432 5.61C30.132 5.78 29.897 6.01 29.727 6.3C29.567 6.59 29.487 6.91 29.487 7.26V11.235C29.487 11.455 29.412 11.64 29.262 11.79C29.122 11.93 28.947 12 28.737 12C28.517 12 28.337 11.93 28.197 11.79C28.057 11.64 27.987 11.455 27.987 11.235V1.665C27.987 1.445 28.057 1.265 28.197 1.125C28.337 0.975 28.517 0.9 28.737 0.9C28.947 0.9 29.122 0.975 29.262 1.125C29.412 1.265 29.487 1.445 29.487 1.665V5.76L29.217 5.91C29.287 5.69 29.402 5.465 29.562 5.235C29.732 5.005 29.937 4.795 30.177 4.605C30.427 4.415 30.702 4.265 31.002 4.155C31.302 4.035 31.622 3.975 31.962 3.975ZM36.7949 4.035C36.9449 4.035 37.0849 4.075 37.2149 4.155C37.3549 4.235 37.4549 4.355 37.5149 4.515L39.8699 9.96L39.5849 10.095L41.9699 4.53C42.1099 4.2 42.3349 4.04 42.6449 4.05C42.8449 4.05 43.0099 4.115 43.1399 4.245C43.2799 4.365 43.3499 4.525 43.3499 4.725C43.3499 4.785 43.3399 4.85 43.3199 4.92C43.2999 4.98 43.2749 5.04 43.2449 5.1L40.3949 11.52C40.2649 11.82 40.0499 11.98 39.7499 12C39.5999 12.02 39.4499 11.99 39.2999 11.91C39.1599 11.82 39.0499 11.69 38.9699 11.52L36.1349 5.1C36.1149 5.06 36.0949 5.01 36.0749 4.95C36.0549 4.88 36.0449 4.8 36.0449 4.71C36.0449 4.56 36.1099 4.41 36.2399 4.26C36.3799 4.11 36.5649 4.035 36.7949 4.035ZM46.2867 11.235C46.2867 11.455 46.2167 11.64 46.0767 11.79C45.9367 11.93 45.7567 12 45.5367 12C45.3267 12 45.1467 11.93 44.9967 11.79C44.8567 11.64 44.7867 11.455 44.7867 11.235V4.815C44.7867 4.595 44.8567 4.415 44.9967 4.275C45.1467 4.125 45.3267 4.05 45.5367 4.05C45.7567 4.05 45.9367 4.125 46.0767 4.275C46.2167 4.415 46.2867 4.595 46.2867 4.815V11.235ZM45.5217 3.06C45.2317 3.06 45.0217 3.01 44.8917 2.91C44.7617 2.8 44.6967 2.62 44.6967 2.37V2.13C44.6967 1.88 44.7667 1.705 44.9067 1.605C45.0467 1.505 45.2567 1.455 45.5367 1.455C45.8367 1.455 46.0517 1.51 46.1817 1.62C46.3117 1.72 46.3767 1.89 46.3767 2.13V2.37C46.3767 2.63 46.3067 2.81 46.1667 2.91C46.0367 3.01 45.8217 3.06 45.5217 3.06ZM49.9244 11.235C49.9244 11.455 49.8494 11.64 49.6994 11.79C49.5594 11.93 49.3844 12 49.1744 12C48.9644 12 48.7844 11.93 48.6344 11.79C48.4944 11.64 48.4244 11.455 48.4244 11.235V1.665C48.4244 1.445 48.4994 1.265 48.6494 1.125C48.7994 0.975 48.9794 0.9 49.1894 0.9C49.4094 0.9 49.5844 0.975 49.7144 1.125C49.8544 1.265 49.9244 1.445 49.9244 1.665V11.235ZM53.7769 11.235C53.7769 11.455 53.7019 11.64 53.5519 11.79C53.4119 11.93 53.2369 12 53.0269 12C52.8169 12 52.6369 11.93 52.4869 11.79C52.3469 11.64 52.2769 11.455 52.2769 11.235V1.665C52.2769 1.445 52.3519 1.265 52.5019 1.125C52.6519 0.975 52.8319 0.9 53.0419 0.9C53.2619 0.9 53.4369 0.975 53.5669 1.125C53.7069 1.265 53.7769 1.445 53.7769 1.665V11.235ZM59.538 12.15C58.708 12.15 57.988 11.98 57.378 11.64C56.768 11.29 56.293 10.815 55.953 10.215C55.623 9.605 55.458 8.91 55.458 8.13C55.458 7.25 55.633 6.5 55.983 5.88C56.343 5.25 56.808 4.77 57.378 4.44C57.948 4.1 58.553 3.93 59.193 3.93C59.683 3.93 60.148 4.03 60.588 4.23C61.028 4.42 61.418 4.69 61.758 5.04C62.108 5.38 62.383 5.785 62.583 6.255C62.783 6.715 62.888 7.22 62.898 7.77C62.888 7.97 62.808 8.135 62.658 8.265C62.508 8.395 62.333 8.46 62.133 8.46H56.298L55.938 7.185H61.578L61.293 7.455V7.08C61.273 6.73 61.158 6.425 60.948 6.165C60.738 5.895 60.478 5.69 60.168 5.55C59.858 5.4 59.533 5.325 59.193 5.325C58.893 5.325 58.603 5.375 58.323 5.475C58.053 5.565 57.808 5.715 57.588 5.925C57.378 6.135 57.208 6.415 57.078 6.765C56.958 7.105 56.898 7.53 56.898 8.04C56.898 8.59 57.013 9.07 57.243 9.48C57.473 9.89 57.783 10.21 58.173 10.44C58.563 10.66 58.993 10.77 59.463 10.77C59.833 10.77 60.138 10.735 60.378 10.665C60.618 10.585 60.818 10.49 60.978 10.38C61.138 10.27 61.278 10.165 61.398 10.065C61.548 9.975 61.698 9.93 61.848 9.93C62.028 9.93 62.178 9.995 62.298 10.125C62.418 10.245 62.478 10.39 62.478 10.56C62.478 10.78 62.368 10.98 62.148 11.16C61.878 11.42 61.503 11.65 61.023 11.85C60.553 12.05 60.058 12.15 59.538 12.15Z" fill="#002A56"/>
</svg>
