<svg width="67" height="13" viewBox="0 0 67 13" fill="none" xmlns="http://www.w3.org/2000/svg">
<path d="M8.39859 1.5C8.59859 1.5 8.75859 1.57 8.87859 1.71C9.00859 1.84 9.07359 2.005 9.07359 2.205V11.235C9.07359 11.455 8.99859 11.64 8.84859 11.79C8.70859 11.93 8.52859 12 8.30859 12C8.20859 12 8.09859 11.98 7.97859 11.94C7.86859 11.9 7.78359 11.845 7.72359 11.775L1.55859 3.78L1.90359 3.585V11.31C1.90359 11.5 1.83859 11.665 1.70859 11.805C1.57859 11.935 1.41359 12 1.21359 12C1.00359 12 0.833594 11.935 0.703594 11.805C0.583594 11.665 0.523594 11.5 0.523594 11.31V2.265C0.523594 2.035 0.598594 1.85 0.748594 1.71C0.898594 1.57 1.07859 1.5 1.28859 1.5C1.39859 1.5 1.51359 1.525 1.63359 1.575C1.76359 1.615 1.85859 1.68 1.91859 1.77L7.93359 9.6L7.70859 9.81V2.205C7.70859 2.005 7.77359 1.84 7.90359 1.71C8.03359 1.57 8.19859 1.5 8.39859 1.5ZM15.0346 12.15C14.2046 12.15 13.4846 11.98 12.8746 11.64C12.2646 11.29 11.7896 10.815 11.4496 10.215C11.1196 9.605 10.9546 8.91 10.9546 8.13C10.9546 7.25 11.1296 6.5 11.4796 5.88C11.8396 5.25 12.3046 4.77 12.8746 4.44C13.4446 4.1 14.0496 3.93 14.6896 3.93C15.1796 3.93 15.6446 4.03 16.0846 4.23C16.5246 4.42 16.9146 4.69 17.2546 5.04C17.6046 5.38 17.8796 5.785 18.0796 6.255C18.2796 6.715 18.3846 7.22 18.3946 7.77C18.3846 7.97 18.3046 8.135 18.1546 8.265C18.0046 8.395 17.8296 8.46 17.6296 8.46H11.7946L11.4346 7.185H17.0746L16.7896 7.455V7.08C16.7696 6.73 16.6546 6.425 16.4446 6.165C16.2346 5.895 15.9746 5.69 15.6646 5.55C15.3546 5.4 15.0296 5.325 14.6896 5.325C14.3896 5.325 14.0996 5.375 13.8196 5.475C13.5496 5.565 13.3046 5.715 13.0846 5.925C12.8746 6.135 12.7046 6.415 12.5746 6.765C12.4546 7.105 12.3946 7.53 12.3946 8.04C12.3946 8.59 12.5096 9.07 12.7396 9.48C12.9696 9.89 13.2796 10.21 13.6696 10.44C14.0596 10.66 14.4896 10.77 14.9596 10.77C15.3296 10.77 15.6346 10.735 15.8746 10.665C16.1146 10.585 16.3146 10.49 16.4746 10.38C16.6346 10.27 16.7746 10.165 16.8946 10.065C17.0446 9.975 17.1946 9.93 17.3446 9.93C17.5246 9.93 17.6746 9.995 17.7946 10.125C17.9146 10.245 17.9746 10.39 17.9746 10.56C17.9746 10.78 17.8646 10.98 17.6446 11.16C17.3746 11.42 16.9996 11.65 16.5196 11.85C16.0496 12.05 15.5546 12.15 15.0346 12.15ZM29.285 4.035C29.475 4.035 29.64 4.11 29.78 4.26C29.93 4.4 30.005 4.585 30.005 4.815C30.005 4.865 30 4.915 29.99 4.965C29.98 5.015 29.965 5.06 29.945 5.1L27.65 11.52C27.59 11.69 27.485 11.82 27.335 11.91C27.185 11.99 27.03 12.02 26.87 12C26.58 11.98 26.365 11.82 26.225 11.52L24.53 7.02L24.875 7.05L23.315 11.52C23.175 11.82 22.96 11.98 22.67 12C22.52 12.02 22.365 11.99 22.205 11.91C22.055 11.82 21.95 11.69 21.89 11.52L19.58 5.1C19.54 5.01 19.52 4.915 19.52 4.815C19.52 4.605 19.585 4.425 19.715 4.275C19.855 4.115 20.04 4.035 20.27 4.035C20.43 4.035 20.57 4.075 20.69 4.155C20.82 4.235 20.91 4.355 20.96 4.515L22.88 9.93L22.535 9.9L24.095 5.805C24.225 5.495 24.455 5.34 24.785 5.34C24.965 5.34 25.105 5.38 25.205 5.46C25.305 5.54 25.385 5.655 25.445 5.805L27.035 9.915L26.63 9.96L28.565 4.515C28.665 4.195 28.905 4.035 29.285 4.035ZM42.4253 1.455C42.6153 1.455 42.7853 1.53 42.9353 1.68C43.0953 1.82 43.1753 2 43.1753 2.22C43.1753 2.3 43.1603 2.38 43.1303 2.46C43.1103 2.53 43.0753 2.605 43.0253 2.685L39.5903 7.545L39.8303 6.66V11.235C39.8303 11.455 39.7553 11.64 39.6053 11.79C39.4553 11.93 39.2853 12 39.0953 12C38.8853 12 38.7053 11.93 38.5553 11.79C38.4153 11.64 38.3453 11.455 38.3453 11.235V6.78L38.4503 7.215L35.1353 2.79C35.0553 2.68 35.0003 2.58 34.9703 2.49C34.9403 2.39 34.9253 2.295 34.9253 2.205C34.9253 1.985 35.0103 1.805 35.1803 1.665C35.3603 1.525 35.5403 1.455 35.7203 1.455C35.9603 1.455 36.1653 1.57 36.3353 1.8L39.3353 5.91L38.9753 5.865L41.7953 1.815C41.9653 1.575 42.1753 1.455 42.4253 1.455ZM51.4098 8.055C51.4098 8.855 51.2348 9.565 50.8848 10.185C50.5348 10.795 50.0598 11.275 49.4598 11.625C48.8598 11.975 48.1848 12.15 47.4348 12.15C46.6848 12.15 46.0098 11.975 45.4098 11.625C44.8098 11.275 44.3298 10.795 43.9698 10.185C43.6198 9.565 43.4448 8.855 43.4448 8.055C43.4448 7.245 43.6198 6.535 43.9698 5.925C44.3298 5.305 44.8098 4.82 45.4098 4.47C46.0098 4.11 46.6848 3.93 47.4348 3.93C48.1848 3.93 48.8598 4.11 49.4598 4.47C50.0598 4.82 50.5348 5.305 50.8848 5.925C51.2348 6.535 51.4098 7.245 51.4098 8.055ZM49.9098 8.055C49.9098 7.505 49.7998 7.03 49.5798 6.63C49.3598 6.22 49.0598 5.9 48.6798 5.67C48.3098 5.43 47.8948 5.31 47.4348 5.31C46.9748 5.31 46.5548 5.43 46.1748 5.67C45.7948 5.9 45.4948 6.22 45.2748 6.63C45.0548 7.03 44.9448 7.505 44.9448 8.055C44.9448 8.585 45.0548 9.055 45.2748 9.465C45.4948 9.875 45.7948 10.195 46.1748 10.425C46.5548 10.655 46.9748 10.77 47.4348 10.77C47.8948 10.77 48.3098 10.655 48.6798 10.425C49.0598 10.195 49.3598 9.875 49.5798 9.465C49.7998 9.055 49.9098 8.585 49.9098 8.055ZM53.8576 12C53.6376 12 53.4576 11.93 53.3176 11.79C53.1776 11.64 53.1076 11.455 53.1076 11.235V4.875C53.1076 4.655 53.1776 4.475 53.3176 4.335C53.4576 4.185 53.6376 4.11 53.8576 4.11C54.0676 4.11 54.2426 4.185 54.3826 4.335C54.5326 4.475 54.6076 4.655 54.6076 4.875V6.555L54.4576 5.91C54.5376 5.63 54.6576 5.37 54.8176 5.13C54.9876 4.89 55.1876 4.68 55.4176 4.5C55.6476 4.32 55.9026 4.18 56.1826 4.08C56.4726 3.98 56.7726 3.93 57.0826 3.93C57.3426 3.93 57.5676 4 57.7576 4.14C57.9476 4.28 58.0426 4.455 58.0426 4.665C58.0426 4.935 57.9726 5.135 57.8326 5.265C57.6926 5.385 57.5376 5.445 57.3676 5.445C57.2176 5.445 57.0726 5.415 56.9326 5.355C56.7926 5.285 56.6276 5.25 56.4376 5.25C56.2276 5.25 56.0126 5.305 55.7926 5.415C55.5726 5.525 55.3726 5.69 55.1926 5.91C55.0126 6.12 54.8676 6.37 54.7576 6.66C54.6576 6.95 54.6076 7.275 54.6076 7.635V11.235C54.6076 11.455 54.5326 11.64 54.3826 11.79C54.2426 11.93 54.0676 12 53.8576 12ZM60.2471 12C60.0371 12 59.8571 11.93 59.7071 11.79C59.5671 11.64 59.4971 11.455 59.4971 11.235V1.665C59.4971 1.445 59.5671 1.265 59.7071 1.125C59.8571 0.975 60.0371 0.9 60.2471 0.9C60.4671 0.9 60.6471 0.975 60.7871 1.125C60.9271 1.265 60.9971 1.445 60.9971 1.665V11.235C60.9971 11.455 60.9271 11.64 60.7871 11.79C60.6471 11.93 60.4671 12 60.2471 12ZM65.1371 4.08C65.3271 4.08 65.4921 4.16 65.6321 4.32C65.7721 4.48 65.8421 4.64 65.8421 4.8C65.8421 5 65.7471 5.185 65.5571 5.355L60.8621 9.555L60.8021 7.83L64.5821 4.32C64.7421 4.16 64.9271 4.08 65.1371 4.08ZM65.3171 11.985C65.1071 11.985 64.9271 11.9 64.7771 11.73L61.7771 8.565L62.9171 7.515L65.8421 10.68C66.0021 10.85 66.0821 11.04 66.0821 11.25C66.0821 11.47 65.9921 11.65 65.8121 11.79C65.6421 11.92 65.4771 11.985 65.3171 11.985Z" fill="#002A56"/>
</svg>
