<svg width="56" height="31" viewBox="0 0 56 31" fill="none" xmlns="http://www.w3.org/2000/svg">
<path d="M21.5041 0.499999C21.7041 0.499999 21.8641 0.569999 21.9841 0.709999C22.1141 0.839999 22.1791 1.005 22.1791 1.205V10.235C22.1791 10.455 22.1041 10.64 21.9541 10.79C21.8141 10.93 21.6341 11 21.4141 11C21.3141 11 21.2041 10.98 21.0841 10.94C20.9741 10.9 20.8891 10.845 20.8291 10.775L14.6641 2.78L15.0091 2.585V10.31C15.0091 10.5 14.9441 10.665 14.8141 10.805C14.6841 10.935 14.5191 11 14.3191 11C14.1091 11 13.9391 10.935 13.8091 10.805C13.6891 10.665 13.6291 10.5 13.6291 10.31V1.265C13.6291 1.035 13.7041 0.849999 13.8541 0.709999C14.0041 0.569999 14.1841 0.499999 14.3941 0.499999C14.5041 0.499999 14.6191 0.524999 14.7391 0.574999C14.8691 0.614999 14.9641 0.679999 15.0241 0.769999L21.0391 8.6L20.8141 8.81V1.205C20.8141 1.005 20.8791 0.839999 21.0091 0.709999C21.1391 0.569999 21.3041 0.499999 21.5041 0.499999ZM28.14 11.15C27.31 11.15 26.59 10.98 25.98 10.64C25.37 10.29 24.895 9.815 24.555 9.215C24.225 8.605 24.06 7.91 24.06 7.13C24.06 6.25 24.235 5.5 24.585 4.88C24.945 4.25 25.41 3.77 25.98 3.44C26.55 3.1 27.155 2.93 27.795 2.93C28.285 2.93 28.75 3.03 29.19 3.23C29.63 3.42 30.02 3.69 30.36 4.04C30.71 4.38 30.985 4.785 31.185 5.255C31.385 5.715 31.49 6.22 31.5 6.77C31.49 6.97 31.41 7.135 31.26 7.265C31.11 7.395 30.935 7.46 30.735 7.46H24.9L24.54 6.185H30.18L29.895 6.455V6.08C29.875 5.73 29.76 5.425 29.55 5.165C29.34 4.895 29.08 4.69 28.77 4.55C28.46 4.4 28.135 4.325 27.795 4.325C27.495 4.325 27.205 4.375 26.925 4.475C26.655 4.565 26.41 4.715 26.19 4.925C25.98 5.135 25.81 5.415 25.68 5.765C25.56 6.105 25.5 6.53 25.5 7.04C25.5 7.59 25.615 8.07 25.845 8.48C26.075 8.89 26.385 9.21 26.775 9.44C27.165 9.66 27.595 9.77 28.065 9.77C28.435 9.77 28.74 9.735 28.98 9.665C29.22 9.585 29.42 9.49 29.58 9.38C29.74 9.27 29.88 9.165 30 9.065C30.15 8.975 30.3 8.93 30.45 8.93C30.63 8.93 30.78 8.995 30.9 9.125C31.02 9.245 31.08 9.39 31.08 9.56C31.08 9.78 30.97 9.98 30.75 10.16C30.48 10.42 30.105 10.65 29.625 10.85C29.155 11.05 28.66 11.15 28.14 11.15ZM42.3905 3.035C42.5805 3.035 42.7455 3.11 42.8855 3.26C43.0355 3.4 43.1105 3.585 43.1105 3.815C43.1105 3.865 43.1055 3.915 43.0955 3.965C43.0855 4.015 43.0705 4.06 43.0505 4.1L40.7555 10.52C40.6955 10.69 40.5905 10.82 40.4405 10.91C40.2905 10.99 40.1355 11.02 39.9755 11C39.6855 10.98 39.4705 10.82 39.3305 10.52L37.6355 6.02L37.9805 6.05L36.4205 10.52C36.2805 10.82 36.0655 10.98 35.7755 11C35.6255 11.02 35.4705 10.99 35.3105 10.91C35.1605 10.82 35.0555 10.69 34.9955 10.52L32.6855 4.1C32.6455 4.01 32.6255 3.915 32.6255 3.815C32.6255 3.605 32.6905 3.425 32.8205 3.275C32.9605 3.115 33.1455 3.035 33.3755 3.035C33.5355 3.035 33.6755 3.075 33.7955 3.155C33.9255 3.235 34.0155 3.355 34.0655 3.515L35.9855 8.93L35.6405 8.9L37.2005 4.805C37.3305 4.495 37.5605 4.34 37.8905 4.34C38.0705 4.34 38.2105 4.38 38.3105 4.46C38.4105 4.54 38.4905 4.655 38.5505 4.805L40.1405 8.915L39.7355 8.96L41.6705 3.515C41.7705 3.195 42.0105 3.035 42.3905 3.035ZM11.0335 24.75C11.0335 25.51 10.9085 26.22 10.6585 26.88C10.4085 27.53 10.0535 28.1 9.59354 28.59C9.14354 29.08 8.60854 29.465 7.98854 29.745C7.36854 30.015 6.68854 30.15 5.94854 30.15C5.21854 30.15 4.54354 30.015 3.92354 29.745C3.30354 29.465 2.76354 29.08 2.30354 28.59C1.85354 28.1 1.50354 27.53 1.25354 26.88C1.01354 26.22 0.893535 25.51 0.893535 24.75C0.893535 23.99 1.01354 23.285 1.25354 22.635C1.50354 21.975 1.85354 21.4 2.30354 20.91C2.76354 20.42 3.30354 20.04 3.92354 19.77C4.54354 19.49 5.21854 19.35 5.94854 19.35C6.68854 19.35 7.36854 19.49 7.98854 19.77C8.60854 20.04 9.14354 20.42 9.59354 20.91C10.0535 21.4 10.4085 21.975 10.6585 22.635C10.9085 23.285 11.0335 23.99 11.0335 24.75ZM9.41354 24.75C9.41354 24.01 9.26354 23.345 8.96354 22.755C8.67354 22.165 8.26854 21.7 7.74854 21.36C7.22854 21.02 6.62854 20.85 5.94854 20.85C5.27854 20.85 4.68354 21.02 4.16354 21.36C3.64354 21.7 3.23854 22.165 2.94854 22.755C2.65854 23.335 2.51354 24 2.51354 24.75C2.51354 25.49 2.65854 26.155 2.94854 26.745C3.23854 27.335 3.64354 27.8 4.16354 28.14C4.68354 28.48 5.27854 28.65 5.94854 28.65C6.62854 28.65 7.22854 28.48 7.74854 28.14C8.26854 27.8 8.67354 27.335 8.96354 26.745C9.26354 26.155 9.41354 25.49 9.41354 24.75ZM13.4597 30C13.2397 30 13.0597 29.93 12.9197 29.79C12.7797 29.64 12.7097 29.455 12.7097 29.235V22.875C12.7097 22.655 12.7797 22.475 12.9197 22.335C13.0597 22.185 13.2397 22.11 13.4597 22.11C13.6697 22.11 13.8447 22.185 13.9847 22.335C14.1347 22.475 14.2097 22.655 14.2097 22.875V24.555L14.0597 23.91C14.1397 23.63 14.2597 23.37 14.4197 23.13C14.5897 22.89 14.7897 22.68 15.0197 22.5C15.2497 22.32 15.5047 22.18 15.7847 22.08C16.0747 21.98 16.3747 21.93 16.6847 21.93C16.9447 21.93 17.1697 22 17.3597 22.14C17.5497 22.28 17.6447 22.455 17.6447 22.665C17.6447 22.935 17.5747 23.135 17.4347 23.265C17.2947 23.385 17.1397 23.445 16.9697 23.445C16.8197 23.445 16.6747 23.415 16.5347 23.355C16.3947 23.285 16.2297 23.25 16.0397 23.25C15.8297 23.25 15.6147 23.305 15.3947 23.415C15.1747 23.525 14.9747 23.69 14.7947 23.91C14.6147 24.12 14.4697 24.37 14.3597 24.66C14.2597 24.95 14.2097 25.275 14.2097 25.635V29.235C14.2097 29.455 14.1347 29.64 13.9847 29.79C13.8447 29.93 13.6697 30 13.4597 30ZM20.5992 29.235C20.5992 29.455 20.5242 29.64 20.3742 29.79C20.2342 29.93 20.0592 30 19.8492 30C19.6392 30 19.4592 29.93 19.3092 29.79C19.1692 29.64 19.0992 29.455 19.0992 29.235V19.665C19.0992 19.445 19.1742 19.265 19.3242 19.125C19.4742 18.975 19.6542 18.9 19.8642 18.9C20.0842 18.9 20.2592 18.975 20.3892 19.125C20.5292 19.265 20.5992 19.445 20.5992 19.665V29.235ZM26.3603 30.15C25.5303 30.15 24.8103 29.98 24.2003 29.64C23.5903 29.29 23.1153 28.815 22.7753 28.215C22.4453 27.605 22.2803 26.91 22.2803 26.13C22.2803 25.25 22.4553 24.5 22.8053 23.88C23.1653 23.25 23.6303 22.77 24.2003 22.44C24.7703 22.1 25.3753 21.93 26.0153 21.93C26.5053 21.93 26.9703 22.03 27.4103 22.23C27.8503 22.42 28.2403 22.69 28.5803 23.04C28.9303 23.38 29.2053 23.785 29.4053 24.255C29.6053 24.715 29.7103 25.22 29.7203 25.77C29.7103 25.97 29.6303 26.135 29.4803 26.265C29.3303 26.395 29.1553 26.46 28.9553 26.46H23.1203L22.7603 25.185H28.4003L28.1153 25.455V25.08C28.0953 24.73 27.9803 24.425 27.7703 24.165C27.5603 23.895 27.3003 23.69 26.9903 23.55C26.6803 23.4 26.3553 23.325 26.0153 23.325C25.7153 23.325 25.4253 23.375 25.1453 23.475C24.8753 23.565 24.6303 23.715 24.4103 23.925C24.2003 24.135 24.0303 24.415 23.9003 24.765C23.7803 25.105 23.7203 25.53 23.7203 26.04C23.7203 26.59 23.8353 27.07 24.0653 27.48C24.2953 27.89 24.6053 28.21 24.9953 28.44C25.3853 28.66 25.8153 28.77 26.2853 28.77C26.6553 28.77 26.9603 28.735 27.2003 28.665C27.4403 28.585 27.6403 28.49 27.8003 28.38C27.9603 28.27 28.1003 28.165 28.2203 28.065C28.3703 27.975 28.5203 27.93 28.6703 27.93C28.8503 27.93 29.0003 27.995 29.1203 28.125C29.2403 28.245 29.3003 28.39 29.3003 28.56C29.3003 28.78 29.1903 28.98 28.9703 29.16C28.7003 29.42 28.3253 29.65 27.8453 29.85C27.3753 30.05 26.8803 30.15 26.3603 30.15ZM37.9393 21.99C38.1593 21.99 38.3393 22.065 38.4793 22.215C38.6193 22.355 38.6893 22.535 38.6893 22.755V29.235C38.6893 29.455 38.6193 29.64 38.4793 29.79C38.3393 29.93 38.1593 30 37.9393 30C37.7293 30 37.5493 29.93 37.3993 29.79C37.2593 29.64 37.1893 29.455 37.1893 29.235V28.155L37.5043 28.2C37.5043 28.38 37.4293 28.58 37.2793 28.8C37.1393 29.02 36.9443 29.235 36.6943 29.445C36.4443 29.645 36.1493 29.815 35.8093 29.955C35.4693 30.085 35.1043 30.15 34.7143 30.15C34.0243 30.15 33.4043 29.975 32.8543 29.625C32.3043 29.265 31.8693 28.775 31.5493 28.155C31.2293 27.535 31.0693 26.83 31.0693 26.04C31.0693 25.23 31.2293 24.52 31.5493 23.91C31.8693 23.29 32.2993 22.805 32.8393 22.455C33.3893 22.105 33.9993 21.93 34.6693 21.93C35.0993 21.93 35.4943 22 35.8543 22.14C36.2243 22.28 36.5443 22.46 36.8143 22.68C37.0843 22.9 37.2893 23.135 37.4293 23.385C37.5793 23.625 37.6543 23.855 37.6543 24.075L37.1893 24.12V22.755C37.1893 22.545 37.2593 22.365 37.3993 22.215C37.5493 22.065 37.7293 21.99 37.9393 21.99ZM34.8793 28.77C35.3493 28.77 35.7643 28.65 36.1243 28.41C36.4843 28.17 36.7643 27.845 36.9643 27.435C37.1643 27.015 37.2643 26.55 37.2643 26.04C37.2643 25.52 37.1643 25.055 36.9643 24.645C36.7643 24.235 36.4843 23.91 36.1243 23.67C35.7643 23.43 35.3493 23.31 34.8793 23.31C34.4193 23.31 34.0093 23.43 33.6493 23.67C33.2993 23.91 33.0193 24.235 32.8093 24.645C32.6093 25.055 32.5093 25.52 32.5093 26.04C32.5093 26.55 32.6093 27.015 32.8093 27.435C33.0193 27.845 33.2993 28.17 33.6493 28.41C34.0093 28.65 34.4193 28.77 34.8793 28.77ZM44.8557 21.93C45.5657 21.93 46.1157 22.08 46.5057 22.38C46.8957 22.67 47.1657 23.065 47.3157 23.565C47.4757 24.055 47.5557 24.605 47.5557 25.215V29.235C47.5557 29.455 47.4807 29.64 47.3307 29.79C47.1907 29.93 47.0157 30 46.8057 30C46.5857 30 46.4057 29.93 46.2657 29.79C46.1257 29.64 46.0557 29.455 46.0557 29.235V25.23C46.0557 24.87 46.0057 24.55 45.9057 24.27C45.8057 23.98 45.6307 23.75 45.3807 23.58C45.1407 23.4 44.8007 23.31 44.3607 23.31C43.9507 23.31 43.5907 23.4 43.2807 23.58C42.9707 23.75 42.7257 23.98 42.5457 24.27C42.3757 24.55 42.2907 24.87 42.2907 25.23V29.235C42.2907 29.455 42.2157 29.64 42.0657 29.79C41.9257 29.93 41.7507 30 41.5407 30C41.3207 30 41.1407 29.93 41.0007 29.79C40.8607 29.64 40.7907 29.455 40.7907 29.235V22.875C40.7907 22.655 40.8607 22.475 41.0007 22.335C41.1407 22.185 41.3207 22.11 41.5407 22.11C41.7507 22.11 41.9257 22.185 42.0657 22.335C42.2157 22.475 42.2907 22.655 42.2907 22.875V23.715L42.0207 23.865C42.0907 23.645 42.2107 23.425 42.3807 23.205C42.5607 22.975 42.7757 22.765 43.0257 22.575C43.2757 22.375 43.5557 22.22 43.8657 22.11C44.1757 21.99 44.5057 21.93 44.8557 21.93ZM49.1734 28.77C49.0834 28.63 49.0434 28.47 49.0534 28.29C49.0634 28.1 49.1684 27.94 49.3684 27.81C49.5084 27.72 49.6534 27.685 49.8034 27.705C49.9634 27.715 50.1134 27.79 50.2534 27.93C50.5334 28.24 50.8434 28.485 51.1834 28.665C51.5334 28.845 51.9534 28.935 52.4434 28.935C52.6434 28.925 52.8484 28.895 53.0584 28.845C53.2684 28.785 53.4484 28.685 53.5984 28.545C53.7484 28.395 53.8234 28.18 53.8234 27.9C53.8234 27.65 53.7434 27.45 53.5834 27.3C53.4234 27.15 53.2134 27.03 52.9534 26.94C52.6934 26.84 52.4134 26.75 52.1134 26.67C51.7934 26.58 51.4684 26.48 51.1384 26.37C50.8184 26.26 50.5284 26.12 50.2684 25.95C50.0084 25.77 49.7934 25.54 49.6234 25.26C49.4634 24.98 49.3834 24.635 49.3834 24.225C49.3834 23.755 49.5134 23.35 49.7734 23.01C50.0434 22.67 50.3884 22.405 50.8084 22.215C51.2384 22.025 51.7034 21.93 52.2034 21.93C52.4934 21.93 52.7984 21.97 53.1184 22.05C53.4384 22.12 53.7484 22.235 54.0484 22.395C54.3484 22.555 54.6084 22.765 54.8284 23.025C54.9284 23.155 54.9834 23.31 54.9934 23.49C55.0134 23.67 54.9334 23.83 54.7534 23.97C54.6334 24.07 54.4884 24.115 54.3184 24.105C54.1484 24.095 54.0084 24.04 53.8984 23.94C53.7084 23.7 53.4634 23.515 53.1634 23.385C52.8634 23.245 52.5234 23.175 52.1434 23.175C51.9534 23.175 51.7534 23.205 51.5434 23.265C51.3434 23.315 51.1734 23.41 51.0334 23.55C50.8934 23.69 50.8234 23.895 50.8234 24.165C50.8234 24.415 50.9034 24.615 51.0634 24.765C51.2334 24.915 51.4534 25.04 51.7234 25.14C51.9934 25.24 52.2884 25.33 52.6084 25.41C52.9184 25.49 53.2234 25.585 53.5234 25.695C53.8334 25.805 54.1084 25.95 54.3484 26.13C54.5984 26.3 54.7984 26.525 54.9484 26.805C55.1084 27.075 55.1884 27.42 55.1884 27.84C55.1884 28.33 55.0434 28.75 54.7534 29.1C54.4734 29.44 54.1134 29.7 53.6734 29.88C53.2434 30.06 52.7884 30.15 52.3084 30.15C51.7384 30.15 51.1684 30.05 50.5984 29.85C50.0384 29.64 49.5634 29.28 49.1734 28.77Z" fill="#002A56"/>
</svg>
