<svg width="73" height="34" viewBox="0 0 73 34" fill="none" xmlns="http://www.w3.org/2000/svg">
<path d="M10.8197 6.75C10.8197 7.51 10.6947 8.22 10.4447 8.88C10.1947 9.53 9.83967 10.1 9.37967 10.59C8.92967 11.08 8.39467 11.465 7.77467 11.745C7.15467 12.015 6.47467 12.15 5.73467 12.15C5.00467 12.15 4.32967 12.015 3.70967 11.745C3.08967 11.465 2.54967 11.08 2.08967 10.59C1.63967 10.1 1.28967 9.53 1.03967 8.88C0.799668 8.22 0.679668 7.51 0.679668 6.75C0.679668 5.99 0.799668 5.285 1.03967 4.635C1.28967 3.975 1.63967 3.4 2.08967 2.91C2.54967 2.42 3.08967 2.04 3.70967 1.77C4.32967 1.49 5.00467 1.35 5.73467 1.35C6.47467 1.35 7.15467 1.49 7.77467 1.77C8.39467 2.04 8.92967 2.42 9.37967 2.91C9.83967 3.4 10.1947 3.975 10.4447 4.635C10.6947 5.285 10.8197 5.99 10.8197 6.75ZM9.19967 6.75C9.19967 6.01 9.04967 5.345 8.74967 4.755C8.45967 4.165 8.05467 3.7 7.53467 3.36C7.01467 3.02 6.41467 2.85 5.73467 2.85C5.06467 2.85 4.46967 3.02 3.94967 3.36C3.42967 3.7 3.02467 4.165 2.73467 4.755C2.44467 5.335 2.29967 6 2.29967 6.75C2.29967 7.49 2.44467 8.155 2.73467 8.745C3.02467 9.335 3.42967 9.8 3.94967 10.14C4.46967 10.48 5.06467 10.65 5.73467 10.65C6.41467 10.65 7.01467 10.48 7.53467 10.14C8.05467 9.8 8.45967 9.335 8.74967 8.745C9.04967 8.155 9.19967 7.49 9.19967 6.75ZM13.3658 12C13.1558 12 12.9758 11.93 12.8258 11.79C12.6858 11.64 12.6158 11.455 12.6158 11.235V1.665C12.6158 1.445 12.6858 1.265 12.8258 1.125C12.9758 0.975 13.1558 0.9 13.3658 0.9C13.5858 0.9 13.7658 0.975 13.9058 1.125C14.0458 1.265 14.1158 1.445 14.1158 1.665V11.235C14.1158 11.455 14.0458 11.64 13.9058 11.79C13.7658 11.93 13.5858 12 13.3658 12ZM18.2558 4.08C18.4458 4.08 18.6108 4.16 18.7508 4.32C18.8908 4.48 18.9608 4.64 18.9608 4.8C18.9608 5 18.8658 5.185 18.6758 5.355L13.9808 9.555L13.9208 7.83L17.7008 4.32C17.8608 4.16 18.0458 4.08 18.2558 4.08ZM18.4358 11.985C18.2258 11.985 18.0458 11.9 17.8958 11.73L14.8958 8.565L16.0358 7.515L18.9608 10.68C19.1208 10.85 19.2008 11.04 19.2008 11.25C19.2008 11.47 19.1108 11.65 18.9308 11.79C18.7608 11.92 18.5958 11.985 18.4358 11.985ZM22.4068 11.235C22.4068 11.455 22.3318 11.64 22.1818 11.79C22.0418 11.93 21.8668 12 21.6568 12C21.4468 12 21.2668 11.93 21.1168 11.79C20.9768 11.64 20.9068 11.455 20.9068 11.235V1.665C20.9068 1.445 20.9818 1.265 21.1318 1.125C21.2818 0.975 21.4618 0.9 21.6718 0.9C21.8918 0.9 22.0668 0.975 22.1968 1.125C22.3368 1.265 22.4068 1.445 22.4068 1.665V11.235ZM31.1044 3.99C31.3244 3.99 31.5044 4.065 31.6444 4.215C31.7844 4.355 31.8544 4.535 31.8544 4.755V11.235C31.8544 11.455 31.7844 11.64 31.6444 11.79C31.5044 11.93 31.3244 12 31.1044 12C30.8944 12 30.7144 11.93 30.5644 11.79C30.4244 11.64 30.3544 11.455 30.3544 11.235V10.155L30.6694 10.2C30.6694 10.38 30.5944 10.58 30.4444 10.8C30.3044 11.02 30.1094 11.235 29.8594 11.445C29.6094 11.645 29.3144 11.815 28.9744 11.955C28.6344 12.085 28.2694 12.15 27.8794 12.15C27.1894 12.15 26.5694 11.975 26.0194 11.625C25.4694 11.265 25.0344 10.775 24.7144 10.155C24.3944 9.535 24.2344 8.83 24.2344 8.04C24.2344 7.23 24.3944 6.52 24.7144 5.91C25.0344 5.29 25.4644 4.805 26.0044 4.455C26.5544 4.105 27.1644 3.93 27.8344 3.93C28.2644 3.93 28.6594 4 29.0194 4.14C29.3894 4.28 29.7094 4.46 29.9794 4.68C30.2494 4.9 30.4544 5.135 30.5944 5.385C30.7444 5.625 30.8194 5.855 30.8194 6.075L30.3544 6.12V4.755C30.3544 4.545 30.4244 4.365 30.5644 4.215C30.7144 4.065 30.8944 3.99 31.1044 3.99ZM28.0444 10.77C28.5144 10.77 28.9294 10.65 29.2894 10.41C29.6494 10.17 29.9294 9.845 30.1294 9.435C30.3294 9.015 30.4294 8.55 30.4294 8.04C30.4294 7.52 30.3294 7.055 30.1294 6.645C29.9294 6.235 29.6494 5.91 29.2894 5.67C28.9294 5.43 28.5144 5.31 28.0444 5.31C27.5844 5.31 27.1744 5.43 26.8144 5.67C26.4644 5.91 26.1844 6.235 25.9744 6.645C25.7744 7.055 25.6744 7.52 25.6744 8.04C25.6744 8.55 25.7744 9.015 25.9744 9.435C26.1844 9.845 26.4644 10.17 26.8144 10.41C27.1744 10.65 27.5844 10.77 28.0444 10.77ZM37.9308 3.975C38.6208 3.975 39.1558 4.125 39.5358 4.425C39.9158 4.715 40.1808 5.11 40.3308 5.61C40.4908 6.11 40.5708 6.66 40.5708 7.26V11.235C40.5708 11.455 40.4958 11.64 40.3458 11.79C40.2058 11.93 40.0308 12 39.8208 12C39.6008 12 39.4208 11.93 39.2808 11.79C39.1408 11.64 39.0708 11.455 39.0708 11.235V7.26C39.0708 6.91 39.0208 6.59 38.9208 6.3C38.8308 6.01 38.6658 5.78 38.4258 5.61C38.1958 5.44 37.8708 5.355 37.4508 5.355C37.0608 5.355 36.7108 5.44 36.4008 5.61C36.1008 5.78 35.8658 6.01 35.6958 6.3C35.5358 6.59 35.4558 6.91 35.4558 7.26V11.235C35.4558 11.455 35.3808 11.64 35.2308 11.79C35.0908 11.93 34.9158 12 34.7058 12C34.4858 12 34.3058 11.93 34.1658 11.79C34.0258 11.64 33.9558 11.455 33.9558 11.235V1.665C33.9558 1.445 34.0258 1.265 34.1658 1.125C34.3058 0.975 34.4858 0.9 34.7058 0.9C34.9158 0.9 35.0908 0.975 35.2308 1.125C35.3808 1.265 35.4558 1.445 35.4558 1.665V5.76L35.1858 5.91C35.2558 5.69 35.3708 5.465 35.5308 5.235C35.7008 5.005 35.9058 4.795 36.1458 4.605C36.3958 4.415 36.6708 4.265 36.9708 4.155C37.2708 4.035 37.5908 3.975 37.9308 3.975ZM50.2169 8.055C50.2169 8.855 50.0419 9.565 49.6919 10.185C49.3419 10.795 48.8669 11.275 48.2669 11.625C47.6669 11.975 46.9919 12.15 46.2419 12.15C45.4919 12.15 44.8169 11.975 44.2169 11.625C43.6169 11.275 43.1369 10.795 42.7769 10.185C42.4269 9.565 42.2519 8.855 42.2519 8.055C42.2519 7.245 42.4269 6.535 42.7769 5.925C43.1369 5.305 43.6169 4.82 44.2169 4.47C44.8169 4.11 45.4919 3.93 46.2419 3.93C46.9919 3.93 47.6669 4.11 48.2669 4.47C48.8669 4.82 49.3419 5.305 49.6919 5.925C50.0419 6.535 50.2169 7.245 50.2169 8.055ZM48.7169 8.055C48.7169 7.505 48.6069 7.03 48.3869 6.63C48.1669 6.22 47.8669 5.9 47.4869 5.67C47.1169 5.43 46.7019 5.31 46.2419 5.31C45.7819 5.31 45.3619 5.43 44.9819 5.67C44.6019 5.9 44.3019 6.22 44.0819 6.63C43.8619 7.03 43.7519 7.505 43.7519 8.055C43.7519 8.585 43.8619 9.055 44.0819 9.465C44.3019 9.875 44.6019 10.195 44.9819 10.425C45.3619 10.655 45.7819 10.77 46.2419 10.77C46.7019 10.77 47.1169 10.655 47.4869 10.425C47.8669 10.195 48.1669 9.875 48.3869 9.465C48.6069 9.055 48.7169 8.585 48.7169 8.055ZM55.8747 3.975C56.6147 3.975 57.1847 4.16 57.5847 4.53C57.9847 4.89 58.2497 5.38 58.3797 6L58.1397 5.925L58.2447 5.685C58.3747 5.425 58.5697 5.165 58.8297 4.905C59.0997 4.635 59.4197 4.415 59.7897 4.245C60.1597 4.065 60.5547 3.975 60.9747 3.975C61.6647 3.975 62.1997 4.125 62.5797 4.425C62.9597 4.715 63.2247 5.11 63.3747 5.61C63.5247 6.1 63.5997 6.65 63.5997 7.26V11.235C63.5997 11.455 63.5297 11.64 63.3897 11.79C63.2497 11.93 63.0697 12 62.8497 12C62.6397 12 62.4597 11.93 62.3097 11.79C62.1697 11.64 62.0997 11.455 62.0997 11.235V7.275C62.0997 6.925 62.0497 6.605 61.9497 6.315C61.8597 6.025 61.6947 5.795 61.4547 5.625C61.2247 5.445 60.9047 5.355 60.4947 5.355C60.1047 5.355 59.7547 5.445 59.4447 5.625C59.1447 5.795 58.9097 6.025 58.7397 6.315C58.5697 6.605 58.4847 6.925 58.4847 7.275V11.235C58.4847 11.455 58.4147 11.64 58.2747 11.79C58.1347 11.93 57.9547 12 57.7347 12C57.5147 12 57.3347 11.93 57.1947 11.79C57.0547 11.64 56.9847 11.455 56.9847 11.235V7.26C56.9847 6.91 56.9347 6.59 56.8347 6.3C56.7447 6.01 56.5847 5.78 56.3547 5.61C56.1247 5.44 55.8047 5.355 55.3947 5.355C55.0047 5.355 54.6597 5.44 54.3597 5.61C54.0597 5.78 53.8247 6.01 53.6547 6.3C53.4947 6.59 53.4147 6.91 53.4147 7.26V11.235C53.4147 11.455 53.3397 11.64 53.1897 11.79C53.0497 11.93 52.8747 12 52.6647 12C52.4447 12 52.2647 11.93 52.1247 11.79C51.9847 11.64 51.9147 11.455 51.9147 11.235V4.875C51.9147 4.655 51.9847 4.475 52.1247 4.335C52.2647 4.185 52.4447 4.11 52.6647 4.11C52.8747 4.11 53.0497 4.185 53.1897 4.335C53.3397 4.475 53.4147 4.655 53.4147 4.875V5.76L53.1297 5.925C53.1997 5.705 53.3147 5.48 53.4747 5.25C53.6347 5.02 53.8347 4.81 54.0747 4.62C54.3247 4.43 54.5997 4.275 54.8997 4.155C55.1997 4.035 55.5247 3.975 55.8747 3.975ZM72.1639 3.99C72.3839 3.99 72.5639 4.065 72.7039 4.215C72.8439 4.355 72.9139 4.535 72.9139 4.755V11.235C72.9139 11.455 72.8439 11.64 72.7039 11.79C72.5639 11.93 72.3839 12 72.1639 12C71.9539 12 71.7739 11.93 71.6239 11.79C71.4839 11.64 71.4139 11.455 71.4139 11.235V10.155L71.7289 10.2C71.7289 10.38 71.6539 10.58 71.5039 10.8C71.3639 11.02 71.1689 11.235 70.9189 11.445C70.6689 11.645 70.3739 11.815 70.0339 11.955C69.6939 12.085 69.3289 12.15 68.9389 12.15C68.2489 12.15 67.6289 11.975 67.0789 11.625C66.5289 11.265 66.0939 10.775 65.7739 10.155C65.4539 9.535 65.2939 8.83 65.2939 8.04C65.2939 7.23 65.4539 6.52 65.7739 5.91C66.0939 5.29 66.5239 4.805 67.0639 4.455C67.6139 4.105 68.2239 3.93 68.8939 3.93C69.3239 3.93 69.7189 4 70.0789 4.14C70.4489 4.28 70.7689 4.46 71.0389 4.68C71.3089 4.9 71.5139 5.135 71.6539 5.385C71.8039 5.625 71.8789 5.855 71.8789 6.075L71.4139 6.12V4.755C71.4139 4.545 71.4839 4.365 71.6239 4.215C71.7739 4.065 71.9539 3.99 72.1639 3.99ZM69.1039 10.77C69.5739 10.77 69.9889 10.65 70.3489 10.41C70.7089 10.17 70.9889 9.845 71.1889 9.435C71.3889 9.015 71.4889 8.55 71.4889 8.04C71.4889 7.52 71.3889 7.055 71.1889 6.645C70.9889 6.235 70.7089 5.91 70.3489 5.67C69.9889 5.43 69.5739 5.31 69.1039 5.31C68.6439 5.31 68.2339 5.43 67.8739 5.67C67.5239 5.91 67.2439 6.235 67.0339 6.645C66.8339 7.055 66.7339 7.52 66.7339 8.04C66.7339 8.55 66.8339 9.015 67.0339 9.435C67.2439 9.845 67.5239 10.17 67.8739 10.41C68.2339 10.65 68.6439 10.77 69.1039 10.77ZM31.9371 21.1C32.1571 21.21 32.2821 21.38 32.3121 21.61C32.3521 21.84 32.2971 22.05 32.1471 22.24C32.0371 22.39 31.8921 22.475 31.7121 22.495C31.5421 22.515 31.3721 22.48 31.2021 22.39C30.9121 22.24 30.6071 22.12 30.2871 22.03C29.9671 21.94 29.6271 21.895 29.2671 21.895C28.6971 21.895 28.1821 21.99 27.7221 22.18C27.2721 22.36 26.8821 22.625 26.5521 22.975C26.2221 23.315 25.9671 23.72 25.7871 24.19C25.6171 24.66 25.5321 25.18 25.5321 25.75C25.5321 26.38 25.6271 26.94 25.8171 27.43C26.0071 27.91 26.2671 28.32 26.5971 28.66C26.9371 28.99 27.3321 29.24 27.7821 29.41C28.2421 29.57 28.7371 29.65 29.2671 29.65C29.6071 29.65 29.9371 29.61 30.2571 29.53C30.5871 29.45 30.8971 29.33 31.1871 29.17C31.3671 29.08 31.5421 29.05 31.7121 29.08C31.8921 29.1 32.0371 29.185 32.1471 29.335C32.3171 29.545 32.3771 29.76 32.3271 29.98C32.2871 30.19 32.1621 30.35 31.9521 30.46C31.7021 30.6 31.4271 30.72 31.1271 30.82C30.8271 30.92 30.5221 31 30.2121 31.06C29.9021 31.12 29.5871 31.15 29.2671 31.15C28.5471 31.15 27.8671 31.03 27.2271 30.79C26.5871 30.55 26.0171 30.2 25.5171 29.74C25.0171 29.28 24.6221 28.715 24.3321 28.045C24.0521 27.375 23.9121 26.61 23.9121 25.75C23.9121 24.98 24.0421 24.27 24.3021 23.62C24.5721 22.96 24.9471 22.395 25.4271 21.925C25.9171 21.445 26.4871 21.075 27.1371 20.815C27.7871 20.545 28.4971 20.41 29.2671 20.41C29.7471 20.41 30.2121 20.47 30.6621 20.59C31.1221 20.71 31.5471 20.88 31.9371 21.1ZM35.2632 30.235C35.2632 30.455 35.1932 30.64 35.0532 30.79C34.9132 30.93 34.7332 31 34.5132 31C34.3032 31 34.1232 30.93 33.9732 30.79C33.8332 30.64 33.7632 30.455 33.7632 30.235V23.815C33.7632 23.595 33.8332 23.415 33.9732 23.275C34.1232 23.125 34.3032 23.05 34.5132 23.05C34.7332 23.05 34.9132 23.125 35.0532 23.275C35.1932 23.415 35.2632 23.595 35.2632 23.815V30.235ZM34.4982 22.06C34.2082 22.06 33.9982 22.01 33.8682 21.91C33.7382 21.8 33.6732 21.62 33.6732 21.37V21.13C33.6732 20.88 33.7432 20.705 33.8832 20.605C34.0232 20.505 34.2332 20.455 34.5132 20.455C34.8132 20.455 35.0282 20.51 35.1582 20.62C35.2882 20.72 35.3532 20.89 35.3532 21.13V21.37C35.3532 21.63 35.2832 21.81 35.1432 21.91C35.0132 22.01 34.7982 22.06 34.4982 22.06ZM37.176 23.2H40.701C40.901 23.2 41.066 23.27 41.196 23.41C41.336 23.54 41.406 23.705 41.406 23.905C41.406 24.095 41.336 24.255 41.196 24.385C41.066 24.515 40.901 24.58 40.701 24.58H37.176C36.976 24.58 36.806 24.515 36.666 24.385C36.536 24.245 36.471 24.08 36.471 23.89C36.471 23.69 36.536 23.525 36.666 23.395C36.806 23.265 36.976 23.2 37.176 23.2ZM38.751 21.25C38.971 21.25 39.151 21.325 39.291 21.475C39.431 21.615 39.501 21.795 39.501 22.015V28.975C39.501 29.155 39.531 29.3 39.591 29.41C39.651 29.52 39.731 29.595 39.831 29.635C39.941 29.675 40.051 29.695 40.161 29.695C40.271 29.695 40.366 29.675 40.446 29.635C40.536 29.595 40.641 29.575 40.761 29.575C40.881 29.575 40.991 29.63 41.091 29.74C41.191 29.85 41.241 30 41.241 30.19C41.241 30.43 41.111 30.625 40.851 30.775C40.591 30.925 40.311 31 40.011 31C39.841 31 39.641 30.985 39.411 30.955C39.181 30.925 38.956 30.85 38.736 30.73C38.526 30.61 38.351 30.42 38.211 30.16C38.071 29.89 38.001 29.515 38.001 29.035V22.015C38.001 21.795 38.071 21.615 38.211 21.475C38.361 21.325 38.541 21.25 38.751 21.25ZM48.9321 23.05C49.1521 23.05 49.3321 23.125 49.4721 23.275C49.6121 23.415 49.6821 23.595 49.6821 23.815V30.265C49.6821 31.145 49.5121 31.86 49.1721 32.41C48.8421 32.96 48.3921 33.36 47.8221 33.61C47.2621 33.87 46.6271 34 45.9171 34C45.5571 34 45.1971 33.965 44.8371 33.895C44.4771 33.835 44.1821 33.745 43.9521 33.625C43.7121 33.515 43.5421 33.38 43.4421 33.22C43.3421 33.06 43.3271 32.885 43.3971 32.695C43.4671 32.455 43.5871 32.29 43.7571 32.2C43.9271 32.12 44.1021 32.115 44.2821 32.185C44.4521 32.255 44.6771 32.345 44.9571 32.455C45.2371 32.565 45.5571 32.62 45.9171 32.62C46.4071 32.62 46.8221 32.54 47.1621 32.38C47.5021 32.22 47.7571 31.97 47.9271 31.63C48.1071 31.29 48.1971 30.85 48.1971 30.31V29.275L48.4371 29.635C48.2771 29.965 48.0671 30.24 47.8071 30.46C47.5471 30.68 47.2371 30.85 46.8771 30.97C46.5271 31.09 46.1371 31.15 45.7071 31.15C45.1571 31.15 44.6821 31.03 44.2821 30.79C43.8921 30.54 43.5921 30.2 43.3821 29.77C43.1721 29.33 43.0671 28.83 43.0671 28.27V23.815C43.0671 23.595 43.1371 23.415 43.2771 23.275C43.4171 23.125 43.5971 23.05 43.8171 23.05C44.0271 23.05 44.2021 23.125 44.3421 23.275C44.4921 23.415 44.5671 23.595 44.5671 23.815V27.865C44.5671 28.525 44.7121 29.01 45.0021 29.32C45.2921 29.62 45.7221 29.77 46.2921 29.77C46.6721 29.77 47.0021 29.69 47.2821 29.53C47.5621 29.37 47.7821 29.15 47.9421 28.87C48.1021 28.58 48.1821 28.245 48.1821 27.865V23.815C48.1821 23.595 48.2521 23.415 48.3921 23.275C48.5421 23.125 48.7221 23.05 48.9321 23.05Z" fill="#002A56"/>
</svg>
