<svg width="52" height="13" viewBox="0 0 52 13" fill="none" xmlns="http://www.w3.org/2000/svg">
<path d="M11.0204 6.75C11.0204 7.51 10.8954 8.22 10.6454 8.88C10.3954 9.53 10.0404 10.1 9.58035 10.59C9.13035 11.08 8.59535 11.465 7.97535 11.745C7.35535 12.015 6.67535 12.15 5.93535 12.15C5.20535 12.15 4.53035 12.015 3.91035 11.745C3.29035 11.465 2.75035 11.08 2.29035 10.59C1.84035 10.1 1.49035 9.53 1.24035 8.88C1.00035 8.22 0.880352 7.51 0.880352 6.75C0.880352 5.99 1.00035 5.285 1.24035 4.635C1.49035 3.975 1.84035 3.4 2.29035 2.91C2.75035 2.42 3.29035 2.04 3.91035 1.77C4.53035 1.49 5.20535 1.35 5.93535 1.35C6.67535 1.35 7.35535 1.49 7.97535 1.77C8.59535 2.04 9.13035 2.42 9.58035 2.91C10.0404 3.4 10.3954 3.975 10.6454 4.635C10.8954 5.285 11.0204 5.99 11.0204 6.75ZM9.40035 6.75C9.40035 6.01 9.25035 5.345 8.95035 4.755C8.66035 4.165 8.25535 3.7 7.73535 3.36C7.21535 3.02 6.61535 2.85 5.93535 2.85C5.26535 2.85 4.67035 3.02 4.15035 3.36C3.63035 3.7 3.22535 4.165 2.93535 4.755C2.64535 5.335 2.50035 6 2.50035 6.75C2.50035 7.49 2.64535 8.155 2.93535 8.745C3.22535 9.335 3.63035 9.8 4.15035 10.14C4.67035 10.48 5.26535 10.65 5.93535 10.65C6.61535 10.65 7.21535 10.48 7.73535 10.14C8.25535 9.8 8.66035 9.335 8.95035 8.745C9.25035 8.155 9.40035 7.49 9.40035 6.75ZM16.6565 3.975C17.3965 3.975 17.9665 4.16 18.3665 4.53C18.7665 4.89 19.0315 5.38 19.1615 6L18.9215 5.925L19.0265 5.685C19.1565 5.425 19.3515 5.165 19.6115 4.905C19.8815 4.635 20.2015 4.415 20.5715 4.245C20.9415 4.065 21.3365 3.975 21.7565 3.975C22.4465 3.975 22.9815 4.125 23.3615 4.425C23.7415 4.715 24.0065 5.11 24.1565 5.61C24.3065 6.1 24.3815 6.65 24.3815 7.26V11.235C24.3815 11.455 24.3115 11.64 24.1715 11.79C24.0315 11.93 23.8515 12 23.6315 12C23.4215 12 23.2415 11.93 23.0915 11.79C22.9515 11.64 22.8815 11.455 22.8815 11.235V7.275C22.8815 6.925 22.8315 6.605 22.7315 6.315C22.6415 6.025 22.4765 5.795 22.2365 5.625C22.0065 5.445 21.6865 5.355 21.2765 5.355C20.8865 5.355 20.5365 5.445 20.2265 5.625C19.9265 5.795 19.6915 6.025 19.5215 6.315C19.3515 6.605 19.2665 6.925 19.2665 7.275V11.235C19.2665 11.455 19.1965 11.64 19.0565 11.79C18.9165 11.93 18.7365 12 18.5165 12C18.2965 12 18.1165 11.93 17.9765 11.79C17.8365 11.64 17.7665 11.455 17.7665 11.235V7.26C17.7665 6.91 17.7165 6.59 17.6165 6.3C17.5265 6.01 17.3665 5.78 17.1365 5.61C16.9065 5.44 16.5865 5.355 16.1765 5.355C15.7865 5.355 15.4415 5.44 15.1415 5.61C14.8415 5.78 14.6065 6.01 14.4365 6.3C14.2765 6.59 14.1965 6.91 14.1965 7.26V11.235C14.1965 11.455 14.1215 11.64 13.9715 11.79C13.8315 11.93 13.6565 12 13.4465 12C13.2265 12 13.0465 11.93 12.9065 11.79C12.7665 11.64 12.6965 11.455 12.6965 11.235V4.875C12.6965 4.655 12.7665 4.475 12.9065 4.335C13.0465 4.185 13.2265 4.11 13.4465 4.11C13.6565 4.11 13.8315 4.185 13.9715 4.335C14.1215 4.475 14.1965 4.655 14.1965 4.875V5.76L13.9115 5.925C13.9815 5.705 14.0965 5.48 14.2565 5.25C14.4165 5.02 14.6165 4.81 14.8565 4.62C15.1065 4.43 15.3815 4.275 15.6815 4.155C15.9815 4.035 16.3065 3.975 16.6565 3.975ZM32.9457 3.99C33.1657 3.99 33.3457 4.065 33.4857 4.215C33.6257 4.355 33.6957 4.535 33.6957 4.755V11.235C33.6957 11.455 33.6257 11.64 33.4857 11.79C33.3457 11.93 33.1657 12 32.9457 12C32.7357 12 32.5557 11.93 32.4057 11.79C32.2657 11.64 32.1957 11.455 32.1957 11.235V10.155L32.5107 10.2C32.5107 10.38 32.4357 10.58 32.2857 10.8C32.1457 11.02 31.9507 11.235 31.7007 11.445C31.4507 11.645 31.1557 11.815 30.8157 11.955C30.4757 12.085 30.1107 12.15 29.7207 12.15C29.0307 12.15 28.4107 11.975 27.8607 11.625C27.3107 11.265 26.8757 10.775 26.5557 10.155C26.2357 9.535 26.0757 8.83 26.0757 8.04C26.0757 7.23 26.2357 6.52 26.5557 5.91C26.8757 5.29 27.3057 4.805 27.8457 4.455C28.3957 4.105 29.0057 3.93 29.6757 3.93C30.1057 3.93 30.5007 4 30.8607 4.14C31.2307 4.28 31.5507 4.46 31.8207 4.68C32.0907 4.9 32.2957 5.135 32.4357 5.385C32.5857 5.625 32.6607 5.855 32.6607 6.075L32.1957 6.12V4.755C32.1957 4.545 32.2657 4.365 32.4057 4.215C32.5557 4.065 32.7357 3.99 32.9457 3.99ZM29.8857 10.77C30.3557 10.77 30.7707 10.65 31.1307 10.41C31.4907 10.17 31.7707 9.845 31.9707 9.435C32.1707 9.015 32.2707 8.55 32.2707 8.04C32.2707 7.52 32.1707 7.055 31.9707 6.645C31.7707 6.235 31.4907 5.91 31.1307 5.67C30.7707 5.43 30.3557 5.31 29.8857 5.31C29.4257 5.31 29.0157 5.43 28.6557 5.67C28.3057 5.91 28.0257 6.235 27.8157 6.645C27.6157 7.055 27.5157 7.52 27.5157 8.04C27.5157 8.55 27.6157 9.015 27.8157 9.435C28.0257 9.845 28.3057 10.17 28.6557 10.41C29.0157 10.65 29.4257 10.77 29.8857 10.77ZM39.7721 3.975C40.4621 3.975 40.9971 4.125 41.3771 4.425C41.7571 4.715 42.0221 5.11 42.1721 5.61C42.3321 6.11 42.4121 6.66 42.4121 7.26V11.235C42.4121 11.455 42.3371 11.64 42.1871 11.79C42.0471 11.93 41.8721 12 41.6621 12C41.4421 12 41.2621 11.93 41.1221 11.79C40.9821 11.64 40.9121 11.455 40.9121 11.235V7.26C40.9121 6.91 40.8621 6.59 40.7621 6.3C40.6721 6.01 40.5071 5.78 40.2671 5.61C40.0371 5.44 39.7121 5.355 39.2921 5.355C38.9021 5.355 38.5521 5.44 38.2421 5.61C37.9421 5.78 37.7071 6.01 37.5371 6.3C37.3771 6.59 37.2971 6.91 37.2971 7.26V11.235C37.2971 11.455 37.2221 11.64 37.0721 11.79C36.9321 11.93 36.7571 12 36.5471 12C36.3271 12 36.1471 11.93 36.0071 11.79C35.8671 11.64 35.7971 11.455 35.7971 11.235V1.665C35.7971 1.445 35.8671 1.265 36.0071 1.125C36.1471 0.975 36.3271 0.9 36.5471 0.9C36.7571 0.9 36.9321 0.975 37.0721 1.125C37.2221 1.265 37.2971 1.445 37.2971 1.665V5.76L37.0271 5.91C37.0971 5.69 37.2121 5.465 37.3721 5.235C37.5421 5.005 37.7471 4.795 37.9871 4.605C38.2371 4.415 38.5121 4.265 38.8121 4.155C39.1121 4.035 39.4321 3.975 39.7721 3.975ZM50.9632 3.99C51.1832 3.99 51.3632 4.065 51.5032 4.215C51.6432 4.355 51.7132 4.535 51.7132 4.755V11.235C51.7132 11.455 51.6432 11.64 51.5032 11.79C51.3632 11.93 51.1832 12 50.9632 12C50.7532 12 50.5732 11.93 50.4232 11.79C50.2832 11.64 50.2132 11.455 50.2132 11.235V10.155L50.5282 10.2C50.5282 10.38 50.4532 10.58 50.3032 10.8C50.1632 11.02 49.9682 11.235 49.7182 11.445C49.4682 11.645 49.1732 11.815 48.8332 11.955C48.4932 12.085 48.1282 12.15 47.7382 12.15C47.0482 12.15 46.4282 11.975 45.8782 11.625C45.3282 11.265 44.8932 10.775 44.5732 10.155C44.2532 9.535 44.0932 8.83 44.0932 8.04C44.0932 7.23 44.2532 6.52 44.5732 5.91C44.8932 5.29 45.3232 4.805 45.8632 4.455C46.4132 4.105 47.0232 3.93 47.6932 3.93C48.1232 3.93 48.5182 4 48.8782 4.14C49.2482 4.28 49.5682 4.46 49.8382 4.68C50.1082 4.9 50.3132 5.135 50.4532 5.385C50.6032 5.625 50.6782 5.855 50.6782 6.075L50.2132 6.12V4.755C50.2132 4.545 50.2832 4.365 50.4232 4.215C50.5732 4.065 50.7532 3.99 50.9632 3.99ZM47.9032 10.77C48.3732 10.77 48.7882 10.65 49.1482 10.41C49.5082 10.17 49.7882 9.845 49.9882 9.435C50.1882 9.015 50.2882 8.55 50.2882 8.04C50.2882 7.52 50.1882 7.055 49.9882 6.645C49.7882 6.235 49.5082 5.91 49.1482 5.67C48.7882 5.43 48.3732 5.31 47.9032 5.31C47.4432 5.31 47.0332 5.43 46.6732 5.67C46.3232 5.91 46.0432 6.235 45.8332 6.645C45.6332 7.055 45.5332 7.52 45.5332 8.04C45.5332 8.55 45.6332 9.015 45.8332 9.435C46.0432 9.845 46.3232 10.17 46.6732 10.41C47.0332 10.65 47.4432 10.77 47.9032 10.77Z" fill="#002A56"/>
</svg>
