<svg width="55" height="13" viewBox="0 0 55 13" fill="none" xmlns="http://www.w3.org/2000/svg">
<path d="M4.81072 1.5C5.34072 1.5 5.83072 1.645 6.28072 1.935C6.73072 2.215 7.09072 2.6 7.36072 3.09C7.63072 3.58 7.76572 4.13 7.76572 4.74C7.76572 5.35 7.63072 5.905 7.36072 6.405C7.09072 6.895 6.73072 7.29 6.28072 7.59C5.83072 7.88 5.34072 8.025 4.81072 8.025H1.91572L2.03572 7.785V11.235C2.03572 11.455 1.96572 11.64 1.82572 11.79C1.69572 11.93 1.52072 12 1.30072 12C1.09072 12 0.915723 11.93 0.775723 11.79C0.645723 11.64 0.580723 11.455 0.580723 11.235V2.265C0.580723 2.045 0.655723 1.865 0.805723 1.725C0.955723 1.575 1.13572 1.5 1.34572 1.5H4.81072ZM4.81072 6.585C5.07072 6.585 5.30572 6.5 5.51572 6.33C5.73572 6.16 5.91072 5.935 6.04072 5.655C6.18072 5.375 6.25072 5.07 6.25072 4.74C6.25072 4.41 6.18072 4.11 6.04072 3.84C5.91072 3.57 5.73572 3.355 5.51572 3.195C5.30572 3.025 5.07072 2.94 4.81072 2.94H1.88572L2.03572 2.715V6.78L1.90072 6.585H4.81072ZM13.3995 3.975C14.0895 3.975 14.6245 4.125 15.0045 4.425C15.3845 4.715 15.6495 5.11 15.7995 5.61C15.9595 6.11 16.0395 6.66 16.0395 7.26V11.235C16.0395 11.455 15.9645 11.64 15.8145 11.79C15.6745 11.93 15.4995 12 15.2895 12C15.0695 12 14.8895 11.93 14.7495 11.79C14.6095 11.64 14.5395 11.455 14.5395 11.235V7.26C14.5395 6.91 14.4895 6.59 14.3895 6.3C14.2995 6.01 14.1345 5.78 13.8945 5.61C13.6645 5.44 13.3395 5.355 12.9195 5.355C12.5295 5.355 12.1795 5.44 11.8695 5.61C11.5695 5.78 11.3345 6.01 11.1645 6.3C11.0045 6.59 10.9245 6.91 10.9245 7.26V11.235C10.9245 11.455 10.8495 11.64 10.6995 11.79C10.5595 11.93 10.3845 12 10.1745 12C9.95451 12 9.77451 11.93 9.63451 11.79C9.49451 11.64 9.42451 11.455 9.42451 11.235V1.665C9.42451 1.445 9.49451 1.265 9.63451 1.125C9.77451 0.975 9.95451 0.9 10.1745 0.9C10.3845 0.9 10.5595 0.975 10.6995 1.125C10.8495 1.265 10.9245 1.445 10.9245 1.665V5.76L10.6545 5.91C10.7245 5.69 10.8395 5.465 10.9995 5.235C11.1695 5.005 11.3745 4.795 11.6145 4.605C11.8645 4.415 12.1395 4.265 12.4395 4.155C12.7395 4.035 13.0595 3.975 13.3995 3.975ZM25.6857 8.055C25.6857 8.855 25.5107 9.565 25.1607 10.185C24.8107 10.795 24.3357 11.275 23.7357 11.625C23.1357 11.975 22.4607 12.15 21.7107 12.15C20.9607 12.15 20.2857 11.975 19.6857 11.625C19.0857 11.275 18.6057 10.795 18.2457 10.185C17.8957 9.565 17.7207 8.855 17.7207 8.055C17.7207 7.245 17.8957 6.535 18.2457 5.925C18.6057 5.305 19.0857 4.82 19.6857 4.47C20.2857 4.11 20.9607 3.93 21.7107 3.93C22.4607 3.93 23.1357 4.11 23.7357 4.47C24.3357 4.82 24.8107 5.305 25.1607 5.925C25.5107 6.535 25.6857 7.245 25.6857 8.055ZM24.1857 8.055C24.1857 7.505 24.0757 7.03 23.8557 6.63C23.6357 6.22 23.3357 5.9 22.9557 5.67C22.5857 5.43 22.1707 5.31 21.7107 5.31C21.2507 5.31 20.8307 5.43 20.4507 5.67C20.0707 5.9 19.7707 6.22 19.5507 6.63C19.3307 7.03 19.2207 7.505 19.2207 8.055C19.2207 8.585 19.3307 9.055 19.5507 9.465C19.7707 9.875 20.0707 10.195 20.4507 10.425C20.8307 10.655 21.2507 10.77 21.7107 10.77C22.1707 10.77 22.5857 10.655 22.9557 10.425C23.3357 10.195 23.6357 9.875 23.8557 9.465C24.0757 9.055 24.1857 8.585 24.1857 8.055ZM31.0585 12.15C30.2285 12.15 29.5085 11.98 28.8985 11.64C28.2885 11.29 27.8135 10.815 27.4735 10.215C27.1435 9.605 26.9785 8.91 26.9785 8.13C26.9785 7.25 27.1535 6.5 27.5035 5.88C27.8635 5.25 28.3285 4.77 28.8985 4.44C29.4685 4.1 30.0735 3.93 30.7135 3.93C31.2035 3.93 31.6685 4.03 32.1085 4.23C32.5485 4.42 32.9385 4.69 33.2785 5.04C33.6285 5.38 33.9035 5.785 34.1035 6.255C34.3035 6.715 34.4085 7.22 34.4185 7.77C34.4085 7.97 34.3285 8.135 34.1785 8.265C34.0285 8.395 33.8535 8.46 33.6535 8.46H27.8185L27.4585 7.185H33.0985L32.8135 7.455V7.08C32.7935 6.73 32.6785 6.425 32.4685 6.165C32.2585 5.895 31.9985 5.69 31.6885 5.55C31.3785 5.4 31.0535 5.325 30.7135 5.325C30.4135 5.325 30.1235 5.375 29.8435 5.475C29.5735 5.565 29.3285 5.715 29.1085 5.925C28.8985 6.135 28.7285 6.415 28.5985 6.765C28.4785 7.105 28.4185 7.53 28.4185 8.04C28.4185 8.59 28.5335 9.07 28.7635 9.48C28.9935 9.89 29.3035 10.21 29.6935 10.44C30.0835 10.66 30.5135 10.77 30.9835 10.77C31.3535 10.77 31.6585 10.735 31.8985 10.665C32.1385 10.585 32.3385 10.49 32.4985 10.38C32.6585 10.27 32.7985 10.165 32.9185 10.065C33.0685 9.975 33.2185 9.93 33.3685 9.93C33.5485 9.93 33.6985 9.995 33.8185 10.125C33.9385 10.245 33.9985 10.39 33.9985 10.56C33.9985 10.78 33.8885 10.98 33.6685 11.16C33.3985 11.42 33.0235 11.65 32.5435 11.85C32.0735 12.05 31.5785 12.15 31.0585 12.15ZM40.179 3.93C40.889 3.93 41.439 4.08 41.829 4.38C42.219 4.67 42.489 5.065 42.639 5.565C42.799 6.055 42.879 6.605 42.879 7.215V11.235C42.879 11.455 42.804 11.64 42.654 11.79C42.514 11.93 42.339 12 42.129 12C41.909 12 41.729 11.93 41.589 11.79C41.449 11.64 41.379 11.455 41.379 11.235V7.23C41.379 6.87 41.329 6.55 41.229 6.27C41.129 5.98 40.954 5.75 40.704 5.58C40.464 5.4 40.124 5.31 39.684 5.31C39.274 5.31 38.914 5.4 38.604 5.58C38.294 5.75 38.049 5.98 37.869 6.27C37.699 6.55 37.614 6.87 37.614 7.23V11.235C37.614 11.455 37.539 11.64 37.389 11.79C37.249 11.93 37.074 12 36.864 12C36.644 12 36.464 11.93 36.324 11.79C36.184 11.64 36.114 11.455 36.114 11.235V4.875C36.114 4.655 36.184 4.475 36.324 4.335C36.464 4.185 36.644 4.11 36.864 4.11C37.074 4.11 37.249 4.185 37.389 4.335C37.539 4.475 37.614 4.655 37.614 4.875V5.715L37.344 5.865C37.414 5.645 37.534 5.425 37.704 5.205C37.884 4.975 38.099 4.765 38.349 4.575C38.599 4.375 38.879 4.22 39.189 4.11C39.499 3.99 39.829 3.93 40.179 3.93ZM46.3716 11.235C46.3716 11.455 46.3016 11.64 46.1616 11.79C46.0216 11.93 45.8416 12 45.6216 12C45.4116 12 45.2316 11.93 45.0816 11.79C44.9416 11.64 44.8716 11.455 44.8716 11.235V4.815C44.8716 4.595 44.9416 4.415 45.0816 4.275C45.2316 4.125 45.4116 4.05 45.6216 4.05C45.8416 4.05 46.0216 4.125 46.1616 4.275C46.3016 4.415 46.3716 4.595 46.3716 4.815V11.235ZM45.6066 3.06C45.3166 3.06 45.1066 3.01 44.9766 2.91C44.8466 2.8 44.7816 2.62 44.7816 2.37V2.13C44.7816 1.88 44.8516 1.705 44.9916 1.605C45.1316 1.505 45.3416 1.455 45.6216 1.455C45.9216 1.455 46.1366 1.51 46.2666 1.62C46.3966 1.72 46.4616 1.89 46.4616 2.13V2.37C46.4616 2.63 46.3916 2.81 46.2516 2.91C46.1216 3.01 45.9066 3.06 45.6066 3.06ZM48.4194 4.065C48.6694 4.065 48.8744 4.17 49.0344 4.38L54.1494 10.83C54.2594 10.96 54.3144 11.11 54.3144 11.28C54.3144 11.48 54.2344 11.655 54.0744 11.805C53.9144 11.955 53.7394 12.03 53.5494 12.03C53.3094 12.03 53.1044 11.925 52.9344 11.715L47.8194 5.265C47.7094 5.135 47.6544 4.985 47.6544 4.815C47.6544 4.605 47.7294 4.43 47.8794 4.29C48.0394 4.14 48.2194 4.065 48.4194 4.065ZM48.4344 12.03C48.2644 12.03 48.0994 11.965 47.9394 11.835C47.7794 11.705 47.6994 11.545 47.6994 11.355C47.6994 11.185 47.7594 11.03 47.8794 10.89L50.2644 7.935L51.0294 9.165L49.0344 11.715C48.8744 11.925 48.6744 12.03 48.4344 12.03ZM53.5344 4.065C53.7444 4.065 53.9144 4.135 54.0444 4.275C54.1844 4.405 54.2544 4.56 54.2544 4.74C54.2544 4.82 54.2394 4.905 54.2094 4.995C54.1894 5.075 54.1444 5.15 54.0744 5.22L51.7194 8.175L50.9394 7.065L52.9344 4.41C53.1044 4.18 53.3044 4.065 53.5344 4.065Z" fill="#002A56"/>
</svg>
