<svg width="72" height="15" viewBox="0 0 72 15" fill="none" xmlns="http://www.w3.org/2000/svg">
<path d="M4.57488 1.5C5.10488 1.5 5.59488 1.645 6.04488 1.935C6.49488 2.215 6.85488 2.6 7.12488 3.09C7.39488 3.58 7.52988 4.13 7.52988 4.74C7.52988 5.35 7.39488 5.905 7.12488 6.405C6.85488 6.895 6.49488 7.29 6.04488 7.59C5.59488 7.88 5.10488 8.025 4.57488 8.025H1.67988L1.79988 7.785V11.235C1.79988 11.455 1.72988 11.64 1.58988 11.79C1.45988 11.93 1.28488 12 1.06488 12C0.854883 12 0.679883 11.93 0.539883 11.79C0.409883 11.64 0.344883 11.455 0.344883 11.235V2.265C0.344883 2.045 0.419883 1.865 0.569883 1.725C0.719883 1.575 0.899883 1.5 1.10988 1.5H4.57488ZM4.57488 6.585C4.83488 6.585 5.06988 6.5 5.27988 6.33C5.49988 6.16 5.67488 5.935 5.80488 5.655C5.94488 5.375 6.01488 5.07 6.01488 4.74C6.01488 4.41 5.94488 4.11 5.80488 3.84C5.67488 3.57 5.49988 3.355 5.27988 3.195C5.06988 3.025 4.83488 2.94 4.57488 2.94H1.64988L1.79988 2.715V6.78L1.66488 6.585H4.57488ZM10.5987 11.235C10.5987 11.455 10.5287 11.64 10.3887 11.79C10.2487 11.93 10.0687 12 9.84867 12C9.63867 12 9.45867 11.93 9.30867 11.79C9.16867 11.64 9.09867 11.455 9.09867 11.235V4.815C9.09867 4.595 9.16867 4.415 9.30867 4.275C9.45867 4.125 9.63867 4.05 9.84867 4.05C10.0687 4.05 10.2487 4.125 10.3887 4.275C10.5287 4.415 10.5987 4.595 10.5987 4.815V11.235ZM9.83367 3.06C9.54367 3.06 9.33367 3.01 9.20367 2.91C9.07367 2.8 9.00867 2.62 9.00867 2.37V2.13C9.00867 1.88 9.07867 1.705 9.21867 1.605C9.35867 1.505 9.56867 1.455 9.84867 1.455C10.1487 1.455 10.3637 1.51 10.4937 1.62C10.6237 1.72 10.6887 1.89 10.6887 2.13V2.37C10.6887 2.63 10.6187 2.81 10.4787 2.91C10.3487 3.01 10.1337 3.06 9.83367 3.06ZM12.5114 4.2H16.0364C16.2364 4.2 16.4014 4.27 16.5314 4.41C16.6714 4.54 16.7414 4.705 16.7414 4.905C16.7414 5.095 16.6714 5.255 16.5314 5.385C16.4014 5.515 16.2364 5.58 16.0364 5.58H12.5114C12.3114 5.58 12.1414 5.515 12.0014 5.385C11.8714 5.245 11.8064 5.08 11.8064 4.89C11.8064 4.69 11.8714 4.525 12.0014 4.395C12.1414 4.265 12.3114 4.2 12.5114 4.2ZM14.0864 2.25C14.3064 2.25 14.4864 2.325 14.6264 2.475C14.7664 2.615 14.8364 2.795 14.8364 3.015V9.975C14.8364 10.155 14.8664 10.3 14.9264 10.41C14.9864 10.52 15.0664 10.595 15.1664 10.635C15.2764 10.675 15.3864 10.695 15.4964 10.695C15.6064 10.695 15.7014 10.675 15.7814 10.635C15.8714 10.595 15.9764 10.575 16.0964 10.575C16.2164 10.575 16.3264 10.63 16.4264 10.74C16.5264 10.85 16.5764 11 16.5764 11.19C16.5764 11.43 16.4464 11.625 16.1864 11.775C15.9264 11.925 15.6464 12 15.3464 12C15.1764 12 14.9764 11.985 14.7464 11.955C14.5164 11.925 14.2914 11.85 14.0714 11.73C13.8614 11.61 13.6864 11.42 13.5464 11.16C13.4064 10.89 13.3364 10.515 13.3364 10.035V3.015C13.3364 2.795 13.4064 2.615 13.5464 2.475C13.6964 2.325 13.8764 2.25 14.0864 2.25ZM18.2975 4.2H21.8225C22.0225 4.2 22.1875 4.27 22.3175 4.41C22.4575 4.54 22.5275 4.705 22.5275 4.905C22.5275 5.095 22.4575 5.255 22.3175 5.385C22.1875 5.515 22.0225 5.58 21.8225 5.58H18.2975C18.0975 5.58 17.9275 5.515 17.7875 5.385C17.6575 5.245 17.5925 5.08 17.5925 4.89C17.5925 4.69 17.6575 4.525 17.7875 4.395C17.9275 4.265 18.0975 4.2 18.2975 4.2ZM19.8725 2.25C20.0925 2.25 20.2725 2.325 20.4125 2.475C20.5525 2.615 20.6225 2.795 20.6225 3.015V9.975C20.6225 10.155 20.6525 10.3 20.7125 10.41C20.7725 10.52 20.8525 10.595 20.9525 10.635C21.0625 10.675 21.1725 10.695 21.2825 10.695C21.3925 10.695 21.4875 10.675 21.5675 10.635C21.6575 10.595 21.7625 10.575 21.8825 10.575C22.0025 10.575 22.1125 10.63 22.2125 10.74C22.3125 10.85 22.3625 11 22.3625 11.19C22.3625 11.43 22.2325 11.625 21.9725 11.775C21.7125 11.925 21.4325 12 21.1325 12C20.9625 12 20.7625 11.985 20.5325 11.955C20.3025 11.925 20.0775 11.85 19.8575 11.73C19.6475 11.61 19.4725 11.42 19.3325 11.16C19.1925 10.89 19.1225 10.515 19.1225 10.035V3.015C19.1225 2.795 19.1925 2.615 19.3325 2.475C19.4825 2.325 19.6625 2.25 19.8725 2.25ZM24.0166 10.77C23.9266 10.63 23.8866 10.47 23.8966 10.29C23.9066 10.1 24.0116 9.94 24.2116 9.81C24.3516 9.72 24.4966 9.685 24.6466 9.705C24.8066 9.715 24.9566 9.79 25.0966 9.93C25.3766 10.24 25.6866 10.485 26.0266 10.665C26.3766 10.845 26.7966 10.935 27.2866 10.935C27.4866 10.925 27.6916 10.895 27.9016 10.845C28.1116 10.785 28.2916 10.685 28.4416 10.545C28.5916 10.395 28.6666 10.18 28.6666 9.9C28.6666 9.65 28.5866 9.45 28.4266 9.3C28.2666 9.15 28.0566 9.03 27.7966 8.94C27.5366 8.84 27.2566 8.75 26.9566 8.67C26.6366 8.58 26.3116 8.48 25.9816 8.37C25.6616 8.26 25.3716 8.12 25.1116 7.95C24.8516 7.77 24.6366 7.54 24.4666 7.26C24.3066 6.98 24.2266 6.635 24.2266 6.225C24.2266 5.755 24.3566 5.35 24.6166 5.01C24.8866 4.67 25.2316 4.405 25.6516 4.215C26.0816 4.025 26.5466 3.93 27.0466 3.93C27.3366 3.93 27.6416 3.97 27.9616 4.05C28.2816 4.12 28.5916 4.235 28.8916 4.395C29.1916 4.555 29.4516 4.765 29.6716 5.025C29.7716 5.155 29.8266 5.31 29.8366 5.49C29.8566 5.67 29.7766 5.83 29.5966 5.97C29.4766 6.07 29.3316 6.115 29.1616 6.105C28.9916 6.095 28.8516 6.04 28.7416 5.94C28.5516 5.7 28.3066 5.515 28.0066 5.385C27.7066 5.245 27.3666 5.175 26.9866 5.175C26.7966 5.175 26.5966 5.205 26.3866 5.265C26.1866 5.315 26.0166 5.41 25.8766 5.55C25.7366 5.69 25.6666 5.895 25.6666 6.165C25.6666 6.415 25.7466 6.615 25.9066 6.765C26.0766 6.915 26.2966 7.04 26.5666 7.14C26.8366 7.24 27.1316 7.33 27.4516 7.41C27.7616 7.49 28.0666 7.585 28.3666 7.695C28.6766 7.805 28.9516 7.95 29.1916 8.13C29.4416 8.3 29.6416 8.525 29.7916 8.805C29.9516 9.075 30.0316 9.42 30.0316 9.84C30.0316 10.33 29.8866 10.75 29.5966 11.1C29.3166 11.44 28.9566 11.7 28.5166 11.88C28.0866 12.06 27.6316 12.15 27.1516 12.15C26.5816 12.15 26.0116 12.05 25.4416 11.85C24.8816 11.64 24.4066 11.28 24.0166 10.77ZM35.6197 3.93C36.3197 3.93 36.9397 4.105 37.4797 4.455C38.0297 4.805 38.4647 5.29 38.7847 5.91C39.1047 6.52 39.2647 7.225 39.2647 8.025C39.2647 8.825 39.1047 9.535 38.7847 10.155C38.4647 10.775 38.0347 11.265 37.4947 11.625C36.9547 11.975 36.3447 12.15 35.6647 12.15C35.2847 12.15 34.9247 12.09 34.5847 11.97C34.2447 11.84 33.9447 11.68 33.6847 11.49C33.4247 11.29 33.2097 11.08 33.0397 10.86C32.8797 10.64 32.7797 10.435 32.7397 10.245L33.1447 10.05V11.355C33.1447 11.565 33.0697 11.745 32.9197 11.895C32.7797 12.035 32.6047 12.105 32.3947 12.105C32.1747 12.105 31.9947 12.035 31.8547 11.895C31.7147 11.755 31.6447 11.575 31.6447 11.355V1.665C31.6447 1.445 31.7147 1.265 31.8547 1.125C31.9947 0.975 32.1747 0.9 32.3947 0.9C32.6047 0.9 32.7797 0.975 32.9197 1.125C33.0697 1.265 33.1447 1.445 33.1447 1.665V5.88L32.9047 5.745C32.9347 5.555 33.0297 5.36 33.1897 5.16C33.3497 4.95 33.5497 4.75 33.7897 4.56C34.0397 4.37 34.3197 4.22 34.6297 4.11C34.9497 3.99 35.2797 3.93 35.6197 3.93ZM35.4547 5.31C34.9747 5.31 34.5547 5.43 34.1947 5.67C33.8447 5.91 33.5697 6.235 33.3697 6.645C33.1697 7.045 33.0697 7.505 33.0697 8.025C33.0697 8.545 33.1697 9.015 33.3697 9.435C33.5697 9.845 33.8447 10.17 34.1947 10.41C34.5547 10.65 34.9747 10.77 35.4547 10.77C35.9247 10.77 36.3347 10.65 36.6847 10.41C37.0347 10.17 37.3097 9.84 37.5097 9.42C37.7197 9 37.8247 8.535 37.8247 8.025C37.8247 7.505 37.7197 7.045 37.5097 6.645C37.3097 6.235 37.0347 5.91 36.6847 5.67C36.3347 5.43 35.9247 5.31 35.4547 5.31ZM46.8411 4.11C47.0511 4.11 47.2261 4.185 47.3661 4.335C47.5161 4.475 47.5911 4.655 47.5911 4.875V8.82C47.5911 9.86 47.3011 10.675 46.7211 11.265C46.1411 11.845 45.3211 12.135 44.2611 12.135C43.2111 12.135 42.3961 11.845 41.8161 11.265C41.2461 10.675 40.9611 9.86 40.9611 8.82V4.875C40.9611 4.655 41.0311 4.475 41.1711 4.335C41.3111 4.185 41.4911 4.11 41.7111 4.11C41.9211 4.11 42.0961 4.185 42.2361 4.335C42.3861 4.475 42.4611 4.655 42.4611 4.875V8.82C42.4611 9.47 42.6111 9.955 42.9111 10.275C43.2211 10.595 43.6711 10.755 44.2611 10.755C44.8611 10.755 45.3161 10.595 45.6261 10.275C45.9361 9.955 46.0911 9.47 46.0911 8.82V4.875C46.0911 4.655 46.1611 4.475 46.3011 4.335C46.4411 4.185 46.6211 4.11 46.8411 4.11ZM50.427 12C50.207 12 50.027 11.93 49.887 11.79C49.747 11.64 49.677 11.455 49.677 11.235V4.875C49.677 4.655 49.747 4.475 49.887 4.335C50.027 4.185 50.207 4.11 50.427 4.11C50.637 4.11 50.812 4.185 50.952 4.335C51.102 4.475 51.177 4.655 51.177 4.875V6.555L51.027 5.91C51.107 5.63 51.227 5.37 51.387 5.13C51.557 4.89 51.757 4.68 51.987 4.5C52.217 4.32 52.472 4.18 52.752 4.08C53.042 3.98 53.342 3.93 53.652 3.93C53.912 3.93 54.137 4 54.327 4.14C54.517 4.28 54.612 4.455 54.612 4.665C54.612 4.935 54.542 5.135 54.402 5.265C54.262 5.385 54.107 5.445 53.937 5.445C53.787 5.445 53.642 5.415 53.502 5.355C53.362 5.285 53.197 5.25 53.007 5.25C52.797 5.25 52.582 5.305 52.362 5.415C52.142 5.525 51.942 5.69 51.762 5.91C51.582 6.12 51.437 6.37 51.327 6.66C51.227 6.95 51.177 7.275 51.177 7.635V11.235C51.177 11.455 51.102 11.64 50.952 11.79C50.812 11.93 50.637 12 50.427 12ZM59.0118 3.93C59.4418 3.93 59.8368 4 60.1968 4.14C60.5568 4.28 60.8668 4.46 61.1268 4.68C61.3968 4.89 61.6068 5.11 61.7568 5.34C61.9068 5.57 61.9818 5.77 61.9818 5.94L61.6368 5.955V4.755C61.6368 4.545 61.7068 4.365 61.8468 4.215C61.9868 4.065 62.1668 3.99 62.3868 3.99C62.6068 3.99 62.7868 4.065 62.9268 4.215C63.0668 4.355 63.1368 4.535 63.1368 4.755V11.37C63.1368 12.22 62.9568 12.91 62.5968 13.44C62.2368 13.98 61.7568 14.375 61.1568 14.625C60.5668 14.875 59.9168 15 59.2068 15C58.9568 15 58.6618 14.965 58.3218 14.895C57.9818 14.835 57.6668 14.76 57.3768 14.67C57.0968 14.58 56.9018 14.49 56.7918 14.4C56.5618 14.28 56.4068 14.14 56.3268 13.98C56.2568 13.82 56.2568 13.66 56.3268 13.5C56.4268 13.28 56.5618 13.145 56.7318 13.095C56.9018 13.045 57.0968 13.06 57.3168 13.14C57.4168 13.17 57.5718 13.225 57.7818 13.305C57.9918 13.385 58.2268 13.455 58.4868 13.515C58.7468 13.585 58.9918 13.62 59.2218 13.62C60.0218 13.62 60.6218 13.435 61.0218 13.065C61.4318 12.695 61.6368 12.19 61.6368 11.55V10.2L61.8018 10.305C61.7718 10.515 61.6768 10.73 61.5168 10.95C61.3668 11.16 61.1668 11.355 60.9168 11.535C60.6668 11.715 60.3768 11.865 60.0468 11.985C59.7268 12.095 59.3968 12.15 59.0568 12.15C58.3468 12.15 57.7118 11.975 57.1518 11.625C56.5918 11.265 56.1468 10.78 55.8168 10.17C55.4868 9.55 55.3218 8.84 55.3218 8.04C55.3218 7.24 55.4868 6.535 55.8168 5.925C56.1468 5.305 56.5868 4.82 57.1368 4.47C57.6968 4.11 58.3218 3.93 59.0118 3.93ZM59.2368 5.31C58.7468 5.31 58.3168 5.43 57.9468 5.67C57.5768 5.91 57.2868 6.235 57.0768 6.645C56.8668 7.055 56.7618 7.52 56.7618 8.04C56.7618 8.56 56.8668 9.025 57.0768 9.435C57.2868 9.845 57.5768 10.17 57.9468 10.41C58.3168 10.65 58.7468 10.77 59.2368 10.77C59.7268 10.77 60.1568 10.655 60.5268 10.425C60.8968 10.185 61.1868 9.86 61.3968 9.45C61.6068 9.03 61.7118 8.56 61.7118 8.04C61.7118 7.52 61.6068 7.055 61.3968 6.645C61.1868 6.225 60.8968 5.9 60.5268 5.67C60.1568 5.43 59.7268 5.31 59.2368 5.31ZM69.1939 3.975C69.8839 3.975 70.4189 4.125 70.7989 4.425C71.1789 4.715 71.4439 5.11 71.5939 5.61C71.7539 6.11 71.8339 6.66 71.8339 7.26V11.235C71.8339 11.455 71.7589 11.64 71.6089 11.79C71.4689 11.93 71.2939 12 71.0839 12C70.8639 12 70.6839 11.93 70.5439 11.79C70.4039 11.64 70.3339 11.455 70.3339 11.235V7.26C70.3339 6.91 70.2839 6.59 70.1839 6.3C70.0939 6.01 69.9289 5.78 69.6889 5.61C69.4589 5.44 69.1339 5.355 68.7139 5.355C68.3239 5.355 67.9739 5.44 67.6639 5.61C67.3639 5.78 67.1289 6.01 66.9589 6.3C66.7989 6.59 66.7189 6.91 66.7189 7.26V11.235C66.7189 11.455 66.6439 11.64 66.4939 11.79C66.3539 11.93 66.1789 12 65.9689 12C65.7489 12 65.5689 11.93 65.4289 11.79C65.2889 11.64 65.2189 11.455 65.2189 11.235V1.665C65.2189 1.445 65.2889 1.265 65.4289 1.125C65.5689 0.975 65.7489 0.9 65.9689 0.9C66.1789 0.9 66.3539 0.975 66.4939 1.125C66.6439 1.265 66.7189 1.445 66.7189 1.665V5.76L66.4489 5.91C66.5189 5.69 66.6339 5.465 66.7939 5.235C66.9639 5.005 67.1689 4.795 67.4089 4.605C67.6589 4.415 67.9339 4.265 68.2339 4.155C68.5339 4.035 68.8539 3.975 69.1939 3.975Z" fill="#002A56"/>
</svg>
