<svg width="60" height="13" viewBox="0 0 60 13" fill="none" xmlns="http://www.w3.org/2000/svg">
<path d="M4.69061 1.5C5.22061 1.5 5.71061 1.645 6.16061 1.935C6.61061 2.215 6.97061 2.6 7.24061 3.09C7.51061 3.58 7.64561 4.13 7.64561 4.74C7.64561 5.35 7.51061 5.905 7.24061 6.405C6.97061 6.895 6.61061 7.29 6.16061 7.59C5.71061 7.88 5.22061 8.025 4.69061 8.025H1.79561L1.91561 7.785V11.235C1.91561 11.455 1.84561 11.64 1.70561 11.79C1.57561 11.93 1.40061 12 1.18061 12C0.970606 12 0.795606 11.93 0.655606 11.79C0.525605 11.64 0.460605 11.455 0.460605 11.235V2.265C0.460605 2.045 0.535605 1.865 0.685605 1.725C0.835606 1.575 1.01561 1.5 1.22561 1.5H4.69061ZM4.69061 6.585C4.95061 6.585 5.18561 6.5 5.39561 6.33C5.61561 6.16 5.79061 5.935 5.92061 5.655C6.06061 5.375 6.13061 5.07 6.13061 4.74C6.13061 4.41 6.06061 4.11 5.92061 3.84C5.79061 3.57 5.61561 3.355 5.39561 3.195C5.18561 3.025 4.95061 2.94 4.69061 2.94H1.76561L1.91561 2.715V6.78L1.78061 6.585H4.69061ZM16.7179 8.055C16.7179 8.855 16.5429 9.565 16.1929 10.185C15.8429 10.795 15.3679 11.275 14.7679 11.625C14.1679 11.975 13.4929 12.15 12.7429 12.15C11.9929 12.15 11.3179 11.975 10.7179 11.625C10.1179 11.275 9.63791 10.795 9.27791 10.185C8.92791 9.565 8.75291 8.855 8.75291 8.055C8.75291 7.245 8.92791 6.535 9.27791 5.925C9.63791 5.305 10.1179 4.82 10.7179 4.47C11.3179 4.11 11.9929 3.93 12.7429 3.93C13.4929 3.93 14.1679 4.11 14.7679 4.47C15.3679 4.82 15.8429 5.305 16.1929 5.925C16.5429 6.535 16.7179 7.245 16.7179 8.055ZM15.2179 8.055C15.2179 7.505 15.1079 7.03 14.8879 6.63C14.6679 6.22 14.3679 5.9 13.9879 5.67C13.6179 5.43 13.2029 5.31 12.7429 5.31C12.2829 5.31 11.8629 5.43 11.4829 5.67C11.1029 5.9 10.8029 6.22 10.5829 6.63C10.3629 7.03 10.2529 7.505 10.2529 8.055C10.2529 8.585 10.3629 9.055 10.5829 9.465C10.8029 9.875 11.1029 10.195 11.4829 10.425C11.8629 10.655 12.2829 10.77 12.7429 10.77C13.2029 10.77 13.6179 10.655 13.9879 10.425C14.3679 10.195 14.6679 9.875 14.8879 9.465C15.1079 9.055 15.2179 8.585 15.2179 8.055ZM19.1657 12C18.9457 12 18.7657 11.93 18.6257 11.79C18.4857 11.64 18.4157 11.455 18.4157 11.235V4.875C18.4157 4.655 18.4857 4.475 18.6257 4.335C18.7657 4.185 18.9457 4.11 19.1657 4.11C19.3757 4.11 19.5507 4.185 19.6907 4.335C19.8407 4.475 19.9157 4.655 19.9157 4.875V6.555L19.7657 5.91C19.8457 5.63 19.9657 5.37 20.1257 5.13C20.2957 4.89 20.4957 4.68 20.7257 4.5C20.9557 4.32 21.2107 4.18 21.4907 4.08C21.7807 3.98 22.0807 3.93 22.3907 3.93C22.6507 3.93 22.8757 4 23.0657 4.14C23.2557 4.28 23.3507 4.455 23.3507 4.665C23.3507 4.935 23.2807 5.135 23.1407 5.265C23.0007 5.385 22.8457 5.445 22.6757 5.445C22.5257 5.445 22.3807 5.415 22.2407 5.355C22.1007 5.285 21.9357 5.25 21.7457 5.25C21.5357 5.25 21.3207 5.305 21.1007 5.415C20.8807 5.525 20.6807 5.69 20.5007 5.91C20.3207 6.12 20.1757 6.37 20.0657 6.66C19.9657 6.95 19.9157 7.275 19.9157 7.635V11.235C19.9157 11.455 19.8407 11.64 19.6907 11.79C19.5507 11.93 19.3757 12 19.1657 12ZM24.5803 4.2H28.1053C28.3053 4.2 28.4703 4.27 28.6003 4.41C28.7403 4.54 28.8103 4.705 28.8103 4.905C28.8103 5.095 28.7403 5.255 28.6003 5.385C28.4703 5.515 28.3053 5.58 28.1053 5.58H24.5803C24.3803 5.58 24.2103 5.515 24.0703 5.385C23.9403 5.245 23.8753 5.08 23.8753 4.89C23.8753 4.69 23.9403 4.525 24.0703 4.395C24.2103 4.265 24.3803 4.2 24.5803 4.2ZM26.1553 2.25C26.3753 2.25 26.5553 2.325 26.6953 2.475C26.8353 2.615 26.9053 2.795 26.9053 3.015V9.975C26.9053 10.155 26.9353 10.3 26.9953 10.41C27.0553 10.52 27.1353 10.595 27.2353 10.635C27.3453 10.675 27.4553 10.695 27.5653 10.695C27.6753 10.695 27.7703 10.675 27.8503 10.635C27.9403 10.595 28.0453 10.575 28.1653 10.575C28.2853 10.575 28.3953 10.63 28.4953 10.74C28.5953 10.85 28.6453 11 28.6453 11.19C28.6453 11.43 28.5153 11.625 28.2553 11.775C27.9953 11.925 27.7153 12 27.4153 12C27.2453 12 27.0453 11.985 26.8153 11.955C26.5853 11.925 26.3603 11.85 26.1403 11.73C25.9303 11.61 25.7553 11.42 25.6153 11.16C25.4753 10.89 25.4053 10.515 25.4053 10.035V3.015C25.4053 2.795 25.4753 2.615 25.6153 2.475C25.7653 2.325 25.9453 2.25 26.1553 2.25ZM32.0914 11.235C32.0914 11.455 32.0164 11.64 31.8664 11.79C31.7264 11.93 31.5514 12 31.3414 12C31.1314 12 30.9514 11.93 30.8014 11.79C30.6614 11.64 30.5914 11.455 30.5914 11.235V1.665C30.5914 1.445 30.6664 1.265 30.8164 1.125C30.9664 0.975 31.1464 0.9 31.3564 0.9C31.5764 0.9 31.7514 0.975 31.8814 1.125C32.0214 1.265 32.0914 1.445 32.0914 1.665V11.235ZM40.7889 3.99C41.0089 3.99 41.1889 4.065 41.3289 4.215C41.4689 4.355 41.5389 4.535 41.5389 4.755V11.235C41.5389 11.455 41.4689 11.64 41.3289 11.79C41.1889 11.93 41.0089 12 40.7889 12C40.5789 12 40.3989 11.93 40.2489 11.79C40.1089 11.64 40.0389 11.455 40.0389 11.235V10.155L40.3539 10.2C40.3539 10.38 40.2789 10.58 40.1289 10.8C39.9889 11.02 39.7939 11.235 39.5439 11.445C39.2939 11.645 38.9989 11.815 38.6589 11.955C38.3189 12.085 37.9539 12.15 37.5639 12.15C36.8739 12.15 36.2539 11.975 35.7039 11.625C35.1539 11.265 34.7189 10.775 34.3989 10.155C34.0789 9.535 33.9189 8.83 33.9189 8.04C33.9189 7.23 34.0789 6.52 34.3989 5.91C34.7189 5.29 35.1489 4.805 35.6889 4.455C36.2389 4.105 36.8489 3.93 37.5189 3.93C37.9489 3.93 38.3439 4 38.7039 4.14C39.0739 4.28 39.3939 4.46 39.6639 4.68C39.9339 4.9 40.1389 5.135 40.2789 5.385C40.4289 5.625 40.5039 5.855 40.5039 6.075L40.0389 6.12V4.755C40.0389 4.545 40.1089 4.365 40.2489 4.215C40.3989 4.065 40.5789 3.99 40.7889 3.99ZM37.7289 10.77C38.1989 10.77 38.6139 10.65 38.9739 10.41C39.3339 10.17 39.6139 9.845 39.8139 9.435C40.0139 9.015 40.1139 8.55 40.1139 8.04C40.1139 7.52 40.0139 7.055 39.8139 6.645C39.6139 6.235 39.3339 5.91 38.9739 5.67C38.6139 5.43 38.1989 5.31 37.7289 5.31C37.2689 5.31 36.8589 5.43 36.4989 5.67C36.1489 5.91 35.8689 6.235 35.6589 6.645C35.4589 7.055 35.3589 7.52 35.3589 8.04C35.3589 8.55 35.4589 9.015 35.6589 9.435C35.8689 9.845 36.1489 10.17 36.4989 10.41C36.8589 10.65 37.2689 10.77 37.7289 10.77ZM47.7053 3.93C48.4153 3.93 48.9653 4.08 49.3553 4.38C49.7453 4.67 50.0153 5.065 50.1653 5.565C50.3253 6.055 50.4053 6.605 50.4053 7.215V11.235C50.4053 11.455 50.3303 11.64 50.1803 11.79C50.0403 11.93 49.8653 12 49.6553 12C49.4353 12 49.2553 11.93 49.1153 11.79C48.9753 11.64 48.9053 11.455 48.9053 11.235V7.23C48.9053 6.87 48.8553 6.55 48.7553 6.27C48.6553 5.98 48.4803 5.75 48.2303 5.58C47.9903 5.4 47.6503 5.31 47.2103 5.31C46.8003 5.31 46.4403 5.4 46.1303 5.58C45.8203 5.75 45.5753 5.98 45.3953 6.27C45.2253 6.55 45.1403 6.87 45.1403 7.23V11.235C45.1403 11.455 45.0653 11.64 44.9153 11.79C44.7753 11.93 44.6003 12 44.3903 12C44.1703 12 43.9903 11.93 43.8503 11.79C43.7103 11.64 43.6403 11.455 43.6403 11.235V4.875C43.6403 4.655 43.7103 4.475 43.8503 4.335C43.9903 4.185 44.1703 4.11 44.3903 4.11C44.6003 4.11 44.7753 4.185 44.9153 4.335C45.0653 4.475 45.1403 4.655 45.1403 4.875V5.715L44.8703 5.865C44.9403 5.645 45.0603 5.425 45.2303 5.205C45.4103 4.975 45.6253 4.765 45.8753 4.575C46.1253 4.375 46.4053 4.22 46.7153 4.11C47.0253 3.99 47.3553 3.93 47.7053 3.93ZM58.953 0.9C59.173 0.9 59.353 0.97 59.493 1.11C59.633 1.25 59.703 1.435 59.703 1.665V11.235C59.703 11.455 59.633 11.64 59.493 11.79C59.353 11.93 59.173 12 58.953 12C58.743 12 58.563 11.93 58.413 11.79C58.273 11.64 58.203 11.455 58.203 11.235V10.155L58.518 10.17C58.518 10.35 58.443 10.555 58.293 10.785C58.153 11.005 57.958 11.22 57.708 11.43C57.458 11.64 57.163 11.815 56.823 11.955C56.483 12.085 56.118 12.15 55.728 12.15C55.038 12.15 54.418 11.975 53.868 11.625C53.318 11.265 52.883 10.78 52.563 10.17C52.243 9.55 52.083 8.84 52.083 8.04C52.083 7.24 52.243 6.535 52.563 5.925C52.883 5.305 53.313 4.82 53.853 4.47C54.403 4.11 55.013 3.93 55.683 3.93C56.103 3.93 56.493 4 56.853 4.14C57.223 4.28 57.543 4.46 57.813 4.68C58.083 4.9 58.293 5.135 58.443 5.385C58.593 5.625 58.668 5.855 58.668 6.075L58.203 6.12V1.665C58.203 1.445 58.273 1.265 58.413 1.125C58.563 0.975 58.743 0.9 58.953 0.9ZM55.893 10.77C56.373 10.77 56.788 10.65 57.138 10.41C57.498 10.17 57.778 9.845 57.978 9.435C58.178 9.025 58.278 8.56 58.278 8.04C58.278 7.52 58.178 7.055 57.978 6.645C57.778 6.235 57.498 5.91 57.138 5.67C56.778 5.43 56.363 5.31 55.893 5.31C55.433 5.31 55.023 5.43 54.663 5.67C54.313 5.91 54.033 6.235 53.823 6.645C53.623 7.055 53.523 7.52 53.523 8.04C53.523 8.56 53.623 9.025 53.823 9.435C54.033 9.845 54.313 10.17 54.663 10.41C55.023 10.65 55.433 10.77 55.893 10.77Z" fill="#002A56"/>
</svg>
