<svg width="52" height="15" viewBox="0 0 52 15" fill="none" xmlns="http://www.w3.org/2000/svg">
<path d="M1.29371 12C1.05371 12 0.843711 11.93 0.663711 11.79C0.483711 11.64 0.393711 11.455 0.393711 11.235V2.265C0.393711 2.045 0.468711 1.865 0.618711 1.725C0.768711 1.575 0.948711 1.5 1.15871 1.5H5.38871C5.92871 1.5 6.42371 1.635 6.87371 1.905C7.32371 2.165 7.68371 2.53 7.95371 3C8.23371 3.46 8.37371 3.99 8.37371 4.59C8.37371 4.99 8.29371 5.375 8.13371 5.745C7.97371 6.105 7.75871 6.425 7.48871 6.705C7.21871 6.985 6.91371 7.195 6.57371 7.335L6.40871 7.05C6.71871 7.16 6.98871 7.32 7.21871 7.53C7.44871 7.73 7.62871 7.97 7.75871 8.25C7.89871 8.52 7.97371 8.83 7.98371 9.18C8.01371 9.49 8.03871 9.75 8.05871 9.96C8.08871 10.16 8.12871 10.325 8.17871 10.455C8.22871 10.585 8.31871 10.685 8.44871 10.755C8.62871 10.855 8.73871 11.005 8.77871 11.205C8.82871 11.405 8.78871 11.585 8.65871 11.745C8.56871 11.865 8.45371 11.945 8.31371 11.985C8.18371 12.015 8.04871 12.02 7.90871 12C7.76871 11.97 7.64871 11.93 7.54871 11.88C7.38871 11.78 7.22371 11.64 7.05371 11.46C6.89371 11.27 6.76371 11.01 6.66371 10.68C6.56371 10.35 6.51371 9.915 6.51371 9.375C6.51371 9.125 6.47371 8.91 6.39371 8.73C6.31371 8.55 6.20371 8.405 6.06371 8.295C5.92371 8.175 5.75871 8.09 5.56871 8.04C5.37871 7.98 5.16871 7.95 4.93871 7.95H1.75871L1.96871 7.65V11.235C1.96871 11.455 1.90871 11.64 1.78871 11.79C1.66871 11.93 1.50371 12 1.29371 12ZM1.77371 6.645H5.35871C5.58871 6.635 5.80871 6.545 6.01871 6.375C6.23871 6.195 6.41371 5.955 6.54371 5.655C6.68371 5.355 6.75371 5.015 6.75371 4.635C6.75371 4.155 6.60871 3.755 6.31871 3.435C6.03871 3.105 5.70371 2.94 5.31371 2.94H1.80371L1.96871 2.55V6.96L1.77371 6.645ZM16.9623 3.99C17.1823 3.99 17.3623 4.065 17.5023 4.215C17.6423 4.355 17.7123 4.535 17.7123 4.755V11.235C17.7123 11.455 17.6423 11.64 17.5023 11.79C17.3623 11.93 17.1823 12 16.9623 12C16.7523 12 16.5723 11.93 16.4223 11.79C16.2823 11.64 16.2123 11.455 16.2123 11.235V10.155L16.5273 10.2C16.5273 10.38 16.4523 10.58 16.3023 10.8C16.1623 11.02 15.9673 11.235 15.7173 11.445C15.4673 11.645 15.1723 11.815 14.8323 11.955C14.4923 12.085 14.1273 12.15 13.7373 12.15C13.0473 12.15 12.4273 11.975 11.8773 11.625C11.3273 11.265 10.8923 10.775 10.5723 10.155C10.2523 9.535 10.0923 8.83 10.0923 8.04C10.0923 7.23 10.2523 6.52 10.5723 5.91C10.8923 5.29 11.3223 4.805 11.8623 4.455C12.4123 4.105 13.0223 3.93 13.6923 3.93C14.1223 3.93 14.5173 4 14.8773 4.14C15.2473 4.28 15.5673 4.46 15.8373 4.68C16.1073 4.9 16.3123 5.135 16.4523 5.385C16.6023 5.625 16.6773 5.855 16.6773 6.075L16.2123 6.12V4.755C16.2123 4.545 16.2823 4.365 16.4223 4.215C16.5723 4.065 16.7523 3.99 16.9623 3.99ZM13.9023 10.77C14.3723 10.77 14.7873 10.65 15.1473 10.41C15.5073 10.17 15.7873 9.845 15.9873 9.435C16.1873 9.015 16.2873 8.55 16.2873 8.04C16.2873 7.52 16.1873 7.055 15.9873 6.645C15.7873 6.235 15.5073 5.91 15.1473 5.67C14.7873 5.43 14.3723 5.31 13.9023 5.31C13.4423 5.31 13.0323 5.43 12.6723 5.67C12.3223 5.91 12.0423 6.235 11.8323 6.645C11.6323 7.055 11.5323 7.52 11.5323 8.04C11.5323 8.55 11.6323 9.015 11.8323 9.435C12.0423 9.845 12.3223 10.17 12.6723 10.41C13.0323 10.65 13.4423 10.77 13.9023 10.77ZM21.4337 11.235C21.4337 11.455 21.3587 11.64 21.2087 11.79C21.0687 11.93 20.8937 12 20.6837 12C20.4737 12 20.2937 11.93 20.1437 11.79C20.0037 11.64 19.9337 11.455 19.9337 11.235V1.665C19.9337 1.445 20.0087 1.265 20.1587 1.125C20.3087 0.975 20.4887 0.9 20.6987 0.9C20.9187 0.9 21.0937 0.975 21.2237 1.125C21.3637 1.265 21.4337 1.445 21.4337 1.665V11.235ZM27.1947 12.15C26.3647 12.15 25.6447 11.98 25.0347 11.64C24.4247 11.29 23.9497 10.815 23.6097 10.215C23.2797 9.605 23.1147 8.91 23.1147 8.13C23.1147 7.25 23.2897 6.5 23.6397 5.88C23.9997 5.25 24.4647 4.77 25.0347 4.44C25.6047 4.1 26.2097 3.93 26.8497 3.93C27.3397 3.93 27.8047 4.03 28.2447 4.23C28.6847 4.42 29.0747 4.69 29.4147 5.04C29.7647 5.38 30.0397 5.785 30.2397 6.255C30.4397 6.715 30.5447 7.22 30.5547 7.77C30.5447 7.97 30.4647 8.135 30.3147 8.265C30.1647 8.395 29.9897 8.46 29.7897 8.46H23.9547L23.5947 7.185H29.2347L28.9497 7.455V7.08C28.9297 6.73 28.8147 6.425 28.6047 6.165C28.3947 5.895 28.1347 5.69 27.8247 5.55C27.5147 5.4 27.1897 5.325 26.8497 5.325C26.5497 5.325 26.2597 5.375 25.9797 5.475C25.7097 5.565 25.4647 5.715 25.2447 5.925C25.0347 6.135 24.8647 6.415 24.7347 6.765C24.6147 7.105 24.5547 7.53 24.5547 8.04C24.5547 8.59 24.6697 9.07 24.8997 9.48C25.1297 9.89 25.4397 10.21 25.8297 10.44C26.2197 10.66 26.6497 10.77 27.1197 10.77C27.4897 10.77 27.7947 10.735 28.0347 10.665C28.2747 10.585 28.4747 10.49 28.6347 10.38C28.7947 10.27 28.9347 10.165 29.0547 10.065C29.2047 9.975 29.3547 9.93 29.5047 9.93C29.6847 9.93 29.8347 9.995 29.9547 10.125C30.0747 10.245 30.1347 10.39 30.1347 10.56C30.1347 10.78 30.0247 10.98 29.8047 11.16C29.5347 11.42 29.1597 11.65 28.6797 11.85C28.2097 12.05 27.7147 12.15 27.1947 12.15ZM33.6602 11.235C33.6602 11.455 33.5902 11.64 33.4502 11.79C33.3102 11.93 33.1302 12 32.9102 12C32.7002 12 32.5202 11.93 32.3702 11.79C32.2302 11.64 32.1602 11.455 32.1602 11.235V4.815C32.1602 4.595 32.2302 4.415 32.3702 4.275C32.5202 4.125 32.7002 4.05 32.9102 4.05C33.1302 4.05 33.3102 4.125 33.4502 4.275C33.5902 4.415 33.6602 4.595 33.6602 4.815V11.235ZM32.8952 3.06C32.6052 3.06 32.3952 3.01 32.2652 2.91C32.1352 2.8 32.0702 2.62 32.0702 2.37V2.13C32.0702 1.88 32.1402 1.705 32.2802 1.605C32.4202 1.505 32.6302 1.455 32.9102 1.455C33.2102 1.455 33.4252 1.51 33.5552 1.62C33.6852 1.72 33.7502 1.89 33.7502 2.13V2.37C33.7502 2.63 33.6802 2.81 33.5402 2.91C33.4102 3.01 33.1952 3.06 32.8952 3.06ZM38.9629 3.93C39.3929 3.93 39.7879 4 40.1479 4.14C40.5079 4.28 40.8179 4.46 41.0779 4.68C41.3479 4.89 41.5579 5.11 41.7079 5.34C41.8579 5.57 41.9329 5.77 41.9329 5.94L41.5879 5.955V4.755C41.5879 4.545 41.6579 4.365 41.7979 4.215C41.9379 4.065 42.1179 3.99 42.3379 3.99C42.5579 3.99 42.7379 4.065 42.8779 4.215C43.0179 4.355 43.0879 4.535 43.0879 4.755V11.37C43.0879 12.22 42.9079 12.91 42.5479 13.44C42.1879 13.98 41.7079 14.375 41.1079 14.625C40.5179 14.875 39.8679 15 39.1579 15C38.9079 15 38.6129 14.965 38.2729 14.895C37.9329 14.835 37.6179 14.76 37.3279 14.67C37.0479 14.58 36.8529 14.49 36.7429 14.4C36.5129 14.28 36.3579 14.14 36.2779 13.98C36.2079 13.82 36.2079 13.66 36.2779 13.5C36.3779 13.28 36.5129 13.145 36.6829 13.095C36.8529 13.045 37.0479 13.06 37.2679 13.14C37.3679 13.17 37.5229 13.225 37.7329 13.305C37.9429 13.385 38.1779 13.455 38.4379 13.515C38.6979 13.585 38.9429 13.62 39.1729 13.62C39.9729 13.62 40.5729 13.435 40.9729 13.065C41.3829 12.695 41.5879 12.19 41.5879 11.55V10.2L41.7529 10.305C41.7229 10.515 41.6279 10.73 41.4679 10.95C41.3179 11.16 41.1179 11.355 40.8679 11.535C40.6179 11.715 40.3279 11.865 39.9979 11.985C39.6779 12.095 39.3479 12.15 39.0079 12.15C38.2979 12.15 37.6629 11.975 37.1029 11.625C36.5429 11.265 36.0979 10.78 35.7679 10.17C35.4379 9.55 35.2729 8.84 35.2729 8.04C35.2729 7.24 35.4379 6.535 35.7679 5.925C36.0979 5.305 36.5379 4.82 37.0879 4.47C37.6479 4.11 38.2729 3.93 38.9629 3.93ZM39.1879 5.31C38.6979 5.31 38.2679 5.43 37.8979 5.67C37.5279 5.91 37.2379 6.235 37.0279 6.645C36.8179 7.055 36.7129 7.52 36.7129 8.04C36.7129 8.56 36.8179 9.025 37.0279 9.435C37.2379 9.845 37.5279 10.17 37.8979 10.41C38.2679 10.65 38.6979 10.77 39.1879 10.77C39.6779 10.77 40.1079 10.655 40.4779 10.425C40.8479 10.185 41.1379 9.86 41.3479 9.45C41.5579 9.03 41.6629 8.56 41.6629 8.04C41.6629 7.52 41.5579 7.055 41.3479 6.645C41.1379 6.225 40.8479 5.9 40.4779 5.67C40.1079 5.43 39.6779 5.31 39.1879 5.31ZM49.1451 3.975C49.8351 3.975 50.3701 4.125 50.7501 4.425C51.1301 4.715 51.3951 5.11 51.5451 5.61C51.7051 6.11 51.7851 6.66 51.7851 7.26V11.235C51.7851 11.455 51.7101 11.64 51.5601 11.79C51.4201 11.93 51.2451 12 51.0351 12C50.8151 12 50.6351 11.93 50.4951 11.79C50.3551 11.64 50.2851 11.455 50.2851 11.235V7.26C50.2851 6.91 50.2351 6.59 50.1351 6.3C50.0451 6.01 49.8801 5.78 49.6401 5.61C49.4101 5.44 49.0851 5.355 48.6651 5.355C48.2751 5.355 47.9251 5.44 47.6151 5.61C47.3151 5.78 47.0801 6.01 46.9101 6.3C46.7501 6.59 46.6701 6.91 46.6701 7.26V11.235C46.6701 11.455 46.5951 11.64 46.4451 11.79C46.3051 11.93 46.1301 12 45.9201 12C45.7001 12 45.5201 11.93 45.3801 11.79C45.2401 11.64 45.1701 11.455 45.1701 11.235V1.665C45.1701 1.445 45.2401 1.265 45.3801 1.125C45.5201 0.975 45.7001 0.9 45.9201 0.9C46.1301 0.9 46.3051 0.975 46.4451 1.125C46.5951 1.265 46.6701 1.445 46.6701 1.665V5.76L46.4001 5.91C46.4701 5.69 46.5851 5.465 46.7451 5.235C46.9151 5.005 47.1201 4.795 47.3601 4.605C47.6101 4.415 47.8851 4.265 48.1851 4.155C48.4851 4.035 48.8051 3.975 49.1451 3.975Z" fill="#002A56"/>
</svg>
