<svg width="77" height="12" viewBox="0 0 77 12" fill="none" xmlns="http://www.w3.org/2000/svg">
<path d="M3.85602 11.15C3.13602 11.15 2.49602 11.05 1.93602 10.85C1.37602 10.65 0.841016 10.32 0.331016 9.86C0.221016 9.78 0.136016 9.685 0.0760157 9.575C0.0260157 9.455 0.00101564 9.335 0.00101564 9.215C0.00101564 9.025 0.0710156 8.855 0.211016 8.705C0.351016 8.555 0.526016 8.48 0.736016 8.48C0.896016 8.48 1.04602 8.535 1.18602 8.645C1.56602 8.995 1.96102 9.26 2.37102 9.44C2.79102 9.62 3.28102 9.71 3.84102 9.71C4.24102 9.71 4.60602 9.645 4.93602 9.515C5.27602 9.385 5.54602 9.21 5.74602 8.99C5.94602 8.77 6.04602 8.515 6.04602 8.225C6.04602 7.865 5.94102 7.57 5.73102 7.34C5.53102 7.1 5.23602 6.905 4.84602 6.755C4.46602 6.595 4.00602 6.46 3.46602 6.35C2.96602 6.26 2.51602 6.135 2.11602 5.975C1.72602 5.815 1.39102 5.615 1.11102 5.375C0.831016 5.125 0.616016 4.83 0.466016 4.49C0.316016 4.15 0.241016 3.755 0.241016 3.305C0.241016 2.695 0.401016 2.17 0.721016 1.73C1.04102 1.29 1.47602 0.949999 2.02602 0.709999C2.57602 0.469999 3.19602 0.349999 3.88602 0.349999C4.51602 0.349999 5.10602 0.449999 5.65602 0.649999C6.20602 0.84 6.65102 1.1 6.99102 1.43C7.23102 1.64 7.35102 1.865 7.35102 2.105C7.35102 2.285 7.27602 2.455 7.12602 2.615C6.98602 2.765 6.82102 2.84 6.63102 2.84C6.49102 2.84 6.37102 2.8 6.27102 2.72C6.11102 2.55 5.89602 2.4 5.62602 2.27C5.35602 2.13 5.06602 2.015 4.75602 1.925C4.45602 1.835 4.16602 1.79 3.88602 1.79C3.43602 1.79 3.05102 1.855 2.73102 1.985C2.41102 2.105 2.16602 2.275 1.99602 2.495C1.82602 2.705 1.74102 2.955 1.74102 3.245C1.74102 3.585 1.83602 3.865 2.02602 4.085C2.22602 4.305 2.50102 4.485 2.85102 4.625C3.20102 4.755 3.60102 4.875 4.05102 4.985C4.60102 5.105 5.09102 5.24 5.52102 5.39C5.96102 5.54 6.33102 5.735 6.63102 5.975C6.93102 6.205 7.16102 6.495 7.32102 6.845C7.48102 7.195 7.56102 7.63 7.56102 8.15C7.56102 8.75 7.39102 9.275 7.05102 9.725C6.71102 10.175 6.26102 10.525 5.70102 10.775C5.15102 11.025 4.53602 11.15 3.85602 11.15ZM15.7054 2.99C15.9254 2.99 16.1054 3.065 16.2454 3.215C16.3854 3.355 16.4554 3.535 16.4554 3.755V10.235C16.4554 10.455 16.3854 10.64 16.2454 10.79C16.1054 10.93 15.9254 11 15.7054 11C15.4954 11 15.3154 10.93 15.1654 10.79C15.0254 10.64 14.9554 10.455 14.9554 10.235V9.155L15.2704 9.2C15.2704 9.38 15.1954 9.58 15.0454 9.8C14.9054 10.02 14.7104 10.235 14.4604 10.445C14.2104 10.645 13.9154 10.815 13.5754 10.955C13.2354 11.085 12.8704 11.15 12.4804 11.15C11.7904 11.15 11.1704 10.975 10.6204 10.625C10.0704 10.265 9.63543 9.775 9.31543 9.155C8.99543 8.535 8.83543 7.83 8.83543 7.04C8.83543 6.23 8.99543 5.52 9.31543 4.91C9.63543 4.29 10.0654 3.805 10.6054 3.455C11.1554 3.105 11.7654 2.93 12.4354 2.93C12.8654 2.93 13.2604 3 13.6204 3.14C13.9904 3.28 14.3104 3.46 14.5804 3.68C14.8504 3.9 15.0554 4.135 15.1954 4.385C15.3454 4.625 15.4204 4.855 15.4204 5.075L14.9554 5.12V3.755C14.9554 3.545 15.0254 3.365 15.1654 3.215C15.3154 3.065 15.4954 2.99 15.7054 2.99ZM12.6454 9.77C13.1154 9.77 13.5304 9.65 13.8904 9.41C14.2504 9.17 14.5304 8.845 14.7304 8.435C14.9304 8.015 15.0304 7.55 15.0304 7.04C15.0304 6.52 14.9304 6.055 14.7304 5.645C14.5304 5.235 14.2504 4.91 13.8904 4.67C13.5304 4.43 13.1154 4.31 12.6454 4.31C12.1854 4.31 11.7754 4.43 11.4154 4.67C11.0654 4.91 10.7854 5.235 10.5754 5.645C10.3754 6.055 10.2754 6.52 10.2754 7.04C10.2754 7.55 10.3754 8.015 10.5754 8.435C10.7854 8.845 11.0654 9.17 11.4154 9.41C11.7754 9.65 12.1854 9.77 12.6454 9.77ZM19.9668 10.235C19.9668 10.455 19.8968 10.64 19.7568 10.79C19.6168 10.93 19.4368 11 19.2168 11C19.0068 11 18.8268 10.93 18.6768 10.79C18.5368 10.64 18.4668 10.455 18.4668 10.235V3.815C18.4668 3.595 18.5368 3.415 18.6768 3.275C18.8268 3.125 19.0068 3.05 19.2168 3.05C19.4368 3.05 19.6168 3.125 19.7568 3.275C19.8968 3.415 19.9668 3.595 19.9668 3.815V10.235ZM19.2018 2.06C18.9118 2.06 18.7018 2.01 18.5718 1.91C18.4418 1.8 18.3768 1.62 18.3768 1.37V1.13C18.3768 0.879999 18.4468 0.705 18.5868 0.605C18.7268 0.505 18.9368 0.455 19.2168 0.455C19.5168 0.455 19.7318 0.51 19.8618 0.62C19.9918 0.719999 20.0568 0.889999 20.0568 1.13V1.37C20.0568 1.63 19.9868 1.81 19.8468 1.91C19.7168 2.01 19.5018 2.06 19.2018 2.06ZM26.0496 2.93C26.7596 2.93 27.3096 3.08 27.6996 3.38C28.0896 3.67 28.3596 4.065 28.5096 4.565C28.6696 5.055 28.7496 5.605 28.7496 6.215V10.235C28.7496 10.455 28.6746 10.64 28.5246 10.79C28.3846 10.93 28.2096 11 27.9996 11C27.7796 11 27.5996 10.93 27.4596 10.79C27.3196 10.64 27.2496 10.455 27.2496 10.235V6.23C27.2496 5.87 27.1996 5.55 27.0996 5.27C26.9996 4.98 26.8246 4.75 26.5746 4.58C26.3346 4.4 25.9946 4.31 25.5546 4.31C25.1446 4.31 24.7846 4.4 24.4746 4.58C24.1646 4.75 23.9196 4.98 23.7396 5.27C23.5696 5.55 23.4846 5.87 23.4846 6.23V10.235C23.4846 10.455 23.4096 10.64 23.2596 10.79C23.1196 10.93 22.9446 11 22.7346 11C22.5146 11 22.3346 10.93 22.1946 10.79C22.0546 10.64 21.9846 10.455 21.9846 10.235V3.875C21.9846 3.655 22.0546 3.475 22.1946 3.335C22.3346 3.185 22.5146 3.11 22.7346 3.11C22.9446 3.11 23.1196 3.185 23.2596 3.335C23.4096 3.475 23.4846 3.655 23.4846 3.875V4.715L23.2146 4.865C23.2846 4.645 23.4046 4.425 23.5746 4.205C23.7546 3.975 23.9696 3.765 24.2196 3.575C24.4696 3.375 24.7496 3.22 25.0596 3.11C25.3696 2.99 25.6996 2.93 26.0496 2.93ZM30.7272 3.2H34.2522C34.4522 3.2 34.6172 3.27 34.7472 3.41C34.8872 3.54 34.9572 3.705 34.9572 3.905C34.9572 4.095 34.8872 4.255 34.7472 4.385C34.6172 4.515 34.4522 4.58 34.2522 4.58H30.7272C30.5272 4.58 30.3572 4.515 30.2172 4.385C30.0872 4.245 30.0222 4.08 30.0222 3.89C30.0222 3.69 30.0872 3.525 30.2172 3.395C30.3572 3.265 30.5272 3.2 30.7272 3.2ZM32.3022 1.25C32.5222 1.25 32.7022 1.325 32.8422 1.475C32.9822 1.615 33.0522 1.795 33.0522 2.015V8.975C33.0522 9.155 33.0822 9.3 33.1422 9.41C33.2022 9.52 33.2822 9.595 33.3822 9.635C33.4922 9.675 33.6022 9.695 33.7122 9.695C33.8222 9.695 33.9172 9.675 33.9972 9.635C34.0872 9.595 34.1922 9.575 34.3122 9.575C34.4322 9.575 34.5422 9.63 34.6422 9.74C34.7422 9.85 34.7922 10 34.7922 10.19C34.7922 10.43 34.6622 10.625 34.4022 10.775C34.1422 10.925 33.8622 11 33.5622 11C33.3922 11 33.1922 10.985 32.9622 10.955C32.7322 10.925 32.5072 10.85 32.2872 10.73C32.0772 10.61 31.9022 10.42 31.7622 10.16C31.6222 9.89 31.5522 9.515 31.5522 9.035V2.015C31.5522 1.795 31.6222 1.615 31.7622 1.475C31.9122 1.325 32.0922 1.25 32.3022 1.25ZM46.7632 9.53C46.9732 9.53 47.1482 9.6 47.2882 9.74C47.4382 9.88 47.5132 10.055 47.5132 10.265C47.5132 10.475 47.4382 10.65 47.2882 10.79C47.1482 10.93 46.9732 11 46.7632 11H41.7232C41.5032 11 41.3182 10.93 41.1682 10.79C41.0282 10.64 40.9582 10.455 40.9582 10.235V1.265C40.9582 1.045 41.0332 0.865 41.1832 0.724999C41.3332 0.574999 41.5282 0.499999 41.7682 0.499999C41.9682 0.499999 42.1432 0.574999 42.2932 0.724999C42.4532 0.865 42.5332 1.045 42.5332 1.265V9.785L42.2182 9.53H46.7632ZM56.6295 7.055C56.6295 7.855 56.4545 8.565 56.1045 9.185C55.7545 9.795 55.2795 10.275 54.6795 10.625C54.0795 10.975 53.4045 11.15 52.6545 11.15C51.9045 11.15 51.2295 10.975 50.6295 10.625C50.0295 10.275 49.5495 9.795 49.1895 9.185C48.8395 8.565 48.6645 7.855 48.6645 7.055C48.6645 6.245 48.8395 5.535 49.1895 4.925C49.5495 4.305 50.0295 3.82 50.6295 3.47C51.2295 3.11 51.9045 2.93 52.6545 2.93C53.4045 2.93 54.0795 3.11 54.6795 3.47C55.2795 3.82 55.7545 4.305 56.1045 4.925C56.4545 5.535 56.6295 6.245 56.6295 7.055ZM55.1295 7.055C55.1295 6.505 55.0195 6.03 54.7995 5.63C54.5795 5.22 54.2795 4.9 53.8995 4.67C53.5295 4.43 53.1145 4.31 52.6545 4.31C52.1945 4.31 51.7745 4.43 51.3945 4.67C51.0145 4.9 50.7145 5.22 50.4945 5.63C50.2745 6.03 50.1645 6.505 50.1645 7.055C50.1645 7.585 50.2745 8.055 50.4945 8.465C50.7145 8.875 51.0145 9.195 51.3945 9.425C51.7745 9.655 52.1945 9.77 52.6545 9.77C53.1145 9.77 53.5295 9.655 53.8995 9.425C54.2795 9.195 54.5795 8.875 54.7995 8.465C55.0195 8.055 55.1295 7.585 55.1295 7.055ZM64.2073 3.11C64.4173 3.11 64.5923 3.185 64.7323 3.335C64.8823 3.475 64.9573 3.655 64.9573 3.875V7.82C64.9573 8.86 64.6673 9.675 64.0873 10.265C63.5073 10.845 62.6873 11.135 61.6273 11.135C60.5773 11.135 59.7623 10.845 59.1823 10.265C58.6123 9.675 58.3273 8.86 58.3273 7.82V3.875C58.3273 3.655 58.3973 3.475 58.5373 3.335C58.6773 3.185 58.8573 3.11 59.0773 3.11C59.2873 3.11 59.4623 3.185 59.6023 3.335C59.7523 3.475 59.8273 3.655 59.8273 3.875V7.82C59.8273 8.47 59.9773 8.955 60.2773 9.275C60.5873 9.595 61.0373 9.755 61.6273 9.755C62.2273 9.755 62.6823 9.595 62.9923 9.275C63.3023 8.955 63.4573 8.47 63.4573 7.82V3.875C63.4573 3.655 63.5273 3.475 63.6673 3.335C63.8073 3.185 63.9873 3.11 64.2073 3.11ZM68.4532 10.235C68.4532 10.455 68.3832 10.64 68.2432 10.79C68.1032 10.93 67.9232 11 67.7032 11C67.4932 11 67.3132 10.93 67.1632 10.79C67.0232 10.64 66.9532 10.455 66.9532 10.235V3.815C66.9532 3.595 67.0232 3.415 67.1632 3.275C67.3132 3.125 67.4932 3.05 67.7032 3.05C67.9232 3.05 68.1032 3.125 68.2432 3.275C68.3832 3.415 68.4532 3.595 68.4532 3.815V10.235ZM67.6882 2.06C67.3982 2.06 67.1882 2.01 67.0582 1.91C66.9282 1.8 66.8632 1.62 66.8632 1.37V1.13C66.8632 0.879999 66.9332 0.705 67.0732 0.605C67.2132 0.505 67.4232 0.455 67.7032 0.455C68.0032 0.455 68.2182 0.51 68.3482 0.62C68.4782 0.719999 68.5432 0.889999 68.5432 1.13V1.37C68.5432 1.63 68.4732 1.81 68.3332 1.91C68.2032 2.01 67.9882 2.06 67.6882 2.06ZM70.0059 9.77C69.9159 9.63 69.8759 9.47 69.8859 9.29C69.8959 9.1 70.0009 8.94 70.2009 8.81C70.3409 8.72 70.4859 8.685 70.6359 8.705C70.7959 8.715 70.9459 8.79 71.0859 8.93C71.3659 9.24 71.6759 9.485 72.0159 9.665C72.3659 9.845 72.7859 9.935 73.2759 9.935C73.4759 9.925 73.6809 9.895 73.8909 9.845C74.1009 9.785 74.2809 9.685 74.4309 9.545C74.5809 9.395 74.6559 9.18 74.6559 8.9C74.6559 8.65 74.5759 8.45 74.4159 8.3C74.2559 8.15 74.0459 8.03 73.7859 7.94C73.5259 7.84 73.2459 7.75 72.9459 7.67C72.6259 7.58 72.3009 7.48 71.9709 7.37C71.6509 7.26 71.3609 7.12 71.1009 6.95C70.8409 6.77 70.6259 6.54 70.4559 6.26C70.2959 5.98 70.2159 5.635 70.2159 5.225C70.2159 4.755 70.3459 4.35 70.6059 4.01C70.8759 3.67 71.2209 3.405 71.6409 3.215C72.0709 3.025 72.5359 2.93 73.0359 2.93C73.3259 2.93 73.6309 2.97 73.9509 3.05C74.2709 3.12 74.5809 3.235 74.8809 3.395C75.1809 3.555 75.4409 3.765 75.6609 4.025C75.7609 4.155 75.8159 4.31 75.8259 4.49C75.8459 4.67 75.7659 4.83 75.5859 4.97C75.4659 5.07 75.3209 5.115 75.1509 5.105C74.9809 5.095 74.8409 5.04 74.7309 4.94C74.5409 4.7 74.2959 4.515 73.9959 4.385C73.6959 4.245 73.3559 4.175 72.9759 4.175C72.7859 4.175 72.5859 4.205 72.3759 4.265C72.1759 4.315 72.0059 4.41 71.8659 4.55C71.7259 4.69 71.6559 4.895 71.6559 5.165C71.6559 5.415 71.7359 5.615 71.8959 5.765C72.0659 5.915 72.2859 6.04 72.5559 6.14C72.8259 6.24 73.1209 6.33 73.4409 6.41C73.7509 6.49 74.0559 6.585 74.3559 6.695C74.6659 6.805 74.9409 6.95 75.1809 7.13C75.4309 7.3 75.6309 7.525 75.7809 7.805C75.9409 8.075 76.0209 8.42 76.0209 8.84C76.0209 9.33 75.8759 9.75 75.5859 10.1C75.3059 10.44 74.9459 10.7 74.5059 10.88C74.0759 11.06 73.6209 11.15 73.1409 11.15C72.5709 11.15 72.0009 11.05 71.4309 10.85C70.8709 10.64 70.3959 10.28 70.0059 9.77Z" fill="#002A56"/>
</svg>
