<svg width="97" height="15" viewBox="0 0 97 15" fill="none" xmlns="http://www.w3.org/2000/svg">
<path d="M4.01422 12.15C3.29422 12.15 2.65422 12.05 2.09422 11.85C1.53422 11.65 0.999219 11.32 0.489219 10.86C0.379219 10.78 0.294219 10.685 0.234219 10.575C0.184219 10.455 0.159219 10.335 0.159219 10.215C0.159219 10.025 0.229219 9.855 0.369219 9.705C0.509219 9.555 0.684219 9.48 0.894219 9.48C1.05422 9.48 1.20422 9.535 1.34422 9.645C1.72422 9.995 2.11922 10.26 2.52922 10.44C2.94922 10.62 3.43922 10.71 3.99922 10.71C4.39922 10.71 4.76422 10.645 5.09422 10.515C5.43422 10.385 5.70422 10.21 5.90422 9.99C6.10422 9.77 6.20422 9.515 6.20422 9.225C6.20422 8.865 6.09922 8.57 5.88922 8.34C5.68922 8.1 5.39422 7.905 5.00422 7.755C4.62422 7.595 4.16422 7.46 3.62422 7.35C3.12422 7.26 2.67422 7.135 2.27422 6.975C1.88422 6.815 1.54922 6.615 1.26922 6.375C0.989219 6.125 0.774219 5.83 0.624219 5.49C0.474219 5.15 0.399219 4.755 0.399219 4.305C0.399219 3.695 0.559219 3.17 0.879219 2.73C1.19922 2.29 1.63422 1.95 2.18422 1.71C2.73422 1.47 3.35422 1.35 4.04422 1.35C4.67422 1.35 5.26422 1.45 5.81422 1.65C6.36422 1.84 6.80922 2.1 7.14922 2.43C7.38922 2.64 7.50922 2.865 7.50922 3.105C7.50922 3.285 7.43422 3.455 7.28422 3.615C7.14422 3.765 6.97922 3.84 6.78922 3.84C6.64922 3.84 6.52922 3.8 6.42922 3.72C6.26922 3.55 6.05422 3.4 5.78422 3.27C5.51422 3.13 5.22422 3.015 4.91422 2.925C4.61422 2.835 4.32422 2.79 4.04422 2.79C3.59422 2.79 3.20922 2.855 2.88922 2.985C2.56922 3.105 2.32422 3.275 2.15422 3.495C1.98422 3.705 1.89922 3.955 1.89922 4.245C1.89922 4.585 1.99422 4.865 2.18422 5.085C2.38422 5.305 2.65922 5.485 3.00922 5.625C3.35922 5.755 3.75922 5.875 4.20922 5.985C4.75922 6.105 5.24922 6.24 5.67922 6.39C6.11922 6.54 6.48922 6.735 6.78922 6.975C7.08922 7.205 7.31922 7.495 7.47922 7.845C7.63922 8.195 7.71922 8.63 7.71922 9.15C7.71922 9.75 7.54922 10.275 7.20922 10.725C6.86922 11.175 6.41922 11.525 5.85922 11.775C5.30922 12.025 4.69422 12.15 4.01422 12.15ZM15.8636 3.99C16.0836 3.99 16.2636 4.065 16.4036 4.215C16.5436 4.355 16.6136 4.535 16.6136 4.755V11.235C16.6136 11.455 16.5436 11.64 16.4036 11.79C16.2636 11.93 16.0836 12 15.8636 12C15.6536 12 15.4736 11.93 15.3236 11.79C15.1836 11.64 15.1136 11.455 15.1136 11.235V10.155L15.4286 10.2C15.4286 10.38 15.3536 10.58 15.2036 10.8C15.0636 11.02 14.8686 11.235 14.6186 11.445C14.3686 11.645 14.0736 11.815 13.7336 11.955C13.3936 12.085 13.0286 12.15 12.6386 12.15C11.9486 12.15 11.3286 11.975 10.7786 11.625C10.2286 11.265 9.79363 10.775 9.47363 10.155C9.15363 9.535 8.99363 8.83 8.99363 8.04C8.99363 7.23 9.15363 6.52 9.47363 5.91C9.79363 5.29 10.2236 4.805 10.7636 4.455C11.3136 4.105 11.9236 3.93 12.5936 3.93C13.0236 3.93 13.4186 4 13.7786 4.14C14.1486 4.28 14.4686 4.46 14.7386 4.68C15.0086 4.9 15.2136 5.135 15.3536 5.385C15.5036 5.625 15.5786 5.855 15.5786 6.075L15.1136 6.12V4.755C15.1136 4.545 15.1836 4.365 15.3236 4.215C15.4736 4.065 15.6536 3.99 15.8636 3.99ZM12.8036 10.77C13.2736 10.77 13.6886 10.65 14.0486 10.41C14.4086 10.17 14.6886 9.845 14.8886 9.435C15.0886 9.015 15.1886 8.55 15.1886 8.04C15.1886 7.52 15.0886 7.055 14.8886 6.645C14.6886 6.235 14.4086 5.91 14.0486 5.67C13.6886 5.43 13.2736 5.31 12.8036 5.31C12.3436 5.31 11.9336 5.43 11.5736 5.67C11.2236 5.91 10.9436 6.235 10.7336 6.645C10.5336 7.055 10.4336 7.52 10.4336 8.04C10.4336 8.55 10.5336 9.015 10.7336 9.435C10.9436 9.845 11.2236 10.17 11.5736 10.41C11.9336 10.65 12.3436 10.77 12.8036 10.77ZM20.335 11.235C20.335 11.455 20.26 11.64 20.11 11.79C19.97 11.93 19.795 12 19.585 12C19.375 12 19.195 11.93 19.045 11.79C18.905 11.64 18.835 11.455 18.835 11.235V1.665C18.835 1.445 18.91 1.265 19.06 1.125C19.21 0.975 19.39 0.9 19.6 0.9C19.82 0.9 19.995 0.975 20.125 1.125C20.265 1.265 20.335 1.445 20.335 1.665V11.235ZM22.4186 4.2H25.9436C26.1436 4.2 26.3086 4.27 26.4386 4.41C26.5786 4.54 26.6486 4.705 26.6486 4.905C26.6486 5.095 26.5786 5.255 26.4386 5.385C26.3086 5.515 26.1436 5.58 25.9436 5.58H22.4186C22.2186 5.58 22.0486 5.515 21.9086 5.385C21.7786 5.245 21.7136 5.08 21.7136 4.89C21.7136 4.69 21.7786 4.525 21.9086 4.395C22.0486 4.265 22.2186 4.2 22.4186 4.2ZM23.9936 2.25C24.2136 2.25 24.3936 2.325 24.5336 2.475C24.6736 2.615 24.7436 2.795 24.7436 3.015V9.975C24.7436 10.155 24.7736 10.3 24.8336 10.41C24.8936 10.52 24.9736 10.595 25.0736 10.635C25.1836 10.675 25.2936 10.695 25.4036 10.695C25.5136 10.695 25.6086 10.675 25.6886 10.635C25.7786 10.595 25.8836 10.575 26.0036 10.575C26.1236 10.575 26.2336 10.63 26.3336 10.74C26.4336 10.85 26.4836 11 26.4836 11.19C26.4836 11.43 26.3536 11.625 26.0936 11.775C25.8336 11.925 25.5536 12 25.2536 12C25.0836 12 24.8836 11.985 24.6536 11.955C24.4236 11.925 24.1986 11.85 23.9786 11.73C23.7686 11.61 23.5936 11.42 23.4536 11.16C23.3136 10.89 23.2436 10.515 23.2436 10.035V3.015C23.2436 2.795 23.3136 2.615 23.4536 2.475C23.6036 2.325 23.7836 2.25 23.9936 2.25ZM38.4546 10.53C38.6646 10.53 38.8396 10.6 38.9796 10.74C39.1296 10.88 39.2046 11.055 39.2046 11.265C39.2046 11.475 39.1296 11.65 38.9796 11.79C38.8396 11.93 38.6646 12 38.4546 12H33.4146C33.1946 12 33.0096 11.93 32.8596 11.79C32.7196 11.64 32.6496 11.455 32.6496 11.235V2.265C32.6496 2.045 32.7246 1.865 32.8746 1.725C33.0246 1.575 33.2196 1.5 33.4596 1.5C33.6596 1.5 33.8346 1.575 33.9846 1.725C34.1446 1.865 34.2246 2.045 34.2246 2.265V10.785L33.9096 10.53H38.4546ZM47.2259 3.99C47.4459 3.99 47.6259 4.065 47.7659 4.215C47.9059 4.355 47.9759 4.535 47.9759 4.755V11.235C47.9759 11.455 47.9059 11.64 47.7659 11.79C47.6259 11.93 47.4459 12 47.2259 12C47.0159 12 46.8359 11.93 46.6859 11.79C46.5459 11.64 46.4759 11.455 46.4759 11.235V10.155L46.7909 10.2C46.7909 10.38 46.7159 10.58 46.5659 10.8C46.4259 11.02 46.2309 11.235 45.9809 11.445C45.7309 11.645 45.4359 11.815 45.0959 11.955C44.7559 12.085 44.3909 12.15 44.0009 12.15C43.3109 12.15 42.6909 11.975 42.1409 11.625C41.5909 11.265 41.1559 10.775 40.8359 10.155C40.5159 9.535 40.3559 8.83 40.3559 8.04C40.3559 7.23 40.5159 6.52 40.8359 5.91C41.1559 5.29 41.5859 4.805 42.1259 4.455C42.6759 4.105 43.2859 3.93 43.9559 3.93C44.3859 3.93 44.7809 4 45.1409 4.14C45.5109 4.28 45.8309 4.46 46.1009 4.68C46.3709 4.9 46.5759 5.135 46.7159 5.385C46.8659 5.625 46.9409 5.855 46.9409 6.075L46.4759 6.12V4.755C46.4759 4.545 46.5459 4.365 46.6859 4.215C46.8359 4.065 47.0159 3.99 47.2259 3.99ZM44.1659 10.77C44.6359 10.77 45.0509 10.65 45.4109 10.41C45.7709 10.17 46.0509 9.845 46.2509 9.435C46.4509 9.015 46.5509 8.55 46.5509 8.04C46.5509 7.52 46.4509 7.055 46.2509 6.645C46.0509 6.235 45.7709 5.91 45.4109 5.67C45.0509 5.43 44.6359 5.31 44.1659 5.31C43.7059 5.31 43.2959 5.43 42.9359 5.67C42.5859 5.91 42.3059 6.235 42.0959 6.645C41.8959 7.055 41.7959 7.52 41.7959 8.04C41.7959 8.55 41.8959 9.015 42.0959 9.435C42.3059 9.845 42.5859 10.17 42.9359 10.41C43.2959 10.65 43.7059 10.77 44.1659 10.77ZM50.9473 12C50.7373 12 50.5573 11.93 50.4073 11.79C50.2673 11.64 50.1973 11.455 50.1973 11.235V1.665C50.1973 1.445 50.2673 1.265 50.4073 1.125C50.5573 0.975 50.7373 0.9 50.9473 0.9C51.1673 0.9 51.3473 0.975 51.4873 1.125C51.6273 1.265 51.6973 1.445 51.6973 1.665V11.235C51.6973 11.455 51.6273 11.64 51.4873 11.79C51.3473 11.93 51.1673 12 50.9473 12ZM55.8373 4.08C56.0273 4.08 56.1923 4.16 56.3323 4.32C56.4723 4.48 56.5423 4.64 56.5423 4.8C56.5423 5 56.4473 5.185 56.2573 5.355L51.5623 9.555L51.5023 7.83L55.2823 4.32C55.4423 4.16 55.6273 4.08 55.8373 4.08ZM56.0173 11.985C55.8073 11.985 55.6273 11.9 55.4773 11.73L52.4773 8.565L53.6173 7.515L56.5423 10.68C56.7023 10.85 56.7823 11.04 56.7823 11.25C56.7823 11.47 56.6923 11.65 56.5123 11.79C56.3423 11.92 56.1773 11.985 56.0173 11.985ZM61.7797 12.15C60.9497 12.15 60.2297 11.98 59.6197 11.64C59.0097 11.29 58.5347 10.815 58.1947 10.215C57.8647 9.605 57.6997 8.91 57.6997 8.13C57.6997 7.25 57.8747 6.5 58.2247 5.88C58.5847 5.25 59.0497 4.77 59.6197 4.44C60.1897 4.1 60.7947 3.93 61.4347 3.93C61.9247 3.93 62.3897 4.03 62.8297 4.23C63.2697 4.42 63.6597 4.69 63.9997 5.04C64.3497 5.38 64.6247 5.785 64.8247 6.255C65.0247 6.715 65.1297 7.22 65.1397 7.77C65.1297 7.97 65.0497 8.135 64.8997 8.265C64.7497 8.395 64.5747 8.46 64.3747 8.46H58.5397L58.1797 7.185H63.8197L63.5347 7.455V7.08C63.5147 6.73 63.3997 6.425 63.1897 6.165C62.9797 5.895 62.7197 5.69 62.4097 5.55C62.0997 5.4 61.7747 5.325 61.4347 5.325C61.1347 5.325 60.8447 5.375 60.5647 5.475C60.2947 5.565 60.0497 5.715 59.8297 5.925C59.6197 6.135 59.4497 6.415 59.3197 6.765C59.1997 7.105 59.1397 7.53 59.1397 8.04C59.1397 8.59 59.2547 9.07 59.4847 9.48C59.7147 9.89 60.0247 10.21 60.4147 10.44C60.8047 10.66 61.2347 10.77 61.7047 10.77C62.0747 10.77 62.3797 10.735 62.6197 10.665C62.8597 10.585 63.0597 10.49 63.2197 10.38C63.3797 10.27 63.5197 10.165 63.6397 10.065C63.7897 9.975 63.9397 9.93 64.0897 9.93C64.2697 9.93 64.4197 9.995 64.5397 10.125C64.6597 10.245 64.7197 10.39 64.7197 10.56C64.7197 10.78 64.6097 10.98 64.3897 11.16C64.1197 11.42 63.7447 11.65 63.2647 11.85C62.7947 12.05 62.2997 12.15 61.7797 12.15ZM78.63 2.1C78.85 2.21 78.975 2.38 79.005 2.61C79.045 2.84 78.99 3.05 78.84 3.24C78.73 3.39 78.585 3.475 78.405 3.495C78.235 3.515 78.065 3.48 77.895 3.39C77.605 3.24 77.3 3.12 76.98 3.03C76.66 2.94 76.32 2.895 75.96 2.895C75.39 2.895 74.875 2.99 74.415 3.18C73.965 3.36 73.575 3.625 73.245 3.975C72.915 4.315 72.66 4.72 72.48 5.19C72.31 5.66 72.225 6.18 72.225 6.75C72.225 7.38 72.32 7.94 72.51 8.43C72.7 8.91 72.96 9.32 73.29 9.66C73.63 9.99 74.025 10.24 74.475 10.41C74.935 10.57 75.43 10.65 75.96 10.65C76.3 10.65 76.63 10.61 76.95 10.53C77.28 10.45 77.59 10.33 77.88 10.17C78.06 10.08 78.235 10.05 78.405 10.08C78.585 10.1 78.73 10.185 78.84 10.335C79.01 10.545 79.07 10.76 79.02 10.98C78.98 11.19 78.855 11.35 78.645 11.46C78.395 11.6 78.12 11.72 77.82 11.82C77.52 11.92 77.215 12 76.905 12.06C76.595 12.12 76.28 12.15 75.96 12.15C75.24 12.15 74.56 12.03 73.92 11.79C73.28 11.55 72.71 11.2 72.21 10.74C71.71 10.28 71.315 9.715 71.025 9.045C70.745 8.375 70.605 7.61 70.605 6.75C70.605 5.98 70.735 5.27 70.995 4.62C71.265 3.96 71.64 3.395 72.12 2.925C72.61 2.445 73.18 2.075 73.83 1.815C74.48 1.545 75.19 1.41 75.96 1.41C76.44 1.41 76.905 1.47 77.355 1.59C77.815 1.71 78.24 1.88 78.63 2.1ZM81.9561 11.235C81.9561 11.455 81.8861 11.64 81.7461 11.79C81.6061 11.93 81.4261 12 81.2061 12C80.9961 12 80.8161 11.93 80.6661 11.79C80.5261 11.64 80.4561 11.455 80.4561 11.235V4.815C80.4561 4.595 80.5261 4.415 80.6661 4.275C80.8161 4.125 80.9961 4.05 81.2061 4.05C81.4261 4.05 81.6061 4.125 81.7461 4.275C81.8861 4.415 81.9561 4.595 81.9561 4.815V11.235ZM81.1911 3.06C80.9011 3.06 80.6911 3.01 80.5611 2.91C80.4311 2.8 80.3661 2.62 80.3661 2.37V2.13C80.3661 1.88 80.4361 1.705 80.5761 1.605C80.7161 1.505 80.9261 1.455 81.2061 1.455C81.5061 1.455 81.7211 1.51 81.8511 1.62C81.9811 1.72 82.0461 1.89 82.0461 2.13V2.37C82.0461 2.63 81.9761 2.81 81.8361 2.91C81.7061 3.01 81.4911 3.06 81.1911 3.06ZM83.8688 4.2H87.3938C87.5938 4.2 87.7588 4.27 87.8888 4.41C88.0288 4.54 88.0988 4.705 88.0988 4.905C88.0988 5.095 88.0288 5.255 87.8888 5.385C87.7588 5.515 87.5938 5.58 87.3938 5.58H83.8688C83.6688 5.58 83.4988 5.515 83.3588 5.385C83.2288 5.245 83.1638 5.08 83.1638 4.89C83.1638 4.69 83.2288 4.525 83.3588 4.395C83.4988 4.265 83.6688 4.2 83.8688 4.2ZM85.4438 2.25C85.6638 2.25 85.8438 2.325 85.9838 2.475C86.1238 2.615 86.1938 2.795 86.1938 3.015V9.975C86.1938 10.155 86.2238 10.3 86.2838 10.41C86.3438 10.52 86.4238 10.595 86.5238 10.635C86.6338 10.675 86.7438 10.695 86.8538 10.695C86.9638 10.695 87.0588 10.675 87.1388 10.635C87.2288 10.595 87.3338 10.575 87.4538 10.575C87.5738 10.575 87.6838 10.63 87.7838 10.74C87.8838 10.85 87.9338 11 87.9338 11.19C87.9338 11.43 87.8038 11.625 87.5438 11.775C87.2838 11.925 87.0038 12 86.7038 12C86.5338 12 86.3338 11.985 86.1038 11.955C85.8738 11.925 85.6488 11.85 85.4288 11.73C85.2188 11.61 85.0438 11.42 84.9038 11.16C84.7638 10.89 84.6938 10.515 84.6938 10.035V3.015C84.6938 2.795 84.7638 2.615 84.9038 2.475C85.0538 2.325 85.2338 2.25 85.4438 2.25ZM95.625 4.05C95.845 4.05 96.025 4.125 96.165 4.275C96.305 4.415 96.375 4.595 96.375 4.815V11.265C96.375 12.145 96.205 12.86 95.865 13.41C95.535 13.96 95.085 14.36 94.515 14.61C93.955 14.87 93.32 15 92.61 15C92.25 15 91.89 14.965 91.53 14.895C91.17 14.835 90.875 14.745 90.645 14.625C90.405 14.515 90.235 14.38 90.135 14.22C90.035 14.06 90.02 13.885 90.09 13.695C90.16 13.455 90.28 13.29 90.45 13.2C90.62 13.12 90.795 13.115 90.975 13.185C91.145 13.255 91.37 13.345 91.65 13.455C91.93 13.565 92.25 13.62 92.61 13.62C93.1 13.62 93.515 13.54 93.855 13.38C94.195 13.22 94.45 12.97 94.62 12.63C94.8 12.29 94.89 11.85 94.89 11.31V10.275L95.13 10.635C94.97 10.965 94.76 11.24 94.5 11.46C94.24 11.68 93.93 11.85 93.57 11.97C93.22 12.09 92.83 12.15 92.4 12.15C91.85 12.15 91.375 12.03 90.975 11.79C90.585 11.54 90.285 11.2 90.075 10.77C89.865 10.33 89.76 9.83 89.76 9.27V4.815C89.76 4.595 89.83 4.415 89.97 4.275C90.11 4.125 90.29 4.05 90.51 4.05C90.72 4.05 90.895 4.125 91.035 4.275C91.185 4.415 91.26 4.595 91.26 4.815V8.865C91.26 9.525 91.405 10.01 91.695 10.32C91.985 10.62 92.415 10.77 92.985 10.77C93.365 10.77 93.695 10.69 93.975 10.53C94.255 10.37 94.475 10.15 94.635 9.87C94.795 9.58 94.875 9.245 94.875 8.865V4.815C94.875 4.595 94.945 4.415 95.085 4.275C95.235 4.125 95.415 4.05 95.625 4.05Z" fill="#002A56"/>
</svg>
