<svg width="98" height="12" viewBox="0 0 98 12" fill="none" xmlns="http://www.w3.org/2000/svg">
<path d="M3.89166 11.15C3.17166 11.15 2.53166 11.05 1.97166 10.85C1.41166 10.65 0.87666 10.32 0.36666 9.86C0.25666 9.78 0.17166 9.685 0.11166 9.575C0.0616602 9.455 0.0366602 9.335 0.0366602 9.215C0.0366602 9.025 0.10666 8.855 0.24666 8.705C0.38666 8.555 0.56166 8.48 0.77166 8.48C0.93166 8.48 1.08166 8.535 1.22166 8.645C1.60166 8.995 1.99666 9.26 2.40666 9.44C2.82666 9.62 3.31666 9.71 3.87666 9.71C4.27666 9.71 4.64166 9.645 4.97166 9.515C5.31166 9.385 5.58166 9.21 5.78166 8.99C5.98166 8.77 6.08166 8.515 6.08166 8.225C6.08166 7.865 5.97666 7.57 5.76666 7.34C5.56666 7.1 5.27166 6.905 4.88166 6.755C4.50166 6.595 4.04166 6.46 3.50166 6.35C3.00166 6.26 2.55166 6.135 2.15166 5.975C1.76166 5.815 1.42666 5.615 1.14666 5.375C0.86666 5.125 0.65166 4.83 0.50166 4.49C0.35166 4.15 0.27666 3.755 0.27666 3.305C0.27666 2.695 0.43666 2.17 0.75666 1.73C1.07666 1.29 1.51166 0.949999 2.06166 0.709999C2.61166 0.469999 3.23166 0.349999 3.92166 0.349999C4.55166 0.349999 5.14166 0.449999 5.69166 0.649999C6.24166 0.84 6.68666 1.1 7.02666 1.43C7.26666 1.64 7.38666 1.865 7.38666 2.105C7.38666 2.285 7.31166 2.455 7.16166 2.615C7.02166 2.765 6.85666 2.84 6.66666 2.84C6.52666 2.84 6.40666 2.8 6.30666 2.72C6.14666 2.55 5.93166 2.4 5.66166 2.27C5.39166 2.13 5.10166 2.015 4.79166 1.925C4.49166 1.835 4.20166 1.79 3.92166 1.79C3.47166 1.79 3.08666 1.855 2.76666 1.985C2.44666 2.105 2.20166 2.275 2.03166 2.495C1.86166 2.705 1.77666 2.955 1.77666 3.245C1.77666 3.585 1.87166 3.865 2.06166 4.085C2.26166 4.305 2.53666 4.485 2.88666 4.625C3.23666 4.755 3.63666 4.875 4.08666 4.985C4.63666 5.105 5.12666 5.24 5.55666 5.39C5.99666 5.54 6.36666 5.735 6.66666 5.975C6.96666 6.205 7.19666 6.495 7.35666 6.845C7.51666 7.195 7.59666 7.63 7.59666 8.15C7.59666 8.75 7.42666 9.275 7.08666 9.725C6.74666 10.175 6.29666 10.525 5.73666 10.775C5.18666 11.025 4.57166 11.15 3.89166 11.15ZM15.7411 2.99C15.9611 2.99 16.1411 3.065 16.2811 3.215C16.4211 3.355 16.4911 3.535 16.4911 3.755V10.235C16.4911 10.455 16.4211 10.64 16.2811 10.79C16.1411 10.93 15.9611 11 15.7411 11C15.5311 11 15.3511 10.93 15.2011 10.79C15.0611 10.64 14.9911 10.455 14.9911 10.235V9.155L15.3061 9.2C15.3061 9.38 15.2311 9.58 15.0811 9.8C14.9411 10.02 14.7461 10.235 14.4961 10.445C14.2461 10.645 13.9511 10.815 13.6111 10.955C13.2711 11.085 12.9061 11.15 12.5161 11.15C11.8261 11.15 11.2061 10.975 10.6561 10.625C10.1061 10.265 9.67107 9.775 9.35107 9.155C9.03107 8.535 8.87107 7.83 8.87107 7.04C8.87107 6.23 9.03107 5.52 9.35107 4.91C9.67107 4.29 10.1011 3.805 10.6411 3.455C11.1911 3.105 11.8011 2.93 12.4711 2.93C12.9011 2.93 13.2961 3 13.6561 3.14C14.0261 3.28 14.3461 3.46 14.6161 3.68C14.8861 3.9 15.0911 4.135 15.2311 4.385C15.3811 4.625 15.4561 4.855 15.4561 5.075L14.9911 5.12V3.755C14.9911 3.545 15.0611 3.365 15.2011 3.215C15.3511 3.065 15.5311 2.99 15.7411 2.99ZM12.6811 9.77C13.1511 9.77 13.5661 9.65 13.9261 9.41C14.2861 9.17 14.5661 8.845 14.7661 8.435C14.9661 8.015 15.0661 7.55 15.0661 7.04C15.0661 6.52 14.9661 6.055 14.7661 5.645C14.5661 5.235 14.2861 4.91 13.9261 4.67C13.5661 4.43 13.1511 4.31 12.6811 4.31C12.2211 4.31 11.8111 4.43 11.4511 4.67C11.1011 4.91 10.8211 5.235 10.6111 5.645C10.4111 6.055 10.3111 6.52 10.3111 7.04C10.3111 7.55 10.4111 8.015 10.6111 8.435C10.8211 8.845 11.1011 9.17 11.4511 9.41C11.8111 9.65 12.2211 9.77 12.6811 9.77ZM22.6575 2.93C23.3675 2.93 23.9175 3.08 24.3075 3.38C24.6975 3.67 24.9675 4.065 25.1175 4.565C25.2775 5.055 25.3575 5.605 25.3575 6.215V10.235C25.3575 10.455 25.2825 10.64 25.1325 10.79C24.9925 10.93 24.8175 11 24.6075 11C24.3875 11 24.2075 10.93 24.0675 10.79C23.9275 10.64 23.8575 10.455 23.8575 10.235V6.23C23.8575 5.87 23.8075 5.55 23.7075 5.27C23.6075 4.98 23.4325 4.75 23.1825 4.58C22.9425 4.4 22.6025 4.31 22.1625 4.31C21.7525 4.31 21.3925 4.4 21.0825 4.58C20.7725 4.75 20.5275 4.98 20.3475 5.27C20.1775 5.55 20.0925 5.87 20.0925 6.23V10.235C20.0925 10.455 20.0175 10.64 19.8675 10.79C19.7275 10.93 19.5525 11 19.3425 11C19.1225 11 18.9425 10.93 18.8025 10.79C18.6625 10.64 18.5925 10.455 18.5925 10.235V3.875C18.5925 3.655 18.6625 3.475 18.8025 3.335C18.9425 3.185 19.1225 3.11 19.3425 3.11C19.5525 3.11 19.7275 3.185 19.8675 3.335C20.0175 3.475 20.0925 3.655 20.0925 3.875V4.715L19.8225 4.865C19.8925 4.645 20.0125 4.425 20.1825 4.205C20.3625 3.975 20.5775 3.765 20.8275 3.575C21.0775 3.375 21.3575 3.22 21.6675 3.11C21.9775 2.99 22.3075 2.93 22.6575 2.93ZM32.5749 11C32.3349 11 32.1399 10.93 31.9899 10.79C31.8499 10.64 31.7799 10.455 31.7799 10.235V1.265C31.7799 1.045 31.8549 0.865 32.0049 0.724999C32.1549 0.574999 32.3349 0.499999 32.5449 0.499999H37.6149C37.8349 0.499999 38.0149 0.569999 38.1549 0.709999C38.3049 0.849999 38.3799 1.025 38.3799 1.235C38.3799 1.425 38.3049 1.59 38.1549 1.73C38.0149 1.87 37.8349 1.94 37.6149 1.94H33.2349L33.3399 1.79V5.135L33.2499 4.955H36.9399C37.1599 4.955 37.3399 5.025 37.4799 5.165C37.6299 5.305 37.7049 5.48 37.7049 5.69C37.7049 5.88 37.6299 6.045 37.4799 6.185C37.3399 6.325 37.1599 6.395 36.9399 6.395H33.2199L33.3399 6.275V10.235C33.3399 10.455 33.2649 10.64 33.1149 10.79C32.9649 10.93 32.7849 11 32.5749 11ZM40.6853 11C40.4653 11 40.2853 10.93 40.1453 10.79C40.0053 10.64 39.9353 10.455 39.9353 10.235V3.875C39.9353 3.655 40.0053 3.475 40.1453 3.335C40.2853 3.185 40.4653 3.11 40.6853 3.11C40.8953 3.11 41.0703 3.185 41.2103 3.335C41.3603 3.475 41.4353 3.655 41.4353 3.875V5.555L41.2853 4.91C41.3653 4.63 41.4853 4.37 41.6453 4.13C41.8153 3.89 42.0153 3.68 42.2453 3.5C42.4753 3.32 42.7303 3.18 43.0103 3.08C43.3003 2.98 43.6003 2.93 43.9103 2.93C44.1703 2.93 44.3953 3 44.5853 3.14C44.7753 3.28 44.8703 3.455 44.8703 3.665C44.8703 3.935 44.8003 4.135 44.6603 4.265C44.5203 4.385 44.3653 4.445 44.1953 4.445C44.0453 4.445 43.9003 4.415 43.7603 4.355C43.6203 4.285 43.4553 4.25 43.2653 4.25C43.0553 4.25 42.8403 4.305 42.6203 4.415C42.4003 4.525 42.2003 4.69 42.0203 4.91C41.8403 5.12 41.6953 5.37 41.5853 5.66C41.4853 5.95 41.4353 6.275 41.4353 6.635V10.235C41.4353 10.455 41.3603 10.64 41.2103 10.79C41.0703 10.93 40.8953 11 40.6853 11ZM52.494 2.99C52.714 2.99 52.894 3.065 53.034 3.215C53.174 3.355 53.244 3.535 53.244 3.755V10.235C53.244 10.455 53.174 10.64 53.034 10.79C52.894 10.93 52.714 11 52.494 11C52.284 11 52.104 10.93 51.954 10.79C51.814 10.64 51.744 10.455 51.744 10.235V9.155L52.059 9.2C52.059 9.38 51.984 9.58 51.834 9.8C51.694 10.02 51.499 10.235 51.249 10.445C50.999 10.645 50.704 10.815 50.364 10.955C50.024 11.085 49.659 11.15 49.269 11.15C48.579 11.15 47.959 10.975 47.409 10.625C46.859 10.265 46.424 9.775 46.104 9.155C45.784 8.535 45.624 7.83 45.624 7.04C45.624 6.23 45.784 5.52 46.104 4.91C46.424 4.29 46.854 3.805 47.394 3.455C47.944 3.105 48.554 2.93 49.224 2.93C49.654 2.93 50.049 3 50.409 3.14C50.779 3.28 51.099 3.46 51.369 3.68C51.639 3.9 51.844 4.135 51.984 4.385C52.134 4.625 52.209 4.855 52.209 5.075L51.744 5.12V3.755C51.744 3.545 51.814 3.365 51.954 3.215C52.104 3.065 52.284 2.99 52.494 2.99ZM49.434 9.77C49.904 9.77 50.319 9.65 50.679 9.41C51.039 9.17 51.319 8.845 51.519 8.435C51.719 8.015 51.819 7.55 51.819 7.04C51.819 6.52 51.719 6.055 51.519 5.645C51.319 5.235 51.039 4.91 50.679 4.67C50.319 4.43 49.904 4.31 49.434 4.31C48.974 4.31 48.564 4.43 48.204 4.67C47.854 4.91 47.574 5.235 47.364 5.645C47.164 6.055 47.064 6.52 47.064 7.04C47.064 7.55 47.164 8.015 47.364 8.435C47.574 8.845 47.854 9.17 48.204 9.41C48.564 9.65 48.974 9.77 49.434 9.77ZM59.4104 2.93C60.1204 2.93 60.6704 3.08 61.0604 3.38C61.4504 3.67 61.7204 4.065 61.8704 4.565C62.0304 5.055 62.1104 5.605 62.1104 6.215V10.235C62.1104 10.455 62.0354 10.64 61.8854 10.79C61.7454 10.93 61.5704 11 61.3604 11C61.1404 11 60.9604 10.93 60.8204 10.79C60.6804 10.64 60.6104 10.455 60.6104 10.235V6.23C60.6104 5.87 60.5604 5.55 60.4604 5.27C60.3604 4.98 60.1854 4.75 59.9354 4.58C59.6954 4.4 59.3554 4.31 58.9154 4.31C58.5054 4.31 58.1454 4.4 57.8354 4.58C57.5254 4.75 57.2804 4.98 57.1004 5.27C56.9304 5.55 56.8454 5.87 56.8454 6.23V10.235C56.8454 10.455 56.7704 10.64 56.6204 10.79C56.4804 10.93 56.3054 11 56.0954 11C55.8754 11 55.6954 10.93 55.5554 10.79C55.4154 10.64 55.3454 10.455 55.3454 10.235V3.875C55.3454 3.655 55.4154 3.475 55.5554 3.335C55.6954 3.185 55.8754 3.11 56.0954 3.11C56.3054 3.11 56.4804 3.185 56.6204 3.335C56.7704 3.475 56.8454 3.655 56.8454 3.875V4.715L56.5754 4.865C56.6454 4.645 56.7654 4.425 56.9354 4.205C57.1154 3.975 57.3304 3.765 57.5804 3.575C57.8304 3.375 58.1104 3.22 58.4204 3.11C58.7304 2.99 59.0604 2.93 59.4104 2.93ZM67.6881 2.93C68.2281 2.93 68.7081 2.99 69.1281 3.11C69.5481 3.22 69.8731 3.38 70.1031 3.59C70.3431 3.79 70.4631 4.025 70.4631 4.295C70.4631 4.465 70.4131 4.625 70.3131 4.775C70.2131 4.915 70.0631 4.985 69.8631 4.985C69.7231 4.985 69.6031 4.96 69.5031 4.91C69.4131 4.86 69.3281 4.8 69.2481 4.73C69.1681 4.66 69.0681 4.59 68.9481 4.52C68.8381 4.46 68.6731 4.41 68.4531 4.37C68.2431 4.33 68.0531 4.31 67.8831 4.31C67.3531 4.31 66.8931 4.43 66.5031 4.67C66.1231 4.91 65.8231 5.235 65.6031 5.645C65.3931 6.055 65.2881 6.52 65.2881 7.04C65.2881 7.56 65.3931 8.025 65.6031 8.435C65.8231 8.845 66.1181 9.17 66.4881 9.41C66.8681 9.65 67.3081 9.77 67.8081 9.77C68.1081 9.77 68.3531 9.75 68.5431 9.71C68.7331 9.66 68.8981 9.6 69.0381 9.53C69.1881 9.44 69.3131 9.35 69.4131 9.26C69.5231 9.16 69.6731 9.11 69.8631 9.11C70.0831 9.11 70.2481 9.18 70.3581 9.32C70.4781 9.45 70.5381 9.615 70.5381 9.815C70.5381 10.035 70.4031 10.25 70.1331 10.46C69.8731 10.66 69.5231 10.825 69.0831 10.955C68.6431 11.085 68.1581 11.15 67.6281 11.15C66.8481 11.15 66.1681 10.97 65.5881 10.61C65.0181 10.25 64.5731 9.76 64.2531 9.14C63.9431 8.52 63.7881 7.82 63.7881 7.04C63.7881 6.25 63.9531 5.55 64.2831 4.94C64.6131 4.32 65.0731 3.83 65.6631 3.47C66.2531 3.11 66.9281 2.93 67.6881 2.93ZM73.3814 10.235C73.3814 10.455 73.3114 10.64 73.1714 10.79C73.0314 10.93 72.8514 11 72.6314 11C72.4214 11 72.2414 10.93 72.0914 10.79C71.9514 10.64 71.8814 10.455 71.8814 10.235V3.815C71.8814 3.595 71.9514 3.415 72.0914 3.275C72.2414 3.125 72.4214 3.05 72.6314 3.05C72.8514 3.05 73.0314 3.125 73.1714 3.275C73.3114 3.415 73.3814 3.595 73.3814 3.815V10.235ZM72.6164 2.06C72.3264 2.06 72.1164 2.01 71.9864 1.91C71.8564 1.8 71.7914 1.62 71.7914 1.37V1.13C71.7914 0.879999 71.8614 0.705 72.0014 0.605C72.1414 0.505 72.3514 0.455 72.6314 0.455C72.9314 0.455 73.1464 0.51 73.2764 0.62C73.4064 0.719999 73.4714 0.889999 73.4714 1.13V1.37C73.4714 1.63 73.4014 1.81 73.2614 1.91C73.1314 2.01 72.9164 2.06 72.6164 2.06ZM74.9341 9.77C74.8441 9.63 74.8041 9.47 74.8141 9.29C74.8241 9.1 74.9291 8.94 75.1291 8.81C75.2691 8.72 75.4141 8.685 75.5641 8.705C75.7241 8.715 75.8741 8.79 76.0141 8.93C76.2941 9.24 76.6041 9.485 76.9441 9.665C77.2941 9.845 77.7141 9.935 78.2041 9.935C78.4041 9.925 78.6091 9.895 78.8191 9.845C79.0291 9.785 79.2091 9.685 79.3591 9.545C79.5091 9.395 79.5841 9.18 79.5841 8.9C79.5841 8.65 79.5041 8.45 79.3441 8.3C79.1841 8.15 78.9741 8.03 78.7141 7.94C78.4541 7.84 78.1741 7.75 77.8741 7.67C77.5541 7.58 77.2291 7.48 76.8991 7.37C76.5791 7.26 76.2891 7.12 76.0291 6.95C75.7691 6.77 75.5541 6.54 75.3841 6.26C75.2241 5.98 75.1441 5.635 75.1441 5.225C75.1441 4.755 75.2741 4.35 75.5341 4.01C75.8041 3.67 76.1491 3.405 76.5691 3.215C76.9991 3.025 77.4641 2.93 77.9641 2.93C78.2541 2.93 78.5591 2.97 78.8791 3.05C79.1991 3.12 79.5091 3.235 79.8091 3.395C80.1091 3.555 80.3691 3.765 80.5891 4.025C80.6891 4.155 80.7441 4.31 80.7541 4.49C80.7741 4.67 80.6941 4.83 80.5141 4.97C80.3941 5.07 80.2491 5.115 80.0791 5.105C79.9091 5.095 79.7691 5.04 79.6591 4.94C79.4691 4.7 79.2241 4.515 78.9241 4.385C78.6241 4.245 78.2841 4.175 77.9041 4.175C77.7141 4.175 77.5141 4.205 77.3041 4.265C77.1041 4.315 76.9341 4.41 76.7941 4.55C76.6541 4.69 76.5841 4.895 76.5841 5.165C76.5841 5.415 76.6641 5.615 76.8241 5.765C76.9941 5.915 77.2141 6.04 77.4841 6.14C77.7541 6.24 78.0491 6.33 78.3691 6.41C78.6791 6.49 78.9841 6.585 79.2841 6.695C79.5941 6.805 79.8691 6.95 80.1091 7.13C80.3591 7.3 80.5591 7.525 80.7091 7.805C80.8691 8.075 80.9491 8.42 80.9491 8.84C80.9491 9.33 80.8041 9.75 80.5141 10.1C80.2341 10.44 79.8741 10.7 79.4341 10.88C79.0041 11.06 78.5491 11.15 78.0691 11.15C77.4991 11.15 76.9291 11.05 76.3591 10.85C75.7991 10.64 75.3241 10.28 74.9341 9.77ZM86.0572 2.93C86.5972 2.93 87.0772 2.99 87.4972 3.11C87.9172 3.22 88.2422 3.38 88.4722 3.59C88.7122 3.79 88.8322 4.025 88.8322 4.295C88.8322 4.465 88.7822 4.625 88.6822 4.775C88.5822 4.915 88.4322 4.985 88.2322 4.985C88.0922 4.985 87.9722 4.96 87.8722 4.91C87.7822 4.86 87.6972 4.8 87.6172 4.73C87.5372 4.66 87.4372 4.59 87.3172 4.52C87.2072 4.46 87.0422 4.41 86.8222 4.37C86.6122 4.33 86.4222 4.31 86.2522 4.31C85.7222 4.31 85.2622 4.43 84.8722 4.67C84.4922 4.91 84.1922 5.235 83.9722 5.645C83.7622 6.055 83.6572 6.52 83.6572 7.04C83.6572 7.56 83.7622 8.025 83.9722 8.435C84.1922 8.845 84.4872 9.17 84.8572 9.41C85.2372 9.65 85.6772 9.77 86.1772 9.77C86.4772 9.77 86.7222 9.75 86.9122 9.71C87.1022 9.66 87.2672 9.6 87.4072 9.53C87.5572 9.44 87.6822 9.35 87.7822 9.26C87.8922 9.16 88.0422 9.11 88.2322 9.11C88.4522 9.11 88.6172 9.18 88.7272 9.32C88.8472 9.45 88.9072 9.615 88.9072 9.815C88.9072 10.035 88.7722 10.25 88.5022 10.46C88.2422 10.66 87.8922 10.825 87.4522 10.955C87.0122 11.085 86.5272 11.15 85.9972 11.15C85.2172 11.15 84.5372 10.97 83.9572 10.61C83.3872 10.25 82.9422 9.76 82.6222 9.14C82.3122 8.52 82.1572 7.82 82.1572 7.04C82.1572 6.25 82.3222 5.55 82.6522 4.94C82.9822 4.32 83.4422 3.83 84.0322 3.47C84.6222 3.11 85.2972 2.93 86.0572 2.93ZM97.9005 7.055C97.9005 7.855 97.7255 8.565 97.3755 9.185C97.0255 9.795 96.5505 10.275 95.9505 10.625C95.3505 10.975 94.6755 11.15 93.9255 11.15C93.1755 11.15 92.5005 10.975 91.9005 10.625C91.3005 10.275 90.8205 9.795 90.4605 9.185C90.1105 8.565 89.9355 7.855 89.9355 7.055C89.9355 6.245 90.1105 5.535 90.4605 4.925C90.8205 4.305 91.3005 3.82 91.9005 3.47C92.5005 3.11 93.1755 2.93 93.9255 2.93C94.6755 2.93 95.3505 3.11 95.9505 3.47C96.5505 3.82 97.0255 4.305 97.3755 4.925C97.7255 5.535 97.9005 6.245 97.9005 7.055ZM96.4005 7.055C96.4005 6.505 96.2905 6.03 96.0705 5.63C95.8505 5.22 95.5505 4.9 95.1705 4.67C94.8005 4.43 94.3855 4.31 93.9255 4.31C93.4655 4.31 93.0455 4.43 92.6655 4.67C92.2855 4.9 91.9855 5.22 91.7655 5.63C91.5455 6.03 91.4355 6.505 91.4355 7.055C91.4355 7.585 91.5455 8.055 91.7655 8.465C91.9855 8.875 92.2855 9.195 92.6655 9.425C93.0455 9.655 93.4655 9.77 93.9255 9.77C94.3855 9.77 94.8005 9.655 95.1705 9.425C95.5505 9.195 95.8505 8.875 96.0705 8.465C96.2905 8.055 96.4005 7.585 96.4005 7.055Z" fill="#002A56"/>
</svg>
