<svg width="62" height="12" viewBox="0 0 62 12" fill="none" xmlns="http://www.w3.org/2000/svg">
<path d="M3.85064 11.15C3.13064 11.15 2.49064 11.05 1.93064 10.85C1.37064 10.65 0.835645 10.32 0.325645 9.86C0.215645 9.78 0.130645 9.685 0.0706446 9.575C0.0206446 9.455 -0.00435546 9.335 -0.00435546 9.215C-0.00435546 9.025 0.0656446 8.855 0.205645 8.705C0.345645 8.555 0.520645 8.48 0.730645 8.48C0.890645 8.48 1.04064 8.535 1.18064 8.645C1.56064 8.995 1.95564 9.26 2.36564 9.44C2.78564 9.62 3.27564 9.71 3.83564 9.71C4.23564 9.71 4.60064 9.645 4.93064 9.515C5.27064 9.385 5.54064 9.21 5.74064 8.99C5.94064 8.77 6.04065 8.515 6.04065 8.225C6.04065 7.865 5.93565 7.57 5.72565 7.34C5.52564 7.1 5.23064 6.905 4.84064 6.755C4.46064 6.595 4.00064 6.46 3.46064 6.35C2.96064 6.26 2.51064 6.135 2.11064 5.975C1.72064 5.815 1.38564 5.615 1.10564 5.375C0.825645 5.125 0.610645 4.83 0.460645 4.49C0.310645 4.15 0.235645 3.755 0.235645 3.305C0.235645 2.695 0.395645 2.17 0.715645 1.73C1.03564 1.29 1.47064 0.949999 2.02064 0.709999C2.57064 0.469999 3.19064 0.349999 3.88064 0.349999C4.51064 0.349999 5.10064 0.449999 5.65064 0.649999C6.20064 0.84 6.64564 1.1 6.98564 1.43C7.22564 1.64 7.34565 1.865 7.34565 2.105C7.34565 2.285 7.27064 2.455 7.12064 2.615C6.98064 2.765 6.81564 2.84 6.62565 2.84C6.48564 2.84 6.36564 2.8 6.26564 2.72C6.10564 2.55 5.89064 2.4 5.62065 2.27C5.35064 2.13 5.06064 2.015 4.75064 1.925C4.45064 1.835 4.16064 1.79 3.88064 1.79C3.43064 1.79 3.04564 1.855 2.72564 1.985C2.40564 2.105 2.16064 2.275 1.99064 2.495C1.82064 2.705 1.73564 2.955 1.73564 3.245C1.73564 3.585 1.83064 3.865 2.02064 4.085C2.22064 4.305 2.49564 4.485 2.84564 4.625C3.19564 4.755 3.59564 4.875 4.04564 4.985C4.59564 5.105 5.08564 5.24 5.51564 5.39C5.95564 5.54 6.32565 5.735 6.62565 5.975C6.92565 6.205 7.15564 6.495 7.31564 6.845C7.47565 7.195 7.55565 7.63 7.55565 8.15C7.55565 8.75 7.38564 9.275 7.04564 9.725C6.70564 10.175 6.25564 10.525 5.69564 10.775C5.14564 11.025 4.53064 11.15 3.85064 11.15ZM15.7001 2.99C15.9201 2.99 16.1001 3.065 16.2401 3.215C16.3801 3.355 16.4501 3.535 16.4501 3.755V10.235C16.4501 10.455 16.3801 10.64 16.2401 10.79C16.1001 10.93 15.9201 11 15.7001 11C15.4901 11 15.3101 10.93 15.1601 10.79C15.0201 10.64 14.9501 10.455 14.9501 10.235V9.155L15.2651 9.2C15.2651 9.38 15.1901 9.58 15.0401 9.8C14.9001 10.02 14.7051 10.235 14.4551 10.445C14.2051 10.645 13.9101 10.815 13.5701 10.955C13.2301 11.085 12.8651 11.15 12.4751 11.15C11.7851 11.15 11.1651 10.975 10.6151 10.625C10.0651 10.265 9.63006 9.775 9.31006 9.155C8.99006 8.535 8.83006 7.83 8.83006 7.04C8.83006 6.23 8.99006 5.52 9.31006 4.91C9.63006 4.29 10.0601 3.805 10.6001 3.455C11.1501 3.105 11.7601 2.93 12.4301 2.93C12.8601 2.93 13.2551 3 13.6151 3.14C13.9851 3.28 14.3051 3.46 14.5751 3.68C14.8451 3.9 15.0501 4.135 15.1901 4.385C15.3401 4.625 15.4151 4.855 15.4151 5.075L14.9501 5.12V3.755C14.9501 3.545 15.0201 3.365 15.1601 3.215C15.3101 3.065 15.4901 2.99 15.7001 2.99ZM12.6401 9.77C13.1101 9.77 13.5251 9.65 13.8851 9.41C14.2451 9.17 14.5251 8.845 14.7251 8.435C14.9251 8.015 15.0251 7.55 15.0251 7.04C15.0251 6.52 14.9251 6.055 14.7251 5.645C14.5251 5.235 14.2451 4.91 13.8851 4.67C13.5251 4.43 13.1101 4.31 12.6401 4.31C12.1801 4.31 11.7701 4.43 11.4101 4.67C11.0601 4.91 10.7801 5.235 10.5701 5.645C10.3701 6.055 10.2701 6.52 10.2701 7.04C10.2701 7.55 10.3701 8.015 10.5701 8.435C10.7801 8.845 11.0601 9.17 11.4101 9.41C11.7701 9.65 12.1801 9.77 12.6401 9.77ZM22.6165 2.93C23.3265 2.93 23.8765 3.08 24.2665 3.38C24.6565 3.67 24.9265 4.065 25.0765 4.565C25.2365 5.055 25.3165 5.605 25.3165 6.215V10.235C25.3165 10.455 25.2415 10.64 25.0915 10.79C24.9515 10.93 24.7765 11 24.5665 11C24.3465 11 24.1665 10.93 24.0265 10.79C23.8865 10.64 23.8165 10.455 23.8165 10.235V6.23C23.8165 5.87 23.7665 5.55 23.6665 5.27C23.5665 4.98 23.3915 4.75 23.1415 4.58C22.9015 4.4 22.5615 4.31 22.1215 4.31C21.7115 4.31 21.3515 4.4 21.0415 4.58C20.7315 4.75 20.4865 4.98 20.3065 5.27C20.1365 5.55 20.0515 5.87 20.0515 6.23V10.235C20.0515 10.455 19.9765 10.64 19.8265 10.79C19.6865 10.93 19.5115 11 19.3015 11C19.0815 11 18.9015 10.93 18.7615 10.79C18.6215 10.64 18.5515 10.455 18.5515 10.235V3.875C18.5515 3.655 18.6215 3.475 18.7615 3.335C18.9015 3.185 19.0815 3.11 19.3015 3.11C19.5115 3.11 19.6865 3.185 19.8265 3.335C19.9765 3.475 20.0515 3.655 20.0515 3.875V4.715L19.7815 4.865C19.8515 4.645 19.9715 4.425 20.1415 4.205C20.3215 3.975 20.5365 3.765 20.7865 3.575C21.0365 3.375 21.3165 3.22 21.6265 3.11C21.9365 2.99 22.2665 2.93 22.6165 2.93ZM27.2941 3.2H30.8191C31.0191 3.2 31.1841 3.27 31.3141 3.41C31.4541 3.54 31.5241 3.705 31.5241 3.905C31.5241 4.095 31.4541 4.255 31.3141 4.385C31.1841 4.515 31.0191 4.58 30.8191 4.58H27.2941C27.0941 4.58 26.9241 4.515 26.7841 4.385C26.6541 4.245 26.5891 4.08 26.5891 3.89C26.5891 3.69 26.6541 3.525 26.7841 3.395C26.9241 3.265 27.0941 3.2 27.2941 3.2ZM28.8691 1.25C29.0891 1.25 29.2691 1.325 29.4091 1.475C29.5491 1.615 29.6191 1.795 29.6191 2.015V8.975C29.6191 9.155 29.6491 9.3 29.7091 9.41C29.7691 9.52 29.8491 9.595 29.9491 9.635C30.0591 9.675 30.1691 9.695 30.2791 9.695C30.3891 9.695 30.4841 9.675 30.5641 9.635C30.6541 9.595 30.7591 9.575 30.8791 9.575C30.9991 9.575 31.1091 9.63 31.2091 9.74C31.3091 9.85 31.3591 10 31.3591 10.19C31.3591 10.43 31.2291 10.625 30.9691 10.775C30.7091 10.925 30.4291 11 30.1291 11C29.9591 11 29.7591 10.985 29.5291 10.955C29.2991 10.925 29.0741 10.85 28.8541 10.73C28.6441 10.61 28.4691 10.42 28.3291 10.16C28.1891 9.89 28.1191 9.515 28.1191 9.035V2.015C28.1191 1.795 28.1891 1.615 28.3291 1.475C28.4791 1.325 28.6591 1.25 28.8691 1.25ZM39.6503 2.99C39.8703 2.99 40.0503 3.065 40.1903 3.215C40.3303 3.355 40.4003 3.535 40.4003 3.755V10.235C40.4003 10.455 40.3303 10.64 40.1903 10.79C40.0503 10.93 39.8703 11 39.6503 11C39.4403 11 39.2603 10.93 39.1103 10.79C38.9703 10.64 38.9003 10.455 38.9003 10.235V9.155L39.2153 9.2C39.2153 9.38 39.1403 9.58 38.9903 9.8C38.8503 10.02 38.6553 10.235 38.4053 10.445C38.1553 10.645 37.8603 10.815 37.5203 10.955C37.1803 11.085 36.8153 11.15 36.4253 11.15C35.7353 11.15 35.1153 10.975 34.5653 10.625C34.0153 10.265 33.5803 9.775 33.2603 9.155C32.9403 8.535 32.7803 7.83 32.7803 7.04C32.7803 6.23 32.9403 5.52 33.2603 4.91C33.5803 4.29 34.0103 3.805 34.5503 3.455C35.1003 3.105 35.7103 2.93 36.3803 2.93C36.8103 2.93 37.2053 3 37.5653 3.14C37.9353 3.28 38.2553 3.46 38.5253 3.68C38.7953 3.9 39.0003 4.135 39.1403 4.385C39.2903 4.625 39.3653 4.855 39.3653 5.075L38.9003 5.12V3.755C38.9003 3.545 38.9703 3.365 39.1103 3.215C39.2603 3.065 39.4403 2.99 39.6503 2.99ZM36.5903 9.77C37.0603 9.77 37.4753 9.65 37.8353 9.41C38.1953 9.17 38.4753 8.845 38.6753 8.435C38.8753 8.015 38.9753 7.55 38.9753 7.04C38.9753 6.52 38.8753 6.055 38.6753 5.645C38.4753 5.235 38.1953 4.91 37.8353 4.67C37.4753 4.43 37.0603 4.31 36.5903 4.31C36.1303 4.31 35.7203 4.43 35.3603 4.67C35.0103 4.91 34.7303 5.235 34.5203 5.645C34.3203 6.055 34.2203 6.52 34.2203 7.04C34.2203 7.55 34.3203 8.015 34.5203 8.435C34.7303 8.845 35.0103 9.17 35.3603 9.41C35.7203 9.65 36.1303 9.77 36.5903 9.77ZM47.6365 11C47.3965 11 47.2015 10.93 47.0515 10.79C46.9115 10.64 46.8415 10.455 46.8415 10.235V1.265C46.8415 1.045 46.9165 0.865 47.0665 0.724999C47.2165 0.574999 47.3965 0.499999 47.6065 0.499999H52.6765C52.8965 0.499999 53.0765 0.569999 53.2165 0.709999C53.3665 0.849999 53.4415 1.025 53.4415 1.235C53.4415 1.425 53.3665 1.59 53.2165 1.73C53.0765 1.87 52.8965 1.94 52.6765 1.94H48.2965L48.4015 1.79V5.135L48.3115 4.955H52.0015C52.2215 4.955 52.4015 5.025 52.5415 5.165C52.6915 5.305 52.7665 5.48 52.7665 5.69C52.7665 5.88 52.6915 6.045 52.5415 6.185C52.4015 6.325 52.2215 6.395 52.0015 6.395H48.2815L48.4015 6.275V10.235C48.4015 10.455 48.3265 10.64 48.1765 10.79C48.0265 10.93 47.8465 11 47.6365 11ZM58.5839 11.15C57.7539 11.15 57.0339 10.98 56.4239 10.64C55.8139 10.29 55.3389 9.815 54.9989 9.215C54.6689 8.605 54.5039 7.91 54.5039 7.13C54.5039 6.25 54.6789 5.5 55.0289 4.88C55.3889 4.25 55.8539 3.77 56.4239 3.44C56.9939 3.1 57.5989 2.93 58.2389 2.93C58.7289 2.93 59.1939 3.03 59.6339 3.23C60.0739 3.42 60.4639 3.69 60.8039 4.04C61.1539 4.38 61.4289 4.785 61.6289 5.255C61.8289 5.715 61.9339 6.22 61.9439 6.77C61.9339 6.97 61.8539 7.135 61.7039 7.265C61.5539 7.395 61.3789 7.46 61.1789 7.46H55.3439L54.9839 6.185H60.6239L60.3389 6.455V6.08C60.3189 5.73 60.2039 5.425 59.9939 5.165C59.7839 4.895 59.5239 4.69 59.2139 4.55C58.9039 4.4 58.5789 4.325 58.2389 4.325C57.9389 4.325 57.6489 4.375 57.3689 4.475C57.0989 4.565 56.8539 4.715 56.6339 4.925C56.4239 5.135 56.2539 5.415 56.1239 5.765C56.0039 6.105 55.9439 6.53 55.9439 7.04C55.9439 7.59 56.0589 8.07 56.2889 8.48C56.5189 8.89 56.8289 9.21 57.2189 9.44C57.6089 9.66 58.0389 9.77 58.5089 9.77C58.8789 9.77 59.1839 9.735 59.4239 9.665C59.6639 9.585 59.8639 9.49 60.0239 9.38C60.1839 9.27 60.3239 9.165 60.4439 9.065C60.5939 8.975 60.7439 8.93 60.8939 8.93C61.0739 8.93 61.2239 8.995 61.3439 9.125C61.4639 9.245 61.5239 9.39 61.5239 9.56C61.5239 9.78 61.4139 9.98 61.1939 10.16C60.9239 10.42 60.5489 10.65 60.0689 10.85C59.5989 11.05 59.1039 11.15 58.5839 11.15Z" fill="#002A56"/>
</svg>
