<svg width="55" height="32" viewBox="0 0 55 32" fill="none" xmlns="http://www.w3.org/2000/svg">
<path d="M4.44488 12.15C3.72488 12.15 3.08488 12.05 2.52488 11.85C1.96488 11.65 1.42988 11.32 0.919883 10.86C0.809883 10.78 0.724883 10.685 0.664883 10.575C0.614883 10.455 0.589883 10.335 0.589883 10.215C0.589883 10.025 0.659883 9.855 0.799883 9.705C0.939883 9.555 1.11488 9.48 1.32488 9.48C1.48488 9.48 1.63488 9.535 1.77488 9.645C2.15488 9.995 2.54988 10.26 2.95988 10.44C3.37988 10.62 3.86988 10.71 4.42988 10.71C4.82988 10.71 5.19488 10.645 5.52488 10.515C5.86488 10.385 6.13488 10.21 6.33488 9.99C6.53488 9.77 6.63488 9.515 6.63488 9.225C6.63488 8.865 6.52988 8.57 6.31988 8.34C6.11988 8.1 5.82488 7.905 5.43488 7.755C5.05488 7.595 4.59488 7.46 4.05488 7.35C3.55488 7.26 3.10488 7.135 2.70488 6.975C2.31488 6.815 1.97988 6.615 1.69988 6.375C1.41988 6.125 1.20488 5.83 1.05488 5.49C0.904883 5.15 0.829883 4.755 0.829883 4.305C0.829883 3.695 0.989883 3.17 1.30988 2.73C1.62988 2.29 2.06488 1.95 2.61488 1.71C3.16488 1.47 3.78488 1.35 4.47488 1.35C5.10488 1.35 5.69488 1.45 6.24488 1.65C6.79488 1.84 7.23988 2.1 7.57988 2.43C7.81988 2.64 7.93988 2.865 7.93988 3.105C7.93988 3.285 7.86488 3.455 7.71488 3.615C7.57488 3.765 7.40988 3.84 7.21988 3.84C7.07988 3.84 6.95988 3.8 6.85988 3.72C6.69988 3.55 6.48488 3.4 6.21488 3.27C5.94488 3.13 5.65488 3.015 5.34488 2.925C5.04488 2.835 4.75488 2.79 4.47488 2.79C4.02488 2.79 3.63988 2.855 3.31988 2.985C2.99988 3.105 2.75488 3.275 2.58488 3.495C2.41488 3.705 2.32988 3.955 2.32988 4.245C2.32988 4.585 2.42488 4.865 2.61488 5.085C2.81488 5.305 3.08988 5.485 3.43988 5.625C3.78988 5.755 4.18988 5.875 4.63988 5.985C5.18988 6.105 5.67988 6.24 6.10988 6.39C6.54988 6.54 6.91988 6.735 7.21988 6.975C7.51988 7.205 7.74988 7.495 7.90988 7.845C8.06988 8.195 8.14988 8.63 8.14988 9.15C8.14988 9.75 7.97988 10.275 7.63988 10.725C7.29988 11.175 6.84988 11.525 6.28988 11.775C5.73988 12.025 5.12488 12.15 4.44488 12.15ZM16.2943 3.99C16.5143 3.99 16.6943 4.065 16.8343 4.215C16.9743 4.355 17.0443 4.535 17.0443 4.755V11.235C17.0443 11.455 16.9743 11.64 16.8343 11.79C16.6943 11.93 16.5143 12 16.2943 12C16.0843 12 15.9043 11.93 15.7543 11.79C15.6143 11.64 15.5443 11.455 15.5443 11.235V10.155L15.8593 10.2C15.8593 10.38 15.7843 10.58 15.6343 10.8C15.4943 11.02 15.2993 11.235 15.0493 11.445C14.7993 11.645 14.5043 11.815 14.1643 11.955C13.8243 12.085 13.4593 12.15 13.0693 12.15C12.3793 12.15 11.7593 11.975 11.2093 11.625C10.6593 11.265 10.2243 10.775 9.9043 10.155C9.5843 9.535 9.4243 8.83 9.4243 8.04C9.4243 7.23 9.5843 6.52 9.9043 5.91C10.2243 5.29 10.6543 4.805 11.1943 4.455C11.7443 4.105 12.3543 3.93 13.0243 3.93C13.4543 3.93 13.8493 4 14.2093 4.14C14.5793 4.28 14.8993 4.46 15.1693 4.68C15.4393 4.9 15.6443 5.135 15.7843 5.385C15.9343 5.625 16.0093 5.855 16.0093 6.075L15.5443 6.12V4.755C15.5443 4.545 15.6143 4.365 15.7543 4.215C15.9043 4.065 16.0843 3.99 16.2943 3.99ZM13.2343 10.77C13.7043 10.77 14.1193 10.65 14.4793 10.41C14.8393 10.17 15.1193 9.845 15.3193 9.435C15.5193 9.015 15.6193 8.55 15.6193 8.04C15.6193 7.52 15.5193 7.055 15.3193 6.645C15.1193 6.235 14.8393 5.91 14.4793 5.67C14.1193 5.43 13.7043 5.31 13.2343 5.31C12.7743 5.31 12.3643 5.43 12.0043 5.67C11.6543 5.91 11.3743 6.235 11.1643 6.645C10.9643 7.055 10.8643 7.52 10.8643 8.04C10.8643 8.55 10.9643 9.015 11.1643 9.435C11.3743 9.845 11.6543 10.17 12.0043 10.41C12.3643 10.65 12.7743 10.77 13.2343 10.77ZM24.8792 4.11C25.0892 4.11 25.2642 4.185 25.4042 4.335C25.5542 4.475 25.6292 4.655 25.6292 4.875V8.82C25.6292 9.86 25.3392 10.675 24.7592 11.265C24.1792 11.845 23.3592 12.135 22.2992 12.135C21.2492 12.135 20.4342 11.845 19.8542 11.265C19.2842 10.675 18.9992 9.86 18.9992 8.82V4.875C18.9992 4.655 19.0692 4.475 19.2092 4.335C19.3492 4.185 19.5292 4.11 19.7492 4.11C19.9592 4.11 20.1342 4.185 20.2742 4.335C20.4242 4.475 20.4992 4.655 20.4992 4.875V8.82C20.4992 9.47 20.6492 9.955 20.9492 10.275C21.2592 10.595 21.7092 10.755 22.2992 10.755C22.8992 10.755 23.3542 10.595 23.6642 10.275C23.9742 9.955 24.1292 9.47 24.1292 8.82V4.875C24.1292 4.655 24.1992 4.475 24.3392 4.335C24.4792 4.185 24.6592 4.11 24.8792 4.11ZM29.335 11.235C29.335 11.455 29.26 11.64 29.11 11.79C28.97 11.93 28.795 12 28.585 12C28.375 12 28.195 11.93 28.045 11.79C27.905 11.64 27.835 11.455 27.835 11.235V1.665C27.835 1.445 27.91 1.265 28.06 1.125C28.21 0.975 28.39 0.9 28.6 0.9C28.82 0.9 28.995 0.975 29.125 1.125C29.265 1.265 29.335 1.445 29.335 1.665V11.235ZM31.4186 4.2H34.9436C35.1436 4.2 35.3086 4.27 35.4386 4.41C35.5786 4.54 35.6486 4.705 35.6486 4.905C35.6486 5.095 35.5786 5.255 35.4386 5.385C35.3086 5.515 35.1436 5.58 34.9436 5.58H31.4186C31.2186 5.58 31.0486 5.515 30.9086 5.385C30.7786 5.245 30.7136 5.08 30.7136 4.89C30.7136 4.69 30.7786 4.525 30.9086 4.395C31.0486 4.265 31.2186 4.2 31.4186 4.2ZM32.9936 2.25C33.2136 2.25 33.3936 2.325 33.5336 2.475C33.6736 2.615 33.7436 2.795 33.7436 3.015V9.975C33.7436 10.155 33.7736 10.3 33.8336 10.41C33.8936 10.52 33.9736 10.595 34.0736 10.635C34.1836 10.675 34.2936 10.695 34.4036 10.695C34.5136 10.695 34.6086 10.675 34.6886 10.635C34.7786 10.595 34.8836 10.575 35.0036 10.575C35.1236 10.575 35.2336 10.63 35.3336 10.74C35.4336 10.85 35.4836 11 35.4836 11.19C35.4836 11.43 35.3536 11.625 35.0936 11.775C34.8336 11.925 34.5536 12 34.2536 12C34.0836 12 33.8836 11.985 33.6536 11.955C33.4236 11.925 33.1986 11.85 32.9786 11.73C32.7686 11.61 32.5936 11.42 32.4536 11.16C32.3136 10.89 32.2436 10.515 32.2436 10.035V3.015C32.2436 2.795 32.3136 2.615 32.4536 2.475C32.6036 2.325 32.7836 2.25 32.9936 2.25ZM44.8746 12.15C44.1546 12.15 43.5146 12.05 42.9546 11.85C42.3946 11.65 41.8596 11.32 41.3496 10.86C41.2396 10.78 41.1546 10.685 41.0946 10.575C41.0446 10.455 41.0196 10.335 41.0196 10.215C41.0196 10.025 41.0896 9.855 41.2296 9.705C41.3696 9.555 41.5446 9.48 41.7546 9.48C41.9146 9.48 42.0646 9.535 42.2046 9.645C42.5846 9.995 42.9796 10.26 43.3896 10.44C43.8096 10.62 44.2996 10.71 44.8596 10.71C45.2596 10.71 45.6246 10.645 45.9546 10.515C46.2946 10.385 46.5646 10.21 46.7646 9.99C46.9646 9.77 47.0646 9.515 47.0646 9.225C47.0646 8.865 46.9596 8.57 46.7496 8.34C46.5496 8.1 46.2546 7.905 45.8646 7.755C45.4846 7.595 45.0246 7.46 44.4846 7.35C43.9846 7.26 43.5346 7.135 43.1346 6.975C42.7446 6.815 42.4096 6.615 42.1296 6.375C41.8496 6.125 41.6346 5.83 41.4846 5.49C41.3346 5.15 41.2596 4.755 41.2596 4.305C41.2596 3.695 41.4196 3.17 41.7396 2.73C42.0596 2.29 42.4946 1.95 43.0446 1.71C43.5946 1.47 44.2146 1.35 44.9046 1.35C45.5346 1.35 46.1246 1.45 46.6746 1.65C47.2246 1.84 47.6696 2.1 48.0096 2.43C48.2496 2.64 48.3696 2.865 48.3696 3.105C48.3696 3.285 48.2946 3.455 48.1446 3.615C48.0046 3.765 47.8396 3.84 47.6496 3.84C47.5096 3.84 47.3896 3.8 47.2896 3.72C47.1296 3.55 46.9146 3.4 46.6446 3.27C46.3746 3.13 46.0846 3.015 45.7746 2.925C45.4746 2.835 45.1846 2.79 44.9046 2.79C44.4546 2.79 44.0696 2.855 43.7496 2.985C43.4296 3.105 43.1846 3.275 43.0146 3.495C42.8446 3.705 42.7596 3.955 42.7596 4.245C42.7596 4.585 42.8546 4.865 43.0446 5.085C43.2446 5.305 43.5196 5.485 43.8696 5.625C44.2196 5.755 44.6196 5.875 45.0696 5.985C45.6196 6.105 46.1096 6.24 46.5396 6.39C46.9796 6.54 47.3496 6.735 47.6496 6.975C47.9496 7.205 48.1796 7.495 48.3396 7.845C48.4996 8.195 48.5796 8.63 48.5796 9.15C48.5796 9.75 48.4096 10.275 48.0696 10.725C47.7296 11.175 47.2796 11.525 46.7196 11.775C46.1696 12.025 45.5546 12.15 44.8746 12.15ZM50.154 4.2H53.679C53.879 4.2 54.044 4.27 54.174 4.41C54.314 4.54 54.384 4.705 54.384 4.905C54.384 5.095 54.314 5.255 54.174 5.385C54.044 5.515 53.879 5.58 53.679 5.58H50.154C49.954 5.58 49.784 5.515 49.644 5.385C49.514 5.245 49.449 5.08 49.449 4.89C49.449 4.69 49.514 4.525 49.644 4.395C49.784 4.265 49.954 4.2 50.154 4.2ZM51.729 2.25C51.949 2.25 52.129 2.325 52.269 2.475C52.409 2.615 52.479 2.795 52.479 3.015V9.975C52.479 10.155 52.509 10.3 52.569 10.41C52.629 10.52 52.709 10.595 52.809 10.635C52.919 10.675 53.029 10.695 53.139 10.695C53.249 10.695 53.344 10.675 53.424 10.635C53.514 10.595 53.619 10.575 53.739 10.575C53.859 10.575 53.969 10.63 54.069 10.74C54.169 10.85 54.219 11 54.219 11.19C54.219 11.43 54.089 11.625 53.829 11.775C53.569 11.925 53.289 12 52.989 12C52.819 12 52.619 11.985 52.389 11.955C52.159 11.925 51.934 11.85 51.714 11.73C51.504 11.61 51.329 11.42 51.189 11.16C51.049 10.89 50.979 10.515 50.979 10.035V3.015C50.979 2.795 51.049 2.615 51.189 2.475C51.339 2.325 51.519 2.25 51.729 2.25ZM9.45594 20.485C9.57594 20.485 9.70094 20.515 9.83094 20.575C9.96094 20.635 10.0609 20.72 10.1309 20.83L13.9409 26.635L13.2959 26.605L17.1809 20.83C17.3409 20.6 17.5459 20.485 17.7959 20.485C17.9959 20.485 18.1709 20.56 18.3209 20.71C18.4809 20.85 18.5609 21.03 18.5609 21.25V30.235C18.5609 30.455 18.4909 30.64 18.3509 30.79C18.2109 30.93 18.0259 31 17.7959 31C17.5559 31 17.3609 30.93 17.2109 30.79C17.0709 30.64 17.0009 30.455 17.0009 30.235V22.63L17.4809 22.735L14.1809 27.76C14.1109 27.85 14.0209 27.93 13.9109 28C13.8009 28.06 13.6859 28.085 13.5659 28.075C13.4559 28.085 13.3409 28.06 13.2209 28C13.1109 27.93 13.0209 27.85 12.9509 27.76L9.77094 22.81L10.1309 22.21V30.235C10.1309 30.455 10.0609 30.64 9.92094 30.79C9.79094 30.93 9.61594 31 9.39594 31C9.18594 31 9.01094 30.93 8.87094 30.79C8.74094 30.64 8.67594 30.455 8.67594 30.235V21.25C8.67594 21.04 8.75094 20.86 8.90094 20.71C9.06094 20.56 9.24594 20.485 9.45594 20.485ZM27.3099 22.99C27.5299 22.99 27.7099 23.065 27.8499 23.215C27.9899 23.355 28.0599 23.535 28.0599 23.755V30.235C28.0599 30.455 27.9899 30.64 27.8499 30.79C27.7099 30.93 27.5299 31 27.3099 31C27.0999 31 26.9199 30.93 26.7699 30.79C26.6299 30.64 26.5599 30.455 26.5599 30.235V29.155L26.8749 29.2C26.8749 29.38 26.7999 29.58 26.6499 29.8C26.5099 30.02 26.3149 30.235 26.0649 30.445C25.8149 30.645 25.5199 30.815 25.1799 30.955C24.8399 31.085 24.4749 31.15 24.0849 31.15C23.3949 31.15 22.7749 30.975 22.2249 30.625C21.6749 30.265 21.2399 29.775 20.9199 29.155C20.5999 28.535 20.4399 27.83 20.4399 27.04C20.4399 26.23 20.5999 25.52 20.9199 24.91C21.2399 24.29 21.6699 23.805 22.2099 23.455C22.7599 23.105 23.3699 22.93 24.0399 22.93C24.4699 22.93 24.8649 23 25.2249 23.14C25.5949 23.28 25.9149 23.46 26.1849 23.68C26.4549 23.9 26.6599 24.135 26.7999 24.385C26.9499 24.625 27.0249 24.855 27.0249 25.075L26.5599 25.12V23.755C26.5599 23.545 26.6299 23.365 26.7699 23.215C26.9199 23.065 27.0999 22.99 27.3099 22.99ZM24.2499 29.77C24.7199 29.77 25.1349 29.65 25.4949 29.41C25.8549 29.17 26.1349 28.845 26.3349 28.435C26.5349 28.015 26.6349 27.55 26.6349 27.04C26.6349 26.52 26.5349 26.055 26.3349 25.645C26.1349 25.235 25.8549 24.91 25.4949 24.67C25.1349 24.43 24.7199 24.31 24.2499 24.31C23.7899 24.31 23.3799 24.43 23.0199 24.67C22.6699 24.91 22.3899 25.235 22.1799 25.645C21.9799 26.055 21.8799 26.52 21.8799 27.04C21.8799 27.55 21.9799 28.015 22.1799 28.435C22.3899 28.845 22.6699 29.17 23.0199 29.41C23.3799 29.65 23.7899 29.77 24.2499 29.77ZM30.9113 31C30.6913 31 30.5113 30.93 30.3713 30.79C30.2313 30.64 30.1613 30.455 30.1613 30.235V23.875C30.1613 23.655 30.2313 23.475 30.3713 23.335C30.5113 23.185 30.6913 23.11 30.9113 23.11C31.1213 23.11 31.2963 23.185 31.4363 23.335C31.5863 23.475 31.6613 23.655 31.6613 23.875V25.555L31.5113 24.91C31.5913 24.63 31.7113 24.37 31.8713 24.13C32.0413 23.89 32.2413 23.68 32.4713 23.5C32.7013 23.32 32.9563 23.18 33.2363 23.08C33.5263 22.98 33.8263 22.93 34.1363 22.93C34.3963 22.93 34.6213 23 34.8113 23.14C35.0013 23.28 35.0963 23.455 35.0963 23.665C35.0963 23.935 35.0263 24.135 34.8863 24.265C34.7463 24.385 34.5913 24.445 34.4213 24.445C34.2713 24.445 34.1263 24.415 33.9863 24.355C33.8463 24.285 33.6813 24.25 33.4913 24.25C33.2813 24.25 33.0663 24.305 32.8463 24.415C32.6263 24.525 32.4263 24.69 32.2463 24.91C32.0663 25.12 31.9213 25.37 31.8113 25.66C31.7113 25.95 31.6613 26.275 31.6613 26.635V30.235C31.6613 30.455 31.5863 30.64 31.4363 30.79C31.2963 30.93 31.1213 31 30.9113 31ZM37.8409 30.235C37.8409 30.455 37.7709 30.64 37.6309 30.79C37.4909 30.93 37.3109 31 37.0909 31C36.8809 31 36.7009 30.93 36.5509 30.79C36.4109 30.64 36.3409 30.455 36.3409 30.235V23.815C36.3409 23.595 36.4109 23.415 36.5509 23.275C36.7009 23.125 36.8809 23.05 37.0909 23.05C37.3109 23.05 37.4909 23.125 37.6309 23.275C37.7709 23.415 37.8409 23.595 37.8409 23.815V30.235ZM37.0759 22.06C36.7859 22.06 36.5759 22.01 36.4459 21.91C36.3159 21.8 36.2509 21.62 36.2509 21.37V21.13C36.2509 20.88 36.3209 20.705 36.4609 20.605C36.6009 20.505 36.8109 20.455 37.0909 20.455C37.3909 20.455 37.6059 20.51 37.7359 20.62C37.8659 20.72 37.9309 20.89 37.9309 21.13V21.37C37.9309 21.63 37.8609 21.81 37.7209 21.91C37.5909 22.01 37.3759 22.06 37.0759 22.06ZM43.5336 31.15C42.7036 31.15 41.9836 30.98 41.3736 30.64C40.7636 30.29 40.2886 29.815 39.9486 29.215C39.6186 28.605 39.4536 27.91 39.4536 27.13C39.4536 26.25 39.6286 25.5 39.9786 24.88C40.3386 24.25 40.8036 23.77 41.3736 23.44C41.9436 23.1 42.5486 22.93 43.1886 22.93C43.6786 22.93 44.1436 23.03 44.5836 23.23C45.0236 23.42 45.4136 23.69 45.7536 24.04C46.1036 24.38 46.3786 24.785 46.5786 25.255C46.7786 25.715 46.8836 26.22 46.8936 26.77C46.8836 26.97 46.8036 27.135 46.6536 27.265C46.5036 27.395 46.3286 27.46 46.1286 27.46H40.2936L39.9336 26.185H45.5736L45.2886 26.455V26.08C45.2686 25.73 45.1536 25.425 44.9436 25.165C44.7336 24.895 44.4736 24.69 44.1636 24.55C43.8536 24.4 43.5286 24.325 43.1886 24.325C42.8886 24.325 42.5986 24.375 42.3186 24.475C42.0486 24.565 41.8036 24.715 41.5836 24.925C41.3736 25.135 41.2036 25.415 41.0736 25.765C40.9536 26.105 40.8936 26.53 40.8936 27.04C40.8936 27.59 41.0086 28.07 41.2386 28.48C41.4686 28.89 41.7786 29.21 42.1686 29.44C42.5586 29.66 42.9886 29.77 43.4586 29.77C43.8286 29.77 44.1336 29.735 44.3736 29.665C44.6136 29.585 44.8136 29.49 44.9736 29.38C45.1336 29.27 45.2736 29.165 45.3936 29.065C45.5436 28.975 45.6936 28.93 45.8436 28.93C46.0236 28.93 46.1736 28.995 46.2936 29.125C46.4136 29.245 46.4736 29.39 46.4736 29.56C46.4736 29.78 46.3636 29.98 46.1436 30.16C45.8736 30.42 45.4986 30.65 45.0186 30.85C44.5486 31.05 44.0536 31.15 43.5336 31.15Z" fill="#002A56"/>
</svg>
