<svg width="51" height="13" viewBox="0 0 51 13" fill="none" xmlns="http://www.w3.org/2000/svg">
<path d="M4.49566 12.15C3.77566 12.15 3.13566 12.05 2.57566 11.85C2.01566 11.65 1.48066 11.32 0.970664 10.86C0.860664 10.78 0.775664 10.685 0.715664 10.575C0.665664 10.455 0.640664 10.335 0.640664 10.215C0.640664 10.025 0.710664 9.855 0.850664 9.705C0.990664 9.555 1.16566 9.48 1.37566 9.48C1.53566 9.48 1.68566 9.535 1.82566 9.645C2.20566 9.995 2.60066 10.26 3.01066 10.44C3.43066 10.62 3.92066 10.71 4.48066 10.71C4.88066 10.71 5.24566 10.645 5.57566 10.515C5.91566 10.385 6.18566 10.21 6.38566 9.99C6.58566 9.77 6.68566 9.515 6.68566 9.225C6.68566 8.865 6.58066 8.57 6.37066 8.34C6.17066 8.1 5.87566 7.905 5.48566 7.755C5.10566 7.595 4.64566 7.46 4.10566 7.35C3.60566 7.26 3.15566 7.135 2.75566 6.975C2.36566 6.815 2.03066 6.615 1.75066 6.375C1.47066 6.125 1.25566 5.83 1.10566 5.49C0.955664 5.15 0.880664 4.755 0.880664 4.305C0.880664 3.695 1.04066 3.17 1.36066 2.73C1.68066 2.29 2.11566 1.95 2.66566 1.71C3.21566 1.47 3.83566 1.35 4.52566 1.35C5.15566 1.35 5.74566 1.45 6.29566 1.65C6.84566 1.84 7.29066 2.1 7.63066 2.43C7.87066 2.64 7.99066 2.865 7.99066 3.105C7.99066 3.285 7.91566 3.455 7.76566 3.615C7.62566 3.765 7.46066 3.84 7.27066 3.84C7.13066 3.84 7.01066 3.8 6.91066 3.72C6.75066 3.55 6.53566 3.4 6.26566 3.27C5.99566 3.13 5.70566 3.015 5.39566 2.925C5.09566 2.835 4.80566 2.79 4.52566 2.79C4.07566 2.79 3.69066 2.855 3.37066 2.985C3.05066 3.105 2.80566 3.275 2.63566 3.495C2.46566 3.705 2.38066 3.955 2.38066 4.245C2.38066 4.585 2.47566 4.865 2.66566 5.085C2.86566 5.305 3.14066 5.485 3.49066 5.625C3.84066 5.755 4.24066 5.875 4.69066 5.985C5.24066 6.105 5.73066 6.24 6.16066 6.39C6.60066 6.54 6.97066 6.735 7.27066 6.975C7.57066 7.205 7.80066 7.495 7.96066 7.845C8.12066 8.195 8.20066 8.63 8.20066 9.15C8.20066 9.75 8.03066 10.275 7.69066 10.725C7.35066 11.175 6.90066 11.525 6.34066 11.775C5.79066 12.025 5.17566 12.15 4.49566 12.15ZM13.5551 12.15C12.7251 12.15 12.0051 11.98 11.3951 11.64C10.7851 11.29 10.3101 10.815 9.97008 10.215C9.64008 9.605 9.47508 8.91 9.47508 8.13C9.47508 7.25 9.65008 6.5 10.0001 5.88C10.3601 5.25 10.8251 4.77 11.3951 4.44C11.9651 4.1 12.5701 3.93 13.2101 3.93C13.7001 3.93 14.1651 4.03 14.6051 4.23C15.0451 4.42 15.4351 4.69 15.7751 5.04C16.1251 5.38 16.4001 5.785 16.6001 6.255C16.8001 6.715 16.9051 7.22 16.9151 7.77C16.9051 7.97 16.8251 8.135 16.6751 8.265C16.5251 8.395 16.3501 8.46 16.1501 8.46H10.3151L9.95508 7.185H15.5951L15.3101 7.455V7.08C15.2901 6.73 15.1751 6.425 14.9651 6.165C14.7551 5.895 14.4951 5.69 14.1851 5.55C13.8751 5.4 13.5501 5.325 13.2101 5.325C12.9101 5.325 12.6201 5.375 12.3401 5.475C12.0701 5.565 11.8251 5.715 11.6051 5.925C11.3951 6.135 11.2251 6.415 11.0951 6.765C10.9751 7.105 10.9151 7.53 10.9151 8.04C10.9151 8.59 11.0301 9.07 11.2601 9.48C11.4901 9.89 11.8001 10.21 12.1901 10.44C12.5801 10.66 13.0101 10.77 13.4801 10.77C13.8501 10.77 14.1551 10.735 14.3951 10.665C14.6351 10.585 14.8351 10.49 14.9951 10.38C15.1551 10.27 15.2951 10.165 15.4151 10.065C15.5651 9.975 15.7151 9.93 15.8651 9.93C16.0451 9.93 16.1951 9.995 16.3151 10.125C16.4351 10.245 16.4951 10.39 16.4951 10.56C16.4951 10.78 16.3851 10.98 16.1651 11.16C15.8951 11.42 15.5201 11.65 15.0401 11.85C14.5701 12.05 14.0751 12.15 13.5551 12.15ZM25.1341 3.99C25.3541 3.99 25.5341 4.065 25.6741 4.215C25.8141 4.355 25.8841 4.535 25.8841 4.755V11.235C25.8841 11.455 25.8141 11.64 25.6741 11.79C25.5341 11.93 25.3541 12 25.1341 12C24.9241 12 24.7441 11.93 24.5941 11.79C24.4541 11.64 24.3841 11.455 24.3841 11.235V10.155L24.6991 10.2C24.6991 10.38 24.6241 10.58 24.4741 10.8C24.3341 11.02 24.1391 11.235 23.8891 11.445C23.6391 11.645 23.3441 11.815 23.0041 11.955C22.6641 12.085 22.2991 12.15 21.9091 12.15C21.2191 12.15 20.5991 11.975 20.0491 11.625C19.4991 11.265 19.0641 10.775 18.7441 10.155C18.4241 9.535 18.2641 8.83 18.2641 8.04C18.2641 7.23 18.4241 6.52 18.7441 5.91C19.0641 5.29 19.4941 4.805 20.0341 4.455C20.5841 4.105 21.1941 3.93 21.8641 3.93C22.2941 3.93 22.6891 4 23.0491 4.14C23.4191 4.28 23.7391 4.46 24.0091 4.68C24.2791 4.9 24.4841 5.135 24.6241 5.385C24.7741 5.625 24.8491 5.855 24.8491 6.075L24.3841 6.12V4.755C24.3841 4.545 24.4541 4.365 24.5941 4.215C24.7441 4.065 24.9241 3.99 25.1341 3.99ZM22.0741 10.77C22.5441 10.77 22.9591 10.65 23.3191 10.41C23.6791 10.17 23.9591 9.845 24.1591 9.435C24.3591 9.015 24.4591 8.55 24.4591 8.04C24.4591 7.52 24.3591 7.055 24.1591 6.645C23.9591 6.235 23.6791 5.91 23.3191 5.67C22.9591 5.43 22.5441 5.31 22.0741 5.31C21.6141 5.31 21.2041 5.43 20.8441 5.67C20.4941 5.91 20.2141 6.235 20.0041 6.645C19.8041 7.055 19.7041 7.52 19.7041 8.04C19.7041 8.55 19.8041 9.015 20.0041 9.435C20.2141 9.845 20.4941 10.17 20.8441 10.41C21.2041 10.65 21.6141 10.77 22.0741 10.77ZM27.8805 4.2H31.4055C31.6055 4.2 31.7705 4.27 31.9005 4.41C32.0405 4.54 32.1105 4.705 32.1105 4.905C32.1105 5.095 32.0405 5.255 31.9005 5.385C31.7705 5.515 31.6055 5.58 31.4055 5.58H27.8805C27.6805 5.58 27.5105 5.515 27.3705 5.385C27.2405 5.245 27.1755 5.08 27.1755 4.89C27.1755 4.69 27.2405 4.525 27.3705 4.395C27.5105 4.265 27.6805 4.2 27.8805 4.2ZM29.4555 2.25C29.6755 2.25 29.8555 2.325 29.9955 2.475C30.1355 2.615 30.2055 2.795 30.2055 3.015V9.975C30.2055 10.155 30.2355 10.3 30.2955 10.41C30.3555 10.52 30.4355 10.595 30.5355 10.635C30.6455 10.675 30.7555 10.695 30.8655 10.695C30.9755 10.695 31.0705 10.675 31.1505 10.635C31.2405 10.595 31.3455 10.575 31.4655 10.575C31.5855 10.575 31.6955 10.63 31.7955 10.74C31.8955 10.85 31.9455 11 31.9455 11.19C31.9455 11.43 31.8155 11.625 31.5555 11.775C31.2955 11.925 31.0155 12 30.7155 12C30.5455 12 30.3455 11.985 30.1155 11.955C29.8855 11.925 29.6605 11.85 29.4405 11.73C29.2305 11.61 29.0555 11.42 28.9155 11.16C28.7755 10.89 28.7055 10.515 28.7055 10.035V3.015C28.7055 2.795 28.7755 2.615 28.9155 2.475C29.0655 2.325 29.2455 2.25 29.4555 2.25ZM33.6667 4.2H37.1917C37.3917 4.2 37.5567 4.27 37.6867 4.41C37.8267 4.54 37.8967 4.705 37.8967 4.905C37.8967 5.095 37.8267 5.255 37.6867 5.385C37.5567 5.515 37.3917 5.58 37.1917 5.58H33.6667C33.4667 5.58 33.2967 5.515 33.1567 5.385C33.0267 5.245 32.9617 5.08 32.9617 4.89C32.9617 4.69 33.0267 4.525 33.1567 4.395C33.2967 4.265 33.4667 4.2 33.6667 4.2ZM35.2417 2.25C35.4617 2.25 35.6417 2.325 35.7817 2.475C35.9217 2.615 35.9917 2.795 35.9917 3.015V9.975C35.9917 10.155 36.0217 10.3 36.0817 10.41C36.1417 10.52 36.2217 10.595 36.3217 10.635C36.4317 10.675 36.5417 10.695 36.6517 10.695C36.7617 10.695 36.8567 10.675 36.9367 10.635C37.0267 10.595 37.1317 10.575 37.2517 10.575C37.3717 10.575 37.4817 10.63 37.5817 10.74C37.6817 10.85 37.7317 11 37.7317 11.19C37.7317 11.43 37.6017 11.625 37.3417 11.775C37.0817 11.925 36.8017 12 36.5017 12C36.3317 12 36.1317 11.985 35.9017 11.955C35.6717 11.925 35.4467 11.85 35.2267 11.73C35.0167 11.61 34.8417 11.42 34.7017 11.16C34.5617 10.89 34.4917 10.515 34.4917 10.035V3.015C34.4917 2.795 34.5617 2.615 34.7017 2.475C34.8517 2.325 35.0317 2.25 35.2417 2.25ZM41.1778 11.235C41.1778 11.455 41.1028 11.64 40.9528 11.79C40.8128 11.93 40.6378 12 40.4278 12C40.2178 12 40.0378 11.93 39.8878 11.79C39.7478 11.64 39.6778 11.455 39.6778 11.235V1.665C39.6778 1.445 39.7528 1.265 39.9028 1.125C40.0528 0.975 40.2328 0.9 40.4428 0.9C40.6628 0.9 40.8378 0.975 40.9678 1.125C41.1078 1.265 41.1778 1.445 41.1778 1.665V11.235ZM46.9389 12.15C46.1089 12.15 45.3889 11.98 44.7789 11.64C44.1689 11.29 43.6939 10.815 43.3539 10.215C43.0239 9.605 42.8589 8.91 42.8589 8.13C42.8589 7.25 43.0339 6.5 43.3839 5.88C43.7439 5.25 44.2089 4.77 44.7789 4.44C45.3489 4.1 45.9539 3.93 46.5939 3.93C47.0839 3.93 47.5489 4.03 47.9889 4.23C48.4289 4.42 48.8189 4.69 49.1589 5.04C49.5089 5.38 49.7839 5.785 49.9839 6.255C50.1839 6.715 50.2889 7.22 50.2989 7.77C50.2889 7.97 50.2089 8.135 50.0589 8.265C49.9089 8.395 49.7339 8.46 49.5339 8.46H43.6989L43.3389 7.185H48.9789L48.6939 7.455V7.08C48.6739 6.73 48.5589 6.425 48.3489 6.165C48.1389 5.895 47.8789 5.69 47.5689 5.55C47.2589 5.4 46.9339 5.325 46.5939 5.325C46.2939 5.325 46.0039 5.375 45.7239 5.475C45.4539 5.565 45.2089 5.715 44.9889 5.925C44.7789 6.135 44.6089 6.415 44.4789 6.765C44.3589 7.105 44.2989 7.53 44.2989 8.04C44.2989 8.59 44.4139 9.07 44.6439 9.48C44.8739 9.89 45.1839 10.21 45.5739 10.44C45.9639 10.66 46.3939 10.77 46.8639 10.77C47.2339 10.77 47.5389 10.735 47.7789 10.665C48.0189 10.585 48.2189 10.49 48.3789 10.38C48.5389 10.27 48.6789 10.165 48.7989 10.065C48.9489 9.975 49.0989 9.93 49.2489 9.93C49.4289 9.93 49.5789 9.995 49.6989 10.125C49.8189 10.245 49.8789 10.39 49.8789 10.56C49.8789 10.78 49.7689 10.98 49.5489 11.16C49.2789 11.42 48.9039 11.65 48.4239 11.85C47.9539 12.05 47.4589 12.15 46.9389 12.15Z" fill="#002A56"/>
</svg>
