<svg width="56" height="12" viewBox="0 0 56 12" fill="none" xmlns="http://www.w3.org/2000/svg">
<path d="M4.75902 11C4.51902 11 4.32402 10.93 4.17402 10.79C4.03402 10.64 3.96402 10.455 3.96402 10.235V1.25H5.56902V10.235C5.56902 10.455 5.48902 10.64 5.32902 10.79C5.17902 10.93 4.98902 11 4.75902 11ZM1.35402 1.94C1.14402 1.94 0.964024 1.875 0.814023 1.745C0.664023 1.605 0.589023 1.425 0.589023 1.205C0.589023 0.994999 0.664023 0.825 0.814023 0.694999C0.964024 0.564999 1.14402 0.499999 1.35402 0.499999H8.17902C8.38902 0.499999 8.56402 0.569999 8.70402 0.709999C8.85402 0.839999 8.92902 1.01 8.92902 1.22C8.92902 1.44 8.85402 1.615 8.70402 1.745C8.56402 1.875 8.38902 1.94 8.17902 1.94H1.35402ZM16.2194 7.055C16.2194 7.855 16.0444 8.565 15.6944 9.185C15.3444 9.795 14.8694 10.275 14.2694 10.625C13.6694 10.975 12.9944 11.15 12.2444 11.15C11.4944 11.15 10.8194 10.975 10.2194 10.625C9.61938 10.275 9.13938 9.795 8.77938 9.185C8.42938 8.565 8.25438 7.855 8.25438 7.055C8.25438 6.245 8.42938 5.535 8.77938 4.925C9.13938 4.305 9.61938 3.82 10.2194 3.47C10.8194 3.11 11.4944 2.93 12.2444 2.93C12.9944 2.93 13.6694 3.11 14.2694 3.47C14.8694 3.82 15.3444 4.305 15.6944 4.925C16.0444 5.535 16.2194 6.245 16.2194 7.055ZM14.7194 7.055C14.7194 6.505 14.6094 6.03 14.3894 5.63C14.1694 5.22 13.8694 4.9 13.4894 4.67C13.1194 4.43 12.7044 4.31 12.2444 4.31C11.7844 4.31 11.3644 4.43 10.9844 4.67C10.6044 4.9 10.3044 5.22 10.0844 5.63C9.86438 6.03 9.75438 6.505 9.75438 7.055C9.75438 7.585 9.86438 8.055 10.0844 8.465C10.3044 8.875 10.6044 9.195 10.9844 9.425C11.3644 9.655 11.7844 9.77 12.2444 9.77C12.7044 9.77 13.1194 9.655 13.4894 9.425C13.8694 9.195 14.1694 8.875 14.3894 8.465C14.6094 8.055 14.7194 7.585 14.7194 7.055ZM18.6672 11C18.4472 11 18.2672 10.93 18.1272 10.79C17.9872 10.64 17.9172 10.455 17.9172 10.235V3.875C17.9172 3.655 17.9872 3.475 18.1272 3.335C18.2672 3.185 18.4472 3.11 18.6672 3.11C18.8772 3.11 19.0522 3.185 19.1922 3.335C19.3422 3.475 19.4172 3.655 19.4172 3.875V5.555L19.2672 4.91C19.3472 4.63 19.4672 4.37 19.6272 4.13C19.7972 3.89 19.9972 3.68 20.2272 3.5C20.4572 3.32 20.7122 3.18 20.9922 3.08C21.2822 2.98 21.5822 2.93 21.8922 2.93C22.1522 2.93 22.3772 3 22.5672 3.14C22.7572 3.28 22.8522 3.455 22.8522 3.665C22.8522 3.935 22.7822 4.135 22.6422 4.265C22.5022 4.385 22.3472 4.445 22.1772 4.445C22.0272 4.445 21.8822 4.415 21.7422 4.355C21.6022 4.285 21.4372 4.25 21.2472 4.25C21.0372 4.25 20.8222 4.305 20.6022 4.415C20.3822 4.525 20.1822 4.69 20.0022 4.91C19.8222 5.12 19.6772 5.37 19.5672 5.66C19.4672 5.95 19.4172 6.275 19.4172 6.635V10.235C19.4172 10.455 19.3422 10.64 19.1922 10.79C19.0522 10.93 18.8772 11 18.6672 11ZM31.4098 7.055C31.4098 7.855 31.2348 8.565 30.8848 9.185C30.5348 9.795 30.0598 10.275 29.4598 10.625C28.8598 10.975 28.1848 11.15 27.4348 11.15C26.6848 11.15 26.0098 10.975 25.4098 10.625C24.8098 10.275 24.3298 9.795 23.9698 9.185C23.6198 8.565 23.4448 7.855 23.4448 7.055C23.4448 6.245 23.6198 5.535 23.9698 4.925C24.3298 4.305 24.8098 3.82 25.4098 3.47C26.0098 3.11 26.6848 2.93 27.4348 2.93C28.1848 2.93 28.8598 3.11 29.4598 3.47C30.0598 3.82 30.5348 4.305 30.8848 4.925C31.2348 5.535 31.4098 6.245 31.4098 7.055ZM29.9098 7.055C29.9098 6.505 29.7998 6.03 29.5798 5.63C29.3598 5.22 29.0598 4.9 28.6798 4.67C28.3098 4.43 27.8948 4.31 27.4348 4.31C26.9748 4.31 26.5548 4.43 26.1748 4.67C25.7948 4.9 25.4948 5.22 25.2748 5.63C25.0548 6.03 24.9448 6.505 24.9448 7.055C24.9448 7.585 25.0548 8.055 25.2748 8.465C25.4948 8.875 25.7948 9.195 26.1748 9.425C26.5548 9.655 26.9748 9.77 27.4348 9.77C27.8948 9.77 28.3098 9.655 28.6798 9.425C29.0598 9.195 29.3598 8.875 29.5798 8.465C29.7998 8.055 29.9098 7.585 29.9098 7.055ZM37.1726 2.93C37.8826 2.93 38.4326 3.08 38.8226 3.38C39.2126 3.67 39.4826 4.065 39.6326 4.565C39.7926 5.055 39.8726 5.605 39.8726 6.215V10.235C39.8726 10.455 39.7976 10.64 39.6476 10.79C39.5076 10.93 39.3326 11 39.1226 11C38.9026 11 38.7226 10.93 38.5826 10.79C38.4426 10.64 38.3726 10.455 38.3726 10.235V6.23C38.3726 5.87 38.3226 5.55 38.2226 5.27C38.1226 4.98 37.9476 4.75 37.6976 4.58C37.4576 4.4 37.1176 4.31 36.6776 4.31C36.2676 4.31 35.9076 4.4 35.5976 4.58C35.2876 4.75 35.0426 4.98 34.8626 5.27C34.6926 5.55 34.6076 5.87 34.6076 6.23V10.235C34.6076 10.455 34.5326 10.64 34.3826 10.79C34.2426 10.93 34.0676 11 33.8576 11C33.6376 11 33.4576 10.93 33.3176 10.79C33.1776 10.64 33.1076 10.455 33.1076 10.235V3.875C33.1076 3.655 33.1776 3.475 33.3176 3.335C33.4576 3.185 33.6376 3.11 33.8576 3.11C34.0676 3.11 34.2426 3.185 34.3826 3.335C34.5326 3.475 34.6076 3.655 34.6076 3.875V4.715L34.3376 4.865C34.4076 4.645 34.5276 4.425 34.6976 4.205C34.8776 3.975 35.0926 3.765 35.3426 3.575C35.5926 3.375 35.8726 3.22 36.1826 3.11C36.4926 2.99 36.8226 2.93 37.1726 2.93ZM41.8503 3.2H45.3753C45.5753 3.2 45.7403 3.27 45.8703 3.41C46.0103 3.54 46.0803 3.705 46.0803 3.905C46.0803 4.095 46.0103 4.255 45.8703 4.385C45.7403 4.515 45.5753 4.58 45.3753 4.58H41.8503C41.6503 4.58 41.4803 4.515 41.3403 4.385C41.2103 4.245 41.1453 4.08 41.1453 3.89C41.1453 3.69 41.2103 3.525 41.3403 3.395C41.4803 3.265 41.6503 3.2 41.8503 3.2ZM43.4253 1.25C43.6453 1.25 43.8253 1.325 43.9653 1.475C44.1053 1.615 44.1753 1.795 44.1753 2.015V8.975C44.1753 9.155 44.2053 9.3 44.2653 9.41C44.3253 9.52 44.4053 9.595 44.5053 9.635C44.6153 9.675 44.7253 9.695 44.8353 9.695C44.9453 9.695 45.0403 9.675 45.1203 9.635C45.2103 9.595 45.3153 9.575 45.4353 9.575C45.5553 9.575 45.6653 9.63 45.7653 9.74C45.8653 9.85 45.9153 10 45.9153 10.19C45.9153 10.43 45.7853 10.625 45.5253 10.775C45.2653 10.925 44.9853 11 44.6853 11C44.5153 11 44.3153 10.985 44.0853 10.955C43.8553 10.925 43.6303 10.85 43.4103 10.73C43.2003 10.61 43.0253 10.42 42.8853 10.16C42.7453 9.89 42.6753 9.515 42.6753 9.035V2.015C42.6753 1.795 42.7453 1.615 42.8853 1.475C43.0353 1.325 43.2153 1.25 43.4253 1.25ZM55.2282 7.055C55.2282 7.855 55.0532 8.565 54.7032 9.185C54.3532 9.795 53.8782 10.275 53.2782 10.625C52.6782 10.975 52.0032 11.15 51.2532 11.15C50.5032 11.15 49.8282 10.975 49.2282 10.625C48.6282 10.275 48.1482 9.795 47.7882 9.185C47.4382 8.565 47.2632 7.855 47.2632 7.055C47.2632 6.245 47.4382 5.535 47.7882 4.925C48.1482 4.305 48.6282 3.82 49.2282 3.47C49.8282 3.11 50.5032 2.93 51.2532 2.93C52.0032 2.93 52.6782 3.11 53.2782 3.47C53.8782 3.82 54.3532 4.305 54.7032 4.925C55.0532 5.535 55.2282 6.245 55.2282 7.055ZM53.7282 7.055C53.7282 6.505 53.6182 6.03 53.3982 5.63C53.1782 5.22 52.8782 4.9 52.4982 4.67C52.1282 4.43 51.7132 4.31 51.2532 4.31C50.7932 4.31 50.3732 4.43 49.9932 4.67C49.6132 4.9 49.3132 5.22 49.0932 5.63C48.8732 6.03 48.7632 6.505 48.7632 7.055C48.7632 7.585 48.8732 8.055 49.0932 8.465C49.3132 8.875 49.6132 9.195 49.9932 9.425C50.3732 9.655 50.7932 9.77 51.2532 9.77C51.7132 9.77 52.1282 9.655 52.4982 9.425C52.8782 9.195 53.1782 8.875 53.3982 8.465C53.6182 8.055 53.7282 7.585 53.7282 7.055Z" fill="#002A56"/>
</svg>
