<svg width="78" height="12" viewBox="0 0 78 12" fill="none" xmlns="http://www.w3.org/2000/svg">
<path d="M9.35426 0.47C9.56426 0.47 9.74426 0.54 9.89426 0.68C10.0443 0.82 10.1193 0.99 10.1193 1.19C10.1193 1.3 10.0943 1.415 10.0443 1.535L6.24926 10.505C6.16926 10.675 6.05926 10.8 5.91926 10.88C5.78926 10.96 5.65426 11 5.51426 11C5.37426 10.99 5.23926 10.945 5.10926 10.865C4.98926 10.785 4.89426 10.67 4.82426 10.52L1.02926 1.535C1.00926 1.485 0.994258 1.435 0.984258 1.385C0.974258 1.325 0.969258 1.265 0.969258 1.205C0.969258 0.974999 1.05426 0.794999 1.22426 0.665C1.39426 0.535 1.55926 0.47 1.71926 0.47C2.03926 0.47 2.27426 0.635 2.42426 0.965L5.85926 9.11H5.42426L8.66426 0.95C8.80426 0.63 9.03426 0.47 9.35426 0.47ZM17.9213 2.99C18.1413 2.99 18.3213 3.065 18.4613 3.215C18.6012 3.355 18.6712 3.535 18.6712 3.755V10.235C18.6712 10.455 18.6012 10.64 18.4613 10.79C18.3213 10.93 18.1413 11 17.9213 11C17.7113 11 17.5313 10.93 17.3813 10.79C17.2413 10.64 17.1713 10.455 17.1713 10.235V9.155L17.4863 9.2C17.4863 9.38 17.4113 9.58 17.2613 9.8C17.1213 10.02 16.9263 10.235 16.6763 10.445C16.4263 10.645 16.1313 10.815 15.7913 10.955C15.4513 11.085 15.0863 11.15 14.6963 11.15C14.0063 11.15 13.3863 10.975 12.8363 10.625C12.2863 10.265 11.8513 9.775 11.5313 9.155C11.2113 8.535 11.0513 7.83 11.0513 7.04C11.0513 6.23 11.2113 5.52 11.5313 4.91C11.8513 4.29 12.2813 3.805 12.8213 3.455C13.3713 3.105 13.9813 2.93 14.6513 2.93C15.0813 2.93 15.4763 3 15.8363 3.14C16.2063 3.28 16.5263 3.46 16.7963 3.68C17.0663 3.9 17.2713 4.135 17.4113 4.385C17.5613 4.625 17.6363 4.855 17.6363 5.075L17.1713 5.12V3.755C17.1713 3.545 17.2413 3.365 17.3813 3.215C17.5313 3.065 17.7113 2.99 17.9213 2.99ZM14.8613 9.77C15.3313 9.77 15.7463 9.65 16.1063 9.41C16.4663 9.17 16.7463 8.845 16.9463 8.435C17.1463 8.015 17.2463 7.55 17.2463 7.04C17.2463 6.52 17.1463 6.055 16.9463 5.645C16.7463 5.235 16.4663 4.91 16.1063 4.67C15.7463 4.43 15.3313 4.31 14.8613 4.31C14.4013 4.31 13.9913 4.43 13.6313 4.67C13.2813 4.91 13.0013 5.235 12.7913 5.645C12.5913 6.055 12.4913 6.52 12.4913 7.04C12.4913 7.55 12.5913 8.015 12.7913 8.435C13.0013 8.845 13.2813 9.17 13.6313 9.41C13.9913 9.65 14.4013 9.77 14.8613 9.77ZM24.8377 2.93C25.5477 2.93 26.0977 3.08 26.4877 3.38C26.8777 3.67 27.1477 4.065 27.2977 4.565C27.4577 5.055 27.5377 5.605 27.5377 6.215V10.235C27.5377 10.455 27.4627 10.64 27.3127 10.79C27.1727 10.93 26.9977 11 26.7877 11C26.5677 11 26.3877 10.93 26.2477 10.79C26.1077 10.64 26.0377 10.455 26.0377 10.235V6.23C26.0377 5.87 25.9877 5.55 25.8877 5.27C25.7877 4.98 25.6127 4.75 25.3627 4.58C25.1227 4.4 24.7827 4.31 24.3427 4.31C23.9327 4.31 23.5727 4.4 23.2627 4.58C22.9527 4.75 22.7077 4.98 22.5277 5.27C22.3577 5.55 22.2727 5.87 22.2727 6.23V10.235C22.2727 10.455 22.1977 10.64 22.0477 10.79C21.9077 10.93 21.7327 11 21.5227 11C21.3027 11 21.1227 10.93 20.9827 10.79C20.8427 10.64 20.7727 10.455 20.7727 10.235V3.875C20.7727 3.655 20.8427 3.475 20.9827 3.335C21.1227 3.185 21.3027 3.11 21.5227 3.11C21.7327 3.11 21.9077 3.185 22.0477 3.335C22.1977 3.475 22.2727 3.655 22.2727 3.875V4.715L22.0027 4.865C22.0727 4.645 22.1927 4.425 22.3627 4.205C22.5427 3.975 22.7577 3.765 23.0077 3.575C23.2577 3.375 23.5377 3.22 23.8477 3.11C24.1577 2.99 24.4877 2.93 24.8377 2.93ZM33.1153 2.93C33.6553 2.93 34.1353 2.99 34.5553 3.11C34.9753 3.22 35.3003 3.38 35.5303 3.59C35.7703 3.79 35.8903 4.025 35.8903 4.295C35.8903 4.465 35.8403 4.625 35.7403 4.775C35.6403 4.915 35.4903 4.985 35.2903 4.985C35.1503 4.985 35.0303 4.96 34.9303 4.91C34.8403 4.86 34.7553 4.8 34.6753 4.73C34.5953 4.66 34.4953 4.59 34.3753 4.52C34.2653 4.46 34.1003 4.41 33.8803 4.37C33.6703 4.33 33.4803 4.31 33.3103 4.31C32.7803 4.31 32.3203 4.43 31.9303 4.67C31.5503 4.91 31.2503 5.235 31.0303 5.645C30.8203 6.055 30.7153 6.52 30.7153 7.04C30.7153 7.56 30.8203 8.025 31.0303 8.435C31.2503 8.845 31.5453 9.17 31.9153 9.41C32.2953 9.65 32.7353 9.77 33.2353 9.77C33.5353 9.77 33.7803 9.75 33.9703 9.71C34.1603 9.66 34.3253 9.6 34.4653 9.53C34.6153 9.44 34.7403 9.35 34.8403 9.26C34.9503 9.16 35.1003 9.11 35.2903 9.11C35.5103 9.11 35.6753 9.18 35.7853 9.32C35.9053 9.45 35.9653 9.615 35.9653 9.815C35.9653 10.035 35.8303 10.25 35.5603 10.46C35.3003 10.66 34.9503 10.825 34.5103 10.955C34.0703 11.085 33.5853 11.15 33.0553 11.15C32.2753 11.15 31.5953 10.97 31.0153 10.61C30.4453 10.25 30.0003 9.76 29.6803 9.14C29.3703 8.52 29.2153 7.82 29.2153 7.04C29.2153 6.25 29.3803 5.55 29.7103 4.94C30.0403 4.32 30.5003 3.83 31.0903 3.47C31.6803 3.11 32.3553 2.93 33.1153 2.93ZM44.9586 7.055C44.9586 7.855 44.7836 8.565 44.4336 9.185C44.0836 9.795 43.6086 10.275 43.0086 10.625C42.4086 10.975 41.7336 11.15 40.9836 11.15C40.2336 11.15 39.5586 10.975 38.9586 10.625C38.3586 10.275 37.8786 9.795 37.5186 9.185C37.1686 8.565 36.9936 7.855 36.9936 7.055C36.9936 6.245 37.1686 5.535 37.5186 4.925C37.8786 4.305 38.3586 3.82 38.9586 3.47C39.5586 3.11 40.2336 2.93 40.9836 2.93C41.7336 2.93 42.4086 3.11 43.0086 3.47C43.6086 3.82 44.0836 4.305 44.4336 4.925C44.7836 5.535 44.9586 6.245 44.9586 7.055ZM43.4586 7.055C43.4586 6.505 43.3486 6.03 43.1286 5.63C42.9086 5.22 42.6086 4.9 42.2286 4.67C41.8586 4.43 41.4436 4.31 40.9836 4.31C40.5236 4.31 40.1036 4.43 39.7236 4.67C39.3436 4.9 39.0436 5.22 38.8236 5.63C38.6036 6.03 38.4936 6.505 38.4936 7.055C38.4936 7.585 38.6036 8.055 38.8236 8.465C39.0436 8.875 39.3436 9.195 39.7236 9.425C40.1036 9.655 40.5236 9.77 40.9836 9.77C41.4436 9.77 41.8586 9.655 42.2286 9.425C42.6086 9.195 42.9086 8.875 43.1286 8.465C43.3486 8.055 43.4586 7.585 43.4586 7.055ZM52.5364 3.11C52.7464 3.11 52.9214 3.185 53.0614 3.335C53.2114 3.475 53.2864 3.655 53.2864 3.875V7.82C53.2864 8.86 52.9964 9.675 52.4164 10.265C51.8364 10.845 51.0164 11.135 49.9564 11.135C48.9064 11.135 48.0914 10.845 47.5114 10.265C46.9414 9.675 46.6564 8.86 46.6564 7.82V3.875C46.6564 3.655 46.7264 3.475 46.8664 3.335C47.0064 3.185 47.1864 3.11 47.4064 3.11C47.6164 3.11 47.7914 3.185 47.9314 3.335C48.0814 3.475 48.1564 3.655 48.1564 3.875V7.82C48.1564 8.47 48.3064 8.955 48.6064 9.275C48.9164 9.595 49.3664 9.755 49.9564 9.755C50.5564 9.755 51.0114 9.595 51.3214 9.275C51.6314 8.955 51.7864 8.47 51.7864 7.82V3.875C51.7864 3.655 51.8564 3.475 51.9964 3.335C52.1364 3.185 52.3164 3.11 52.5364 3.11ZM55.5523 3.035C55.7023 3.035 55.8423 3.075 55.9723 3.155C56.1123 3.235 56.2123 3.355 56.2723 3.515L58.6273 8.96L58.3423 9.095L60.7273 3.53C60.8673 3.2 61.0923 3.04 61.4023 3.05C61.6023 3.05 61.7673 3.115 61.8973 3.245C62.0373 3.365 62.1073 3.525 62.1073 3.725C62.1073 3.785 62.0973 3.85 62.0773 3.92C62.0573 3.98 62.0323 4.04 62.0023 4.1L59.1523 10.52C59.0223 10.82 58.8073 10.98 58.5073 11C58.3573 11.02 58.2073 10.99 58.0573 10.91C57.9173 10.82 57.8073 10.69 57.7273 10.52L54.8923 4.1C54.8723 4.06 54.8523 4.01 54.8323 3.95C54.8123 3.88 54.8023 3.8 54.8023 3.71C54.8023 3.56 54.8673 3.41 54.9973 3.26C55.1373 3.11 55.3223 3.035 55.5523 3.035ZM67.2357 11.15C66.4057 11.15 65.6857 10.98 65.0757 10.64C64.4657 10.29 63.9907 9.815 63.6507 9.215C63.3207 8.605 63.1557 7.91 63.1557 7.13C63.1557 6.25 63.3307 5.5 63.6807 4.88C64.0407 4.25 64.5057 3.77 65.0757 3.44C65.6457 3.1 66.2507 2.93 66.8907 2.93C67.3807 2.93 67.8457 3.03 68.2857 3.23C68.7257 3.42 69.1157 3.69 69.4557 4.04C69.8057 4.38 70.0807 4.785 70.2807 5.255C70.4807 5.715 70.5857 6.22 70.5957 6.77C70.5857 6.97 70.5057 7.135 70.3557 7.265C70.2057 7.395 70.0307 7.46 69.8307 7.46H63.9957L63.6357 6.185H69.2757L68.9907 6.455V6.08C68.9707 5.73 68.8557 5.425 68.6457 5.165C68.4357 4.895 68.1757 4.69 67.8657 4.55C67.5557 4.4 67.2307 4.325 66.8907 4.325C66.5907 4.325 66.3007 4.375 66.0207 4.475C65.7507 4.565 65.5057 4.715 65.2857 4.925C65.0757 5.135 64.9057 5.415 64.7757 5.765C64.6557 6.105 64.5957 6.53 64.5957 7.04C64.5957 7.59 64.7107 8.07 64.9407 8.48C65.1707 8.89 65.4807 9.21 65.8707 9.44C66.2607 9.66 66.6907 9.77 67.1607 9.77C67.5307 9.77 67.8357 9.735 68.0757 9.665C68.3157 9.585 68.5157 9.49 68.6757 9.38C68.8357 9.27 68.9757 9.165 69.0957 9.065C69.2457 8.975 69.3957 8.93 69.5457 8.93C69.7257 8.93 69.8757 8.995 69.9957 9.125C70.1157 9.245 70.1757 9.39 70.1757 9.56C70.1757 9.78 70.0657 9.98 69.8457 10.16C69.5757 10.42 69.2007 10.65 68.7207 10.85C68.2507 11.05 67.7557 11.15 67.2357 11.15ZM73.0412 11C72.8212 11 72.6412 10.93 72.5012 10.79C72.3612 10.64 72.2912 10.455 72.2912 10.235V3.875C72.2912 3.655 72.3612 3.475 72.5012 3.335C72.6412 3.185 72.8212 3.11 73.0412 3.11C73.2512 3.11 73.4262 3.185 73.5662 3.335C73.7162 3.475 73.7912 3.655 73.7912 3.875V5.555L73.6412 4.91C73.7212 4.63 73.8412 4.37 74.0012 4.13C74.1712 3.89 74.3712 3.68 74.6012 3.5C74.8312 3.32 75.0862 3.18 75.3662 3.08C75.6562 2.98 75.9562 2.93 76.2662 2.93C76.5262 2.93 76.7512 3 76.9412 3.14C77.1312 3.28 77.2262 3.455 77.2262 3.665C77.2262 3.935 77.1562 4.135 77.0162 4.265C76.8762 4.385 76.7212 4.445 76.5512 4.445C76.4012 4.445 76.2562 4.415 76.1162 4.355C75.9762 4.285 75.8112 4.25 75.6212 4.25C75.4112 4.25 75.1962 4.305 74.9762 4.415C74.7562 4.525 74.5562 4.69 74.3762 4.91C74.1962 5.12 74.0512 5.37 73.9412 5.66C73.8412 5.95 73.7912 6.275 73.7912 6.635V10.235C73.7912 10.455 73.7162 10.64 73.5662 10.79C73.4262 10.93 73.2512 11 73.0412 11Z" fill="#002A56"/>
</svg>
