<svg width="84" height="15" viewBox="0 0 84 15" fill="none" xmlns="http://www.w3.org/2000/svg">
<path d="M13.1888 1.455C13.3888 1.455 13.5738 1.53 13.7438 1.68C13.9138 1.82 13.9988 2.015 13.9988 2.265C13.9988 2.335 13.9838 2.42 13.9538 2.52L10.8788 11.52C10.8288 11.67 10.7388 11.785 10.6088 11.865C10.4788 11.945 10.3438 11.99 10.2038 12C10.0638 12 9.92383 11.96 9.78383 11.88C9.64383 11.8 9.53883 11.68 9.46883 11.52L7.09883 5.97L7.23383 6.03L4.89383 11.52C4.81383 11.68 4.70383 11.8 4.56383 11.88C4.43383 11.96 4.29383 12 4.14383 12C4.01383 11.99 3.88383 11.945 3.75383 11.865C3.62383 11.785 3.53383 11.67 3.48383 11.52L0.408828 2.52C0.378828 2.42 0.363828 2.335 0.363828 2.265C0.363828 2.015 0.453828 1.82 0.633828 1.68C0.813828 1.53 0.998828 1.455 1.18883 1.455C1.34883 1.455 1.49383 1.5 1.62383 1.59C1.76383 1.67 1.85883 1.79 1.90883 1.95L4.50383 9.69H4.23383L6.51383 4.11C6.58383 3.96 6.67883 3.84 6.79883 3.75C6.92883 3.66 7.07383 3.62 7.23383 3.63C7.39383 3.62 7.53383 3.66 7.65383 3.75C7.78383 3.84 7.87883 3.96 7.93883 4.11L10.0988 9.525L9.87383 9.645L12.4538 1.95C12.5038 1.79 12.5988 1.67 12.7388 1.59C12.8788 1.5 13.0288 1.455 13.1888 1.455ZM21.6996 3.99C21.9196 3.99 22.0996 4.065 22.2396 4.215C22.3796 4.355 22.4496 4.535 22.4496 4.755V11.235C22.4496 11.455 22.3796 11.64 22.2396 11.79C22.0996 11.93 21.9196 12 21.6996 12C21.4896 12 21.3096 11.93 21.1596 11.79C21.0196 11.64 20.9496 11.455 20.9496 11.235V10.155L21.2646 10.2C21.2646 10.38 21.1896 10.58 21.0396 10.8C20.8996 11.02 20.7046 11.235 20.4546 11.445C20.2046 11.645 19.9096 11.815 19.5696 11.955C19.2296 12.085 18.8646 12.15 18.4746 12.15C17.7846 12.15 17.1646 11.975 16.6146 11.625C16.0646 11.265 15.6296 10.775 15.3096 10.155C14.9896 9.535 14.8296 8.83 14.8296 8.04C14.8296 7.23 14.9896 6.52 15.3096 5.91C15.6296 5.29 16.0596 4.805 16.5996 4.455C17.1496 4.105 17.7596 3.93 18.4296 3.93C18.8596 3.93 19.2546 4 19.6146 4.14C19.9846 4.28 20.3046 4.46 20.5746 4.68C20.8446 4.9 21.0496 5.135 21.1896 5.385C21.3396 5.625 21.4146 5.855 21.4146 6.075L20.9496 6.12V4.755C20.9496 4.545 21.0196 4.365 21.1596 4.215C21.3096 4.065 21.4896 3.99 21.6996 3.99ZM18.6396 10.77C19.1096 10.77 19.5246 10.65 19.8846 10.41C20.2446 10.17 20.5246 9.845 20.7246 9.435C20.9246 9.015 21.0246 8.55 21.0246 8.04C21.0246 7.52 20.9246 7.055 20.7246 6.645C20.5246 6.235 20.2446 5.91 19.8846 5.67C19.5246 5.43 19.1096 5.31 18.6396 5.31C18.1796 5.31 17.7696 5.43 17.4096 5.67C17.0596 5.91 16.7796 6.235 16.5696 6.645C16.3696 7.055 16.2696 7.52 16.2696 8.04C16.2696 8.55 16.3696 9.015 16.5696 9.435C16.7796 9.845 17.0596 10.17 17.4096 10.41C17.7696 10.65 18.1796 10.77 18.6396 10.77ZM24.086 10.77C23.996 10.63 23.956 10.47 23.966 10.29C23.976 10.1 24.081 9.94 24.281 9.81C24.421 9.72 24.566 9.685 24.716 9.705C24.876 9.715 25.026 9.79 25.166 9.93C25.446 10.24 25.756 10.485 26.096 10.665C26.446 10.845 26.866 10.935 27.356 10.935C27.556 10.925 27.761 10.895 27.971 10.845C28.181 10.785 28.361 10.685 28.511 10.545C28.661 10.395 28.736 10.18 28.736 9.9C28.736 9.65 28.656 9.45 28.496 9.3C28.336 9.15 28.126 9.03 27.866 8.94C27.606 8.84 27.326 8.75 27.026 8.67C26.706 8.58 26.381 8.48 26.051 8.37C25.731 8.26 25.441 8.12 25.181 7.95C24.921 7.77 24.706 7.54 24.536 7.26C24.376 6.98 24.296 6.635 24.296 6.225C24.296 5.755 24.426 5.35 24.686 5.01C24.956 4.67 25.301 4.405 25.721 4.215C26.151 4.025 26.616 3.93 27.116 3.93C27.406 3.93 27.711 3.97 28.031 4.05C28.351 4.12 28.661 4.235 28.961 4.395C29.261 4.555 29.521 4.765 29.741 5.025C29.841 5.155 29.896 5.31 29.906 5.49C29.926 5.67 29.846 5.83 29.666 5.97C29.546 6.07 29.401 6.115 29.231 6.105C29.061 6.095 28.921 6.04 28.811 5.94C28.621 5.7 28.376 5.515 28.076 5.385C27.776 5.245 27.436 5.175 27.056 5.175C26.866 5.175 26.666 5.205 26.456 5.265C26.256 5.315 26.086 5.41 25.946 5.55C25.806 5.69 25.736 5.895 25.736 6.165C25.736 6.415 25.816 6.615 25.976 6.765C26.146 6.915 26.366 7.04 26.636 7.14C26.906 7.24 27.201 7.33 27.521 7.41C27.831 7.49 28.136 7.585 28.436 7.695C28.746 7.805 29.021 7.95 29.261 8.13C29.511 8.3 29.711 8.525 29.861 8.805C30.021 9.075 30.101 9.42 30.101 9.84C30.101 10.33 29.956 10.75 29.666 11.1C29.386 11.44 29.026 11.7 28.586 11.88C28.156 12.06 27.701 12.15 27.221 12.15C26.651 12.15 26.081 12.05 25.511 11.85C24.951 11.64 24.476 11.28 24.086 10.77ZM35.6891 3.975C36.3791 3.975 36.9141 4.125 37.2941 4.425C37.6741 4.715 37.9391 5.11 38.0891 5.61C38.2491 6.11 38.3291 6.66 38.3291 7.26V11.235C38.3291 11.455 38.2541 11.64 38.1041 11.79C37.9641 11.93 37.7891 12 37.5791 12C37.3591 12 37.1791 11.93 37.0391 11.79C36.8991 11.64 36.8291 11.455 36.8291 11.235V7.26C36.8291 6.91 36.7791 6.59 36.6791 6.3C36.5891 6.01 36.4241 5.78 36.1841 5.61C35.9541 5.44 35.6291 5.355 35.2091 5.355C34.8191 5.355 34.4691 5.44 34.1591 5.61C33.8591 5.78 33.6241 6.01 33.4541 6.3C33.2941 6.59 33.2141 6.91 33.2141 7.26V11.235C33.2141 11.455 33.1391 11.64 32.9891 11.79C32.8491 11.93 32.6741 12 32.4641 12C32.2441 12 32.0641 11.93 31.9241 11.79C31.7841 11.64 31.7141 11.455 31.7141 11.235V1.665C31.7141 1.445 31.7841 1.265 31.9241 1.125C32.0641 0.975 32.2441 0.9 32.4641 0.9C32.6741 0.9 32.8491 0.975 32.9891 1.125C33.1391 1.265 33.2141 1.445 33.2141 1.665V5.76L32.9441 5.91C33.0141 5.69 33.1291 5.465 33.2891 5.235C33.4591 5.005 33.6641 4.795 33.9041 4.605C34.1541 4.415 34.4291 4.265 34.7291 4.155C35.0291 4.035 35.3491 3.975 35.6891 3.975ZM41.8252 11.235C41.8252 11.455 41.7552 11.64 41.6152 11.79C41.4752 11.93 41.2952 12 41.0752 12C40.8652 12 40.6852 11.93 40.5352 11.79C40.3952 11.64 40.3252 11.455 40.3252 11.235V4.815C40.3252 4.595 40.3952 4.415 40.5352 4.275C40.6852 4.125 40.8652 4.05 41.0752 4.05C41.2952 4.05 41.4752 4.125 41.6152 4.275C41.7552 4.415 41.8252 4.595 41.8252 4.815V11.235ZM41.0602 3.06C40.7702 3.06 40.5602 3.01 40.4302 2.91C40.3002 2.8 40.2352 2.62 40.2352 2.37V2.13C40.2352 1.88 40.3052 1.705 40.4452 1.605C40.5852 1.505 40.7952 1.455 41.0752 1.455C41.3752 1.455 41.5902 1.51 41.7202 1.62C41.8502 1.72 41.9152 1.89 41.9152 2.13V2.37C41.9152 2.63 41.8452 2.81 41.7052 2.91C41.5752 3.01 41.3602 3.06 41.0602 3.06ZM47.908 3.93C48.618 3.93 49.168 4.08 49.558 4.38C49.948 4.67 50.218 5.065 50.368 5.565C50.528 6.055 50.608 6.605 50.608 7.215V11.235C50.608 11.455 50.533 11.64 50.383 11.79C50.243 11.93 50.068 12 49.858 12C49.638 12 49.458 11.93 49.318 11.79C49.178 11.64 49.108 11.455 49.108 11.235V7.23C49.108 6.87 49.058 6.55 48.958 6.27C48.858 5.98 48.683 5.75 48.433 5.58C48.193 5.4 47.853 5.31 47.413 5.31C47.003 5.31 46.643 5.4 46.333 5.58C46.023 5.75 45.778 5.98 45.598 6.27C45.428 6.55 45.343 6.87 45.343 7.23V11.235C45.343 11.455 45.268 11.64 45.118 11.79C44.978 11.93 44.803 12 44.593 12C44.373 12 44.193 11.93 44.053 11.79C43.913 11.64 43.843 11.455 43.843 11.235V4.875C43.843 4.655 43.913 4.475 44.053 4.335C44.193 4.185 44.373 4.11 44.593 4.11C44.803 4.11 44.978 4.185 45.118 4.335C45.268 4.475 45.343 4.655 45.343 4.875V5.715L45.073 5.865C45.143 5.645 45.263 5.425 45.433 5.205C45.613 4.975 45.828 4.765 46.078 4.575C46.328 4.375 46.608 4.22 46.918 4.11C47.228 3.99 47.558 3.93 47.908 3.93ZM55.9756 3.93C56.4056 3.93 56.8006 4 57.1606 4.14C57.5206 4.28 57.8306 4.46 58.0906 4.68C58.3606 4.89 58.5706 5.11 58.7206 5.34C58.8706 5.57 58.9456 5.77 58.9456 5.94L58.6006 5.955V4.755C58.6006 4.545 58.6706 4.365 58.8106 4.215C58.9506 4.065 59.1306 3.99 59.3506 3.99C59.5706 3.99 59.7506 4.065 59.8906 4.215C60.0306 4.355 60.1006 4.535 60.1006 4.755V11.37C60.1006 12.22 59.9206 12.91 59.5606 13.44C59.2006 13.98 58.7206 14.375 58.1206 14.625C57.5306 14.875 56.8806 15 56.1706 15C55.9206 15 55.6256 14.965 55.2856 14.895C54.9456 14.835 54.6306 14.76 54.3406 14.67C54.0606 14.58 53.8656 14.49 53.7556 14.4C53.5256 14.28 53.3706 14.14 53.2906 13.98C53.2206 13.82 53.2206 13.66 53.2906 13.5C53.3906 13.28 53.5256 13.145 53.6956 13.095C53.8656 13.045 54.0606 13.06 54.2806 13.14C54.3806 13.17 54.5356 13.225 54.7456 13.305C54.9556 13.385 55.1906 13.455 55.4506 13.515C55.7106 13.585 55.9556 13.62 56.1856 13.62C56.9856 13.62 57.5856 13.435 57.9856 13.065C58.3956 12.695 58.6006 12.19 58.6006 11.55V10.2L58.7656 10.305C58.7356 10.515 58.6406 10.73 58.4806 10.95C58.3306 11.16 58.1306 11.355 57.8806 11.535C57.6306 11.715 57.3406 11.865 57.0106 11.985C56.6906 12.095 56.3606 12.15 56.0206 12.15C55.3106 12.15 54.6756 11.975 54.1156 11.625C53.5556 11.265 53.1106 10.78 52.7806 10.17C52.4506 9.55 52.2856 8.84 52.2856 8.04C52.2856 7.24 52.4506 6.535 52.7806 5.925C53.1106 5.305 53.5506 4.82 54.1006 4.47C54.6606 4.11 55.2856 3.93 55.9756 3.93ZM56.2006 5.31C55.7106 5.31 55.2806 5.43 54.9106 5.67C54.5406 5.91 54.2506 6.235 54.0406 6.645C53.8306 7.055 53.7256 7.52 53.7256 8.04C53.7256 8.56 53.8306 9.025 54.0406 9.435C54.2506 9.845 54.5406 10.17 54.9106 10.41C55.2806 10.65 55.7106 10.77 56.2006 10.77C56.6906 10.77 57.1206 10.655 57.4906 10.425C57.8606 10.185 58.1506 9.86 58.3606 9.45C58.5706 9.03 58.6756 8.56 58.6756 8.04C58.6756 7.52 58.5706 7.055 58.3606 6.645C58.1506 6.225 57.8606 5.9 57.4906 5.67C57.1206 5.43 56.6906 5.31 56.2006 5.31ZM62.0778 4.2H65.6028C65.8028 4.2 65.9678 4.27 66.0978 4.41C66.2378 4.54 66.3078 4.705 66.3078 4.905C66.3078 5.095 66.2378 5.255 66.0978 5.385C65.9678 5.515 65.8028 5.58 65.6028 5.58H62.0778C61.8778 5.58 61.7078 5.515 61.5678 5.385C61.4378 5.245 61.3728 5.08 61.3728 4.89C61.3728 4.69 61.4378 4.525 61.5678 4.395C61.7078 4.265 61.8778 4.2 62.0778 4.2ZM63.6528 2.25C63.8728 2.25 64.0528 2.325 64.1928 2.475C64.3328 2.615 64.4028 2.795 64.4028 3.015V9.975C64.4028 10.155 64.4328 10.3 64.4928 10.41C64.5528 10.52 64.6328 10.595 64.7328 10.635C64.8428 10.675 64.9528 10.695 65.0628 10.695C65.1728 10.695 65.2678 10.675 65.3478 10.635C65.4378 10.595 65.5428 10.575 65.6628 10.575C65.7828 10.575 65.8928 10.63 65.9928 10.74C66.0928 10.85 66.1428 11 66.1428 11.19C66.1428 11.43 66.0128 11.625 65.7528 11.775C65.4928 11.925 65.2128 12 64.9128 12C64.7428 12 64.5428 11.985 64.3128 11.955C64.0828 11.925 63.8578 11.85 63.6378 11.73C63.4278 11.61 63.2528 11.42 63.1128 11.16C62.9728 10.89 62.9028 10.515 62.9028 10.035V3.015C62.9028 2.795 62.9728 2.615 63.1128 2.475C63.2628 2.325 63.4428 2.25 63.6528 2.25ZM75.4557 8.055C75.4557 8.855 75.2807 9.565 74.9307 10.185C74.5807 10.795 74.1057 11.275 73.5057 11.625C72.9057 11.975 72.2307 12.15 71.4807 12.15C70.7307 12.15 70.0557 11.975 69.4557 11.625C68.8557 11.275 68.3757 10.795 68.0157 10.185C67.6657 9.565 67.4907 8.855 67.4907 8.055C67.4907 7.245 67.6657 6.535 68.0157 5.925C68.3757 5.305 68.8557 4.82 69.4557 4.47C70.0557 4.11 70.7307 3.93 71.4807 3.93C72.2307 3.93 72.9057 4.11 73.5057 4.47C74.1057 4.82 74.5807 5.305 74.9307 5.925C75.2807 6.535 75.4557 7.245 75.4557 8.055ZM73.9557 8.055C73.9557 7.505 73.8457 7.03 73.6257 6.63C73.4057 6.22 73.1057 5.9 72.7257 5.67C72.3557 5.43 71.9407 5.31 71.4807 5.31C71.0207 5.31 70.6007 5.43 70.2207 5.67C69.8407 5.9 69.5407 6.22 69.3207 6.63C69.1007 7.03 68.9907 7.505 68.9907 8.055C68.9907 8.585 69.1007 9.055 69.3207 9.465C69.5407 9.875 69.8407 10.195 70.2207 10.425C70.6007 10.655 71.0207 10.77 71.4807 10.77C71.9407 10.77 72.3557 10.655 72.7257 10.425C73.1057 10.195 73.4057 9.875 73.6257 9.465C73.8457 9.055 73.9557 8.585 73.9557 8.055ZM81.2185 3.93C81.9285 3.93 82.4785 4.08 82.8685 4.38C83.2585 4.67 83.5285 5.065 83.6785 5.565C83.8385 6.055 83.9185 6.605 83.9185 7.215V11.235C83.9185 11.455 83.8435 11.64 83.6935 11.79C83.5535 11.93 83.3785 12 83.1685 12C82.9485 12 82.7685 11.93 82.6285 11.79C82.4885 11.64 82.4185 11.455 82.4185 11.235V7.23C82.4185 6.87 82.3685 6.55 82.2685 6.27C82.1685 5.98 81.9935 5.75 81.7435 5.58C81.5035 5.4 81.1635 5.31 80.7235 5.31C80.3135 5.31 79.9535 5.4 79.6435 5.58C79.3335 5.75 79.0885 5.98 78.9085 6.27C78.7385 6.55 78.6535 6.87 78.6535 7.23V11.235C78.6535 11.455 78.5785 11.64 78.4285 11.79C78.2885 11.93 78.1135 12 77.9035 12C77.6835 12 77.5035 11.93 77.3635 11.79C77.2235 11.64 77.1535 11.455 77.1535 11.235V4.875C77.1535 4.655 77.2235 4.475 77.3635 4.335C77.5035 4.185 77.6835 4.11 77.9035 4.11C78.1135 4.11 78.2885 4.185 78.4285 4.335C78.5785 4.475 78.6535 4.655 78.6535 4.875V5.715L78.3835 5.865C78.4535 5.645 78.5735 5.425 78.7435 5.205C78.9235 4.975 79.1385 4.765 79.3885 4.575C79.6385 4.375 79.9185 4.22 80.2285 4.11C80.5385 3.99 80.8685 3.93 81.2185 3.93Z" fill="#002A56"/>
</svg>
