<svg width="66" height="14" viewBox="0 0 66 14" fill="none" xmlns="http://www.w3.org/2000/svg">
<path d="M13.4979 0.455C13.6979 0.455 13.8829 0.53 14.0529 0.68C14.2229 0.82 14.3079 1.015 14.3079 1.265C14.3079 1.335 14.2929 1.42 14.2629 1.52L11.1879 10.52C11.1379 10.67 11.0479 10.785 10.9179 10.865C10.7879 10.945 10.6529 10.99 10.5129 11C10.3729 11 10.2329 10.96 10.0929 10.88C9.95291 10.8 9.84791 10.68 9.77791 10.52L7.40791 4.97L7.54291 5.03L5.20291 10.52C5.12291 10.68 5.01291 10.8 4.87291 10.88C4.74291 10.96 4.60291 11 4.45291 11C4.32291 10.99 4.19291 10.945 4.06291 10.865C3.93291 10.785 3.84291 10.67 3.79291 10.52L0.71791 1.52C0.68791 1.42 0.67291 1.335 0.67291 1.265C0.67291 1.015 0.76291 0.82 0.94291 0.68C1.12291 0.53 1.30791 0.455 1.49791 0.455C1.65791 0.455 1.80291 0.5 1.93291 0.59C2.07291 0.669999 2.16791 0.789999 2.21791 0.95L4.81291 8.69H4.54291L6.82291 3.11C6.89291 2.96 6.98791 2.84 7.10791 2.75C7.23791 2.66 7.38291 2.62 7.54291 2.63C7.70291 2.62 7.84291 2.66 7.96291 2.75C8.09291 2.84 8.18791 2.96 8.24791 3.11L10.4079 8.525L10.1829 8.645L12.7629 0.95C12.8129 0.789999 12.9079 0.669999 13.0479 0.59C13.1879 0.5 13.3379 0.455 13.4979 0.455ZM17.0855 10.235C17.0855 10.455 17.0155 10.64 16.8755 10.79C16.7355 10.93 16.5555 11 16.3355 11C16.1255 11 15.9455 10.93 15.7955 10.79C15.6555 10.64 15.5855 10.455 15.5855 10.235V3.815C15.5855 3.595 15.6555 3.415 15.7955 3.275C15.9455 3.125 16.1255 3.05 16.3355 3.05C16.5555 3.05 16.7355 3.125 16.8755 3.275C17.0155 3.415 17.0855 3.595 17.0855 3.815V10.235ZM16.3205 2.06C16.0305 2.06 15.8205 2.01 15.6905 1.91C15.5605 1.8 15.4955 1.62 15.4955 1.37V1.13C15.4955 0.879999 15.5655 0.705 15.7055 0.605C15.8455 0.505 16.0555 0.455 16.3355 0.455C16.6355 0.455 16.8505 0.51 16.9805 0.62C17.1105 0.719999 17.1755 0.889999 17.1755 1.13V1.37C17.1755 1.63 17.1055 1.81 16.9655 1.91C16.8355 2.01 16.6205 2.06 16.3205 2.06ZM23.1682 2.93C23.8782 2.93 24.4282 3.08 24.8182 3.38C25.2082 3.67 25.4782 4.065 25.6282 4.565C25.7882 5.055 25.8682 5.605 25.8682 6.215V10.235C25.8682 10.455 25.7932 10.64 25.6432 10.79C25.5032 10.93 25.3282 11 25.1182 11C24.8982 11 24.7182 10.93 24.5782 10.79C24.4382 10.64 24.3682 10.455 24.3682 10.235V6.23C24.3682 5.87 24.3182 5.55 24.2182 5.27C24.1182 4.98 23.9432 4.75 23.6932 4.58C23.4532 4.4 23.1132 4.31 22.6732 4.31C22.2632 4.31 21.9032 4.4 21.5932 4.58C21.2832 4.75 21.0382 4.98 20.8582 5.27C20.6882 5.55 20.6032 5.87 20.6032 6.23V10.235C20.6032 10.455 20.5282 10.64 20.3782 10.79C20.2382 10.93 20.0632 11 19.8532 11C19.6332 11 19.4532 10.93 19.3132 10.79C19.1732 10.64 19.1032 10.455 19.1032 10.235V3.875C19.1032 3.655 19.1732 3.475 19.3132 3.335C19.4532 3.185 19.6332 3.11 19.8532 3.11C20.0632 3.11 20.2382 3.185 20.3782 3.335C20.5282 3.475 20.6032 3.655 20.6032 3.875V4.715L20.3332 4.865C20.4032 4.645 20.5232 4.425 20.6932 4.205C20.8732 3.975 21.0882 3.765 21.3382 3.575C21.5882 3.375 21.8682 3.22 22.1782 3.11C22.4882 2.99 22.8182 2.93 23.1682 2.93ZM32.0159 2.93C32.7259 2.93 33.2759 3.08 33.6659 3.38C34.0559 3.67 34.3259 4.065 34.4759 4.565C34.6359 5.055 34.7159 5.605 34.7159 6.215V10.235C34.7159 10.455 34.6409 10.64 34.4909 10.79C34.3509 10.93 34.1759 11 33.9659 11C33.7459 11 33.5659 10.93 33.4259 10.79C33.2859 10.64 33.2159 10.455 33.2159 10.235V6.23C33.2159 5.87 33.1659 5.55 33.0659 5.27C32.9659 4.98 32.7909 4.75 32.5409 4.58C32.3009 4.4 31.9609 4.31 31.5209 4.31C31.1109 4.31 30.7509 4.4 30.4409 4.58C30.1309 4.75 29.8859 4.98 29.7059 5.27C29.5359 5.55 29.4509 5.87 29.4509 6.23V10.235C29.4509 10.455 29.3759 10.64 29.2259 10.79C29.0859 10.93 28.9109 11 28.7009 11C28.4809 11 28.3009 10.93 28.1609 10.79C28.0209 10.64 27.9509 10.455 27.9509 10.235V3.875C27.9509 3.655 28.0209 3.475 28.1609 3.335C28.3009 3.185 28.4809 3.11 28.7009 3.11C28.9109 3.11 29.0859 3.185 29.2259 3.335C29.3759 3.475 29.4509 3.655 29.4509 3.875V4.715L29.1809 4.865C29.2509 4.645 29.3709 4.425 29.5409 4.205C29.7209 3.975 29.9359 3.765 30.1859 3.575C30.4359 3.375 30.7159 3.22 31.0259 3.11C31.3359 2.99 31.6659 2.93 32.0159 2.93ZM38.2085 10.235C38.2085 10.455 38.1385 10.64 37.9985 10.79C37.8585 10.93 37.6785 11 37.4585 11C37.2485 11 37.0685 10.93 36.9185 10.79C36.7785 10.64 36.7085 10.455 36.7085 10.235V3.815C36.7085 3.595 36.7785 3.415 36.9185 3.275C37.0685 3.125 37.2485 3.05 37.4585 3.05C37.6785 3.05 37.8585 3.125 37.9985 3.275C38.1385 3.415 38.2085 3.595 38.2085 3.815V10.235ZM37.4435 2.06C37.1535 2.06 36.9435 2.01 36.8135 1.91C36.6835 1.8 36.6185 1.62 36.6185 1.37V1.13C36.6185 0.879999 36.6885 0.705 36.8285 0.605C36.9685 0.505 37.1785 0.455 37.4585 0.455C37.7585 0.455 37.9735 0.51 38.1035 0.62C38.2335 0.719999 38.2985 0.889999 38.2985 1.13V1.37C38.2985 1.63 38.2285 1.81 38.0885 1.91C37.9585 2.01 37.7435 2.06 37.4435 2.06ZM44.2013 2.975C44.9013 2.975 45.5213 3.15 46.0613 3.5C46.6113 3.85 47.0463 4.33 47.3663 4.94C47.6863 5.54 47.8463 6.24 47.8463 7.04C47.8463 7.84 47.6863 8.55 47.3663 9.17C47.0463 9.78 46.6163 10.26 46.0763 10.61C45.5363 10.96 44.9263 11.135 44.2463 11.135C43.8663 11.135 43.5063 11.075 43.1663 10.955C42.8263 10.835 42.5263 10.68 42.2663 10.49C42.0063 10.29 41.7913 10.08 41.6213 9.86C41.4613 9.64 41.3613 9.435 41.3213 9.245L41.7263 9.05V13.235C41.7263 13.455 41.6513 13.635 41.5013 13.775C41.3613 13.925 41.1863 14 40.9763 14C40.7563 14 40.5763 13.925 40.4363 13.775C40.2963 13.635 40.2263 13.455 40.2263 13.235V3.845C40.2263 3.635 40.2963 3.455 40.4363 3.305C40.5763 3.155 40.7563 3.08 40.9763 3.08C41.1863 3.08 41.3613 3.155 41.5013 3.305C41.6513 3.455 41.7263 3.635 41.7263 3.845V4.88L41.4863 4.745C41.5163 4.555 41.6113 4.36 41.7713 4.16C41.9313 3.95 42.1313 3.755 42.3713 3.575C42.6213 3.395 42.9013 3.25 43.2113 3.14C43.5313 3.03 43.8613 2.975 44.2013 2.975ZM44.0363 4.355C43.5563 4.355 43.1363 4.475 42.7763 4.715C42.4263 4.945 42.1513 5.26 41.9513 5.66C41.7513 6.06 41.6513 6.52 41.6513 7.04C41.6513 7.55 41.7513 8.015 41.9513 8.435C42.1513 8.845 42.4263 9.17 42.7763 9.41C43.1363 9.64 43.5563 9.755 44.0363 9.755C44.5063 9.755 44.9163 9.64 45.2663 9.41C45.6163 9.17 45.8913 8.845 46.0913 8.435C46.3013 8.015 46.4063 7.55 46.4063 7.04C46.4063 6.53 46.3013 6.075 46.0913 5.675C45.8913 5.265 45.6163 4.945 45.2663 4.715C44.9163 4.475 44.5063 4.355 44.0363 4.355ZM53.2177 11.15C52.3877 11.15 51.6677 10.98 51.0577 10.64C50.4477 10.29 49.9727 9.815 49.6327 9.215C49.3027 8.605 49.1377 7.91 49.1377 7.13C49.1377 6.25 49.3127 5.5 49.6627 4.88C50.0227 4.25 50.4877 3.77 51.0577 3.44C51.6277 3.1 52.2327 2.93 52.8727 2.93C53.3627 2.93 53.8277 3.03 54.2677 3.23C54.7077 3.42 55.0977 3.69 55.4377 4.04C55.7877 4.38 56.0627 4.785 56.2627 5.255C56.4627 5.715 56.5677 6.22 56.5777 6.77C56.5677 6.97 56.4877 7.135 56.3377 7.265C56.1877 7.395 56.0127 7.46 55.8127 7.46H49.9777L49.6177 6.185H55.2577L54.9727 6.455V6.08C54.9527 5.73 54.8377 5.425 54.6277 5.165C54.4177 4.895 54.1577 4.69 53.8477 4.55C53.5377 4.4 53.2127 4.325 52.8727 4.325C52.5727 4.325 52.2827 4.375 52.0027 4.475C51.7327 4.565 51.4877 4.715 51.2677 4.925C51.0577 5.135 50.8877 5.415 50.7577 5.765C50.6377 6.105 50.5777 6.53 50.5777 7.04C50.5777 7.59 50.6927 8.07 50.9227 8.48C51.1527 8.89 51.4627 9.21 51.8527 9.44C52.2427 9.66 52.6727 9.77 53.1427 9.77C53.5127 9.77 53.8177 9.735 54.0577 9.665C54.2977 9.585 54.4977 9.49 54.6577 9.38C54.8177 9.27 54.9577 9.165 55.0777 9.065C55.2277 8.975 55.3777 8.93 55.5277 8.93C55.7077 8.93 55.8577 8.995 55.9777 9.125C56.0977 9.245 56.1577 9.39 56.1577 9.56C56.1577 9.78 56.0477 9.98 55.8277 10.16C55.5577 10.42 55.1827 10.65 54.7027 10.85C54.2327 11.05 53.7377 11.15 53.2177 11.15ZM61.4849 2.93C61.9149 2.93 62.3099 3 62.6699 3.14C63.0299 3.28 63.3399 3.46 63.5999 3.68C63.8699 3.89 64.0799 4.11 64.2299 4.34C64.3799 4.57 64.4549 4.77 64.4549 4.94L64.1099 4.955V3.755C64.1099 3.545 64.1799 3.365 64.3199 3.215C64.4599 3.065 64.6399 2.99 64.8599 2.99C65.0799 2.99 65.2599 3.065 65.3999 3.215C65.5399 3.355 65.6099 3.535 65.6099 3.755V10.37C65.6099 11.22 65.4299 11.91 65.0699 12.44C64.7099 12.98 64.2299 13.375 63.6299 13.625C63.0399 13.875 62.3899 14 61.6799 14C61.4299 14 61.1349 13.965 60.7949 13.895C60.4549 13.835 60.1399 13.76 59.8499 13.67C59.5699 13.58 59.3749 13.49 59.2649 13.4C59.0349 13.28 58.8799 13.14 58.7999 12.98C58.7299 12.82 58.7299 12.66 58.7999 12.5C58.8999 12.28 59.0349 12.145 59.2049 12.095C59.3749 12.045 59.5699 12.06 59.7899 12.14C59.8899 12.17 60.0449 12.225 60.2549 12.305C60.4649 12.385 60.6999 12.455 60.9599 12.515C61.2199 12.585 61.4649 12.62 61.6949 12.62C62.4949 12.62 63.0949 12.435 63.4949 12.065C63.9049 11.695 64.1099 11.19 64.1099 10.55V9.2L64.2749 9.305C64.2449 9.515 64.1499 9.73 63.9899 9.95C63.8399 10.16 63.6399 10.355 63.3899 10.535C63.1399 10.715 62.8499 10.865 62.5199 10.985C62.1999 11.095 61.8699 11.15 61.5299 11.15C60.8199 11.15 60.1849 10.975 59.6249 10.625C59.0649 10.265 58.6199 9.78 58.2899 9.17C57.9599 8.55 57.7949 7.84 57.7949 7.04C57.7949 6.24 57.9599 5.535 58.2899 4.925C58.6199 4.305 59.0599 3.82 59.6099 3.47C60.1699 3.11 60.7949 2.93 61.4849 2.93ZM61.7099 4.31C61.2199 4.31 60.7899 4.43 60.4199 4.67C60.0499 4.91 59.7599 5.235 59.5499 5.645C59.3399 6.055 59.2349 6.52 59.2349 7.04C59.2349 7.56 59.3399 8.025 59.5499 8.435C59.7599 8.845 60.0499 9.17 60.4199 9.41C60.7899 9.65 61.2199 9.77 61.7099 9.77C62.1999 9.77 62.6299 9.655 62.9999 9.425C63.3699 9.185 63.6599 8.86 63.8699 8.45C64.0799 8.03 64.1849 7.56 64.1849 7.04C64.1849 6.52 64.0799 6.055 63.8699 5.645C63.6599 5.225 63.3699 4.9 62.9999 4.67C62.6299 4.43 62.1999 4.31 61.7099 4.31Z" fill="#002A56"/>
</svg>
