<svg version="1.1" id="map" xmlnssvg="http://www.w3.org/2000/svg" xmlns="http://www.w3.org/2000/svg" xmlnsxlink="http://www.w3.org/1999/xlink" x="0px" y="0px" enable-background="new 365 365 1000 1000" xmlspace="preserve" viewBox="628.51 715.32 633.03 592.71"> <g id="map_parts" transform="translate(-532.4669,4.043817)"> 	<g id="Canada"> 		<path id="CA-AB" fill="#81A6D8" d="M1324.448,946.589c-28.478-7.521-25.412-6.374-27.104-10.143l-1.424-3.176l1.155-5.88 &#9;&#9;&#9;c1.218-6.201,1.151-7.77-0.472-11.006c-0.552-1.099-2.107-4.198-3.456-6.886c-1.349-2.688-2.959-6.399-3.579-8.246 &#9;&#9;&#9;c-0.62-1.85-1.82-4.414-2.668-5.699c-0.848-1.286-1.7-3.201-1.893-4.257c-0.193-1.055-1.036-2.705-1.872-3.666 &#9;&#9;&#9;c-0.836-0.962-1.521-2.002-1.521-2.313c0-0.312-0.497-1.263-1.105-2.117c-0.639-0.897-1.319-3.061-1.612-5.131 &#9;&#9;&#9;c-0.319-2.255-0.982-4.271-1.792-5.447c-0.707-1.027-1.528-2.519-1.826-3.313c-0.298-0.795-1.386-1.992-2.417-2.66 &#9;&#9;&#9;c-1.849-1.197-2.532-3.149-1.357-3.876c0.293-0.181,0.532-1.658,0.532-3.283c0-2.89,3.491-12.909,27.23-78.174l2.146-5.901 &#9;&#9;&#9;l11.783,3.919c6.481,2.155,16.333,5.251,21.893,6.88c5.56,1.629,15.359,4.499,21.775,6.376c6.416,1.877,11.724,3.473,11.796,3.544 &#9;&#9;&#9;c0.351,0.352-1.583,8.162-2.107,8.512c-0.332,0.223-1.181,0.558-1.887,0.745c-1.335,0.355-6.922,5.876-6.948,6.868 &#9;&#9;&#9;c-0.008,0.312,0.839,0.975,1.885,1.473c1.829,0.872,1.957,0.865,3.427-0.181c0.84-0.599,1.683-1.578,1.873-2.178 &#9;&#9;&#9;c0.191-0.6,0.457-0.981,0.59-0.846c0.135,0.134-0.699,4.163-1.851,8.952c-2.72,11.308-5.653,23.555-9.666,40.368 &#9;&#9;&#9;c-1.781,7.462-3.815,15.962-4.52,18.889c-3.553,14.757-6.716,27.938-8.426,35.117c-9.03,37.906-8.268,34.881-8.771,34.777 &#9;&#9;&#9;C1332.061,948.59,1328.545,947.67,1324.448,946.589z"/> 		<g id="CA-BC"> 			<path fill="#81A6D8" d="M1211.38,918.771c-3.397-2.162-8.513-8.852-8.513-11.135c0-1.27-0.315-1.708-1.562-2.179 &#9;&#9;&#9;&#9;c-1.58-0.597-2.79-2.667-3.487-5.97c-0.185-0.877-0.877-2.434-1.538-3.458s-1.619-2.939-2.131-4.257s-1.903-4.016-3.091-5.994 &#9;&#9;&#9;&#9;c-1.303-2.175-2.426-4.916-2.832-6.918c-0.371-1.823-0.995-4.103-1.387-5.061c-0.683-1.671-0.646-1.8,0.873-3.041 &#9;&#9;&#9;&#9;c0.872-0.713,2.046-1.305,2.608-1.314c1.052-0.02,4.223,3.029,9.353,8.992c1.609,1.871,3.169,3.662,3.466,3.979 &#9;&#9;&#9;&#9;s1.369,1.654,2.381,2.972s1.979,2.514,2.148,2.66c0.744,0.645,2.096,5.342,2.433,8.454c0.323,2.979,0.694,3.83,3,6.875 &#9;&#9;&#9;&#9;c3.07,4.056,3.331,4.654,3.84,8.813c0.211,1.718,0.704,4.031,1.095,5.14c0.391,1.109,0.57,2.156,0.397,2.33 &#9;&#9;&#9;&#9;C1217.635,920.458,1213.143,919.893,1211.38,918.771z"/> 			<path fill="#81A6D8" d="M1295.715,938.828c-0.485-0.141-11.445-3.548-19.953-6.201c-2.934-0.915-34.025-12.571-46.824-17.555 &#9;&#9;&#9;&#9;c-2.195-0.854-4.708-1.816-5.587-2.138c-2.033-0.743-2.376-1.281-2.386-3.74c-0.006-1.377-0.356-2.289-1.126-2.927 &#9;&#9;&#9;&#9;c-3.093-2.563-4.203-3.848-4.203-4.863c0-0.615-0.207-1.117-0.459-1.117c-1.291,0-3.151-2.829-3.477-5.288 &#9;&#9;&#9;&#9;c-0.528-3.982-2.303-7.446-5.444-10.628c-2.812-2.847-2.84-2.907-2.529-5.453c0.254-2.087,0.16-2.575-0.495-2.575 &#9;&#9;&#9;&#9;c-0.445,0-0.889-0.188-0.986-0.419c-0.098-0.229-1.315-1.078-2.706-1.884c-1.39-0.807-2.545-1.756-2.568-2.109 &#9;&#9;&#9;&#9;c-0.022-0.353-0.14-1.122-0.261-1.707c-0.297-1.436-0.325-2.381-0.243-8.091c0.069-4.767,0.115-4.936,1.688-6.26 &#9;&#9;&#9;&#9;c1.487-1.252,1.57-1.494,1.035-3.028c-0.32-0.917-0.582-2.613-0.582-3.766c0-1.59-0.52-2.838-2.15-5.162 &#9;&#9;&#9;&#9;c-1.801-2.568-2.101-3.358-1.848-4.874c0.166-0.995,0.793-2.22,1.393-2.725c1.21-1.017,1.097-1.852-0.74-5.469 &#9;&#9;&#9;&#9;c-0.926-1.82-1.08-3.124-1.065-9.02c0.016-6.667,0.061-6.937,1.372-8.248c0.745-0.745,2.627-1.833,4.181-2.419 &#9;&#9;&#9;&#9;c3.826-1.44,6.839-4.171,6.839-6.198c0-2.125,1.15-4.624,3.13-6.801c1.48-1.628,1.659-2.178,1.659-5.1 &#9;&#9;&#9;&#9;c0-2.964-0.151-3.409-1.588-4.689c-1.823-1.625-5.004-7.643-5.881-11.126c-0.516-2.049-0.404-3.176,0.835-8.356 &#9;&#9;&#9;&#9;c1.265-5.288,1.365-6.338,0.854-8.994c-0.317-1.654-0.712-5.282-0.878-8.063c-0.166-2.78-0.407-5.558-0.536-6.173 &#9;&#9;&#9;&#9;c-0.129-0.616-0.371-2.052-0.538-3.193c-0.166-1.141-1.014-5.067-1.883-8.725c-0.87-3.658-1.7-7.188-1.846-7.845 &#9;&#9;&#9;&#9;c-0.165-0.747-0.997-1.5-2.218-2.011c-3.732-1.559-4.22-1.541-5.246,0.197c-0.69,1.167-1.824,1.919-4.18,2.769 &#9;&#9;&#9;&#9;c-1.778,0.642-4.176,1.616-5.329,2.167c-1.152,0.549-2.15,0.999-2.218,0.999s0.087-0.778,0.345-1.729 &#9;&#9;&#9;&#9;c0.721-2.66,0.248-9.069-0.784-10.645c-1.094-1.669-0.947-6.608,0.188-6.359c0.389,0.085,5.765,3.464,11.947,7.509 &#9;&#9;&#9;&#9;c16.852,11.027,35.27,22.232,44.229,26.906c4.39,2.291,8.221,4.333,8.513,4.54c1.448,1.021,17.86,9.332,23.944,12.124 &#9;&#9;&#9;&#9;c3.805,1.747,12.066,5.159,18.357,7.582c6.292,2.422,11.631,4.57,11.865,4.771c0.233,0.202,0.182,0.942-0.115,1.645 &#9;&#9;&#9;&#9;c-0.296,0.703-3.079,8.342-6.183,16.975c-3.104,8.633-6.567,18.211-7.695,21.284c-12.316,33.546-14.898,41.138-14.898,43.812 &#9;&#9;&#9;&#9;c0,1.6-0.336,3.255-0.794,3.909c-1.152,1.646-0.496,3.946,1.489,5.222c2.481,1.595,5.697,7.562,6.081,11.281 &#9;&#9;&#9;&#9;c0.21,2.035,0.819,3.85,1.825,5.436c0.831,1.31,1.509,2.62,1.509,2.913c0,0.292,0.564,1.143,1.253,1.891 &#9;&#9;&#9;&#9;c0.688,0.748,1.559,2.503,1.935,3.9c0.376,1.397,0.895,2.672,1.152,2.831c0.675,0.417,2.892,4.987,3.33,6.865 &#9;&#9;&#9;&#9;c0.205,0.879,2.078,5.051,4.164,9.271c2.191,4.438,3.793,8.365,3.797,9.312c0.003,0.9-0.412,3.882-0.923,6.625 &#9;&#9;&#9;&#9;c-0.958,5.142-0.819,7.357,0.598,9.52C1296.682,938.667,1296.64,939.097,1295.715,938.828z"/> 			<path fill="#81A6D8" d="M1173.729,838.422c-2.161-5.002-2.958-10.952-2.605-19.47c0.205-4.958,0.552-7.925,0.99-8.453 &#9;&#9;&#9;&#9;c0.371-0.447,0.677-1.199,0.682-1.671c0.014-1.386,2.313-1.329,4.44,0.109c2.547,1.723,5.943,5.099,5.943,5.909 &#9;&#9;&#9;&#9;c0,0.351-2.155,2.882-4.789,5.626c-5.596,5.83-5.67,6.133-3.465,14.104c0.728,2.631,1.327,5.204,1.33,5.716 &#9;&#9;&#9;&#9;C1176.268,842.153,1174.904,841.142,1173.729,838.422z"/> 		</g> 		<path id="CA-MB" fill="#81A6D8" d="M1427.523,807.088l-0.382,3.359c-0.212,1.852-0.455,3.735-0.533,4.174 &#9;&#9;&#9;c-0.077,0.438-0.316,2.115-0.531,3.725c-0.215,1.61-0.452,3.286-0.532,3.725c-0.079,0.438-0.557,3.888-1.064,7.665 &#9;&#9;&#9;c-0.87,6.477-0.872,6.964-0.016,8.414c0.888,1.505,0.877,1.568-0.6,3.425c-0.829,1.044-1.779,2.298-2.111,2.777 &#9;&#9;&#9;c-0.332,0.479-0.78,3.978-0.981,7.782c-0.201,3.805-0.44,7.875-0.532,9.045c-0.092,1.17-0.326,4.284-0.516,6.917 &#9;&#9;&#9;c-0.189,2.633-0.436,6.226-0.565,7.98c-0.535,7.306-0.771,10.33-1.064,14.367c-0.168,2.341-0.407,5.454-0.531,6.917 &#9;&#9;&#9;s-0.368,5.055-0.549,7.981s-0.414,6.278-0.516,7.448c-0.101,1.171-0.335,4.643-0.531,7.717c-0.197,3.072-0.438,6.424-0.533,7.448 &#9;&#9;&#9;c-0.094,1.024-0.345,4.617-0.548,7.981c-0.204,3.365-0.434,6.479-0.517,6.917c-0.271,1.453-1.001,13.507-1.03,17.027l-0.033,3.458 &#9;&#9;&#9;l3.192,0.316c5.119,0.52,10.005,1.069,11.44,1.28c0.731,0.106,2.646,0.337,4.256,0.515c3.104,0.344,4.868,0.551,9.578,1.115 &#9;&#9;&#9;c1.609,0.192,5.201,0.508,7.98,0.697c2.781,0.19,7.49,0.411,10.46,0.499l5.387,0.166l0.333-2.561 &#9;&#9;&#9;c0.176-1.408,0.441-5.433,0.599-8.945c0.157-3.511,0.394-8.061,0.516-10.109s0.36-7.316,0.532-11.706 &#9;&#9;&#9;c0.592-15.204,0.762-16.782,2.027-18.905c0.648-1.088,4.422-5.423,8.397-9.628c3.977-4.205,8.288-8.835,9.578-10.292 &#9;&#9;&#9;c1.29-1.458,2.584-2.93,2.877-3.26c5.12-5.772,7.583-8.6,10.342-11.905c1.826-2.187,4.976-5.809,7.001-8.048 &#9;&#9;&#9;c2.024-2.238,4.502-5.002,5.503-6.135c1.001-1.134,3.026-3.379,4.507-4.989c1.48-1.609,2.705-3.185,2.709-3.492 &#9;&#9;&#9;c0.01-0.596-2.782-1.748-5.187-2.145c-3.681-0.607-4.693-0.957-5.306-1.829c-0.514-0.735-1.36-0.924-3.891-0.865 &#9;&#9;&#9;c-1.771,0.042-3.383,0.344-3.591,0.665c-0.429,0.661-6.584,1.424-7.782,0.964c-0.544-0.208-0.651-0.64-0.365-1.413 &#9;&#9;&#9;c0.416-1.125,0.323-1.781-1.181-8.913c-1.08-5.122-1.357-6.646-1.729-9.577c-0.426-3.36-1.787-4.386-7.35-5.554 &#9;&#9;&#9;c-3.562-0.747-4.765-1.229-5.237-2.095c-0.664-1.218-0.651-5.425,0.032-11.107l0.434-3.592l-2.844-0.066 &#9;&#9;&#9;c-1.558-0.036-3.006-0.113-3.226-0.167c-0.22-0.052-2.195-0.28-4.39-0.515c-2.195-0.235-4.35-0.489-4.789-0.565 &#9;&#9;&#9;c-0.438-0.075-2.462-0.317-4.489-0.532c-2.028-0.214-4.184-0.47-4.789-0.565c-0.605-0.096-2.534-0.319-4.29-0.499 &#9;&#9;&#9;c-1.756-0.18-5.108-0.536-7.449-0.798c-2.341-0.262-5.692-0.613-7.449-0.782c-1.755-0.167-4.311-0.448-5.67-0.615 &#9;&#9;&#9;L1427.523,807.088z M1442.738,898.54c2.052,0.018,3.427,0.979,4.455,3.009c0.614,1.21,1.288,2.315,1.498,2.461 &#9;&#9;&#9;c0.996,0.696,3.43,7.164,2.975,7.899c-0.286,0.465,0.67,3.399,1.713,5.27c0.366,0.655,0.607,2.451,0.55,3.992 &#9;&#9;&#9;c-0.11,2.955,1.648,9.474,3.325,12.354c0.675,1.16,0.984,3.03,1.097,6.668c0.156,4.984,0.131,5.058-1.13,5.237 &#9;&#9;&#9;c-0.703,0.101-1.724,0.759-2.278,1.464c-1.151,1.464-2.12,1.62-3.226,0.515c-0.909-0.909-0.631-4.717,0.466-6.4 &#9;&#9;&#9;c0.388-0.597,0.832-1.765,0.981-2.595c0.147-0.83,0.564-1.868,0.931-2.312c1.063-1.28,1.021-2.541-0.1-3.242 &#9;&#9;&#9;c-0.877-0.547-1.135-0.483-1.696,0.416c-0.727,1.162-2.012,1.437-2.012,0.432c0-0.345,0.28-1.386,0.614-2.312 &#9;&#9;&#9;c1.435-3.963-0.899-7.382-4.239-6.218c-1.363,0.475-1.75,0.39-2.644-0.599c-0.573-0.634-1.404-2.275-1.862-3.658 &#9;&#9;&#9;c-0.459-1.384-1.427-3.299-2.145-4.257c-0.926-1.231-1.248-2.214-1.082-3.342c0.216-1.455,0.016-1.719-2.36-2.96 &#9;&#9;&#9;c-3.462-1.808-4.865-1.283-4.972,1.846c-0.042,1.199-0.154,3.375-0.25,4.839c-0.474,7.311-0.475,7.32,1.696,9.045 &#9;&#9;&#9;c4.664,3.704,5.037,4.18,5.786,7.449c0.402,1.757,0.72,4.056,0.715,5.104c-0.004,1.05,0.619,3.139,1.381,4.64 &#9;&#9;&#9;c1.778,3.51,1.851,6.237,0.183,6.685c-1.757,0.471-2.425,0.411-2.844-0.267c-0.363-0.587-1.83-7.365-2.859-13.169 &#9;&#9;&#9;c-0.582-3.279-1.358-4.299-5.071-6.701c-2.947-1.906-4.375-3.398-4.225-4.406c0.056-0.365,0.131-1.131,0.167-1.695 &#9;&#9;&#9;c0.037-0.564,0.397-1.346,0.798-1.746c0.476-0.475,0.712-1.965,0.699-4.257c-0.021-3.519-0.008-3.51-2.046-4.656 &#9;&#9;&#9;c-2.276-1.279-3.109-2.483-3.109-4.506c0-1.096,0.261-1.363,1.313-1.363c1.973,0,2.639-1.695,1.33-3.359 &#9;&#9;&#9;c-0.579-0.735-1.048-1.601-1.048-1.929c0-0.7,2.499-1.794,3.941-1.729c1.276,0.057,4.04,2.673,4.04,3.823 &#9;&#9;&#9;c0,0.48,0.558,1.396,1.231,2.029l1.214,1.147l0.714-1.93c1.189-3.285,3.348-6.014,5.089-6.417 &#9;&#9;&#9;C1441.293,898.642,1442.054,898.535,1442.738,898.54z"/> 		<path id="CA-ON" fill="#81A6D8" d="M1585.155,1064.199c0.564-1.091,1.3-1.571,2.785-1.819c1.11-0.186,2.327-0.538,2.704-0.781 &#9;&#9;&#9;c0.989-0.639,1.5-4.351,0.669-4.863c-0.468-0.289-0.512-0.708-0.148-1.411c0.284-0.549,0.678-1.889,0.874-2.979 &#9;&#9;&#9;c0.197-1.089,0.794-2.285,1.327-2.66c1.918-1.346,3.59-4.448,3.411-6.331c-0.093-0.989-0.208-3.742-0.253-6.117 &#9;&#9;&#9;c-0.079-4.043,0.037-4.536,1.827-7.737l1.912-3.419l-0.953-2.106c-0.524-1.158-1.466-2.562-2.093-3.119 &#9;&#9;&#9;c-1.111-0.988-1.546-2.445-0.731-2.445c0.224,0,1.81,1.429,3.523,3.177c2.829,2.884,5.707,4.741,8.573,5.531 &#9;&#9;&#9;c2.914,0.805,4.52-4.084,2.366-7.205c-1.406-2.038-7.202-8.326-8.698-9.437c-0.556-0.413-2.59-0.932-4.522-1.154 &#9;&#9;&#9;c-1.932-0.223-4.821-0.782-6.421-1.245c-2.065-0.597-5.185-0.841-10.745-0.841c-7.309,0-7.888-0.074-8.603-1.096 &#9;&#9;&#9;c-0.423-0.604-2.032-1.75-3.577-2.548c-2.281-1.179-2.82-1.719-2.87-2.877c-0.034-0.785-0.751-2.145-1.594-3.024 &#9;&#9;&#9;c-1.313-1.37-1.406-1.646-0.647-1.937c1.18-0.453,1.112-1.599-0.202-3.444c-0.596-0.838-1.552-2.579-2.122-3.871 &#9;&#9;&#9;c-0.91-2.057-1.294-2.389-3.083-2.676c-2.045-0.327-7.699-3.03-9.072-4.336c-0.399-0.382-0.79-1.615-0.866-2.74 &#9;&#9;&#9;c-0.077-1.125-0.321-2.734-0.543-3.575l-0.404-1.527l-4.297,0.281c-3.98,0.261-4.521,0.167-7.374-1.272l-3.077-1.554l-2.195,1.386 &#9;&#9;&#9;c-1.998,1.261-2.12,1.461-1.357,2.225c0.763,0.762,0.517,1.046-2.728,3.161c-1.962,1.277-4.433,3.25-5.491,4.383 &#9;&#9;&#9;c-2.154,2.303-2.412,2.33-10.047,1.07c-2.194-0.362-5.686-0.706-7.757-0.763c-3.57-0.101-7.141-1.359-7.141-2.517 &#9;&#9;&#9;c0-0.229-0.614-0.418-1.366-0.418c-0.831,0-2.132-0.727-3.325-1.857c-1.945-1.844-1.996-1.857-6.844-1.862 &#9;&#9;&#9;c-3.517-0.003-5.097-0.218-5.644-0.764c-0.418-0.418-1.691-0.928-2.831-1.134c-2.929-0.528-3.236-0.921-3.644-4.641 &#9;&#9;&#9;c-0.331-3.035-0.502-3.381-2.056-4.162c-1.628-0.82-1.692-0.976-1.638-3.991c0.062-3.401,0.693-17.665,1.011-22.825 &#9;&#9;&#9;c0.109-1.756,0.351-6.997,0.538-11.648c0.426-10.616-0.492-8.949,12.193-22.139c2.674-2.78,6.409-6.825,8.302-8.987 &#9;&#9;&#9;c1.893-2.163,3.688-4.199,3.99-4.523c0.304-0.324,3.414-3.942,6.915-8.039c3.499-4.097,7.561-8.774,9.026-10.395 &#9;&#9;&#9;c7.175-7.935,10.384-11.537,11.356-12.751l1.066-1.33l1.771,1.004c2.173,1.232,5.762,4.586,5.762,5.384 &#9;&#9;&#9;c0,0.322,0.788,1.349,1.75,2.282c1.292,1.253,2.579,1.855,4.922,2.307c2.188,0.422,3.67,1.078,4.777,2.117 &#9;&#9;&#9;c1.522,1.429,2.869,1.941,5.339,2.031c0.601,0.021,2.396,1.199,3.991,2.618l2.899,2.58l9.97,0.333 &#9;&#9;&#9;c8.685,0.29,10.254,0.478,12.17,1.454l2.199,1.123l-0.36,4.612c-0.199,2.535-0.566,4.818-0.818,5.071 &#9;&#9;&#9;c-0.255,0.257-0.013,1.189,0.548,2.111c0.551,0.908,1.15,2.736,1.332,4.063c0.58,4.256,0.67,4.695,1.171,5.691 &#9;&#9;&#9;c0.27,0.537,0.416,2.078,0.324,3.424c-0.136,1.976,0.137,2.925,1.414,4.94c2.054,3.238,8.452,10.969,9.079,10.969 &#9;&#9;&#9;c1.216,0,4.612,4.394,5.567,7.2l1.026,3.02l3.289-0.248l3.291-0.247l0.337,2.721c0.534,4.301,0.753,6.235,1.065,9.37 &#9;&#9;&#9;c0.16,1.61,0.396,3.526,0.521,4.258c0.127,0.731,0.376,2.767,0.552,4.521c0.177,1.758,0.41,3.792,0.517,4.523 &#9;&#9;&#9;c0.257,1.749,0.758,5.992,1.1,9.312c0.151,1.464,0.379,3.499,0.507,4.522c0.798,6.407,1.317,10.769,1.604,13.508 &#9;&#9;&#9;c0.182,1.723,1.049,4.739,1.928,6.704c1.348,3.015,2.082,3.914,4.688,5.753c3.439,2.424,8.241,4.129,13.067,4.635 &#9;&#9;&#9;c2.208,0.232,3.946,0.816,5.633,1.896c1.343,0.857,2.899,1.563,3.459,1.57c0.567,0.007,1.661,0.922,2.474,2.07l1.456,2.059 &#9;&#9;&#9;l4.594-0.253c3.979-0.22,5.045-0.501,7.952-2.099c3.366-1.851,6.057-2.698,6.133-1.932c0.081,0.814,0.385,2.163,0.74,3.28 &#9;&#9;&#9;c0.284,0.897-0.071,1.509-1.667,2.859c-3.323,2.815-6.082,5.74-10.022,10.623c-2.049,2.539-3.964,4.635-4.256,4.657 &#9;&#9;&#9;c-0.897,0.07-3.025,2.076-2.723,2.566c0.618,1.001-3.646,2.619-7.181,2.725c-6.352,0.188-15.502,3.953-17.452,7.179 &#9;&#9;&#9;c-1.934,3.196-1.918,3.972,0.096,4.813c1,0.418,2.283,0.639,2.852,0.489c0.783-0.205,1.248,0.179,1.916,1.579 &#9;&#9;&#9;c1.035,2.17,0.682,2.472-2.892,2.472c-2.155,0-7.968,2.193-9.469,3.573c-0.702,0.646-0.641,0.854,0.52,1.732l1.316,0.999 &#9;&#9;&#9;l-1.46,0.366c-0.804,0.202-2.521,0.101-3.814-0.226c-5.047-1.271-6.241-0.711-12.523,5.869c-3.444,3.606-4.246,4.186-5.854,4.227 &#9;&#9;&#9;c-1.023,0.024-2.637,0.125-3.583,0.224l-1.721,0.178L1585.155,1064.199z"/> 		<g id="CA-QC"> 			<path fill="#81A6D8" d="M1664.61,1008.957c-0.478-0.81-0.963-2.306-1.078-3.326c-0.197-1.752-0.331-1.863-2.403-2.016 &#9;&#9;&#9;&#9;c-2.192-0.162-5.045,0.936-8.199,3.157c-1.074,0.757-2.363,0.994-5.386,0.994c-3.942,0-3.981-0.014-5.238-1.857 &#9;&#9;&#9;&#9;c-0.696-1.022-1.718-1.861-2.271-1.863c-0.553-0.001-2.218-0.749-3.7-1.661c-1.879-1.156-3.586-1.733-5.646-1.908 &#9;&#9;&#9;&#9;c-4.49-0.383-9.486-2.03-12.553-4.141c-2.259-1.557-3.054-2.55-4.379-5.478c-0.979-2.162-1.754-4.944-1.961-7.034 &#9;&#9;&#9;&#9;c-0.188-1.902-0.438-4.178-0.555-5.056c-0.118-0.878-0.478-3.87-0.8-6.651c-0.322-2.78-0.687-5.892-0.811-6.917 &#9;&#9;&#9;&#9;c-0.123-1.024-0.354-2.939-0.512-4.256c-0.159-1.317-1.004-8.619-1.88-16.229c-0.874-7.61-1.72-14.461-1.879-15.227 &#9;&#9;&#9;&#9;c-0.255-1.221-0.086-1.432,1.376-1.725c1.54-0.308,1.639-0.456,1.308-1.966c-0.28-1.278-0.039-2.116,1.109-3.853 &#9;&#9;&#9;&#9;c0.807-1.22,1.466-2.822,1.463-3.56c-0.002-0.737-0.977-3.375-2.164-5.863c-1.188-2.487-2.417-5.479-2.731-6.65 &#9;&#9;&#9;&#9;s-0.979-2.71-1.479-3.421c-0.615-0.876-0.864-2.118-0.771-3.863c0.147-2.785-1.262-5.813-3.184-6.842 &#9;&#9;&#9;&#9;c-0.611-0.327-1.021-1.12-1.028-1.988c-0.007-0.795-0.48-2.044-1.053-2.775s-1.045-1.57-1.053-1.863 &#9;&#9;&#9;&#9;c-0.018-0.793,2.583-3.099,5.586-4.951c1.458-0.9,3.409-2.548,4.338-3.663c0.929-1.114,2.757-3.195,4.063-4.625 &#9;&#9;&#9;&#9;c1.589-1.741,3.017-4.175,4.323-7.369c1.769-4.324,1.94-5.188,1.852-9.267c-0.073-3.3-0.49-5.661-1.566-8.86 &#9;&#9;&#9;&#9;c-0.806-2.399-1.61-4.998-1.787-5.776c-0.557-2.46-5.31-7.57-8.742-9.4c-4.107-2.188-7.272-5.349-7.431-7.417 &#9;&#9;&#9;&#9;c-0.066-0.869,0.283-2.509,0.775-3.646c0.491-1.137,0.96-2.426,1.039-2.865c0.08-0.439,0.637-1.196,1.236-1.682 &#9;&#9;&#9;&#9;c0.825-0.668,1.092-1.504,1.092-3.425c0-1.792,0.308-2.868,1.044-3.651c0.968-1.03,0.987-1.272,0.284-3.313 &#9;&#9;&#9;&#9;c-0.417-1.21-0.864-2.792-0.996-3.515c-0.295-1.624-1.694-4.385-3.296-6.497c-1.093-1.441-1.211-2.182-1.216-7.634 &#9;&#9;&#9;&#9;c-0.004-4.355-0.211-6.283-0.741-6.917c-0.405-0.484-1.417-2.521-2.247-4.527l-1.513-3.647l1.37-2.792 &#9;&#9;&#9;&#9;c1.305-2.661,1.487-2.809,3.882-3.137c3.996-0.547,7.383-0.403,9.694,0.412c3.043,1.074,7.289,1.452,8.999,0.802 &#9;&#9;&#9;&#9;c0.803-0.305,2.412-1.499,3.577-2.652c1.166-1.154,2.372-2.093,2.68-2.086c0.935,0.02,11.215,5.433,14.631,7.703 &#9;&#9;&#9;&#9;c2.601,1.729,3.184,2.378,3.104,3.458c-0.054,0.731,0.307,1.941,0.8,2.688c0.807,1.219,1.457,1.425,6.359,2.019 &#9;&#9;&#9;&#9;c3.005,0.364,6.624,1.038,8.044,1.497l2.58,0.835l-0.362,2.908c-0.355,2.837,0.04,4.672,2.499,11.603 &#9;&#9;&#9;&#9;c0.311,0.878,0.542,2.253,0.513,3.056c-0.032,0.904,0.46,1.973,1.291,2.804c0.738,0.739,1.817,2.417,2.397,3.727l1.055,2.384 &#9;&#9;&#9;&#9;l2.621-0.319c2.524-0.308,2.726-0.23,5.438,2.087c1.549,1.324,3.471,2.571,4.271,2.771s1.453,0.578,1.453,0.839 &#9;&#9;&#9;&#9;c0,0.991,1.127,0.397,3.389-1.787c1.747-1.686,2.437-2.819,2.705-4.454c0.255-1.543,0.716-2.353,1.556-2.735 &#9;&#9;&#9;&#9;c0.737-0.336,1.474-1.432,1.924-2.863c0.827-2.627,0.737-8.155-0.157-9.762c-0.328-0.589-0.526-1.305-0.442-1.591 &#9;&#9;&#9;&#9;c0.085-0.287,0.396-1.832,0.692-3.434c0.487-2.636,1.746-4.537,2.64-3.985c0.189,0.117,0.509,1.114,0.711,2.214 &#9;&#9;&#9;&#9;c0.452,2.475,2.746,6.524,3.695,6.524c0.646,0,2.163,5.321,1.893,6.651c-0.292,1.451,0.143,1.656,3.079,1.443l3.06-0.221 &#9;&#9;&#9;&#9;l-0.081,3.379c-0.045,1.859-0.336,4.189-0.647,5.177c-0.367,1.163-0.388,2.132-0.06,2.746c0.619,1.154,3.455,2.958,5.425,3.449 &#9;&#9;&#9;&#9;c1.786,0.446,1.938,0.919,2.295,7.162c0.157,2.763,0.618,6.231,1.024,7.705c0.405,1.474,0.878,3.536,1.053,4.581 &#9;&#9;&#9;&#9;c0.212,1.283,0.847,2.293,1.953,3.111c1.596,1.179,4.187,5.838,4.197,7.544c0.003,0.466,0.45,1.251,0.995,1.745 &#9;&#9;&#9;&#9;c0.546,0.493,1.407,1.819,1.915,2.946c0.895,1.983,0.889,2.133-0.189,4.57l-1.114,2.52l-2.796-0.291 &#9;&#9;&#9;&#9;c-1.538-0.16-3.529-0.448-4.425-0.642c-1.444-0.311-1.775-0.135-2.926,1.554c-1.424,2.089-2.327,2.349-3.738,1.073 &#9;&#9;&#9;&#9;c-0.51-0.46-2.387-1.14-4.173-1.507c-3.551-0.731-3.894-0.582-4.502,1.965c-0.201,0.84-0.924,1.741-1.671,2.081 &#9;&#9;&#9;&#9;c-1.018,0.464-1.314,1.002-1.314,2.381c0,1.267-0.477,2.28-1.65,3.506c-1.444,1.511-1.612,1.991-1.355,3.877 &#9;&#9;&#9;&#9;c0.162,1.184,0.622,2.783,1.021,3.553c1.217,2.347,4.383,5.521,6.568,6.588c2.307,1.126,2.689,2.401,1.634,5.451 &#9;&#9;&#9;&#9;c-0.574,1.66-0.513,1.872,0.925,3.107c1.554,1.338,3.396,1.465,6.484,0.45c1.02-0.335,1.156-0.115,1.487,2.383 &#9;&#9;&#9;&#9;c0.252,1.898,0.78,3.167,1.704,4.09c1.222,1.222,1.595,1.307,4.275,0.972c2.413-0.302,3.122-0.197,3.982,0.581 &#9;&#9;&#9;&#9;c0.576,0.521,1.454,1.021,1.952,1.112c2.475,0.453,7.916,0.591,8.522,0.216c0.379-0.233,0.793-1.479,0.922-2.77 &#9;&#9;&#9;&#9;c0.298-3.004,0.687-6.561,0.734-6.746c0.022-0.079,1.028,0.36,2.238,0.979c1.62,0.826,2.774,1.044,4.39,0.828 &#9;&#9;&#9;&#9;c2.309-0.311,10.833-3.209,19.749-6.717c13.681-5.381,22.101-8.473,25.235-9.269c1.882-0.477,3.747-1.139,4.146-1.471 &#9;&#9;&#9;&#9;c0.427-0.355,0.896-0.404,1.142-0.12c1.244,1.449,3.796,4.934,3.796,5.185c0,0.16-1.496,1.433-3.325,2.828 &#9;&#9;&#9;&#9;c-4.879,3.723-7.787,7.029-8.117,9.231c-0.154,1.023-1.354,4.017-2.667,6.65c-1.313,2.634-2.603,5.387-2.867,6.119 &#9;&#9;&#9;&#9;c-0.598,1.653-9.202,6.277-14.683,7.889c-2.048,0.602-6.598,1.927-10.109,2.942c-20.577,5.959-30.52,9.702-32.375,12.188 &#9;&#9;&#9;&#9;c-0.547,0.732-1.21,2.497-1.473,3.921c-0.263,1.425-0.976,4.207-1.583,6.182c-0.961,3.12-1.272,3.592-2.373,3.592 &#9;&#9;&#9;&#9;c-2.529,0-7.745,5.936-9.585,10.907c-0.54,1.464-1.745,3.865-2.677,5.337c-0.932,1.471-1.807,3.506-1.945,4.522 &#9;&#9;&#9;&#9;c-0.603,4.457-8.766,17.673-13.014,21.07c-5.966,4.771-14.171,13.502-13.404,14.262c0.116,0.114,2.247-2.042,4.734-4.793 &#9;&#9;&#9;&#9;c2.488-2.752,6.098-6.188,8.021-7.636c3.307-2.489,6.926-6.313,9.351-9.883c2.164-3.185,6.04-10.868,6.04-11.974 &#9;&#9;&#9;&#9;c0-0.622,0.274-1.655,0.609-2.295c0.968-1.847,5.866-7.886,7.903-9.743c1.025-0.935,3.054-2.796,4.51-4.138 &#9;&#9;&#9;&#9;c1.455-1.343,4.089-3.319,5.854-4.393c1.763-1.073,5.001-3.192,7.196-4.71c2.78-1.921,5.046-3.018,7.469-3.614 &#9;&#9;&#9;&#9;c3.265-0.805,3.669-0.798,6.599,0.108c2.556,0.791,3.291,1.292,4.067,2.771c2.114,4.023,1.782,6.761-1.27,10.464 &#9;&#9;&#9;&#9;c-2.961,3.595-4.054,4.297-7.172,4.617c-6.105,0.628-11.187,2.056-12.851,3.61c-2.159,2.017-3.934,2.625-8.144,2.787 &#9;&#9;&#9;&#9;c-5.035,0.195-5.334,0.553-4.915,5.884l0.343,4.355l-2.052,0.327c-1.128,0.181-2.689,0.213-3.469,0.071 &#9;&#9;&#9;&#9;c-1.052-0.19-1.64,0.055-2.27,0.944c-1.041,1.474-3.309,8.851-3.722,12.109c-0.167,1.317-0.535,3.951-0.819,5.854 &#9;&#9;&#9;&#9;c-0.282,1.902-0.618,4.49-0.746,5.751c-0.412,4.105-1.998,7.617-4.11,9.111c-1.063,0.752-2.474,2.148-3.135,3.104 &#9;&#9;&#9;&#9;c-0.659,0.956-1.705,1.84-2.322,1.964s-4.999,1.078-9.735,2.12c-4.736,1.041-9.893,1.894-11.458,1.894 &#9;&#9;&#9;&#9;C1665.782,1010.428,1665.388,1010.273,1664.61,1008.957z"/> 			<path fill="#81A6D8" d="M1751.455,927.532c-0.728-0.118-1.925-0.63-2.66-1.135c-0.735-0.506-2.703-1.215-4.371-1.575 &#9;&#9;&#9;&#9;c-3.804-0.823-4.542-2.192-2.212-4.099c1.213-0.991,2.221-1.26,4.979-1.326c7.272-0.176,9.89,0.141,14.767,1.779 &#9;&#9;&#9;&#9;c4.858,1.632,4.922,1.676,4.922,3.383c0,2.03-0.197,2.114-6.119,2.611C1754.312,927.712,1752.896,927.767,1751.455,927.532z"/> 		</g> 		<path id="CA-SK" fill="#81A6D8" d="M1409.804,962.867c-0.121-0.113-2.137-0.367-4.479-0.565c-2.34-0.197-4.855-0.447-5.587-0.556 &#9;&#9;&#9;c-0.73-0.108-2.886-0.349-4.789-0.535c-1.902-0.187-4.057-0.424-4.789-0.526c-0.732-0.104-2.887-0.347-4.789-0.54 &#9;&#9;&#9;c-1.902-0.193-9.324-1.67-16.495-3.28c-7.169-1.609-13.395-3.004-13.834-3.098c-2.417-0.518-3.786-0.826-6.917-1.562 &#9;&#9;&#9;c-1.902-0.446-3.937-0.896-4.522-0.998c-0.585-0.101-2.928-0.611-5.206-1.134c-3.365-0.771-4.09-1.113-3.869-1.823 &#9;&#9;&#9;c0.253-0.815,4.438-18.006,4.81-19.763c0.094-0.438,0.922-3.91,1.84-7.715c0.919-3.805,2.525-10.509,3.571-14.898 &#9;&#9;&#9;c1.046-4.39,3.093-12.89,4.55-18.89c1.457-5.998,2.744-11.385,2.86-11.967c0.116-0.583,0.933-4.054,1.816-7.715 &#9;&#9;&#9;c0.882-3.661,2.692-11.206,4.021-16.767c1.329-5.56,3.226-13.461,4.213-17.558c0.988-4.097,2.67-11.082,3.739-15.522l1.943-8.072 &#9;&#9;&#9;l2.754,0.227c1.515,0.125,3.929,0.406,5.365,0.624c1.436,0.218,4.47,0.176,6.743-0.094c3.899-0.462,4.314-0.409,7.367,0.961 &#9;&#9;&#9;c3.015,1.354,4.295,1.452,4.295,0.331c0-0.598-11.304-6.104-14.1-6.867c-1.17-0.319-2.667-0.583-3.326-0.584 &#9;&#9;&#9;s-1.676-0.482-2.261-1.067c-1.173-1.172-2.714-1.357-4.292-0.513c-1.214,0.65-1.238,0.477-0.448-3.206 &#9;&#9;&#9;c0.455-2.124,0.771-2.653,1.463-2.457c0.789,0.223,4.548,0.997,8.104,1.667c0.711,0.134,1.771,0.344,2.356,0.467 &#9;&#9;&#9;c1.775,0.372,23.848,4.668,25.273,4.92c0.731,0.129,4.203,0.806,7.716,1.504c3.512,0.698,7.343,1.361,8.514,1.473 &#9;&#9;&#9;c2.05,0.196,2.126,0.271,2.046,2.032c-0.044,1.005-0.695,6.257-1.448,11.671c-0.752,5.415-1.519,11.041-1.704,12.504 &#9;&#9;&#9;c-0.329,2.61-0.976,3.99-1.868,3.99c-0.815,0-4.002,3.535-4.695,5.209c-0.504,1.218-0.536,2.103-0.126,3.406 &#9;&#9;&#9;c1.184,3.753,0.976,5.591-0.844,7.469c-1.181,1.218-1.553,1.974-1.23,2.497c0.376,0.609,0.778,0.483,2.147-0.668 &#9;&#9;&#9;c0.927-0.78,2.039-1.418,2.472-1.418c0.8,0,0.79,1.677-0.072,12.238c-0.131,1.609-0.375,5.082-0.542,7.715 &#9;&#9;&#9;c-0.167,2.635-0.404,5.867-0.526,7.184c-0.123,1.317-0.365,4.789-0.54,7.715c-0.174,2.927-0.409,6.159-0.524,7.184 &#9;&#9;&#9;c-0.115,1.025-0.359,4.496-0.543,7.715c-0.184,3.22-0.418,6.451-0.521,7.184c-0.103,0.731-0.351,4.203-0.552,7.716 &#9;&#9;&#9;c-0.201,3.512-0.431,6.744-0.51,7.183c-0.078,0.439-0.316,3.791-0.529,7.449c-0.212,3.658-0.451,7.01-0.532,7.449 &#9;&#9;&#9;c-0.08,0.438-0.319,3.791-0.531,7.449c-0.213,3.658-0.467,7.076-0.564,7.598c-0.099,0.521-0.229,2.496-0.291,4.39 &#9;&#9;&#9;C1411.288,962.703,1410.77,963.763,1409.804,962.867z"/> 	</g> 	<g id="USA"> 		<path id="US-AL" fill="#81A6D8" d="M1538.801,1236.286c-0.235-0.613-0.766-0.726-2.18-0.46l-1.868,0.351l0.299-20.158 &#9;&#9;&#9;c0.164-11.087,0.407-21.236,0.541-22.553c0.132-1.316,0.413-4.429,0.622-6.915c0.21-2.487,0.46-4.928,0.556-5.425 &#9;&#9;&#9;s0.337-2.994,0.538-5.55c0.199-2.556,0.416-5.02,0.483-5.476c0.085-0.573,0.767-0.854,2.201-0.91 &#9;&#9;&#9;c1.144-0.045,7.039-0.225,13.101-0.4l11.022-0.32l0.526,1.989c0.291,1.094,0.792,3.187,1.115,4.649 &#9;&#9;&#9;c0.322,1.463,1.061,4.098,1.639,5.853c0.976,2.971,1.674,6.788,2.358,12.915c0.155,1.384,0.99,3.893,1.858,5.573 &#9;&#9;&#9;c1.632,3.168,1.677,3.534,1.474,12.107c-0.103,4.327,0.056,5.771,1.122,10.245c0.262,1.1,0.321,2.082,0.133,2.186 &#9;&#9;&#9;c-0.19,0.103-3.577,0.225-7.528,0.273c-3.95,0.048-10.413,0.23-14.359,0.407c-6.321,0.281-7.288,0.448-8.114,1.401 &#9;&#9;&#9;c-1.174,1.352-1.185,1.181,0.32,4.95c0.693,1.733,1.416,3.81,1.607,4.614l0.347,1.463h-3.75 &#9;&#9;&#9;C1539.994,1237.097,1539.038,1236.907,1538.801,1236.286z"/> 		<path id="US-AR" fill="#81A6D8" d="M1468.265,1192.422l-0.153-3.974l-1.729-0.494c-2.021-0.578-1.881,0.67-1.681-14.974 &#9;&#9;&#9;c0.075-5.854,0.108-13.939,0.073-17.97l-0.063-7.328l23.402,0.209c12.871,0.116,23.545,0.354,23.721,0.529 &#9;&#9;&#9;s0.014,1.417-0.362,2.758c-0.778,2.778-0.629,3.01,2.531,3.908c1.243,0.354,2.261,0.893,2.261,1.198 &#9;&#9;&#9;c0,0.304-0.803,1.924-1.784,3.598c-0.981,1.675-2.068,4.229-2.416,5.677c-0.407,1.695-1.376,3.484-2.723,5.026 &#9;&#9;&#9;c-1.487,1.703-2.194,3.084-2.452,4.784c-0.235,1.555-1.072,3.332-2.398,5.087c-2.911,3.856-3.791,6.627-3.711,11.681l0.068,4.259 &#9;&#9;&#9;h-16.217h-16.215L1468.265,1192.422z"/> 		<path id="US-AZ" fill="#81A6D8" d="M1280.817,1195.019c-2.634-0.566-6.023-1.385-7.531-1.823 &#9;&#9;&#9;c-1.508-0.437-3.664-0.794-4.791-0.794c-1.678,0-2.673-0.505-5.501-2.793c-1.899-1.537-3.934-3.228-4.521-3.757 &#9;&#9;&#9;c-0.587-0.529-3.223-2.431-5.857-4.226c-5.733-3.905-14.179-10.252-16.76-12.594c-1.024-0.929-2.703-2.04-3.73-2.469 &#9;&#9;&#9;c-1.962-0.819-5.041-4.175-4.554-4.964c0.157-0.253,1.606-0.996,3.22-1.651c2.708-1.099,2.935-1.325,2.935-2.91 &#9;&#9;&#9;c0-1.042-0.418-2.096-1.063-2.682c-1.534-1.387-1.32-2.643,0.825-4.851c1.039-1.07,2.36-2.87,2.937-4.001 &#9;&#9;&#9;c0.628-1.23,1.431-2.055,2.002-2.055c0.524,0,1.616-0.692,2.425-1.536l1.471-1.536l-1.222-2.322c-1-1.898-1.226-3.17-1.239-6.977 &#9;&#9;&#9;c-0.009-2.561,0.135-4.655,0.319-4.655c0.185-0.001,0.511-2.097,0.724-4.657c0.276-3.311,0.691-5.081,1.438-6.129 &#9;&#9;&#9;c0.996-1.399,1.205-1.458,4.108-1.147l3.059,0.326l1.723-4.564c0.947-2.509,1.895-4.67,2.105-4.8 &#9;&#9;&#9;c0.404-0.249,50.696,12.11,51.634,12.689c0.343,0.213,0.373,0.794,0.079,1.564c-0.256,0.675-0.584,1.924-0.729,2.775 &#9;&#9;&#9;c-0.144,0.851-1.964,8.969-4.045,18.041c-2.08,9.073-3.877,16.974-3.993,17.559c-0.116,0.587-1.198,5.375-2.405,10.643 &#9;&#9;&#9;c-1.208,5.268-3.083,13.589-4.168,18.49C1287.448,1197.436,1288.356,1196.638,1280.817,1195.019z"/> 		<g id="US-CA"> 			<path fill="#81A6D8" d="M1224.08,1159.94c-0.871-0.511-11.941-3.531-18.705-5.103c-4.752-1.104-5.172-1.775-5.447-8.713 &#9;&#9;&#9;&#9;c-0.203-5.103-0.322-5.574-2.17-8.615c-1.075-1.771-2.866-3.853-3.98-4.625c-1.114-0.773-2.303-2.053-2.641-2.845 &#9;&#9;&#9;&#9;c-0.339-0.79-1.513-2.169-2.609-3.063c-1.096-0.894-2.78-2.777-3.742-4.187c-1.906-2.794-4.537-4.879-6.162-4.883 &#9;&#9;&#9;&#9;c-1.564-0.005-4.815-2.172-6.322-4.213c-1.486-2.017-1.454-4.321,0.085-6.021c1.181-1.306,0.987-3.481-0.89-9.982 &#9;&#9;&#9;&#9;c-0.887-3.073-1.614-6.2-1.616-6.948c-0.002-0.749-0.784-2.664-1.739-4.258c-2.018-3.366-2.028-3.459-0.646-5.534 &#9;&#9;&#9;&#9;c1.504-2.255,1.396-6.647-0.219-8.832c-1.033-1.397-1.161-2.03-0.855-4.254c0.198-1.436,0.823-3.201,1.391-3.922 &#9;&#9;&#9;&#9;c1.444-1.836,0.924-3.922-1.502-6.019c-1.752-1.515-1.999-2.025-2.055-4.257c-0.035-1.394-0.575-3.689-1.199-5.101 &#9;&#9;&#9;&#9;c-0.625-1.41-1.413-3.925-1.751-5.587c-0.581-2.853-0.511-3.353,1.263-8.99l1.877-5.969l-1.324-3.278 &#9;&#9;&#9;&#9;c-1.304-3.228-1.311-3.313-0.386-5.362c0.516-1.146,1.505-2.729,2.198-3.521c0.693-0.793,2.571-3.398,4.174-5.792 &#9;&#9;&#9;&#9;c2.506-3.742,2.923-4.724,2.974-7.007c0.039-1.694,0.276-2.588,0.657-2.47c0.658,0.205,15.494,5.568,24.274,8.774 &#9;&#9;&#9;&#9;c3.073,1.122,8.024,2.929,11.002,4.014c5.387,1.963,5.412,1.98,4.872,3.369c-0.299,0.768-1.693,4.629-3.098,8.579 &#9;&#9;&#9;&#9;c-1.405,3.951-3.789,10.655-5.3,14.898c-1.51,4.243-3.231,9.098-3.826,10.787c-1.072,3.05-1.077,6.659-0.01,8.041 &#9;&#9;&#9;&#9;c0.252,0.325,1.783,3.107,3.402,6.18c9.733,18.478,33.081,62.099,33.545,62.677c0.304,0.378,0.5,2.333,0.435,4.344 &#9;&#9;&#9;&#9;c-0.092,2.832,0.133,4.149,1,5.849c1.293,2.534,1.125,3.041-1.209,3.641c-1.275,0.328-2.013,1.031-2.938,2.803 &#9;&#9;&#9;&#9;c-0.679,1.299-2.056,3.212-3.06,4.248c-2.146,2.218-2.436,4.687-0.76,6.485c1.569,1.684,1.335,2.149-1.738,3.454 &#9;&#9;&#9;&#9;C1225.317,1160.438,1225.039,1160.501,1224.08,1159.94z"/> 			<path fill="#81A6D8" d="M1187.058,1143.799c-1.635-0.875-0.773-2.217,1.118-1.741c1.52,0.381,1.75,0.961,0.721,1.815 &#9;&#9;&#9;&#9;C1188.433,1144.258,1187.876,1144.237,1187.058,1143.799z"/> 			<path fill="#81A6D8" d="M1188.633,1136.801c-0.862-0.979-0.849-1.864,0.027-1.864c0.89,0,1.968,1.079,1.968,1.968 &#9;&#9;&#9;&#9;C1190.628,1137.815,1189.473,1137.755,1188.633,1136.801z"/> 			<path fill="#81A6D8" d="M1177.326,1124.364c-1.968-0.354-4.789-1.998-4.789-2.79c0-0.259,1.282-0.472,2.848-0.472 &#9;&#9;&#9;&#9;c2.087,0,3.331,0.326,4.656,1.219c0.995,0.67,1.807,1.447,1.807,1.729C1181.849,1124.673,1179.832,1124.813,1177.326,1124.364z"/> 		</g> 		<path id="US-CO" fill="#81A6D8" d="M1375.794,1129.783c-2.344-0.56-10.49-2.235-17.825-3.669 &#9;&#9;&#9;c-0.585-0.114-2.262-0.445-3.725-0.734c-1.463-0.291-3.259-0.628-3.99-0.75c-1.263-0.212-8.611-1.616-27.137-5.183 &#9;&#9;&#9;c-4.536-0.872-9.804-1.89-11.706-2.259c-2.445-0.475-3.429-0.896-3.36-1.438c0.055-0.422,1.936-9.026,4.181-19.123 &#9;&#9;&#9;c2.245-10.097,4.18-18.836,4.3-19.422c0.12-0.585,0.891-4.057,1.713-7.715c1.298-5.777,1.629-6.639,2.518-6.566 &#9;&#9;&#9;c0.563,0.047,3.389,0.586,6.279,1.199c2.891,0.612,5.826,1.218,6.523,1.344c0.697,0.127,1.684,0.355,2.194,0.51 &#9;&#9;&#9;c0.51,0.153,1.525,0.385,2.256,0.512c1.923,0.337,7.907,1.596,19.421,4.087c5.561,1.202,11.068,2.282,12.238,2.397 &#9;&#9;&#9;c1.171,0.115,2.847,0.334,3.725,0.483c0.878,0.15,2.434,0.404,3.458,0.566c9.685,1.529,12.498,2.194,12.393,2.934 &#9;&#9;&#9;c-0.585,4.119-3.427,24.679-3.639,26.322c-0.151,1.171-0.376,2.726-0.502,3.458c-0.126,0.731-0.341,2.169-0.479,3.192 &#9;&#9;&#9;c-0.137,1.024-0.74,5.335-1.337,9.578c-0.599,4.243-1.174,8.434-1.278,9.312c-0.162,1.355-0.425,1.602-1.743,1.629 &#9;&#9;&#9;C1379.419,1130.465,1377.404,1130.166,1375.794,1129.783z"/> 		<path id="US-CT" fill="#81A6D8" d="M1685.067,1062.449c0.12-0.362-0.18-1.75-0.668-3.084c-0.487-1.335-0.813-2.895-0.724-3.468 &#9;&#9;&#9;c0.089-0.571,0.217-1.788,0.285-2.704l0.121-1.665l5.881-1.233c3.235-0.681,6.167-1.284,6.515-1.345 &#9;&#9;&#9;c0.498-0.085,2.826,7.785,2.826,9.551c0,0.175-1.377,0.7-3.06,1.168c-4.613,1.28-8.321,2.537-8.886,3.012 &#9;&#9;&#9;C1686.558,1063.352,1684.825,1063.176,1685.067,1062.449z"/> 		<path id="US-DC" fill="#81A6D8" d="M1653.076,1100.694c-0.464-0.558-0.434-0.879,0.124-1.343c0.56-0.465,0.881-0.434,1.345,0.125 &#9;&#9;&#9;c0.463,0.559,0.434,0.879-0.126,1.343C1653.86,1101.283,1653.539,1101.252,1653.076,1100.694z"/> 		<path id="US-DE" fill="#81A6D8" d="M1667.491,1099.979c-0.596-2.283-1.39-5.783-1.767-7.778c-0.586-3.109-0.574-3.698,0.086-4.116 &#9;&#9;&#9;c1.312-0.829,1.567-0.574,1.567,1.559c0,4.042,0.468,5.032,3.137,6.635c2.386,1.433,5.377,5.295,5.377,6.941 &#9;&#9;&#9;c0,0.495-1.055,0.727-3.659,0.803l-3.659,0.106L1667.491,1099.979z"/> 		<path id="US-FL" fill="#81A6D8" d="M1616.663,1224.925c-0.301-0.004-0.622,0.008-0.964,0.033l-2.179,0.166l-0.166,2.844 &#9;&#9;&#9;c-0.19,3.237-0.181,3.232-1.978,3.559c-0.99,0.18-1.559-0.093-2.195-1.064c-0.67-1.021-1.301-1.295-2.86-1.263 &#9;&#9;&#9;c-1.098,0.022-8.134,0.017-15.646-0.017l-13.668-0.067l-0.366-1.646l-0.365-1.663l-13.901,0.349 &#9;&#9;&#9;c-7.651,0.188-14.396,0.436-14.981,0.55c-0.586,0.113-1.244,0.227-1.463,0.249c-0.654,0.066-0.453,1.338,0.631,4.09 &#9;&#9;&#9;c0.563,1.43,1.17,3.271,1.348,4.091c0.234,1.085,0.567,1.416,1.23,1.229c0.503-0.139,3.373-0.408,6.369-0.598l5.436-0.35 &#9;&#9;&#9;l3.077,1.863c1.688,1.017,3.897,2.105,4.922,2.427c1.135,0.356,2.367,1.321,3.143,2.462c1.167,1.715,1.431,1.843,3.192,1.529 &#9;&#9;&#9;c1.057-0.188,3.828-1.306,6.169-2.479c6.514-3.259,7.673-3.587,9.595-2.676c0.889,0.421,2.185,1.601,2.876,2.609 &#9;&#9;&#9;c0.692,1.011,3.249,3.65,5.687,5.87c5.104,4.646,5.401,5.307,5.854,13.219c0.189,3.325,0.78,6.885,1.579,9.479 &#9;&#9;&#9;c0.702,2.283,1.28,4.555,1.28,5.055c0,0.499,0.832,1.619,1.846,2.493c1.206,1.043,2.228,2.7,2.977,4.789 &#9;&#9;&#9;c0.878,2.452,1.624,3.539,3.209,4.656c1.136,0.8,2.714,2.617,3.509,4.04c0.805,1.441,2.08,2.857,2.877,3.209 &#9;&#9;&#9;c0.785,0.349,2.782,2.166,4.438,4.041c3.117,3.529,6.403,5.693,8.764,5.903c2.359,0.21,4.989-0.011,5.371-0.366 &#9;&#9;&#9;c0.381-0.355,0.587-0.906,0.781-3.076c0.193-2.17,0.692-4.621,1.113-5.438c0.582-1.126,0.738-3.246,0.632-8.846 &#9;&#9;&#9;c-0.134-7.036-0.216-7.525-1.762-10.541c-0.892-1.739-2.623-5.101-3.842-7.483c-1.218-2.382-2.466-5.494-2.776-6.917 &#9;&#9;&#9;c-1.131-5.179-2.304-7.85-5.121-11.573c-4.398-5.813-10.443-18.82-10.443-22.497 &#9;&#9;&#9;C1619.889,1225.737,1618.774,1224.957,1616.663,1224.925z M1631.911,1274.459c0.178,0.006,0.359,0.036,0.548,0.083 &#9;&#9;&#9;c1.373,0.345,1.45,0.516,1.298,3.143c-0.176,3.053-0.808,3.524-3.093,2.361 &#9;&#9;&#9;C1628.023,1278.703,1629.246,1274.368,1631.911,1274.459z"/> 		<path id="US-GA" fill="#81A6D8" d="M1610.399,1228.708c-0.74-1.186-0.775-1.189-16.296-1.189h-15.554l-0.47-1.729 &#9;&#9;&#9;c-0.258-0.951-0.744-1.67-1.079-1.597s-0.61,0.041-0.61-0.074c0-0.113-0.387-2.208-0.861-4.655s-0.791-6.124-0.704-8.174 &#9;&#9;&#9;c0.345-8.079,0.163-9.765-1.286-11.955c-1.291-1.95-2.09-5.275-2.813-11.722c-0.148-1.317-0.831-4.31-1.518-6.652 &#9;&#9;&#9;c-2.041-6.963-3.028-11.374-2.674-11.947c0.183-0.298,0.859-0.506,1.503-0.465c1.109,0.071,8.032-0.437,12.078-0.886 &#9;&#9;&#9;c1.025-0.113,3.946-0.358,6.493-0.544l4.631-0.338l-0.456,1.586c-0.387,1.35-0.244,1.784,0.958,2.907 &#9;&#9;&#9;c0.775,0.727,1.931,1.478,2.566,1.669s2.521,2.018,4.19,4.058c1.67,2.041,4.262,4.67,5.762,5.841 &#9;&#9;&#9;c3.246,2.536,8.257,8.734,10.18,12.591c0.758,1.522,1.793,2.897,2.301,3.06c0.508,0.161,1.368,1.071,1.912,2.023 &#9;&#9;&#9;c1.357,2.374,3.541,4.655,4.458,4.655c0.489,0,0.648,0.332,0.446,0.932c-0.172,0.513-1.153,3.326-2.181,6.252 &#9;&#9;&#9;c-1.297,3.699-1.869,6.264-1.876,8.412c-0.006,2.238-0.184,2.983-0.638,2.702c-0.663-0.409-5.427-0.347-6.88,0.093 &#9;&#9;&#9;c-0.684,0.205-0.783,0.67-0.489,2.271c0.201,1.107,0.206,2.475,0.008,3.039 &#9;&#9;&#9;C1611.158,1229.852,1611.108,1229.845,1610.399,1228.708z"/> 		<path id="US-IA" fill="#81A6D8" d="M1497.334,1089.698c-0.933-0.931-2.192-1.048-14.59-1.358 &#9;&#9;&#9;c-7.463-0.187-15.005-0.412-16.761-0.502c-1.755-0.089-4.663-0.183-6.459-0.209l-3.268-0.047l-1.056-2.263 &#9;&#9;&#9;c-0.581-1.243-1.209-3.817-1.397-5.72c-0.336-3.401-0.7-6.549-1.157-9.994c-0.127-0.96-0.814-2.9-1.53-4.311 &#9;&#9;&#9;c-1.15-2.271-1.31-3.319-1.385-9.161c-0.048-3.629-0.062-6.897-0.031-7.268c0.043-0.53,5.386-0.641,25.707-0.531l25.65,0.139 &#9;&#9;&#9;l0.42,1.861c0.231,1.024,0.568,3.299,0.75,5.055c0.364,3.52,1.724,5.946,3.594,6.416c0.653,0.164,1.465,0.942,1.802,1.73 &#9;&#9;&#9;c0.338,0.787,1.143,2.08,1.789,2.873c2.001,2.453,1.059,8.561-1.531,9.921c-0.511,0.268-1.944,0.654-3.188,0.861 &#9;&#9;&#9;c-2.228,0.368-2.261,0.407-2.308,2.588c-0.173,8.11-0.199,8.212-2.54,9.878C1498.377,1090.702,1498.34,1090.703,1497.334,1089.698 &#9;&#9;&#9;z"/> 		<path id="US-ID" fill="#81A6D8" d="M1298.376,1041.496c-1.17-0.354-9.191-2.842-17.825-5.529 &#9;&#9;&#9;c-8.633-2.688-17.971-5.594-20.751-6.459s-7.529-2.319-10.555-3.229c-6.394-1.925-6.106-0.76-2.595-10.529 &#9;&#9;&#9;c1.314-3.658,2.55-7.849,2.745-9.313c0.26-1.943,0.792-3.112,1.978-4.338c1.545-1.602,1.604-1.825,1.26-4.776 &#9;&#9;&#9;c-0.199-1.703-0.372-3.222-0.385-3.376c-0.094-1.133,0.323-1.695,1.832-2.476c1.871-0.967,4.634-3.815,4.647-4.793 &#9;&#9;&#9;c0.005-0.332,0.954-1.528,2.108-2.66l2.1-2.057l-0.775-4.256c-1.269-6.971-0.92-11.161,1.497-18.01 &#9;&#9;&#9;c1.152-3.265,3.638-10.354,5.522-15.753c1.885-5.399,3.537-9.928,3.672-10.062c0.348-0.349,6.635,1.614,6.635,2.071 &#9;&#9;&#9;c0,0.208-0.604,2.745-1.343,5.636c-0.879,3.439-1.333,6.635-1.313,9.247c0.017,2.193,0.033,4.468,0.037,5.052 &#9;&#9;&#9;c0.003,0.583,0.923,2.738,2.045,4.789c1.121,2.049,2.218,4.564,2.437,5.589c0.383,1.789,2.168,4.863,3.04,5.231 &#9;&#9;&#9;c0.764,0.324,0.426,2.462-0.646,4.08c-0.581,0.878-1.058,2.358-1.06,3.29c-0.002,1.24-0.296,1.786-1.098,2.04 &#9;&#9;&#9;c-1.238,0.394-2.098,2.247-2.098,4.523c0,1.293,0.285,1.616,1.796,2.033c0.988,0.272,2.398,0.38,3.134,0.239 &#9;&#9;&#9;c1.142-0.218,1.42,0.006,1.896,1.524c0.306,0.979,0.704,2.961,0.884,4.403c0.18,1.443,0.411,2.761,0.513,2.927 &#9;&#9;&#9;c0.102,0.167,0.329,1.141,0.505,2.165c0.714,4.161,1.352,6.019,2.48,7.219c1.06,1.129,1.502,1.229,4.168,0.953 &#9;&#9;&#9;c1.98-0.207,4.183-0.008,6.558,0.589c1.967,0.494,4.002,0.766,4.523,0.604c1.522-0.474,2.446,0.448,2.152,2.15 &#9;&#9;&#9;c-0.145,0.837-1.396,6.191-2.781,11.897c-1.385,5.707-3.034,12.543-3.664,15.19l-1.146,4.814L1298.376,1041.496z"/> 		<path id="US-IL" fill="#81A6D8" d="M1522.069,1137.546c-0.233-6.008-0.604-6.654-6.069-10.609 &#9;&#9;&#9;c-3.749-2.712-3.999-3.016-3.72-4.505c0.164-0.877,0.435-2.835,0.603-4.35c0.338-3.047-0.18-3.937-3.356-5.765 &#9;&#9;&#9;c-1.63-0.938-2.839-2.738-2.839-4.229c0-0.398-1.496-2.328-3.325-4.288c-3.51-3.761-3.767-4.272-4.275-8.505l-0.319-2.66 &#9;&#9;&#9;l2.566-1.954l2.566-1.952l0.079-4.67c0.045-2.568,0.139-4.728,0.209-4.799c0.071-0.07,0.772-0.246,1.56-0.389 &#9;&#9;&#9;c4.099-0.743,6.244-3.539,6.587-8.584c0.153-2.263-0.056-2.992-1.403-4.877c-0.87-1.218-1.583-2.329-1.583-2.469 &#9;&#9;&#9;s3.053-0.186,6.783-0.101c3.731,0.085,9.958,0.18,13.835,0.209l7.05,0.054v1.349c0,0.742,0.342,1.88,0.76,2.528 &#9;&#9;&#9;c1.401,2.175,1.705,6.4,1.823,25.388c0.064,10.389,0.244,19.879,0.399,21.09c0.248,1.937-0.002,2.643-2.079,5.884 &#9;&#9;&#9;c-2.058,3.21-2.4,4.17-2.676,7.477c-0.375,4.528-1.444,7.353-2.968,7.836c-0.613,0.193-1.361,0.816-1.663,1.382 &#9;&#9;&#9;c-0.444,0.829-1.13,1.027-3.549,1.027c-2.044,0-3.311,0.281-3.973,0.881C1522.175,1138.776,1522.116,1138.752,1522.069,1137.546z"/> 		<path id="US-IN" fill="#81A6D8" d="M1537.144,1125.488c0.148-1.1,1.221-3.506,2.385-5.347l2.117-3.348l-0.201-20.858 &#9;&#9;&#9;c-0.112-11.472-0.293-21.277-0.403-21.79c-0.152-0.706,0.146-0.931,1.239-0.931c0.792,0,1.684-0.243,1.982-0.542 &#9;&#9;&#9;c0.324-0.325,4.982-0.592,11.627-0.665c9.509-0.105,11.102-0.01,11.202,0.675c0.629,4.291,1.93,39.079,1.501,40.195 &#9;&#9;&#9;c-0.163,0.427-0.93,0.779-1.704,0.784c-1.847,0.011-2.069,0.193-5.139,4.249c-3.576,4.723-3.867,4.977-5.772,5.046 &#9;&#9;&#9;c-0.918,0.033-2.985,0.832-4.595,1.774c-2.609,1.528-3.331,1.704-6.652,1.625c-2.048-0.049-4.397,0.186-5.222,0.521 &#9;&#9;&#9;C1537.142,1127.842,1536.852,1127.671,1537.144,1125.488z"/> 		<path id="US-KS" fill="#81A6D8" d="M1459.172,1137.799c-0.057-0.056-2.5-0.26-5.427-0.456s-5.68-0.443-6.118-0.548 &#9;&#9;&#9;c-0.439-0.104-3.072-0.354-5.854-0.553c-2.78-0.197-5.419-0.429-5.862-0.513c-0.446-0.084-3.199-0.325-6.119-0.535 &#9;&#9;&#9;c-2.921-0.211-5.671-0.448-6.109-0.527c-0.438-0.08-3.072-0.318-5.854-0.529c-2.779-0.212-5.413-0.449-5.854-0.529 &#9;&#9;&#9;c-0.438-0.08-3.072-0.32-5.852-0.535c-2.78-0.214-5.419-0.457-5.863-0.539c-0.445-0.083-3.198-0.324-6.119-0.538 &#9;&#9;&#9;c-2.92-0.214-5.67-0.459-6.109-0.546c-0.438-0.086-1.651-0.176-2.695-0.197l-1.898-0.042l0.949-6.784 &#9;&#9;&#9;c0.522-3.73,1.088-7.861,1.258-9.179c0.17-1.316,0.416-2.992,0.547-3.725c0.13-0.731,0.349-2.167,0.485-3.191 &#9;&#9;&#9;c0.135-1.024,0.514-3.778,0.841-6.119c0.327-2.342,0.703-5.095,0.835-6.119s0.379-2.785,0.548-3.913l0.307-2.051l3.535,0.302 &#9;&#9;&#9;c3.39,0.288,11.594,1.163,15.508,1.653c1.024,0.129,3.419,0.381,5.321,0.562s4.057,0.415,4.789,0.521 &#9;&#9;&#9;c0.731,0.107,2.886,0.346,4.788,0.532s4.058,0.424,4.789,0.527c0.731,0.103,3.125,0.354,5.32,0.558 &#9;&#9;&#9;c2.194,0.202,4.35,0.434,4.789,0.512c0.438,0.078,2.594,0.317,4.789,0.531c2.194,0.215,4.445,0.476,4.999,0.578 &#9;&#9;&#9;c0.555,0.105,3.069,0.332,5.588,0.509c4.104,0.284,4.737,0.475,6.126,1.84c1.531,1.505,1.539,1.538,0.604,2.966 &#9;&#9;&#9;c-0.807,1.231-0.854,1.743-0.33,3.495c0.34,1.135,0.955,2.053,1.374,2.053c0.416,0,0.989,0.433,1.271,0.961 &#9;&#9;&#9;c0.914,1.709,1.249,16.294,0.537,23.337l-0.665,6.566l-1.531-0.116C1459.969,1137.952,1459.231,1137.854,1459.172,1137.799z"/> 		<path id="US-KY" fill="#81A6D8" d="M1523.793,1142.81c0.074-1.55,0.355-3.118,0.626-3.483c0.296-0.402,1.736-0.665,3.634-0.665 &#9;&#9;&#9;c2.261,0,3.229-0.218,3.441-0.773c0.163-0.426,1.085-1.239,2.049-1.808c1.377-0.812,1.898-1.607,2.439-3.719 &#9;&#9;&#9;c0.649-2.535,0.822-2.728,3.122-3.456c1.34-0.426,4.173-0.764,6.295-0.752c3.424,0.021,4.164-0.168,6.554-1.652 &#9;&#9;&#9;c1.571-0.976,3.41-1.675,4.413-1.675c1.844,0,3.73-1.657,7.266-6.385c0.985-1.316,1.87-2.498,1.965-2.626 &#9;&#9;&#9;c0.095-0.127,1.186-0.366,2.424-0.531l2.252-0.302l0.163-2.556l0.163-2.556l1.833,0.292c1.008,0.16,2.782,0.979,3.942,1.819 &#9;&#9;&#9;c2.442,1.769,5.846,2.425,11.753,2.265c3.496-0.095,4.152,0.038,5.038,1.017c0.685,0.757,0.966,1.728,0.86,2.966 &#9;&#9;&#9;c-0.183,2.107,0.967,4.32,4.293,8.263l2.209,2.622l-1.292,0.9c-1.512,1.051-2.147,1.701-7.213,7.369 &#9;&#9;&#9;c-3.29,3.682-4.027,4.246-5.587,4.271c-4.973,0.077-37.234,0.917-39.31,1.022c-1.316,0.067-4.138,0.149-6.269,0.181 &#9;&#9;&#9;c-3.155,0.049-3.945,0.232-4.257,0.991c-0.446,1.092,0.067,0.989-7.194,1.431l-5.748,0.349L1523.793,1142.81z"/> 		<path id="US-LA" fill="#81A6D8" d="M1522.916,1254.573c-0.877-0.293-2.738-1.001-4.135-1.574 &#9;&#9;&#9;c-2.293-0.941-2.703-0.968-4.256-0.274c-1.932,0.864-3.301,1.199-6.778,1.664c-3.272,0.438-6.546-1.091-9.433-4.401 &#9;&#9;&#9;c-1.241-1.422-3.354-3.134-4.694-3.804l-2.44-1.217l-1.158,1.068c-2.168,2.002-6.781,1.712-11.085-0.697 &#9;&#9;&#9;c-1.744-0.978-9.508-1.097-10.443-0.161c-1.159,1.158-1.124,0.173,0.129-3.567c0.684-2.043,1.389-4.791,1.567-6.108 &#9;&#9;&#9;c0.576-4.243,0.845-5.251,1.876-7.031c0.927-1.599,0.955-2.042,0.331-5.206c-0.374-1.902-1.344-4.895-2.154-6.65 &#9;&#9;&#9;c-1.337-2.9-1.493-3.889-1.705-10.775l-0.235-7.583h16.267c12.64,0,16.274,0.148,16.304,0.665c0.114,2.131,0.575,4.58,1.104,5.882 &#9;&#9;&#9;c0.827,2.03,0.03,4.573-3.591,11.464c-3.402,6.474-4.117,9.958-2.191,10.678c0.651,0.241,3.458,0.504,6.238,0.582 &#9;&#9;&#9;c4.39,0.122,9.213,0.297,13.093,0.475c1.009,0.047,1.15,0.459,1.43,4.148c0.344,4.555,0.771,5.158,5.031,7.14 &#9;&#9;&#9;c2.079,0.968,2.261,1.216,2.261,3.073c0,1.261-0.354,2.342-0.945,2.877c-1.602,1.449-1.401,3.346,0.436,4.106 &#9;&#9;&#9;c1.774,0.734,4.234,3.382,4.234,4.556c0,0.416-0.459,0.757-1.02,0.757c-0.562,0-1.34,0.101-1.729,0.223 &#9;&#9;&#9;C1524.832,1255.003,1523.795,1254.865,1522.916,1254.573z"/> 		<g id="US-MA"> 			<path fill="#81A6D8" d="M1712.175,1054.193c0.099-0.512,0.652-0.932,1.229-0.932s1.13,0.42,1.229,0.932 &#9;&#9;&#9;&#9;c0.134,0.696-0.175,0.931-1.229,0.931C1712.349,1055.123,1712.04,1054.889,1712.175,1054.193z"/> 			<path fill="#81A6D8" d="M1718.038,1053.167c-0.974-0.391,0.233-1.769,1.55-1.769c1.146,0,1.283,0.567,0.361,1.49 &#9;&#9;&#9;&#9;C1719.266,1053.572,1719.104,1053.596,1718.038,1053.167z"/> 			<path fill="#81A6D8" d="M1706.029,1049.799c-1.13-1.755-2.327-3.207-2.66-3.229c-0.334-0.022-1.003-0.118-1.486-0.212 &#9;&#9;&#9;&#9;c-0.703-0.137-11.466,1.894-16.722,3.154c-1.015,0.243-1.116,0.012-1.208-2.782c-0.055-1.675-0.234-3.704-0.398-4.51 &#9;&#9;&#9;&#9;c-0.283-1.389-0.195-1.466,1.74-1.502c1.12-0.023,2.635-0.139,3.366-0.259c0.732-0.121,3.817-0.617,6.855-1.103 &#9;&#9;&#9;&#9;c5.283-0.843,5.606-0.972,7.378-2.934c1.43-1.582,2.251-2.051,3.589-2.051c2.555,0,3.037,0.894,2.122,3.935 &#9;&#9;&#9;&#9;c-0.697,2.314-0.683,2.658,0.154,3.777c0.506,0.68,1.816,1.791,2.915,2.473c1.097,0.683,1.995,1.371,1.995,1.532 &#9;&#9;&#9;&#9;c0,0.676,3.169,2.093,3.982,1.78c1.081-0.415,0.675-2.771-0.654-3.786c-0.781-0.598-0.755-0.666,0.258-0.666 &#9;&#9;&#9;&#9;c0.655,0,1.622,0.691,2.3,1.643c1.16,1.63,1.161,1.653,0.147,3.013c-0.566,0.758-2.202,1.771-3.66,2.267 &#9;&#9;&#9;&#9;c-1.452,0.494-3.357,1.292-4.236,1.774C1709.099,1053.6,1708.264,1053.265,1706.029,1049.799z"/> 		</g> 		<path id="US-MD" fill="#81A6D8" d="M1667.973,1110.12c-0.44-0.969-0.921-1.293-1.637-1.106c-1.98,0.518-4.119-3.324-4.231-7.599 &#9;&#9;&#9;c-0.026-1.023-0.194-2.763-0.373-3.864c-0.202-1.251-0.079-2.297,0.327-2.786c0.357-0.433,0.507-1.156,0.333-1.612 &#9;&#9;&#9;c-0.452-1.177-2.215-0.144-3.284,1.925c-1.145,2.212-0.569,10.502,0.934,13.463l1.051,2.07l-1.246-0.353 &#9;&#9;&#9;c-0.686-0.195-1.901-0.497-2.702-0.672c-2-0.437-4.132-2.535-4.132-4.065c0-0.697,0.818-2.205,1.817-3.352l1.817-2.084 &#9;&#9;&#9;l-1.365-1.443l-1.365-1.442l-1.577,1.326c-1.696,1.427-3.408,1.357-4.382-0.177c-0.293-0.462-1.331-1.636-2.307-2.61 &#9;&#9;&#9;c-1.506-1.504-2.151-1.771-4.257-1.767c-3.521,0.009-6.978,1.19-10.156,3.475c-1.511,1.085-2.866,1.853-3.013,1.707 &#9;&#9;&#9;c-0.146-0.146-0.402-1.1-0.567-2.118c-0.299-1.848-0.293-1.854,2.019-2.137c1.275-0.156,6.629-1.039,11.896-1.963 &#9;&#9;&#9;c9.874-1.73,10.082-1.767,14.1-2.426c1.317-0.217,2.874-0.489,3.459-0.606s1.795-0.335,2.688-0.485l1.623-0.271l0.926,4.938 &#9;&#9;&#9;c0.511,2.715,1.416,6.434,2.013,8.263l1.085,3.325h4.199h4.197l-0.129,2.361c-0.07,1.299-0.243,2.462-0.384,2.586 &#9;&#9;&#9;c-0.14,0.124-1.716,0.371-3.503,0.55C1668.732,1111.479,1668.572,1111.435,1667.973,1110.12z"/> 		<path id="US-ME" fill="#81A6D8" d="M1704.909,1026.634c-1.799-2.358-5.703-14.361-7.003-21.527 &#9;&#9;&#9;c-0.132-0.731-0.36-1.729-0.508-2.216c-0.146-0.488-0.032-1.03,0.253-1.207c0.841-0.521,2.836-6.221,3.084-8.814 &#9;&#9;&#9;c0.126-1.317,0.463-3.711,0.749-5.321c0.286-1.609,0.664-4.338,0.84-6.063s0.946-5.078,1.713-7.449l1.394-4.313l3.616-0.356 &#9;&#9;&#9;c1.989-0.198,3.903-0.571,4.253-0.831c0.35-0.261,1.175-0.429,1.834-0.374c0.657,0.055,1.547,0.129,1.976,0.165 &#9;&#9;&#9;c0.43,0.037,1.6,0.786,2.6,1.664c1.481,1.301,1.813,1.968,1.789,3.593c-0.075,4.962,3.758,14.513,6.288,15.666 &#9;&#9;&#9;c0.723,0.329,1.313,0.864,1.313,1.19c0,0.325,0.716,1.458,1.591,2.52c1.183,1.434,2.267,2.092,4.23,2.563 &#9;&#9;&#9;c3.272,0.785,4.171,1.703,3.283,3.352c-1.491,2.769-4.137,5.167-6.477,5.871c-1.788,0.538-3.612,1.885-7.168,5.292 &#9;&#9;&#9;c-2.624,2.514-5.848,5.394-7.165,6.401c-1.316,1.008-3.353,2.988-4.523,4.403c-1.17,1.414-3.057,3.661-4.189,4.993 &#9;&#9;&#9;c-1.135,1.33-2.119,2.485-2.188,2.566C1706.425,1028.482,1705.713,1027.687,1704.909,1026.634z"/> 		<g id="US-MI"> 			<path fill="#81A6D8" d="M1548.724,1070.024c0-0.335,0.358-0.969,0.797-1.408c0.438-0.438,0.799-1.374,0.799-2.079 &#9;&#9;&#9;&#9;c0-0.704,0.515-2.848,1.144-4.764c0.932-2.838,1.029-3.732,0.532-4.825c-0.337-0.738-0.611-2.408-0.611-3.712 &#9;&#9;&#9;&#9;c0-1.303-0.199-2.368-0.442-2.368c-0.242,0-1.02-1.238-1.729-2.751c-1.499-3.201-1.58-8.142-0.168-10.297 &#9;&#9;&#9;&#9;c0.465-0.71,0.949-2.397,1.074-3.753c0.128-1.354,0.584-2.814,1.014-3.245c0.431-0.43,0.782-1.325,0.782-1.989 &#9;&#9;&#9;&#9;c0-0.771,0.481-1.425,1.33-1.813c0.732-0.334,1.33-0.851,1.33-1.15c0-1.165,1.063-0.463,1.394,0.92 &#9;&#9;&#9;&#9;c0.489,2.042,0.662,2.257,1.551,1.915c0.43-0.164,0.789-0.933,0.799-1.705c0.009-0.773,0.335-1.825,0.723-2.338 &#9;&#9;&#9;&#9;c0.39-0.514,0.598-1.511,0.462-2.218c-0.196-1.033,0.001-1.32,1.005-1.463c1.06-0.149,1.263-0.503,1.328-2.306 &#9;&#9;&#9;&#9;c0.173-4.806-0.031-4.451,2.372-4.129c1.378,0.185,2.322,0.065,2.563-0.325c0.255-0.412,1.125,0.087,2.607,1.498 &#9;&#9;&#9;&#9;c1.233,1.175,3.164,2.37,4.329,2.685c3.657,0.985,5.092,3.085,5.636,8.253c0.53,5.037,0.427,5.959-0.872,7.783 &#9;&#9;&#9;&#9;c-0.979,1.376-1.358,2.328-1.508,3.79c-0.021,0.22-0.399,0.398-0.839,0.398c-0.552,0-0.798,0.555-0.798,1.798 &#9;&#9;&#9;&#9;c0,0.988,0.36,2.096,0.798,2.459c0.945,0.784,1.31,0.558,5.432-3.387l2.77-2.649l1.807,1.972 &#9;&#9;&#9;&#9;c1.736,1.896,2.904,4.675,3.384,8.055c0.124,0.879,0.421,2.195,0.658,2.928c0.734,2.263-0.696,5.853-3.385,8.49 &#9;&#9;&#9;&#9;c-1.329,1.305-2.417,2.69-2.417,3.079c0,0.388-0.385,1.292-0.855,2.01c-0.47,0.718-0.871,2.385-0.892,3.706l-0.038,2.401 &#9;&#9;&#9;&#9;l-2.966,0.041c-1.63,0.022-3.443,0.142-4.028,0.267c-0.97,0.204-8.214,0.278-11.44,0.116c-0.732-0.035-4.502,0.11-8.38,0.328 &#9;&#9;&#9;&#9;C1550.596,1070.53,1548.724,1070.473,1548.724,1070.024z"/> 			<path fill="#81A6D8" d="M1536.541,1018.912c-1.895-3.07-2.689-3.854-5.011-4.938c-3.6-1.68-9.806-3.841-14.429-5.024 &#9;&#9;&#9;&#9;c-3.157-0.809-3.825-1.192-4.648-2.667c-0.938-1.677-0.936-1.75,0.095-2.779c0.582-0.581,1.551-1.058,2.154-1.058 &#9;&#9;&#9;&#9;c1.972,0,6.58-1.721,8.4-3.137c4.391-3.416,9.029-6.031,9.825-5.539c0.244,0.151-0.055,0.622-0.664,1.049 &#9;&#9;&#9;&#9;c-1.46,1.023-2.725,3.527-2.204,4.368c0.423,0.686,1.526,1.018,3.614,1.091c0.648,0.021,2.395,1.118,3.879,2.438 &#9;&#9;&#9;&#9;c3.053,2.712,3.501,2.74,10.903,0.714c7.271-1.99,13.468-1.803,14.327,0.433c0.177,0.463,0.686,0.665,1.235,0.492 &#9;&#9;&#9;&#9;c1.547-0.487,6.348,2.068,7.284,3.879c1.081,2.09,1.049,2.586-0.19,2.979c-2.35,0.746-3.776,0.912-9.087,1.059 &#9;&#9;&#9;&#9;c-3.073,0.084-6.261,0.422-7.085,0.751s-2.515,0.598-3.758,0.598c-1.894,0-2.45,0.259-3.439,1.596 &#9;&#9;&#9;&#9;c-0.71,0.961-1.663,1.598-2.391,1.598c-1.108,0-5.143,3.112-5.143,3.968c0,0.2-0.318,0.684-0.708,1.072 &#9;&#9;&#9;&#9;C1538.913,1022.444,1538.416,1021.95,1536.541,1018.912z"/> 		</g> 		<path id="US-MN" fill="#81A6D8" d="M1450.632,1042.893c0.284-7.342,0.739-15.302,1.046-18.322c0.229-2.265,0.053-4.03-0.63-6.286 &#9;&#9;&#9;c-0.905-2.989-0.906-3.209-0.019-4.712c0.813-1.374,0.885-2.439,0.574-8.347c-0.197-3.724-0.443-7.847-0.55-9.164 &#9;&#9;&#9;c-0.105-1.316-0.355-7.937-0.557-14.711l-0.364-12.316l3.668,0.2c11.668,0.64,11.96,0.637,12.74-0.146 &#9;&#9;&#9;c0.425-0.425,0.772-1.234,0.772-1.798c0-1.171,0.21-1.236,1.593-0.495c0.703,0.375,1.101,1.411,1.37,3.56 &#9;&#9;&#9;c0.446,3.578,1.341,4.679,4.221,5.194c1.171,0.211,2.501,0.717,2.958,1.126c0.562,0.504,2.415,0.776,5.766,0.846 &#9;&#9;&#9;c4.774,0.102,5.002,0.162,6.887,1.861c1.072,0.966,2.309,1.766,2.746,1.777c0.439,0.013,1.87,0.748,3.18,1.636 &#9;&#9;&#9;c2.104,1.424,2.788,1.604,5.853,1.525c3.537-0.09,10.158,0.675,11.864,1.369c0.853,0.348,0.812,0.504-0.427,1.652 &#9;&#9;&#9;c-0.753,0.699-1.896,1.275-2.538,1.282c-2.196,0.021-5.501,1.945-6.715,3.908c-0.65,1.055-1.885,2.332-2.742,2.838 &#9;&#9;&#9;c-0.856,0.506-1.558,1.108-1.558,1.337c0,0.229-0.332,0.418-0.737,0.418c-0.404,0-1.098,0.55-1.538,1.224 &#9;&#9;&#9;c-0.442,0.673-1.896,2.051-3.23,3.06c-2.794,2.11-3.001,2.484-3.367,6.092c-0.149,1.464-0.351,3.14-0.447,3.725 &#9;&#9;&#9;c-0.099,0.586-0.196,1.189-0.218,1.343c-0.021,0.153-0.896,0.739-1.943,1.303c-2.141,1.153-3.421,3.213-2.984,4.804 &#9;&#9;&#9;c0.448,1.637,0.394,8.367-0.078,9.701c-0.318,0.901-0.119,1.481,0.819,2.395c3.199,3.11,10.767,9.798,11.838,10.46 &#9;&#9;&#9;c1.117,0.691,2.419,3.273,2.419,4.796c0,0.533-5.124,0.637-24.902,0.501l-24.903-0.169L1450.632,1042.893z"/> 		<path id="US-MO" fill="#81A6D8" d="M1514.67,1153.425c-0.732-0.334-1.391-0.641-1.464-0.68c-0.074-0.041,0.074-1.183,0.327-2.539 &#9;&#9;&#9;c0.797-4.27,2.021-4.065-25.237-4.224l-23.909-0.139l-0.076-1.33c-0.361-6.306-0.152-10.653,0.688-14.366 &#9;&#9;&#9;c0.309-1.362,0.263-12.521-0.07-17.293c-0.102-1.463-0.205-3.19-0.23-3.84c-0.023-0.648-0.901-2.037-1.949-3.085 &#9;&#9;&#9;c-1.792-1.792-1.859-1.979-1.116-3.114c1.501-2.291,1.298-3.738-0.781-5.563c-1.288-1.131-2.117-2.459-2.51-4.016 &#9;&#9;&#9;c-0.322-1.279-0.726-2.69-0.896-3.136c-0.262-0.682,0.221-0.783,3.05-0.647c1.849,0.089,10.424,0.326,19.058,0.528 &#9;&#9;&#9;c8.633,0.201,16.101,0.582,16.595,0.846s0.875,0.898,0.849,1.41c-0.056,1.026,0.507,5.498,0.952,7.581 &#9;&#9;&#9;c0.156,0.732,1.711,2.767,3.453,4.522c2.031,2.046,3.365,3.907,3.715,5.181c0.342,1.247,1.251,2.534,2.443,3.458 &#9;&#9;&#9;c4.393,3.407,4.025,2.591,3.232,7.188c-0.392,2.266-0.577,4.313-0.412,4.55c0.165,0.236,2.16,1.819,4.434,3.518 &#9;&#9;&#9;c2.275,1.698,4.344,3.482,4.597,3.964c0.254,0.481,0.626,2.304,0.827,4.049c0.405,3.529,0.589,4.01,1.529,4.01 &#9;&#9;&#9;c0.438,0,0.584,0.734,0.455,2.262c-0.147,1.728-0.59,2.616-1.877,3.768c-1.296,1.159-1.81,2.199-2.23,4.518 &#9;&#9;&#9;C1517.526,1154.036,1516.957,1154.47,1514.67,1153.425z"/> 		<path id="US-MS" fill="#81A6D8" d="M1520.873,1236.87c-1.979-1.662-2.031-1.796-2.211-5.773c-0.101-2.24-0.305-4.269-0.453-4.509 &#9;&#9;&#9;c-0.147-0.24-3.459-0.517-7.357-0.614c-3.9-0.098-8.048-0.243-9.219-0.323c-1.17-0.079-2.666-0.17-3.325-0.202 &#9;&#9;&#9;c-1.937-0.092-1.518-2.658,1.247-7.632c1.344-2.418,3.028-6.007,3.744-7.975c1.218-3.348,1.248-3.684,0.476-5.178 &#9;&#9;&#9;c-0.568-1.098-0.919-3.81-1.121-8.659c-0.348-8.355,0.156-10.548,3.415-14.863c1.309-1.735,2.323-3.744,2.521-4.998 &#9;&#9;&#9;c0.412-2.594,0.791-3.305,2.752-5.172l1.553-1.477l11.53-0.305l11.527-0.305l-0.004,1.515c-0.002,0.835-0.227,3.553-0.497,6.04 &#9;&#9;&#9;c-0.271,2.487-0.646,6.318-0.832,8.513c-0.186,2.195-0.424,4.589-0.527,5.321c-0.557,3.891-0.964,18.468-0.875,31.26l0.101,14.499 &#9;&#9;&#9;l-1.209,0.031c-4.589,0.116-7.624,0.678-8.38,1.55C1522.938,1238.525,1522.802,1238.489,1520.873,1236.87z"/> 		<path id="US-MT" fill="#81A6D8" d="M1376.282,1015.001c-0.122-0.119-0.939-0.341-1.818-0.493 &#9;&#9;&#9;c-1.702-0.296-10.584-2.139-27.403-5.686c-5.706-1.204-14.805-3.112-20.219-4.241c-5.414-1.129-10.92-2.305-12.238-2.612 &#9;&#9;&#9;c-3.536-0.827-3.603-0.801-4.782,1.941c-1.072,2.494-1.118,2.525-3.435,2.447c-1.292-0.042-3.199-0.358-4.239-0.702 &#9;&#9;&#9;c-1.04-0.344-3.709-0.643-5.932-0.666c-5.024-0.053-5.097-0.146-6.604-8.396c-1.477-8.096-2.16-10.633-2.88-10.689 &#9;&#9;&#9;c-0.328-0.026-1.764-0.006-3.191,0.043c-2.585,0.091-2.594,0.084-2.227-1.384c0.344-1.37,1.639-2.813,2.561-2.852 &#9;&#9;&#9;c0.219-0.009,0.398-0.878,0.398-1.93c0-1.053,0.47-2.571,1.043-3.377c1.614-2.268,1.555-4.794-0.157-6.639 &#9;&#9;&#9;c-0.792-0.854-1.825-2.875-2.295-4.491c-0.469-1.615-1.552-4.073-2.406-5.462c-2.381-3.869-2.595-9.3-0.69-17.472l1.453-6.235 &#9;&#9;&#9;l6.448,2.07c6.016,1.933,31.088,8.912,34.648,9.646c0.878,0.181,4.35,1.06,7.715,1.953c5.242,1.392,39.913,9.32,46.727,10.688 &#9;&#9;&#9;c1.263,0.253,2.46,0.556,2.66,0.672s1.912,0.373,3.805,0.569c1.894,0.196,3.509,0.424,3.591,0.505 &#9;&#9;&#9;c0.081,0.082-0.084,1.447-0.369,3.032c-0.549,3.064-0.843,4.817-1.37,8.139c-0.179,1.135-0.425,2.571-0.547,3.193 &#9;&#9;&#9;c-0.208,1.068-0.402,2.188-1.021,5.918c-0.96,5.783-5.139,30.063-5.379,31.261 &#9;&#9;&#9;C1377.876,1015.032,1376.953,1015.655,1376.282,1015.001z"/> 		<path id="US-NC" fill="#81A6D8" d="M1648.725,1174.014c-1.008-0.749-2.552-1.716-3.429-2.148 &#9;&#9;&#9;c-0.878-0.434-3.971-2.691-6.874-5.019l-5.277-4.232l-6.011,0.221c-5.13,0.188-6.188,0.083-7.226-0.714 &#9;&#9;&#9;c-2.01-1.539-3.095-1.741-9.005-1.671c-5.895,0.069-9.996,0.948-15.007,3.211c-2.745,1.241-3.307,1.338-10.728,1.861 &#9;&#9;&#9;c-2.632,0.185-5.267,0.452-5.852,0.593c-0.958,0.23-0.942,0.161,0.159-0.696c0.673-0.523,2.228-1.994,3.457-3.269 &#9;&#9;&#9;s3.434-2.925,4.896-3.668s3.857-2.397,5.321-3.677c1.463-1.28,4.575-3.256,6.917-4.391c4.352-2.11,6.783-4.173,7.425-6.301 &#9;&#9;&#9;c0.519-1.711,1.554-2.091,6.879-2.514c2.599-0.206,5.232-0.452,5.852-0.547c0.621-0.095,2.529-0.334,4.242-0.53 &#9;&#9;&#9;c1.713-0.195,3.628-0.446,4.256-0.557c0.629-0.109,5.693-0.807,11.253-1.55c5.561-0.742,10.589-1.439,11.174-1.549 &#9;&#9;&#9;c0.586-0.108,2.164-0.358,3.508-0.554c3.778-0.547,11.006-1.884,14.654-2.708c0.881-0.198,1.287,0.111,1.812,1.38 &#9;&#9;&#9;c0.631,1.519,0.576,1.724-0.757,2.868l-1.435,1.233l2.633,0.361c1.963,0.27,2.982,0.756,4.012,1.91 &#9;&#9;&#9;c1.808,2.029,1.744,2.699-0.484,5.12c-1.024,1.114-1.998,2.444-2.164,2.956c-0.259,0.805-2.587,1.276-5.054,1.026 &#9;&#9;&#9;c-0.166-0.017-0.286,1.032-0.266,2.33l0.036,2.361l1.995,0.001c2.304,0.002,2.466,0.503,0.798,2.468 &#9;&#9;&#9;c-2.377,2.802-3.262,3.387-5.119,3.387c-1.631,0-2.371,0.531-6.019,4.324c-3.636,3.78-4.159,4.568-4.159,6.26 &#9;&#9;&#9;c0,1.749-0.205,2.023-2.133,2.859c-1.172,0.507-2.203,0.923-2.291,0.923C1650.63,1175.375,1649.734,1174.763,1648.725,1174.014z"/> 		<path id="US-ND" fill="#81A6D8" d="M1446.438,1011.205c-0.079-0.07-1.579-0.281-3.335-0.468c-1.756-0.186-3.791-0.444-4.522-0.573 &#9;&#9;&#9;c-0.732-0.129-2.407-0.367-3.725-0.528s-3.232-0.401-4.257-0.534c-2.992-0.386-5.387-0.686-8.514-1.063 &#9;&#9;&#9;c-1.609-0.195-3.533-0.45-4.276-0.566c-0.742-0.116-6.13-0.817-11.972-1.559c-5.843-0.74-11.34-1.461-12.218-1.599 &#9;&#9;&#9;c-2.239-0.353-4.796-0.681-8.553-1.095l-3.232-0.357l1.458-8.589c0.801-4.723,1.597-9.365,1.769-10.317 &#9;&#9;&#9;c0.171-0.95,0.42-2.388,0.553-3.191c0.133-0.805,0.852-5.088,1.597-9.518c0.744-4.43,1.354-8.229,1.354-8.444 &#9;&#9;&#9;c0-0.341,6.879,0.026,9.439,0.503c0.516,0.097,2.612,0.336,4.661,0.534c2.049,0.197,4.323,0.443,5.055,0.547 &#9;&#9;&#9;c0.732,0.104,2.767,0.34,4.523,0.525c1.756,0.186,4.029,0.442,5.055,0.571c3.317,0.416,15.621,1.851,18.356,2.143 &#9;&#9;&#9;c1.463,0.154,3.498,0.38,4.523,0.501c1.024,0.12,3.179,0.373,4.789,0.562c1.609,0.188,3.063,0.561,3.229,0.83 &#9;&#9;&#9;c0.168,0.27,0.365,4.376,0.439,9.126c0.075,4.75,0.217,9.476,0.315,10.5c0.155,1.612,0.808,14.763,1.004,20.22 &#9;&#9;&#9;c0.062,1.748-0.039,1.865-1.653,1.915C1447.353,1011.309,1446.516,1011.276,1446.438,1011.205z"/> 		<path id="US-NE" fill="#81A6D8" d="M1451.617,1094.947c-2.049-0.205-5.16-0.518-6.918-0.693 &#9;&#9;&#9;c-1.755-0.176-6.424-0.676-10.375-1.111c-3.951-0.435-8.381-0.913-9.844-1.063c-1.463-0.148-3.498-0.375-4.522-0.504 &#9;&#9;&#9;c-2.376-0.297-5.269-0.612-12.238-1.341c-3.072-0.32-6.186-0.673-6.917-0.784c-1.142-0.171-8.805-0.946-10.376-1.048 &#9;&#9;&#9;c-0.741-0.049-0.52-4.434,0.565-11.198c0.438-2.729,1.23-2.475-16.793-5.393c-0.731-0.119-1.94-0.339-2.688-0.489l-1.357-0.274 &#9;&#9;&#9;l2.117-12.618c1.164-6.939,2.185-12.709,2.268-12.818c0.122-0.162,12.438,1.304,19.614,2.335c0.878,0.126,4.709,0.61,8.513,1.076 &#9;&#9;&#9;c3.805,0.467,7.516,0.937,8.247,1.046c0.731,0.108,2.624,0.353,4.204,0.544c1.581,0.19,3.258,0.42,3.726,0.51 &#9;&#9;&#9;s2.406,0.325,4.309,0.522c5.228,0.544,7.081,1.172,8.805,2.988c1.533,1.615,1.658,1.647,5.19,1.342 &#9;&#9;&#9;c3.05-0.264,3.971-0.133,5.853,0.828c1.229,0.628,2.833,1.302,3.564,1.499c1.123,0.301,1.338,0.686,1.383,2.474 &#9;&#9;&#9;c0.028,1.165,0.666,3.34,1.415,4.833c0.766,1.524,1.524,4.193,1.733,6.092c0.204,1.856,0.439,3.736,0.523,4.174 &#9;&#9;&#9;c0.085,0.439,0.329,2.475,0.543,4.523c0.244,2.324,0.908,4.725,1.766,6.385c1.035,2.007,3.199,7.704,3.27,8.613 &#9;&#9;&#9;C1457.205,1095.503,1457.166,1095.501,1451.617,1094.947z"/> 		<path id="US-NH" fill="#81A6D8" d="M1691.987,1037.714c-0.658-0.123-1.212-0.387-1.229-0.586c-0.02-0.198-0.156-4.623-0.307-9.831 &#9;&#9;&#9;l-0.272-9.468l1.909-2.115c1.366-1.512,1.833-2.451,1.641-3.301c-1.298-5.72-1.302-5.868-0.208-7.405 &#9;&#9;&#9;c1.635-2.294,2.271-2.028,2.787,1.163c0.354,2.187,1.783,7.391,3.887,14.145c1.38,4.436,3.604,8.369,5.332,9.427 &#9;&#9;&#9;c0.382,0.234,0.694,1.039,0.694,1.787c0,1.026-0.208,1.28-0.85,1.034c-0.561-0.215-1.664,0.479-3.256,2.049 &#9;&#9;&#9;c-1.928,1.9-2.9,2.44-4.872,2.708c-1.354,0.184-2.821,0.397-3.261,0.476C1693.544,1037.874,1692.646,1037.838,1691.987,1037.714z"/> 		<path id="US-NJ" fill="#81A6D8" d="M1672.796,1095.488c-2.92-1.445-3.854-2.892-3.765-5.829c0.038-1.289-0.018-2.616-0.126-2.948 &#9;&#9;&#9;c-0.108-0.333,1.061-1.929,2.597-3.547s2.794-3.182,2.794-3.475c0-0.292-0.962-1.294-2.138-2.226 &#9;&#9;&#9;c-2.649-2.098-3.484-3.511-2.662-4.502c0.607-0.732,0.761-1.389,1.3-5.572c0.168-1.302,0.498-2.561,0.735-2.796 &#9;&#9;&#9;c0.646-0.646,8.217,2.077,9.258,3.33c0.652,0.786,0.779,1.429,0.452,2.291c-0.531,1.396-0.021,4.545,1.203,7.412 &#9;&#9;&#9;c0.475,1.11,0.752,2.666,0.62,3.459c-0.133,0.793-0.34,2.159-0.461,3.037c-0.366,2.665-4.4,10.665-5.861,11.622 &#9;&#9;&#9;C1675.104,1096.818,1675.54,1096.846,1672.796,1095.488z"/> 		<path id="US-NM" fill="#81A6D8" d="M1354.777,1197.677c-2.927-0.539-6.159-1.116-7.184-1.281 &#9;&#9;&#9;c-2.76-0.444-13.816-2.378-15.962-2.791c-1.024-0.197-4.257-0.369-7.183-0.382l-5.321-0.023l-0.168,1.464 &#9;&#9;&#9;c-0.194,1.691-0.692,1.769-4.538,0.703c-1.509-0.418-4.299-0.907-6.201-1.091c-1.902-0.182-3.997-0.464-4.656-0.628 &#9;&#9;&#9;c-2.339-0.58-3.775,0.221-4.455,2.484c-0.618,2.065-0.701,2.122-3.017,2.122c-3.044,0-6.496-1.026-6.496-1.934 &#9;&#9;&#9;c0-0.719,3.565-16.814,6.467-29.193c0.891-3.804,1.725-7.48,1.854-8.168c0.128-0.688,0.606-2.843,1.063-4.789 &#9;&#9;&#9;c0.456-1.945,0.923-4.016,1.039-4.601c0.116-0.586,1.737-7.769,3.604-15.964l3.393-14.898l1.534,0.039 &#9;&#9;&#9;c0.843,0.021,2.371,0.19,3.396,0.378c6.237,1.145,30.198,5.763,30.861,5.948c0.439,0.124,1.636,0.348,2.661,0.5 &#9;&#9;&#9;c2.451,0.364,20.837,3.909,24.09,4.645c2.467,0.559,2.534,0.624,2.262,2.249c-0.154,0.92-0.375,2.271-0.492,3.002 &#9;&#9;&#9;c-0.116,0.732-0.355,2.169-0.532,3.193c-0.479,2.794-0.795,4.696-1.408,8.514c-0.676,4.204-0.911,5.635-1.271,7.735 &#9;&#9;&#9;c-0.153,0.891-1.712,10.348-3.465,21.018c-3.989,24.273-3.732,22.871-4.177,22.795 &#9;&#9;&#9;C1360.267,1198.689,1357.703,1198.218,1354.777,1197.677z"/> 		<path id="US-NV" fill="#81A6D8" d="M1236.493,1122.549c-0.943-1.819-2.866-5.464-4.271-8.098 &#9;&#9;&#9;c-1.407-2.634-4.314-8.142-6.46-12.238s-4.075-7.688-4.288-7.981c-0.212-0.292-1.885-3.405-3.718-6.918 &#9;&#9;&#9;c-1.833-3.511-4.049-7.701-4.926-9.311c-0.876-1.609-2.669-4.961-3.984-7.449c-1.314-2.487-3.354-6.319-4.531-8.514 &#9;&#9;&#9;c-3.613-6.735-3.827-5.197,3.644-26.26c3.637-10.256,6.828-18.861,7.091-19.125c0.479-0.479,5.243,1.081,20.009,6.553 &#9;&#9;&#9;c4.097,1.519,11.28,3.952,15.963,5.407c4.683,1.456,11.117,3.455,14.298,4.443c3.181,0.987,5.863,1.876,5.961,1.974 &#9;&#9;&#9;c0.152,0.151-17.393,61.088-18.883,65.584c-0.291,0.879-0.634,2.195-0.761,2.927c-0.128,0.731-0.931,3.126-1.782,5.32 &#9;&#9;&#9;c-1.645,4.237-1.427,4.092-5.273,3.56c-3.01-0.417-5.428,3.971-5.517,10.009C1239.01,1126.089,1238.344,1126.12,1236.493,1122.549 &#9;&#9;&#9;z"/> 		<path id="US-NY" fill="#81A6D8" d="M1683.172,1071.96c-0.121-0.334-0.108-1.345,0.028-2.244c0.399-2.62-1.433-4.116-7.438-6.072 &#9;&#9;&#9;c-5.37-1.749-5.923-2.142-10.432-7.384l-1.996-2.321l-9.019,1.4c-4.96,0.77-9.618,1.502-10.349,1.625 &#9;&#9;&#9;c-0.731,0.125-6.119,0.968-11.973,1.874c-5.853,0.906-11.031,1.764-11.506,1.908c-0.567,0.17-0.971-0.14-1.17-0.9 &#9;&#9;&#9;c-0.301-1.153,1.217-3.275,5.892-8.241c0.951-1.012,1.729-2.077,1.729-2.369c0-0.293-0.598-1.714-1.33-3.157 &#9;&#9;&#9;c-1.575-3.111-1.641-3.719-0.399-3.742c0.513-0.009,1.364-0.345,1.894-0.746c0.695-0.526,3.021-0.749,8.404-0.804 &#9;&#9;&#9;c8.095-0.081,8.996-0.271,11.567-2.435c2.727-2.295,3.397-4.472,2.527-8.202l-0.722-3.094l3.112-3.6 &#9;&#9;&#9;c1.712-1.979,3.631-4.344,4.265-5.254c0.635-0.911,2.425-2.673,3.979-3.916l2.823-2.262l4.42,0.099 &#9;&#9;&#9;c2.433,0.054,4.939-0.075,5.571-0.287c0.969-0.325,1.234-0.112,1.702,1.365c0.851,2.688,1.2,5.142,1.318,9.251 &#9;&#9;&#9;c0.092,3.183,0.321,4.013,1.491,5.403c2.703,3.214,5.01,15.103,4.59,23.667c-0.185,3.771-0.044,6.205,0.454,7.857 &#9;&#9;&#9;c0.398,1.316,0.726,3.053,0.729,3.857s0.24,1.464,0.524,1.464c0.332,0,0.34,0.473,0.021,1.312 &#9;&#9;&#9;c-0.314,0.827-0.311,1.428,0.013,1.626c0.281,0.176,0.512,0.103,0.512-0.161c0-0.668,2.567-1.792,4.789-2.095 &#9;&#9;&#9;c1.023-0.141,2.58-0.789,3.458-1.443c2.346-1.748,5.14-2.622,5.667-1.772c0.262,0.423-0.118,1.146-1.028,1.954 &#9;&#9;&#9;c-0.796,0.704-2.295,2.082-3.333,3.061C1691.766,1069.249,1683.514,1072.905,1683.172,1071.96z"/> 		<path id="US-OH" fill="#81A6D8" d="M1593.704,1113.402c-0.985-1.19-1.291-1.247-5.35-0.972c-5.389,0.366-9.6-0.481-11.517-2.318 &#9;&#9;&#9;c-0.957-0.916-2.234-1.459-3.864-1.644c-2.385-0.269-2.437-0.313-2.472-2.2c-0.021-1.06-0.129-3.842-0.242-6.184 &#9;&#9;&#9;c-0.113-2.34-0.337-7.171-0.497-10.733c-0.16-3.562-0.435-8.889-0.609-11.839c-0.256-4.294-0.176-5.372,0.399-5.415 &#9;&#9;&#9;c0.396-0.028,1.318-0.112,2.05-0.187s3.725-0.312,6.651-0.528c2.926-0.219,5.441-0.411,5.586-0.43 &#9;&#9;&#9;c0.147-0.021,1.687,0.639,3.422,1.462c3.359,1.595,6.276,1.836,7.696,0.638c0.47-0.397,1.952-1.126,3.292-1.62 &#9;&#9;&#9;c1.341-0.493,2.897-1.314,3.459-1.823c3.454-3.135,8.687-6.462,8.781-5.586c0.909,8.371,0.803,20.635-0.252,28.879 &#9;&#9;&#9;c-0.057,0.438-0.567,2.077-1.135,3.642c-0.838,2.307-1.461,3.093-3.304,4.174c-2.608,1.528-4.109,3.424-4.635,5.851 &#9;&#9;&#9;c-0.284,1.314-0.719,1.772-1.929,2.038c-1.139,0.25-1.641,0.729-1.852,1.764c-0.379,1.874-1.438,3.959-2.104,4.146 &#9;&#9;&#9;C1594.987,1114.597,1594.279,1114.096,1593.704,1113.402z"/> 		<path id="US-OK" fill="#81A6D8" d="M1458.496,1183.819c-2.299-1.249-4.471-2.043-5.586-2.04 &#9;&#9;&#9;c-1.004,0.002-5.656,0.139-10.338,0.303c-7.197,0.252-8.885,0.16-10.908-0.6c-1.316-0.494-3.232-1.026-4.257-1.182 &#9;&#9;&#9;c-1.114-0.169-2.79-1.098-4.169-2.313c-1.738-1.528-2.919-2.102-4.789-2.325c-4.98-0.595-7.255-1.358-8.688-2.919 &#9;&#9;&#9;c-0.839-0.909-2.658-1.934-4.438-2.494l-3.019-0.951l0.302-2.681c0.165-1.476,0.436-4.358,0.601-6.407s0.404-4.563,0.532-5.586 &#9;&#9;&#9;c0.126-1.025,0.368-3.778,0.538-6.119c0.169-2.342,0.428-4.894,0.576-5.67c0.309-1.617-0.036-1.931-2.524-2.292 &#9;&#9;&#9;c-2.89-0.419-17.873-2.376-23.075-3.014c-6.669-0.817-6.316-0.61-5.921-3.492c0.187-1.361,0.401-2.537,0.477-2.612 &#9;&#9;&#9;c0.075-0.076,1.81,0.18,3.855,0.567c2.045,0.389,5.634,0.858,7.975,1.046c2.341,0.187,5.334,0.441,6.651,0.565 &#9;&#9;&#9;c1.317,0.126,3.951,0.363,5.854,0.528c1.902,0.166,4.536,0.406,5.853,0.533c1.317,0.129,3.951,0.37,5.854,0.537 &#9;&#9;&#9;c1.902,0.168,4.536,0.406,5.853,0.531s4.19,0.368,6.385,0.54c2.195,0.172,4.829,0.409,5.854,0.525s3.658,0.355,5.853,0.532 &#9;&#9;&#9;c2.195,0.176,4.829,0.414,5.853,0.531c1.025,0.115,3.897,0.36,6.385,0.543c2.488,0.184,5.122,0.418,5.854,0.521 &#9;&#9;&#9;s3.366,0.351,5.854,0.548c2.487,0.199,4.553,0.396,4.59,0.439c0.271,0.307,0.791,15.801,0.727,21.626 &#9;&#9;&#9;c-0.156,14.154-0.399,23.992-0.595,24.157C1462.349,1185.788,1460.565,1184.943,1458.496,1183.819z"/> 		<path id="US-OR" fill="#81A6D8" d="M1227.608,1018.644c-7.609-2.775-16.348-5.979-19.421-7.119 &#9;&#9;&#9;c-8.457-3.139-29.407-10.724-33.521-12.135c-1.317-0.452-2.478-0.891-2.581-0.975c-0.102-0.085,0.069-0.947,0.379-1.919 &#9;&#9;&#9;c0.311-0.971,0.676-2.743,0.812-3.939c0.586-5.187,1.809-7.807,5.559-11.926c1.999-2.195,4.643-5.667,5.875-7.715 &#9;&#9;&#9;c2.542-4.223,12.835-24.965,12.835-25.863c0-0.351,0.376-0.435,0.932-0.209c0.512,0.21,1.694,0.603,2.625,0.871 &#9;&#9;&#9;c1.642,0.474,4.34,3.085,4.505,4.356c0.044,0.345,0.136,0.864,0.205,1.156c0.068,0.294,0.151,1.386,0.186,2.428 &#9;&#9;&#9;c0.087,2.706,1.508,3.939,5.457,4.74c1.861,0.377,5.419,1.583,7.906,2.681c2.488,1.097,5.6,2.172,6.917,2.388 &#9;&#9;&#9;c1.317,0.217,2.754,0.458,3.192,0.534c0.439,0.078,3.169,0.313,6.067,0.521c6.059,0.438,7.642,0.827,17.029,4.198 &#9;&#9;&#9;c3.778,1.355,6.91,2.465,6.962,2.465c0.051,0,0.129,0.299,0.172,0.665c0.042,0.365,0.354,2.157,0.692,3.98l0.613,3.314 &#9;&#9;&#9;l-1.934,2.141c-1.063,1.177-1.934,2.347-1.934,2.599c0,0.829-2.892,3.678-4.593,4.524c-1.98,0.986-2.431,2.404-1.893,5.952 &#9;&#9;&#9;c0.55,3.621,0.557,3.59-1.177,5.195c-1.186,1.1-1.593,2.014-1.757,3.956c-0.202,2.379-5.438,18.23-6.01,18.195 &#9;&#9;&#9;C1241.562,1023.696,1235.217,1021.417,1227.608,1018.644z"/> 		<path id="US-PA" fill="#81A6D8" d="M1615.865,1093.599c-0.279-0.529-0.819-2.76-1.203-4.954c-0.778-4.46-0.836-4.734-1.025-4.922 &#9;&#9;&#9;c-0.24-0.237-0.392-2.131-0.775-9.71c-0.206-4.098-0.448-8.299-0.537-9.337c-0.133-1.553,0.088-2.045,1.241-2.773 &#9;&#9;&#9;c0.771-0.488,1.94-1.284,2.6-1.77c1.169-0.862,1.206-0.843,1.54,0.83l0.343,1.713l2.903-0.363 &#9;&#9;&#9;c1.598-0.198,3.419-0.451,4.047-0.561c0.629-0.109,2.7-0.441,4.602-0.739c1.903-0.296,4.417-0.694,5.588-0.884 &#9;&#9;&#9;c1.171-0.19,7.824-1.231,14.787-2.315l12.66-1.972l1.84,2.036c1.012,1.12,1.84,2.268,1.84,2.548c0,0.282,0.837,1.08,1.859,1.775 &#9;&#9;&#9;s1.756,1.367,1.628,1.495c-0.269,0.268-0.675,2.353-1.157,5.938c-0.188,1.396-0.551,2.668-0.805,2.825 &#9;&#9;&#9;c-1.238,0.766-0.372,3.134,1.918,5.235l2.377,2.185l-3.189,3.259c-1.754,1.793-3.843,3.511-4.64,3.819 &#9;&#9;&#9;c-0.798,0.309-4.563,1.081-8.368,1.719c-3.803,0.638-7.395,1.238-7.98,1.337c-0.585,0.098-5.374,0.919-10.642,1.824 &#9;&#9;&#9;c-12.456,2.142-11.573,2.015-16.591,2.396C1616.863,1094.527,1616.313,1094.455,1615.865,1093.599z"/> 		<path id="US-RI" fill="#81A6D8" d="M1700.207,1054.193c-0.51-1.976-1.07-4.13-1.243-4.789c-0.29-1.095-0.135-1.198,1.818-1.198 &#9;&#9;&#9;c1.986,0,2.257,0.191,3.88,2.72c1.336,2.082,1.619,2.925,1.203,3.593c-0.543,0.872-3.762,3.266-4.395,3.266 &#9;&#9;&#9;C1701.287,1057.784,1700.718,1056.168,1700.207,1054.193z"/> 		<path id="US-SC" fill="#81A6D8" d="M1623.147,1203.278c-0.741-0.388-1.927-1.796-2.635-3.131 &#9;&#9;&#9;c-0.708-1.333-1.434-2.424-1.614-2.424c-0.74,0-3.132-2.876-3.132-3.765c0-0.527-0.898-2.042-1.997-3.365 &#9;&#9;&#9;c-1.097-1.323-2.708-3.33-3.581-4.458c-0.874-1.129-2.908-3.099-4.523-4.375c-1.614-1.279-4.133-3.856-5.596-5.729 &#9;&#9;&#9;c-1.463-1.874-3.515-3.847-4.558-4.386c-2.48-1.281-3.182-2.184-2.807-3.616c0.339-1.294,2.898-2.604,9.014-4.616 &#9;&#9;&#9;c6.415-2.111,17.771-1.571,17.771,0.844c0,0.37,2.238,0.507,6.593,0.405c5.165-0.12,6.805,0.014,7.566,0.625 &#9;&#9;&#9;c0.534,0.427,1.338,1.061,1.786,1.408c0.449,0.347,2.253,1.811,4.008,3.252c1.756,1.443,4.271,3.163,5.588,3.824 &#9;&#9;&#9;c1.316,0.662,2.493,1.292,2.613,1.4c0.12,0.109-0.74,1.336-1.91,2.729c-2.607,3.1-3.12,4.067-3.598,6.786 &#9;&#9;&#9;c-0.256,1.46-0.989,2.719-2.332,4.004c-1.076,1.029-2.915,3.014-4.086,4.407c-1.17,1.395-4.175,4.414-6.676,6.711 &#9;&#9;&#9;C1624.687,1203.81,1624.439,1203.955,1623.147,1203.278z"/> 		<path id="US-SD" fill="#81A6D8" d="M1443.69,1055.314c-2.192-1.139-3.121-1.317-5.854-1.115c-3.047,0.226-3.382,0.13-5.438-1.525 &#9;&#9;&#9;c-2.219-1.785-3.952-2.242-11.909-3.135c-1.608-0.181-3.284-0.419-3.725-0.527c-0.438-0.109-2.234-0.348-3.99-0.53 &#9;&#9;&#9;c-1.755-0.183-3.791-0.417-4.522-0.521c-0.732-0.104-2.407-0.323-3.725-0.485c-1.317-0.164-3.352-0.419-4.522-0.564 &#9;&#9;&#9;c-1.171-0.146-4.762-0.619-7.981-1.05c-3.219-0.43-7.289-0.945-9.046-1.145c-7.334-0.831-7.987-1.007-7.878-2.116 &#9;&#9;&#9;c0.105-1.074,3.142-19.172,3.608-21.508c0.144-0.72,0.39-2.157,0.548-3.192c0.157-1.036,0.711-4.397,1.231-7.471 &#9;&#9;&#9;c0.903-5.34,1.002-5.585,2.25-5.549c1.419,0.042,7.992,0.733,9.45,0.994c1.316,0.235,5.296,0.766,8.35,1.111 &#9;&#9;&#9;c1.464,0.165,3.259,0.403,3.991,0.527c0.731,0.125,2.768,0.37,4.522,0.545c1.756,0.175,3.553,0.409,3.99,0.521 &#9;&#9;&#9;c0.44,0.111,3.912,0.586,7.716,1.053c7.027,0.861,21.037,2.693,23.943,3.131c0.879,0.131,2.265,0.259,3.078,0.282 &#9;&#9;&#9;c1.29,0.039,1.412,0.176,0.939,1.061c-0.402,0.75-0.261,1.901,0.537,4.39c0.712,2.22,0.98,4.102,0.786,5.501 &#9;&#9;&#9;c-0.478,3.432-0.796,8.047-1.062,15.389c-0.137,3.779-0.479,7.016-0.762,7.19c-0.281,0.174-0.466,2.527-0.407,5.23 &#9;&#9;&#9;C1447.929,1057.453,1447.881,1057.495,1443.69,1055.314z"/> 		<path id="US-TN" fill="#81A6D8" d="M1513.608,1167.238c0.007-1.516,1.156-4.574,2.547-6.779c1.929-3.059,3.279-6.482,3.646-9.236 &#9;&#9;&#9;c0.333-2.511,1.269-3.708,2.982-3.816c0.658-0.04,4.191-0.244,7.849-0.452c5.556-0.316,6.783-0.542,7.449-1.368 &#9;&#9;&#9;c0.727-0.9,1.998-1.019,14.1-1.311c35.376-0.854,43.354-1.121,50.416-1.689c1.976-0.159,3.592-0.133,3.592,0.058 &#9;&#9;&#9;c0,0.724-1.267,2.664-2.34,3.585c-0.615,0.527-2.856,1.78-4.981,2.783s-5.236,3.018-6.918,4.479 &#9;&#9;&#9;c-1.679,1.461-4.142,3.122-5.471,3.691c-1.329,0.568-3.125,1.904-3.99,2.967s-2.771,2.7-4.234,3.641 &#9;&#9;&#9;c-1.464,0.939-2.78,1.865-2.927,2.058c-0.571,0.753-6.537,0.999-31.393,1.298c-14.193,0.171-26.824,0.406-28.068,0.523 &#9;&#9;&#9;C1514.338,1167.811,1513.606,1167.671,1513.608,1167.238z"/> 		<path id="US-TX" fill="#81A6D8" d="M1419.476,1296.136c-2.416-1.77-3.288-2.105-5.462-2.105c-2.042,0-3.173-0.382-5.371-1.811 &#9;&#9;&#9;c-1.532-0.996-3.743-2.133-4.914-2.526c-1.171-0.395-2.434-1.124-2.805-1.622c-0.373-0.498-1.015-1.242-1.426-1.653 &#9;&#9;&#9;c-0.702-0.704-1.779-4.796-1.308-4.974c0.119-0.045-0.423-0.675-1.205-1.399c-1.249-1.157-1.464-1.861-1.769-5.771 &#9;&#9;&#9;c-0.308-3.95-0.596-4.873-2.553-8.178c-3.503-5.913-7.145-13.418-7.543-15.542c-0.536-2.855-3.246-7.927-5.134-9.604 &#9;&#9;&#9;c-0.902-0.803-2.095-2.345-2.649-3.431c-0.814-1.592-1.392-2.035-3.004-2.313c-1.098-0.188-3.314-0.631-4.924-0.984 &#9;&#9;&#9;c-4.421-0.971-7.814-0.103-9.118,2.335c-0.545,1.02-0.992,2.141-0.992,2.49c0,0.349-0.806,1.49-1.792,2.535 &#9;&#9;&#9;c-1.396,1.479-2.191,1.891-3.592,1.862c-2.54-0.053-3.105-0.366-7.123-3.953c-5.387-4.809-8.118-8.588-8.291-11.471 &#9;&#9;&#9;c-0.078-1.3-0.579-3.51-1.113-4.911c-0.534-1.4-0.97-3.255-0.97-4.121c0-1.594-1.42-3.5-6.136-8.234 &#9;&#9;&#9;c-1.179-1.185-2.566-3.041-3.081-4.127c-0.515-1.085-1.38-2.211-1.923-2.501s-1.257-1.305-1.588-2.254 &#9;&#9;&#9;c-0.331-0.948-1.199-2.349-1.929-3.11c-0.868-0.905-1.259-1.834-1.13-2.676c0.184-1.202,0.42-1.291,3.479-1.308 &#9;&#9;&#9;c1.806-0.009,5.732,0.403,8.727,0.918c5.821,0.999,7.746,1.315,10.898,1.801c1.097,0.169,2.954,0.516,4.124,0.769 &#9;&#9;&#9;c1.17,0.254,3.325,0.619,4.788,0.813c1.464,0.195,2.799,0.438,2.969,0.538c0.764,0.455,6.875,0.835,6.876,0.426 &#9;&#9;&#9;c0-0.252,0.363-2.493,0.807-4.981c0.444-2.486,0.907-5.241,1.029-6.118c0.123-0.878,1.324-8.301,2.67-16.495 &#9;&#9;&#9;s2.578-15.707,2.738-16.695s0.387-2.295,0.505-2.905c0.117-0.609,0.341-1.966,0.497-3.013c0.156-1.048,0.396-2.484,0.532-3.193 &#9;&#9;&#9;c0.136-0.707,0.397-2.254,0.579-3.437c0.182-1.183,0.408-2.509,0.5-2.948c0.093-0.438,0.188-1.059,0.21-1.377 &#9;&#9;&#9;c0.029-0.409,1.363-0.382,4.582,0.093c2.497,0.37,6.029,0.824,7.848,1.012c1.819,0.186,3.667,0.43,4.105,0.541 &#9;&#9;&#9;c0.439,0.112,2.115,0.35,3.725,0.531c1.61,0.18,4.363,0.551,6.119,0.823c1.756,0.274,3.399,0.5,3.652,0.502 &#9;&#9;&#9;s0.308,1.859,0.122,4.127c-0.712,8.726-1.938,21.724-2.132,22.595c-0.266,1.194,0.421,1.683,3.944,2.809 &#9;&#9;&#9;c1.775,0.567,3.393,1.511,4.11,2.398c1.237,1.529,4.299,2.588,8.578,2.965c2.549,0.225,5.303,1.698,6.339,3.391 &#9;&#9;&#9;c0.412,0.675,1.228,1.094,2.128,1.094c0.802,0,2.773,0.5,4.381,1.111c2.679,1.019,3.834,1.098,13.835,0.952 &#9;&#9;&#9;c11.96-0.174,11.641-0.238,16.939,3.387c1.267,0.866,3.122,1.803,4.123,2.078l1.82,0.503v11.608v11.606l1.546,3.407 &#9;&#9;&#9;c0.849,1.874,1.83,4.863,2.181,6.642c0.576,2.929,0.536,3.433-0.424,5.313c-0.584,1.145-1.231,3.635-1.439,5.535 &#9;&#9;&#9;c-0.209,1.901-0.814,4.654-1.344,6.118c-0.532,1.464-1.124,3.44-1.316,4.392c-0.274,1.348-0.622,1.729-1.574,1.729 &#9;&#9;&#9;c-2.101,0-4.951,1.506-6.957,3.673c-2.05,2.217-7.537,5.552-14.084,8.563c-3.576,1.646-6.714,3.428-7.448,4.233 &#9;&#9;&#9;c-0.146,0.161-1.464,1.231-2.927,2.38c-3.348,2.627-4.988,4.44-8.083,8.938c-2.38,3.46-2.458,3.696-2.359,7.184 &#9;&#9;&#9;c0.058,1.983,0.326,4.324,0.601,5.202c0.562,1.807,1.068,10.274,0.674,11.299 &#9;&#9;&#9;C1423.418,1298.68,1422.552,1298.386,1419.476,1296.136z"/> 		<path id="US-UT" fill="#81A6D8" d="M1273.6,1035.769c-0.401,0.007-0.588,0.213-0.715,0.648c-0.142,0.488-1.327,4.593-2.644,9.128 &#9;&#9;&#9;c-1.316,4.537-3.274,11.24-4.34,14.898c-1.066,3.659-2.761,9.525-3.774,13.036c-1.015,3.513-2.694,9.259-3.725,12.771 &#9;&#9;&#9;c-1.031,3.511-2.081,7.104-2.328,7.98c-0.247,0.878-0.923,3.277-1.514,5.32c-0.589,2.045-1.033,3.741-0.98,3.775 &#9;&#9;&#9;s11.593,2.945,25.64,6.468c25.118,6.3,26.871,6.718,26.871,6.335c0-0.104,1.687-7.707,3.758-16.894 &#9;&#9;&#9;c2.071-9.186,3.886-17.31,4.023-18.042c0.139-0.73,0.975-4.523,1.863-8.43c0.889-3.905,1.726-7.724,1.862-8.479 &#9;&#9;&#9;c0.138-0.756,0.367-1.549,0.5-1.763s-0.784-0.555-2.029-0.766c-4.372-0.736-18.422-3.869-19.022-4.239 &#9;&#9;&#9;c-0.333-0.206-0.477-0.727-0.315-1.147c0.444-1.159,3.091-10.988,3.175-11.806c0.064-0.611-8.911-3.665-25.323-8.613 &#9;&#9;&#9;C1274.157,1035.825,1273.841,1035.765,1273.6,1035.769z M1280.202,1043.019c0.186-0.022,0.417,0.037,0.731,0.116 &#9;&#9;&#9;c1.927,0.483,3.839,2.925,3.858,4.938c0.019,1.881,1,2.312,2.145,0.931c0.874-1.053,2.122-0.105,1.746,1.33 &#9;&#9;&#9;c-0.148,0.566,0.008,1.797,0.333,2.728c0.656,1.882,0.132,2.921-1.796,3.641c-2.987,1.116-3.259,1.091-4.639-0.383 &#9;&#9;&#9;c-2.758-2.942-3.613-5.453-3.259-9.677C1279.555,1043.843,1279.643,1043.085,1280.202,1043.019z"/> 		<g id="US-VA"> 			<path fill="#81A6D8" d="M1594.467,1137.424c4.317-5.156,7-7.422,8.225-6.952c0.46,0.178,0.836,0.51,0.836,0.737 &#9;&#9;&#9;&#9;c0,0.229,0.833,0.572,1.85,0.764c1.384,0.26,3.342-0.149,7.778-1.623c5.343-1.774,5.997-2.133,6.615-3.613 &#9;&#9;&#9;&#9;c0.379-0.904,1.146-2.243,1.707-2.975c0.56-0.731,1.815-3.364,2.789-5.852c0.975-2.488,1.915-4.683,2.09-4.878 &#9;&#9;&#9;&#9;s1.275-0.5,2.445-0.678c3.588-0.544,3.839-0.728,4.216-3.091c0.292-1.82,0.888-2.702,3.248-4.806 &#9;&#9;&#9;&#9;c1.59-1.417,2.866-2.741,2.838-2.943c-0.195-1.383,0.133-1.647,1.438-1.151c2.159,0.821,3.866,0.618,4.481-0.532 &#9;&#9;&#9;&#9;c0.562-1.049,0.567-1.049,1.616,0c0.578,0.578,1.262,1.052,1.519,1.052c0.258,0,1.337,0.363,2.4,0.808 &#9;&#9;&#9;&#9;c1.912,0.799,1.924,0.823,1.057,2.146c-0.818,1.249-0.814,1.479,0.071,3.443c0.77,1.706,1.563,2.4,4.197,3.674 &#9;&#9;&#9;&#9;c1.786,0.863,3.912,1.731,4.725,1.93c1.657,0.404,2.751,1.916,1.959,2.708c-0.317,0.316,0.078,1.185,1.067,2.343 &#9;&#9;&#9;&#9;c1.242,1.452,1.577,2.358,1.594,4.32c0.019,2.091,0.284,2.72,1.687,3.99c3.388,3.067,3.655,3.393,3.655,4.436 &#9;&#9;&#9;&#9;c0,0.585-0.299,1.082-0.664,1.103c-0.982,0.06-2.883,0.409-7.051,1.3c-3.717,0.795-18.666,3.087-24.21,3.713 &#9;&#9;&#9;&#9;c-1.609,0.182-3.285,0.42-3.725,0.529c-0.438,0.109-2.147,0.344-3.797,0.521s-3.444,0.407-3.99,0.51 &#9;&#9;&#9;&#9;c-1.748,0.332-5.627,0.788-11.635,1.37c-3.219,0.312-6.81,0.67-7.98,0.793c-1.17,0.124-5.002,0.364-8.514,0.536 &#9;&#9;&#9;&#9;s-6.823,0.443-7.358,0.605C1591.087,1141.828,1592.287,1140.025,1594.467,1137.424z"/> 			<path fill="#81A6D8" d="M1668.176,1124.825c-0.456-0.737,0.242-5.167,1.195-7.587c0.434-1.101,0.67-2.456,0.523-3.013 &#9;&#9;&#9;&#9;c-0.279-1.068,0.813-1.615,3.261-1.629c0.992-0.006,1.171,0.188,0.856,0.924c-0.219,0.513-0.782,1.999-1.254,3.303 &#9;&#9;&#9;&#9;c-0.472,1.305-1.275,2.801-1.788,3.326c-1.078,1.104-1.188,1.844-0.317,2.133c0.42,0.141,0.315,0.659-0.326,1.642 &#9;&#9;&#9;&#9;C1669.33,1125.443,1668.716,1125.701,1668.176,1124.825z"/> 		</g> 		<path id="US-VT" fill="#81A6D8" d="M1682.808,1037.974c0-2.182-2.605-10.126-3.705-11.296c-0.784-0.835-1.098-2.09-1.271-5.088 &#9;&#9;&#9;c-0.125-2.188-0.377-4.577-0.558-5.31c-0.182-0.731-0.472-2.192-0.646-3.246l-0.316-1.917l4.977-1.143 &#9;&#9;&#9;c2.737-0.629,6.084-1.291,7.435-1.472l2.458-0.329l0.371,2.479c0.341,2.274,0.234,2.636-1.293,4.376l-1.665,1.896l0.166,10.852 &#9;&#9;&#9;c0.143,9.356,0.057,10.856-0.632,10.879c-0.438,0.015-1.815,0.156-3.06,0.315 &#9;&#9;&#9;C1682.954,1039.242,1682.808,1039.177,1682.808,1037.974z"/> 		<path id="US-WA" fill="#81A6D8" d="M1251.705,968.568c-7.698-2.771-11.383-3.577-18.776-4.104 &#9;&#9;&#9;c-5.599-0.398-8.696-1.139-13.067-3.124c-2.178-0.99-5.516-2.125-7.418-2.523s-3.75-1.1-4.107-1.56 &#9;&#9;&#9;c-0.356-0.459-0.656-2.047-0.665-3.526c-0.015-2.422-0.243-2.931-2.278-5.1c-1.654-1.763-2.926-2.575-4.734-3.024l-2.472-0.612 &#9;&#9;&#9;l0.448-2.002c0.549-2.446,2.954-17.561,3.655-22.968c0.281-2.166,0.823-4.132,1.203-4.367c0.8-0.494,2.222,0.339,6.023,3.533 &#9;&#9;&#9;c2.292,1.924,8.571,4.736,10.642,4.766c0.293,0.004,0.457-0.749,0.364-1.675c-0.128-1.278,1.392-6.183,2.333-7.527 &#9;&#9;&#9;c0.063-0.09,1.517,0.42,3.232,1.133c1.714,0.713,12.456,4.833,23.868,9.153c11.414,4.322,20.843,7.936,20.955,8.028 &#9;&#9;&#9;c0.112,0.094-0.886,3.231-2.217,6.973c-1.331,3.741-3.785,10.634-5.455,15.315c-2.079,5.831-3.142,9.697-3.371,12.271 &#9;&#9;&#9;l-0.335,3.758L1251.705,968.568z"/> 		<path id="US-WI" fill="#81A6D8" d="M1515.44,1060.977c-10.634-0.354-10.879-0.505-11.652-7.18 &#9;&#9;&#9;c-0.793-6.841-2.92-13.13-4.735-13.996c-0.63-0.301-3.515-2.717-6.412-5.369l-5.268-4.824l0.014-6.514 &#9;&#9;&#9;c0.012-5.646,0.138-6.588,0.949-7.063c3.1-1.814,3.985-3.021,4.049-5.518c0.1-3.948,0.607-5.567,1.799-5.729 &#9;&#9;&#9;c1.918-0.262,10.083-2.895,10.607-3.42c0.877-0.876,1.278-0.569,1.121,0.856c-0.115,1.051,0.166,1.489,1.206,1.886 &#9;&#9;&#9;c1.69,0.643,3.571,2.503,4.035,3.992c0.278,0.895,1.425,1.433,5.525,2.592c6.282,1.776,13.811,4.439,15.354,5.433 &#9;&#9;&#9;c1.69,1.088,4.811,6.493,5.236,9.071c0.206,1.243,0.667,2.261,1.024,2.261c1.031,0,3.029-2.112,3.845-4.065 &#9;&#9;&#9;c0.916-2.191,2.091-2.443,1.513-0.324c-0.219,0.806-0.367,2.003-0.33,2.66c0.039,0.659-0.15,1.198-0.418,1.198 &#9;&#9;&#9;c-1.103,0-2.119,1.772-2.669,4.655c-0.763,4.001-1.595,7.073-2.255,8.322c-1.431,2.708-1.91,9.736-1.197,17.523l0.381,4.163 &#9;&#9;&#9;l-6.856-0.173C1526.534,1061.321,1519.845,1061.123,1515.44,1060.977z"/> 		<path id="US-WV" fill="#81A6D8" d="M1605.717,1130.067c-3.419-1.266-9.504-8.039-9.879-10.995 &#9;&#9;&#9;c-0.147-1.176,0.218-2.179,1.334-3.653c0.846-1.117,1.544-2.582,1.552-3.256c0.011-0.882,0.52-1.435,1.815-1.976 &#9;&#9;&#9;c1.42-0.594,1.874-1.149,2.151-2.632c0.427-2.272,2.006-4.192,4.739-5.765c2.617-1.507,4.605-6.071,4.609-10.586 &#9;&#9;&#9;c0.004-4.104,0.846-4.358,1.295-0.391c0.548,4.843,1.332,5.396,7.361,5.186l4.856-0.172l0.579,2.661 &#9;&#9;&#9;c0.519,2.38,0.718,2.646,1.892,2.521c0.722-0.076,2.653-1.077,4.293-2.225c3.573-2.5,8.618-3.807,10.821-2.803 &#9;&#9;&#9;c1.555,0.708,1.655,1.104,0.637,2.495c-0.703,0.962-0.794,0.956-3.002-0.194c-2.535-1.321-2.99-1.13-3.443,1.45 &#9;&#9;&#9;c-0.302,1.728-2.553,4.181-4.555,4.966c-0.589,0.23-1.043,1.232-1.281,2.824c-0.4,2.672-0.513,2.761-3.908,3.104 &#9;&#9;&#9;c-1.256,0.127-2.345,0.32-2.42,0.432c-0.074,0.109-1.045,2.475-2.156,5.254c-1.11,2.781-2.717,6.114-3.566,7.408 &#9;&#9;&#9;c-0.851,1.294-1.548,2.519-1.548,2.723c0,0.347-2.992,1.508-8.521,3.306C1607.786,1130.265,1606.545,1130.372,1605.717,1130.067z"/> 		<path id="US-WY" fill="#81A6D8" d="M1363.024,1070.01c-2.487-0.543-6.198-1.355-8.247-1.807 &#9;&#9;&#9;c-2.049-0.449-7.795-1.674-12.771-2.719c-10.429-2.191-32.194-6.811-38.044-8.074c-2.195-0.475-4.293-0.864-4.663-0.866 &#9;&#9;&#9;c-0.37-0.001-0.563-0.38-0.427-0.844s0.627-2.399,1.093-4.302c0.466-1.901,1.072-4.057,1.346-4.789 &#9;&#9;&#9;c0.274-0.731,0.62-2.064,0.768-2.962c0.272-1.656,1.875-8.513,5.587-23.908c1.129-4.683,2.325-9.858,2.657-11.503 &#9;&#9;&#9;c0.332-1.644,0.906-3.403,1.277-3.91c0.741-1.015,0.621-1.034,26.948,4.51c8.095,1.705,20.877,4.387,26.339,5.526 &#9;&#9;&#9;c0.293,0.062,3.243,0.68,6.557,1.375l6.025,1.264l-0.243,1.901c-0.133,1.046-1.72,10.521-3.524,21.057 &#9;&#9;&#9;c-1.805,10.535-3.379,19.754-3.497,20.484c-0.386,2.381-0.757,4.47-1.313,7.39c-0.3,1.576-0.546,2.953-0.546,3.06 &#9;&#9;&#9;C1368.345,1071.16,1368.14,1071.125,1363.024,1070.01z"/> 	</g> </g> </svg>